<svg xmlns="http://www.w3.org/2000/svg" xmlns:xlink="http://www.w3.org/1999/xlink" width="50" zoomAndPan="magnify" viewBox="0 0 37.5 37.499999" height="50" preserveAspectRatio="xMidYMid meet" version="1.0"><defs><clipPath id="91ec6e199a"><path d="M 0 0 L 37.007812 0 L 37.007812 37.007812 L 0 37.007812 Z M 0 0 " clip-rule="nonzero"/></clipPath><clipPath id="318c1c585e"><path d="M 0 5.773438 L 18 5.773438 L 18 26 L 0 26 Z M 0 5.773438 " clip-rule="nonzero"/></clipPath><clipPath id="c712d5b9d0"><path d="M 16 5.773438 L 21 5.773438 L 21 19 L 16 19 Z M 16 5.773438 " clip-rule="nonzero"/></clipPath><clipPath id="a6d0744c6b"><path d="M 10 5.773438 L 37 5.773438 L 37 29.457031 L 10 29.457031 Z M 10 5.773438 " clip-rule="nonzero"/></clipPath></defs><g clip-path="url(#91ec6e199a)"><path fill="#ffffff" d="M 0 0 L 37.007812 0 L 37.007812 37.007812 L 0 37.007812 Z M 0 0 " fill-opacity="1" fill-rule="nonzero"/><path fill="#ffffff" d="M 0 0 L 37.007812 0 L 37.007812 37.007812 L 0 37.007812 Z M 0 0 " fill-opacity="1" fill-rule="nonzero"/></g><path fill="#f9ab24" d="M 18.503906 26.449219 C 15.214844 26.449219 12.542969 24.488281 12.542969 22.078125 C 12.542969 19.667969 15.214844 17.707031 18.503906 17.707031 C 21.789062 17.707031 24.464844 19.667969 24.464844 22.078125 C 24.464844 24.488281 21.789062 26.449219 18.503906 26.449219 Z M 18.503906 18.703125 C 15.765625 18.703125 13.539062 20.214844 13.539062 22.078125 C 13.539062 23.9375 15.765625 25.453125 18.503906 25.453125 C 21.242188 25.453125 23.46875 23.9375 23.46875 22.078125 C 23.46875 20.214844 21.242188 18.703125 18.503906 18.703125 Z M 18.503906 18.703125 " fill-opacity="1" fill-rule="nonzero"/><g clip-path="url(#318c1c585e)"><path fill="#f9ab24" d="M 10.886719 25.140625 C 10.863281 25.140625 10.835938 25.140625 10.808594 25.132812 L 0.957031 23.511719 C 0.777344 23.480469 0.628906 23.355469 0.566406 23.183594 C 0.191406 22.105469 0.0195312 20.058594 0.0195312 19.015625 C 0.0195312 12.078125 7.570312 6.269531 17.214844 5.796875 C 17.492188 5.785156 17.722656 5.996094 17.734375 6.269531 C 17.75 6.542969 17.539062 6.777344 17.261719 6.792969 C 8.152344 7.242188 1.015625 12.609375 1.015625 19.015625 C 1.015625 19.910156 1.160156 21.589844 1.425781 22.578125 L 10.96875 24.152344 C 11.242188 24.195312 11.425781 24.453125 11.378906 24.722656 C 11.339844 24.96875 11.128906 25.140625 10.886719 25.140625 Z M 10.886719 25.140625 " fill-opacity="1" fill-rule="nonzero"/></g><path fill="#f9ab24" d="M 5.757812 21.136719 C 5.488281 21.136719 5.269531 20.925781 5.257812 20.65625 C 5.253906 20.554688 5.253906 20.457031 5.253906 20.363281 C 5.253906 15.441406 10.375 11.363281 17.164062 10.875 C 17.441406 10.859375 17.675781 11.0625 17.695312 11.335938 C 17.714844 11.609375 17.511719 11.847656 17.234375 11.867188 C 10.972656 12.320312 6.25 15.972656 6.25 20.363281 C 6.25 20.449219 6.253906 20.535156 6.253906 20.621094 C 6.265625 20.898438 6.050781 21.128906 5.773438 21.136719 C 5.769531 21.136719 5.761719 21.136719 5.757812 21.136719 Z M 5.757812 21.136719 " fill-opacity="1" fill-rule="nonzero"/><g clip-path="url(#c712d5b9d0)"><path fill="#f9ab24" d="M 17.238281 18.808594 C 16.964844 18.808594 16.742188 18.585938 16.742188 18.308594 L 16.742188 6.3125 C 16.742188 6.039062 16.960938 5.816406 17.234375 5.816406 L 19.765625 5.796875 C 20.042969 5.777344 20.265625 6.015625 20.265625 6.289062 C 20.269531 6.566406 20.046875 6.789062 19.773438 6.792969 L 17.738281 6.808594 L 17.738281 18.308594 C 17.738281 18.585938 17.515625 18.808594 17.238281 18.808594 Z M 17.238281 18.808594 " fill-opacity="1" fill-rule="nonzero"/></g><path fill="#f9ab24" d="M 13.039062 22.367188 C 13.011719 22.367188 12.984375 22.367188 12.957031 22.359375 L 0.464844 20.253906 C 0.191406 20.207031 0.0117188 19.949219 0.0546875 19.679688 C 0.101562 19.40625 0.359375 19.226562 0.628906 19.269531 L 13.121094 21.378906 C 13.394531 21.421875 13.578125 21.679688 13.53125 21.953125 C 13.492188 22.195312 13.28125 22.367188 13.039062 22.367188 Z M 13.039062 22.367188 " fill-opacity="1" fill-rule="nonzero"/><g clip-path="url(#a6d0744c6b)"><path fill="#f9ab24" d="M 18.503906 29.378906 C 14.664062 29.378906 11.339844 27.496094 10.417969 24.804688 C 10.328125 24.542969 10.464844 24.261719 10.726562 24.171875 C 10.984375 24.082031 11.269531 24.21875 11.359375 24.480469 C 12.136719 26.742188 15.140625 28.382812 18.503906 28.382812 C 21.867188 28.382812 24.871094 26.742188 25.648438 24.480469 C 25.707031 24.304688 25.855469 24.179688 26.039062 24.148438 L 35.582031 22.578125 C 35.847656 21.589844 35.992188 19.910156 35.992188 19.015625 C 35.992188 12.734375 29.125 7.449219 20.265625 6.824219 L 20.265625 18.316406 C 20.265625 18.589844 20.042969 18.8125 19.769531 18.8125 C 19.492188 18.8125 19.269531 18.589844 19.269531 18.316406 L 19.269531 6.292969 C 19.269531 6.15625 19.324219 6.027344 19.425781 5.933594 C 19.523438 5.839844 19.652344 5.792969 19.792969 5.796875 C 29.433594 6.269531 36.988281 12.078125 36.988281 19.015625 C 36.988281 20.058594 36.8125 22.105469 36.4375 23.183594 C 36.378906 23.355469 36.230469 23.480469 36.046875 23.511719 L 26.484375 25.085938 C 25.429688 27.628906 22.203125 29.378906 18.503906 29.378906 Z M 18.503906 29.378906 " fill-opacity="1" fill-rule="nonzero"/></g><path fill="#f9ab24" d="M 31.25 21.136719 C 31.242188 21.136719 31.238281 21.136719 31.230469 21.136719 C 30.957031 21.128906 30.742188 20.898438 30.75 20.621094 C 30.753906 20.535156 30.753906 20.449219 30.753906 20.363281 C 30.753906 15.972656 26.035156 12.320312 19.769531 11.867188 C 19.496094 11.847656 19.289062 11.609375 19.308594 11.335938 C 19.328125 11.0625 19.566406 10.855469 19.84375 10.875 C 26.632812 11.363281 31.753906 15.441406 31.753906 20.363281 C 31.753906 20.457031 31.75 20.554688 31.746094 20.65625 C 31.738281 20.925781 31.515625 21.136719 31.25 21.136719 Z M 31.25 21.136719 " fill-opacity="1" fill-rule="nonzero"/><path fill="#f9ab24" d="M 23.964844 22.367188 C 23.726562 22.367188 23.515625 22.195312 23.476562 21.953125 C 23.429688 21.679688 23.613281 21.421875 23.882812 21.378906 L 36.375 19.269531 C 36.644531 19.226562 36.90625 19.40625 36.949219 19.679688 C 36.996094 19.949219 36.8125 20.207031 36.542969 20.253906 L 24.050781 22.359375 C 24.019531 22.367188 23.992188 22.367188 23.964844 22.367188 Z M 23.964844 22.367188 " fill-opacity="1" fill-rule="nonzero"/><path fill="#f9ab24" d="M 14.835938 19.707031 C 14.695312 19.707031 14.558594 19.648438 14.460938 19.535156 L 6.066406 9.882812 C 5.886719 9.675781 5.90625 9.359375 6.113281 9.179688 C 6.324219 8.996094 6.636719 9.019531 6.816406 9.226562 L 15.210938 18.878906 C 15.394531 19.085938 15.371094 19.402344 15.164062 19.582031 C 15.070312 19.664062 14.953125 19.707031 14.835938 19.707031 Z M 14.835938 19.707031 " fill-opacity="1" fill-rule="nonzero"/><path fill="#f9ab24" d="M 22.171875 19.707031 C 22.054688 19.707031 21.9375 19.664062 21.84375 19.582031 C 21.636719 19.402344 21.613281 19.085938 21.792969 18.878906 L 30.1875 9.226562 C 30.367188 9.019531 30.683594 8.996094 30.890625 9.179688 C 31.097656 9.359375 31.121094 9.675781 30.941406 9.882812 L 22.546875 19.535156 C 22.449219 19.648438 22.308594 19.707031 22.171875 19.707031 Z M 22.171875 19.707031 " fill-opacity="1" fill-rule="nonzero"/></svg>