<svg xmlns="http://www.w3.org/2000/svg" xmlns:xlink="http://www.w3.org/1999/xlink" width="50" zoomAndPan="magnify" viewBox="0 0 37.5 37.499999" height="50" preserveAspectRatio="xMidYMid meet" version="1.0"><defs><clipPath id="ddf2347192"><path d="M 0 0 L 37.007812 0 L 37.007812 37.007812 L 0 37.007812 Z M 0 0 " clip-rule="nonzero"/></clipPath><clipPath id="59ddc4c439"><path d="M 1.222656 0.667969 L 36 0.667969 L 36 35.453125 L 1.222656 35.453125 Z M 1.222656 0.667969 " clip-rule="nonzero"/></clipPath></defs><g clip-path="url(#ddf2347192)"><path fill="#ffffff" d="M 0 0 L 37.007812 0 L 37.007812 37.007812 L 0 37.007812 Z M 0 0 " fill-opacity="1" fill-rule="nonzero"/><path fill="#ffffff" d="M 0 0 L 37.007812 0 L 37.007812 37.007812 L 0 37.007812 Z M 0 0 " fill-opacity="1" fill-rule="nonzero"/></g><g clip-path="url(#59ddc4c439)"><path fill="#f9ab24" d="M 35.285156 31.9375 L 33.300781 31.9375 L 33.300781 22.859375 C 34.722656 22.496094 35.777344 21.207031 35.777344 19.675781 C 35.777344 19.621094 35.765625 19.570312 35.75 19.519531 L 33.300781 12.195312 L 33.300781 9.28125 C 33.300781 9.011719 33.082031 8.792969 32.8125 8.792969 L 26.429688 8.792969 C 26.429688 8.726562 26.433594 8.664062 26.433594 8.597656 C 26.433594 4.226562 22.871094 0.667969 18.5 0.667969 C 14.125 0.667969 10.566406 4.226562 10.566406 8.597656 C 10.566406 8.664062 10.566406 8.726562 10.566406 8.792969 L 4.183594 8.792969 C 3.914062 8.792969 3.695312 9.011719 3.695312 9.28125 L 3.695312 12.195312 L 1.246094 19.519531 C 1.230469 19.570312 1.222656 19.621094 1.222656 19.675781 C 1.222656 21.207031 2.273438 22.496094 3.695312 22.859375 L 3.695312 31.9375 L 1.710938 31.9375 C 1.441406 31.9375 1.222656 32.15625 1.222656 32.425781 L 1.222656 34.730469 C 1.222656 35 1.441406 35.222656 1.710938 35.222656 L 35.285156 35.222656 C 35.558594 35.222656 35.777344 35 35.777344 34.730469 L 35.777344 32.425781 C 35.777344 32.15625 35.558594 31.9375 35.285156 31.9375 Z M 32.324219 29.429688 L 26.550781 29.429688 L 26.550781 24.925781 L 32.324219 24.925781 Z M 32.488281 21.984375 C 31.382812 21.984375 30.457031 21.203125 30.234375 20.164062 L 34.742188 20.164062 C 34.519531 21.203125 33.59375 21.984375 32.488281 21.984375 Z M 8.199219 12.765625 L 6.90625 19.1875 L 2.390625 19.1875 L 4.539062 12.765625 Z M 12.910156 14.222656 L 12.457031 19.1875 L 7.90625 19.1875 L 9.199219 12.765625 L 11.75 12.765625 C 12.078125 13.296875 12.46875 13.785156 12.910156 14.222656 Z M 25.246094 12.765625 L 27.800781 12.765625 L 29.09375 19.1875 L 24.542969 19.1875 L 24.085938 14.222656 C 24.527344 13.785156 24.917969 13.296875 25.246094 12.765625 Z M 32.460938 12.765625 L 34.605469 19.1875 L 30.089844 19.1875 L 28.796875 12.765625 Z M 23.175781 15.003906 L 23.558594 19.1875 L 18.988281 19.1875 L 18.988281 16.515625 C 20.546875 16.421875 21.984375 15.875 23.175781 15.003906 Z M 18.007812 19.1875 L 13.4375 19.1875 L 13.824219 15.003906 C 15.011719 15.875 16.449219 16.421875 18.007812 16.515625 Z M 12.359375 20.164062 C 12.136719 21.203125 11.210938 21.984375 10.105469 21.984375 C 9 21.984375 8.074219 21.203125 7.847656 20.164062 Z M 17.957031 20.164062 C 17.730469 21.203125 16.804688 21.984375 15.699219 21.984375 C 14.597656 21.984375 13.671875 21.203125 13.445312 20.164062 Z M 23.550781 20.164062 C 23.328125 21.203125 22.402344 21.984375 21.296875 21.984375 C 20.191406 21.984375 19.265625 21.203125 19.042969 20.164062 Z M 29.148438 20.164062 C 28.921875 21.203125 27.996094 21.984375 26.890625 21.984375 C 25.789062 21.984375 24.863281 21.203125 24.636719 20.164062 Z M 32.324219 9.769531 L 32.324219 11.785156 L 25.761719 11.785156 C 26.042969 11.152344 26.238281 10.476562 26.34375 9.769531 Z M 18.5 1.644531 C 22.332031 1.644531 25.453125 4.765625 25.453125 8.597656 C 25.453125 12.433594 22.332031 15.554688 18.5 15.554688 C 14.664062 15.554688 11.542969 12.433594 11.542969 8.597656 C 11.542969 4.765625 14.664062 1.644531 18.5 1.644531 Z M 10.652344 9.769531 C 10.757812 10.476562 10.957031 11.152344 11.234375 11.785156 L 4.675781 11.785156 L 4.675781 9.769531 Z M 2.253906 20.164062 L 6.765625 20.164062 C 6.539062 21.203125 5.613281 21.984375 4.507812 21.984375 C 3.402344 21.984375 2.480469 21.203125 2.253906 20.164062 Z M 4.675781 24.925781 L 10.445312 24.925781 L 10.445312 29.429688 L 4.675781 29.429688 Z M 4.675781 30.410156 L 10.9375 30.410156 C 11.207031 30.410156 11.425781 30.191406 11.425781 29.917969 L 11.425781 24.433594 C 11.425781 24.164062 11.207031 23.945312 10.9375 23.945312 L 4.675781 23.945312 L 4.675781 22.957031 C 5.785156 22.902344 6.753906 22.292969 7.308594 21.398438 C 7.886719 22.335938 8.925781 22.964844 10.105469 22.964844 C 11.285156 22.964844 12.324219 22.335938 12.902344 21.398438 C 13.484375 22.335938 14.519531 22.964844 15.699219 22.964844 C 16.882812 22.964844 17.917969 22.335938 18.5 21.398438 C 19.078125 22.335938 20.117188 22.964844 21.296875 22.964844 C 22.476562 22.964844 23.515625 22.335938 24.09375 21.398438 C 24.675781 22.335938 25.710938 22.964844 26.890625 22.964844 C 28.074219 22.964844 29.109375 22.335938 29.691406 21.398438 C 30.242188 22.292969 31.210938 22.902344 32.324219 22.957031 L 32.324219 23.945312 L 26.0625 23.945312 C 25.789062 23.945312 25.570312 24.164062 25.570312 24.433594 L 25.570312 29.917969 C 25.570312 30.191406 25.789062 30.410156 26.0625 30.410156 L 32.324219 30.410156 L 32.324219 31.9375 L 24.039062 31.9375 L 24.039062 24.433594 C 24.039062 24.164062 23.820312 23.945312 23.550781 23.945312 L 13.445312 23.945312 C 13.175781 23.945312 12.957031 24.164062 12.957031 24.433594 L 12.957031 31.9375 L 4.675781 31.9375 Z M 13.9375 31.9375 L 13.9375 24.925781 L 18.007812 24.925781 L 18.007812 31.9375 Z M 18.988281 24.925781 L 23.0625 24.925781 L 23.0625 31.9375 L 18.988281 31.9375 Z M 34.796875 34.242188 L 2.199219 34.242188 L 2.199219 32.917969 L 34.796875 32.917969 Z M 20.511719 27.917969 L 20.511719 28.941406 C 20.511719 29.210938 20.292969 29.433594 20.019531 29.433594 C 19.75 29.433594 19.53125 29.210938 19.53125 28.941406 L 19.53125 27.917969 C 19.53125 27.648438 19.75 27.429688 20.019531 27.429688 C 20.292969 27.429688 20.511719 27.648438 20.511719 27.917969 Z M 17.464844 27.917969 L 17.464844 28.941406 C 17.464844 29.210938 17.246094 29.433594 16.976562 29.433594 C 16.707031 29.433594 16.488281 29.210938 16.488281 28.941406 L 16.488281 27.917969 C 16.488281 27.648438 16.707031 27.429688 16.976562 27.429688 C 17.246094 27.429688 17.464844 27.648438 17.464844 27.917969 Z M 16.117188 13.488281 L 20.882812 13.488281 C 22.191406 13.488281 23.410156 12.691406 23.71875 11.636719 C 23.761719 11.488281 23.734375 11.328125 23.640625 11.203125 C 23.546875 11.082031 23.402344 11.007812 23.25 11.007812 L 21.84375 11.007812 C 22.601562 10.855469 23.339844 10.472656 23.863281 9.957031 C 24.5 9.332031 24.71875 8.59375 24.464844 7.933594 C 24.242188 7.34375 23.644531 7.011719 22.820312 6.992188 C 22.824219 6.914062 22.824219 6.832031 22.828125 6.753906 C 22.828125 6.621094 22.777344 6.496094 22.6875 6.402344 C 22.59375 6.308594 22.46875 6.253906 22.335938 6.253906 L 14.660156 6.253906 C 14.527344 6.253906 14.402344 6.308594 14.3125 6.402344 C 14.21875 6.496094 14.167969 6.621094 14.171875 6.753906 C 14.203125 8.65625 14.539062 10.066406 15.191406 11.007812 L 13.75 11.007812 C 13.59375 11.007812 13.449219 11.082031 13.355469 11.203125 C 13.265625 11.328125 13.234375 11.488281 13.277344 11.636719 C 13.589844 12.691406 14.808594 13.488281 16.117188 13.488281 Z M 23.550781 8.285156 C 23.699219 8.667969 23.378906 9.058594 23.175781 9.257812 C 22.960938 9.472656 22.6875 9.65625 22.390625 9.796875 C 22.5625 9.269531 22.6875 8.660156 22.757812 7.972656 C 23.21875 7.972656 23.488281 8.113281 23.550781 8.285156 Z M 15.167969 7.234375 L 21.832031 7.234375 C 21.734375 9.136719 21.277344 10.402344 20.46875 11.007812 L 16.53125 11.007812 C 15.722656 10.402344 15.261719 9.136719 15.167969 7.234375 Z M 22.335938 11.988281 C 21.988281 12.285156 21.46875 12.507812 20.882812 12.507812 L 16.117188 12.507812 C 15.527344 12.507812 15.011719 12.285156 14.660156 11.988281 Z M 16.339844 4.488281 C 16.085938 4.171875 15.855469 3.800781 16.074219 3.046875 C 16.152344 2.789062 16.421875 2.640625 16.683594 2.714844 C 16.941406 2.792969 17.089844 3.0625 17.015625 3.324219 C 16.921875 3.644531 16.964844 3.703125 17.101562 3.871094 C 17.359375 4.191406 17.585938 4.5625 17.34375 5.316406 C 17.277344 5.523438 17.085938 5.652344 16.878906 5.652344 C 16.828125 5.652344 16.777344 5.644531 16.726562 5.628906 C 16.46875 5.546875 16.328125 5.269531 16.414062 5.011719 C 16.511719 4.703125 16.476562 4.65625 16.339844 4.488281 Z M 18.121094 4.488281 C 17.867188 4.171875 17.636719 3.800781 17.855469 3.046875 C 17.933594 2.789062 18.203125 2.640625 18.464844 2.714844 C 18.722656 2.792969 18.871094 3.0625 18.796875 3.324219 C 18.703125 3.644531 18.746094 3.703125 18.882812 3.871094 C 19.140625 4.191406 19.367188 4.5625 19.125 5.316406 C 19.058594 5.523438 18.867188 5.652344 18.660156 5.652344 C 18.609375 5.652344 18.558594 5.644531 18.507812 5.628906 C 18.25 5.546875 18.109375 5.269531 18.195312 5.011719 C 18.292969 4.703125 18.257812 4.65625 18.121094 4.488281 Z M 19.902344 4.488281 C 19.648438 4.171875 19.417969 3.800781 19.636719 3.046875 C 19.714844 2.789062 19.984375 2.640625 20.246094 2.714844 C 20.503906 2.792969 20.652344 3.0625 20.578125 3.324219 C 20.484375 3.644531 20.527344 3.703125 20.664062 3.871094 C 20.921875 4.191406 21.152344 4.5625 20.90625 5.316406 C 20.839844 5.523438 20.648438 5.652344 20.441406 5.652344 C 20.390625 5.652344 20.339844 5.644531 20.289062 5.628906 C 20.03125 5.546875 19.890625 5.269531 19.976562 5.011719 C 20.074219 4.703125 20.039062 4.65625 19.902344 4.488281 Z M 19.902344 4.488281 " fill-opacity="1" fill-rule="nonzero"/></g></svg>