<svg xmlns="http://www.w3.org/2000/svg" xmlns:xlink="http://www.w3.org/1999/xlink" width="50" zoomAndPan="magnify" viewBox="0 0 37.5 37.499999" height="50" preserveAspectRatio="xMidYMid meet" version="1.0"><defs><clipPath id="76f40a2898"><path d="M 0 0 L 37.007812 0 L 37.007812 37.007812 L 0 37.007812 Z M 0 0 " clip-rule="nonzero"/></clipPath><clipPath id="5dc033c948"><path d="M 2.878906 0 L 33.960938 0 L 33.960938 36.265625 L 2.878906 36.265625 Z M 2.878906 0 " clip-rule="nonzero"/></clipPath></defs><g clip-path="url(#76f40a2898)"><path fill="#ffffff" d="M 0 0 L 37.007812 0 L 37.007812 37.007812 L 0 37.007812 Z M 0 0 " fill-opacity="1" fill-rule="nonzero"/><path fill="#ffffff" d="M 0 0 L 37.007812 0 L 37.007812 37.007812 L 0 37.007812 Z M 0 0 " fill-opacity="1" fill-rule="nonzero"/></g><g clip-path="url(#5dc033c948)"><path fill="#f9ab24" d="M 33.765625 31.554688 C 33.179688 31.328125 32.59375 31.101562 32.007812 30.871094 C 31.949219 30.847656 31.863281 30.851562 31.839844 30.757812 C 31.890625 30.734375 31.9375 30.710938 31.988281 30.683594 C 32.324219 30.5 32.332031 30.460938 32.066406 30.167969 C 31.863281 29.9375 31.730469 29.917969 31.453125 30.066406 C 31.304688 30.152344 31.144531 30.226562 31 30.316406 C 30.90625 30.371094 30.832031 30.363281 30.734375 30.324219 C 29.636719 29.867188 28.535156 29.421875 27.4375 28.96875 C 26.671875 28.65625 25.914062 28.339844 25.136719 28.015625 C 25.191406 27.949219 25.230469 27.890625 25.273438 27.839844 C 26.386719 26.457031 26.769531 24.898438 26.433594 23.160156 C 26.25 22.195312 25.785156 21.351562 25.230469 20.5625 C 24.710938 19.832031 24.375 19.046875 24.402344 18.128906 C 24.257812 18.542969 24.210938 18.964844 24.273438 19.398438 C 24.34375 19.902344 24.542969 20.367188 24.703125 20.84375 C 25.066406 21.914062 25.253906 22.996094 25.007812 24.121094 C 24.886719 24.664062 24.5625 25.277344 24.265625 25.503906 C 24.269531 25.472656 24.277344 25.449219 24.285156 25.429688 C 24.792969 24.097656 24.703125 22.808594 24.042969 21.550781 C 23.886719 21.25 23.714844 20.953125 23.582031 20.644531 C 23.066406 19.457031 23.082031 18.320312 23.925781 17.265625 C 24.105469 17.042969 24.246094 16.796875 24.347656 16.527344 C 24.746094 15.46875 24.605469 14.4375 24.160156 13.429688 C 23.976562 13.007812 23.742188 12.613281 23.417969 12.195312 C 23.457031 12.5625 23.429688 12.859375 23.398438 13.160156 C 23.308594 14.148438 22.902344 14.972656 22.09375 15.578125 C 21.535156 15.992188 20.902344 16.300781 20.390625 16.789062 C 20.429688 16.691406 20.484375 16.605469 20.539062 16.523438 C 20.933594 15.941406 21.300781 15.34375 21.578125 14.699219 C 22.171875 13.308594 22.265625 11.9375 21.453125 10.597656 C 21.023438 9.898438 20.945312 9.160156 21.152344 8.367188 C 21.265625 7.9375 21.332031 7.496094 21.171875 7.046875 C 21.074219 7.5 20.890625 7.921875 20.652344 8.316406 C 20.292969 8.902344 20.210938 9.535156 20.304688 10.207031 C 20.394531 10.820312 20.5 11.433594 20.535156 12.058594 C 20.605469 13.226562 20.386719 14.316406 19.789062 15.328125 C 19.773438 15.351562 19.765625 15.402344 19.695312 15.378906 C 19.828125 14.585938 19.839844 13.785156 19.753906 12.976562 C 19.621094 11.757812 19.253906 10.625 18.519531 9.625 C 18.261719 9.277344 17.988281 8.9375 17.734375 8.589844 C 17.242188 7.917969 16.949219 7.179688 16.949219 6.328125 C 16.949219 5.625 17.121094 4.957031 17.308594 4.289062 C 17.601562 3.246094 17.769531 2.191406 17.574219 1.109375 C 17.511719 0.75 17.433594 0.390625 17.183594 0.0234375 C 17.21875 0.347656 17.246094 0.605469 17.222656 0.863281 C 17.152344 1.574219 16.910156 2.230469 16.601562 2.863281 C 16.234375 3.613281 15.832031 4.34375 15.460938 5.09375 C 14.980469 6.058594 14.742188 7.074219 14.921875 8.160156 C 14.976562 8.496094 15.097656 8.816406 15.203125 9.175781 C 14.136719 8.132812 13.917969 7.074219 14.386719 5.246094 C 14.015625 5.695312 13.714844 6.152344 13.492188 6.664062 C 13.015625 7.777344 13.058594 8.855469 13.699219 9.894531 C 13.886719 10.203125 14.078125 10.511719 14.277344 10.816406 C 14.832031 11.671875 15.121094 12.589844 14.921875 13.621094 C 14.902344 13.722656 14.882812 13.820312 14.855469 13.917969 C 14.835938 14.007812 14.804688 14.097656 14.78125 14.1875 C 15.992188 12.988281 16 11.488281 15.863281 9.945312 C 15.894531 9.960938 15.914062 9.964844 15.917969 9.976562 C 15.953125 10.039062 15.984375 10.101562 16.015625 10.164062 C 16.511719 11.160156 16.507812 12.183594 16.179688 13.21875 C 15.886719 14.136719 15.375 14.945312 14.902344 15.769531 C 14.4375 16.582031 14.035156 17.414062 13.855469 18.335938 C 13.78125 18.726562 13.753906 19.121094 13.726562 19.519531 C 13.554688 19.226562 13.484375 18.910156 13.449219 18.582031 C 13.386719 17.96875 13.609375 17.417969 13.796875 16.855469 C 14.140625 15.828125 13.621094 14.683594 12.828125 14.035156 C 13.011719 14.535156 13.113281 15.015625 13.058594 15.519531 C 13.007812 16.011719 12.832031 16.460938 12.539062 16.859375 C 12.519531 16.214844 12.304688 15.644531 11.960938 15.121094 C 11.800781 14.871094 11.617188 14.628906 11.4375 14.390625 C 10.933594 13.730469 10.675781 13 10.753906 12.164062 C 10.777344 11.953125 10.816406 11.746094 10.851562 11.53125 C 10.757812 11.554688 10.742188 11.628906 10.703125 11.6875 C 10.433594 12.128906 10.222656 12.59375 10.109375 13.097656 C 9.851562 14.21875 9.933594 15.273438 10.765625 16.167969 C 10.960938 16.378906 11.089844 16.636719 11.1875 16.902344 C 11.476562 17.683594 11.484375 18.472656 11.289062 19.273438 C 11.191406 19.660156 11.042969 20.019531 10.816406 20.351562 C 10.871094 19.523438 10.597656 18.742188 10.554688 17.929688 C 10.492188 17.953125 10.492188 18.003906 10.476562 18.042969 C 10.324219 18.476562 10.136719 18.894531 9.929688 19.300781 C 9.613281 19.914062 9.203125 20.464844 8.828125 21.035156 C 7.613281 22.882812 7.542969 24.757812 8.671875 26.667969 C 8.988281 27.207031 9.359375 27.703125 9.804688 28.152344 C 9.738281 28.203125 9.671875 28.210938 9.601562 28.230469 C 7.824219 28.652344 6.054688 29.101562 4.273438 29.492188 C 3.699219 29.617188 3.359375 29.957031 3.105469 30.425781 C 2.949219 30.714844 2.875 31.042969 2.917969 31.382812 C 2.933594 31.488281 2.960938 31.550781 3.097656 31.527344 C 3.785156 31.40625 4.480469 31.292969 5.167969 31.171875 C 5.894531 31.046875 6.621094 30.917969 7.347656 30.789062 C 7.015625 30.976562 6.675781 31.125 6.304688 31.207031 C 5.273438 31.429688 4.246094 31.671875 3.214844 31.902344 C 3.027344 31.941406 2.988281 32.011719 3.113281 32.167969 C 3.320312 32.425781 3.519531 32.6875 3.71875 32.953125 C 3.78125 33.035156 3.84375 33.054688 3.945312 33.039062 C 4.324219 32.980469 4.707031 32.929688 5.089844 32.875 C 5.507812 32.820312 5.925781 32.765625 6.34375 32.710938 C 6.285156 32.816406 6.207031 32.882812 6.128906 32.941406 C 5.753906 33.242188 5.375 33.535156 5 33.839844 C 4.789062 34.011719 4.792969 34.085938 4.992188 34.277344 C 5.179688 34.457031 5.386719 34.609375 5.617188 34.738281 C 5.722656 34.800781 5.8125 34.808594 5.914062 34.730469 C 6.089844 34.597656 6.273438 34.476562 6.457031 34.351562 C 7.019531 33.964844 7.558594 33.539062 8.148438 33.183594 C 8.542969 32.855469 8.992188 32.605469 9.417969 32.316406 C 9.1875 32.882812 8.613281 32.953125 8.15625 33.195312 C 8.089844 33.257812 8.019531 33.324219 7.953125 33.386719 C 7.714844 33.601562 7.519531 33.847656 7.417969 34.152344 C 7.367188 34.296875 7.339844 34.441406 7.578125 34.421875 C 7.679688 34.417969 7.75 34.488281 7.824219 34.546875 C 8.1875 34.839844 8.457031 35.207031 8.675781 35.609375 C 8.894531 36.011719 9.210938 36.089844 9.582031 35.8125 C 9.996094 35.5 10.402344 35.167969 10.8125 34.855469 C 12.460938 33.589844 14.105469 32.332031 15.75 31.070312 C 16.210938 30.714844 16.277344 30.386719 16 29.875 C 15.761719 29.433594 15.425781 29.089844 14.949219 28.851562 C 15.179688 28.683594 15.394531 28.519531 15.609375 28.367188 C 15.75 28.269531 15.808594 28.144531 15.757812 27.980469 C 15.605469 27.492188 15.378906 27.042969 14.972656 26.714844 C 14.652344 26.457031 14.523438 26.460938 14.195312 26.703125 C 13.011719 27.582031 11.828125 28.464844 10.644531 29.34375 C 10.441406 29.492188 10.238281 29.640625 10.03125 29.789062 C 10.285156 29.472656 10.609375 29.238281 10.855469 28.902344 C 10.199219 28.75 9.742188 28.710938 9.421875 28.785156 C 8.660156 28.953125 7.898438 29.125 7.136719 29.292969 C 6.65625 29.398438 6.175781 29.5 5.691406 29.601562 C 5.722656 29.550781 5.761719 29.53125 5.804688 29.519531 C 7.386719 29.082031 8.972656 28.652344 10.554688 28.210938 C 11.179688 28.039062 11.71875 27.617188 12.410156 27.554688 C 11.375 25.886719 10.699219 24.183594 11.300781 22.21875 C 11.417969 23.21875 11.933594 23.957031 12.792969 24.53125 C 12.40625 23.492188 12.851562 22.601562 13.136719 21.671875 C 13.746094 22.652344 14.199219 23.113281 14.628906 23.175781 C 14.0625 22.511719 13.734375 21.761719 13.722656 20.878906 C 14.054688 21.542969 14.648438 21.792969 15.324219 21.914062 C 15.480469 21.941406 15.554688 21.925781 15.484375 21.730469 C 15.34375 21.328125 15.269531 20.90625 15.246094 20.480469 C 15.160156 19 15.542969 17.625 16.179688 16.304688 C 16.261719 16.144531 16.316406 15.964844 16.441406 15.839844 C 15.960938 18.007812 16.207031 20.050781 17.433594 21.941406 C 17.433594 21.863281 17.410156 21.792969 17.394531 21.71875 C 16.886719 19.816406 16.941406 17.949219 17.769531 16.128906 C 18.160156 15.273438 18.707031 14.496094 19.007812 13.570312 C 19.066406 13.683594 19.046875 13.78125 19.050781 13.867188 C 19.082031 14.730469 19.015625 15.59375 18.761719 16.417969 C 18.375 17.6875 18.328125 18.945312 18.757812 20.207031 C 18.886719 20.589844 19.015625 20.976562 19.214844 21.378906 C 19.441406 19.519531 20.394531 17.839844 21.617188 17.097656 C 21.644531 17.132812 21.613281 17.15625 21.601562 17.179688 C 21.03125 18.359375 20.777344 19.605469 20.824219 20.914062 C 20.839844 21.378906 20.835938 21.84375 20.796875 22.308594 C 20.773438 22.636719 20.6875 22.953125 20.636719 23.332031 C 21.019531 23.007812 21.257812 22.636719 21.480469 22.199219 C 21.605469 23.140625 21.585938 24.015625 21.285156 24.9375 C 22.375 23.96875 22.882812 22.824219 22.851562 21.429688 C 23.171875 22.265625 23.269531 23.128906 23.179688 24.007812 C 23.078125 25.011719 22.722656 25.929688 22.222656 26.800781 C 22.148438 26.929688 22.101562 26.953125 21.960938 26.90625 C 21.523438 26.757812 21.445312 26.796875 21.171875 27.179688 C 20.871094 27.605469 20.664062 28.074219 20.550781 28.648438 C 20.203125 28.035156 19.894531 27.472656 19.5625 26.921875 C 19.4375 26.710938 19.398438 26.507812 19.429688 26.269531 C 19.511719 25.714844 19.351562 25.507812 18.804688 25.445312 C 18.714844 25.4375 18.664062 25.410156 18.621094 25.332031 C 18.191406 24.550781 17.757812 23.773438 17.324219 22.996094 C 16.988281 22.394531 16.988281 22.386719 16.308594 22.496094 C 15.972656 22.550781 15.609375 22.546875 15.355469 22.839844 C 15.082031 23.15625 14.800781 23.46875 14.519531 23.773438 C 14.382812 23.921875 14.375 24.0625 14.464844 24.242188 C 16.199219 27.835938 17.925781 31.433594 19.65625 35.035156 C 19.851562 35.441406 20.050781 35.851562 20.261719 36.28125 C 20.300781 36.21875 20.324219 36.1875 20.339844 36.15625 C 20.652344 35.53125 21.117188 35.074219 21.78125 34.832031 C 21.960938 34.765625 22.097656 34.632812 22.222656 34.484375 C 22.480469 34.179688 22.710938 34.136719 23.082031 34.304688 C 23.328125 34.421875 23.519531 34.609375 23.71875 34.789062 C 23.769531 34.828125 23.828125 34.921875 23.894531 34.867188 C 23.964844 34.8125 23.921875 34.722656 23.890625 34.648438 C 23.871094 34.613281 23.851562 34.582031 23.832031 34.542969 C 23.085938 33.21875 22.339844 31.894531 21.597656 30.566406 C 21.550781 30.484375 21.511719 30.394531 21.464844 30.308594 C 21.621094 30.414062 21.703125 30.566406 21.796875 30.714844 C 21.949219 30.949219 22.128906 31.148438 22.371094 31.296875 C 22.5625 31.40625 22.734375 31.550781 22.914062 31.675781 C 24.75 32.96875 26.589844 34.257812 28.425781 35.550781 C 28.503906 35.605469 28.5625 35.679688 28.667969 35.582031 C 29.109375 35.160156 29.503906 34.699219 29.679688 34.097656 C 29.789062 33.714844 29.679688 33.359375 29.484375 32.984375 C 30.753906 33.421875 31.976562 33.84375 33.210938 34.269531 C 33.132812 33.535156 33.675781 32.945312 33.558594 32.179688 C 33.714844 32.308594 33.792969 32.265625 33.851562 32.160156 C 33.875 32.113281 33.90625 32.066406 33.933594 32.019531 C 34.121094 31.6875 34.117188 31.679688 33.761719 31.542969 Z M 8.394531 34.246094 C 8.355469 34.28125 8.304688 34.3125 8.253906 34.332031 C 8.195312 34.355469 8.152344 34.308594 8.113281 34.265625 C 8.058594 34.203125 8.128906 34.183594 8.160156 34.164062 C 8.550781 33.886719 8.941406 33.613281 9.332031 33.339844 C 9.34375 33.355469 9.351562 33.367188 9.363281 33.378906 C 9.042969 33.667969 8.71875 33.957031 8.394531 34.242188 Z M 5.722656 30.25 C 4.859375 30.464844 4.050781 30.667969 3.246094 30.863281 C 3.171875 30.882812 3.074219 30.917969 3.042969 30.808594 C 3.007812 30.675781 3.136719 30.683594 3.210938 30.667969 C 3.929688 30.53125 4.644531 30.394531 5.363281 30.269531 C 5.460938 30.25 5.558594 30.195312 5.722656 30.25 Z M 16.085938 23.765625 C 16.574219 24.625 17.125 25.453125 17.410156 26.414062 C 16.917969 25.558594 16.464844 24.679688 16.085938 23.765625 Z M 22.0625 34.152344 C 22.109375 34.230469 22.222656 34.308594 22.132812 34.421875 C 22.011719 34.570312 21.882812 34.714844 21.6875 34.757812 C 21.585938 34.777344 21.574219 34.664062 21.539062 34.601562 C 21.214844 33.953125 20.890625 33.304688 20.578125 32.652344 C 19.761719 30.949219 18.957031 29.242188 18.148438 27.535156 C 18.160156 27.523438 18.175781 27.515625 18.191406 27.503906 C 18.5625 28.140625 18.933594 28.78125 19.308594 29.417969 C 20.226562 30.996094 21.148438 32.574219 22.0625 34.152344 Z M 28.882812 33.5 C 28.617188 33.730469 28.621094 33.730469 28.324219 33.539062 C 26.554688 32.351562 24.777344 31.164062 23.007812 29.972656 C 22.914062 29.910156 22.804688 29.863281 22.714844 29.734375 C 22.921875 29.792969 23.070312 29.894531 23.21875 29.984375 C 25.101562 31.066406 26.980469 32.15625 28.863281 33.234375 C 29.058594 33.34375 29.007812 33.394531 28.882812 33.503906 Z M 27.917969 30.402344 C 28.195312 30.503906 28.472656 30.605469 28.75 30.710938 C 28.957031 30.789062 29.167969 30.855469 29.367188 30.945312 C 29.964844 31.230469 30.550781 31.550781 31.191406 31.730469 C 31.617188 31.847656 32.035156 31.984375 32.4375 32.160156 C 32.507812 32.1875 32.589844 32.207031 32.640625 32.273438 C 31.902344 32.289062 28.671875 31.023438 27.917969 30.402344 Z M 27.917969 30.402344 " fill-opacity="1" fill-rule="nonzero"/></g><path fill="#f9ab24" d="M 17.613281 31.523438 C 17.253906 30.8125 16.535156 30.679688 15.929688 31.207031 C 15.414062 31.660156 14.917969 32.128906 14.371094 32.546875 C 13.824219 32.96875 13.628906 33.480469 13.730469 34.15625 C 13.835938 34.875 14.273438 35.445312 14.878906 35.546875 C 15.25 35.609375 15.613281 35.550781 15.972656 35.433594 C 16.160156 35.375 16.304688 35.277344 16.421875 35.113281 C 16.84375 34.523438 17.265625 33.933594 17.699219 33.355469 C 17.84375 33.164062 17.945312 32.972656 17.90625 32.769531 C 17.910156 32.300781 17.804688 31.898438 17.613281 31.519531 Z M 15.375 33.304688 C 14.996094 33.421875 14.648438 33.53125 14.285156 33.644531 C 14.464844 32.90625 14.59375 32.863281 15.375 33.304688 Z M 14.234375 34.003906 C 14.292969 33.859375 14.460938 33.90625 14.605469 33.851562 C 14.554688 34.21875 14.566406 34.558594 14.691406 34.902344 C 14.464844 34.769531 14.164062 34.191406 14.234375 34.003906 Z M 15.09375 34.886719 C 15.082031 34.925781 15.0625 34.980469 15.003906 34.984375 C 14.929688 34.988281 14.921875 34.921875 14.914062 34.871094 C 14.875 34.695312 14.839844 34.523438 14.796875 34.332031 C 14.953125 34.328125 15.113281 34.480469 15.199219 34.253906 C 15.285156 34.03125 15.242188 33.902344 14.976562 33.707031 C 15.167969 33.648438 15.332031 33.597656 15.527344 33.539062 C 15.378906 34 15.234375 34.441406 15.09375 34.886719 Z M 15.597656 34.945312 C 15.53125 34.996094 15.449219 35.074219 15.371094 35.015625 C 15.304688 34.96875 15.375 34.882812 15.394531 34.820312 C 15.519531 34.421875 15.644531 34.03125 15.785156 33.59375 C 16.074219 34.09375 15.984375 34.660156 15.597656 34.945312 Z M 15.597656 34.945312 " fill-opacity="1" fill-rule="nonzero"/><path fill="#f9ab24" d="M 11.863281 10.367188 C 11.898438 10.316406 11.867188 10.28125 11.855469 10.246094 C 11.410156 9.175781 11.480469 8.144531 12.109375 7.160156 C 12.25 6.9375 12.351562 6.699219 12.394531 6.441406 C 12.476562 5.9375 12.441406 5.433594 12.339844 4.9375 C 12.230469 4.429688 12.058594 3.945312 11.699219 3.554688 C 11.726562 3.632812 11.753906 3.714844 11.777344 3.796875 C 11.988281 4.511719 12.007812 5.222656 11.734375 5.925781 C 11.636719 6.167969 11.539062 6.410156 11.441406 6.648438 C 11.167969 7.320312 10.9375 8.007812 10.953125 8.746094 C 10.964844 9.449219 11.25 10 11.863281 10.367188 Z M 11.863281 10.367188 " fill-opacity="1" fill-rule="nonzero"/><path fill="#f9ab24" d="M 25.980469 15.074219 C 26.058594 14.800781 26.035156 14.59375 26.019531 14.382812 C 25.972656 13.710938 25.777344 13.070312 25.582031 12.429688 C 25.417969 11.894531 25.410156 11.363281 25.558594 10.828125 C 25.695312 10.34375 25.820312 9.859375 25.960938 9.332031 C 24.75 10.519531 24.621094 11.574219 25.160156 12.726562 C 25.503906 13.464844 25.839844 14.203125 25.976562 15.074219 Z M 25.980469 15.074219 " fill-opacity="1" fill-rule="nonzero"/><path fill="#f9ab24" d="M 7.25 20.480469 C 7.210938 20.964844 7.109375 21.441406 6.988281 21.921875 C 7.601562 21.226562 7.9375 20.453125 7.660156 19.503906 C 7.464844 18.832031 7.074219 18.253906 6.75 17.640625 C 6.789062 17.882812 6.835938 18.117188 6.902344 18.347656 C 7.105469 19.046875 7.316406 19.738281 7.25 20.480469 Z M 7.25 20.480469 " fill-opacity="1" fill-rule="nonzero"/><path fill="#f9ab24" d="M 27.519531 20.65625 C 27.464844 19.96875 27.640625 19.316406 27.855469 18.671875 C 27.90625 18.523438 27.945312 18.371094 27.988281 18.21875 C 28.023438 18.074219 28.074219 17.933594 28.070312 17.714844 C 27.742188 18.351562 27.378906 18.894531 27.15625 19.507812 C 26.8125 20.457031 27.105469 21.253906 27.738281 21.972656 C 27.628906 21.539062 27.554688 21.101562 27.519531 20.65625 Z M 27.519531 20.65625 " fill-opacity="1" fill-rule="nonzero"/><path fill="#f9ab24" d="M 18.957031 5.605469 C 18.746094 4.769531 18.628906 3.9375 18.859375 3.085938 C 18.9375 2.800781 19.011719 2.515625 19.09375 2.203125 C 18.03125 3.691406 18.105469 5.15625 19.089844 6.601562 C 19.09375 6.273438 19.039062 5.933594 18.957031 5.605469 Z M 18.957031 5.605469 " fill-opacity="1" fill-rule="nonzero"/><path fill="#f9ab24" d="M 13.84375 3.015625 C 14.347656 2.382812 14.164062 1.128906 13.492188 0.59375 C 13.683594 0.984375 13.78125 1.367188 13.796875 1.773438 C 13.808594 2.179688 13.828125 2.582031 13.847656 3.011719 Z M 13.84375 3.015625 " fill-opacity="1" fill-rule="nonzero"/><path fill="#f9ab24" d="M 9.195312 17.371094 C 9.976562 16.875 9.933594 15.855469 9.121094 15.285156 C 9.175781 15.457031 9.210938 15.617188 9.273438 15.769531 C 9.496094 16.3125 9.554688 16.847656 9.195312 17.371094 Z M 9.195312 17.371094 " fill-opacity="1" fill-rule="nonzero"/><path fill="#f9ab24" d="M 23.632812 8.679688 C 23.5 8.15625 23.277344 7.644531 23.433594 7.078125 C 23.132812 7.878906 23.191406 8.648438 23.597656 9.445312 C 23.683594 9.164062 23.691406 8.921875 23.632812 8.679688 Z M 23.632812 8.679688 " fill-opacity="1" fill-rule="nonzero"/><path fill="#f9ab24" d="M 8.960938 9.640625 C 8.730469 10.113281 8.863281 10.578125 8.921875 11.074219 C 9.089844 10.761719 9.09375 10.613281 8.960938 9.640625 Z M 8.960938 9.640625 " fill-opacity="1" fill-rule="nonzero"/></svg>