<svg xmlns="http://www.w3.org/2000/svg" xmlns:xlink="http://www.w3.org/1999/xlink" width="50" zoomAndPan="magnify" viewBox="0 0 37.5 37.499999" height="50" preserveAspectRatio="xMidYMid meet" version="1.0"><defs><clipPath id="d6156980cf"><path d="M 0 0 L 37.007812 0 L 37.007812 37.007812 L 0 37.007812 Z M 0 0 " clip-rule="nonzero"/></clipPath><clipPath id="cc08a00ade"><path d="M 0 0 L 37.007812 0 L 37.007812 37.007812 L 0 37.007812 Z M 0 0 " clip-rule="nonzero"/></clipPath></defs><g clip-path="url(#d6156980cf)"><path fill="#ffffff" d="M 0 0 L 37.007812 0 L 37.007812 37.007812 L 0 37.007812 Z M 0 0 " fill-opacity="1" fill-rule="nonzero"/><path fill="#ffffff" d="M 0 0 L 37.007812 0 L 37.007812 37.007812 L 0 37.007812 Z M 0 0 " fill-opacity="1" fill-rule="nonzero"/></g><path fill="#f9ab24" d="M 34.1875 31.9375 L 2.8125 31.9375 C 2.375 31.9375 2.023438 32.292969 2.023438 32.730469 L 2.023438 33.519531 L 34.976562 33.519531 L 34.976562 32.730469 C 34.976562 32.292969 34.621094 31.9375 34.1875 31.9375 Z M 34.1875 31.9375 " fill-opacity="1" fill-rule="evenodd"/><path fill="#f9ab24" d="M 18.03125 26.46875 L 18.03125 28.074219 C 18.03125 28.367188 17.796875 28.605469 17.5 28.605469 C 17.207031 28.605469 16.96875 28.367188 16.96875 28.074219 L 16.96875 26.46875 C 16.96875 26.171875 17.207031 25.9375 17.5 25.9375 C 17.796875 25.9375 18.03125 26.171875 18.03125 26.46875 Z M 15.382812 25.875 L 15.382812 30.875 L 22.070312 30.875 L 22.070312 25.875 C 22.070312 24.03125 20.570312 22.527344 18.726562 22.527344 C 16.878906 22.527344 15.382812 24.03125 15.382812 25.875 Z M 15.382812 25.875 " fill-opacity="1" fill-rule="evenodd"/><path fill="#f9ab24" d="M 25.042969 20.484375 L 12.40625 20.484375 L 12.40625 30.878906 L 14.316406 30.878906 L 14.316406 25.875 C 14.316406 23.445312 16.292969 21.46875 18.726562 21.46875 C 21.15625 21.46875 23.132812 23.445312 23.132812 25.875 L 23.132812 30.878906 L 25.042969 30.878906 Z M 25.042969 20.484375 " fill-opacity="1" fill-rule="evenodd"/><path fill="#f9ab24" d="M 25.707031 17.589844 L 11.816406 17.589844 L 12.347656 19.421875 L 25.175781 19.421875 Z M 25.707031 17.589844 " fill-opacity="1" fill-rule="evenodd"/><path fill="#f9ab24" d="M 28.5 22.121094 L 30.082031 22.121094 L 30.082031 26.972656 L 28.5 26.972656 Z M 28.5 22.121094 " fill-opacity="1" fill-rule="evenodd"/><path fill="#f9ab24" d="M 26.816406 17.589844 L 26.105469 20.03125 L 26.105469 30.875 L 32.644531 30.875 L 32.644531 17.585938 L 26.816406 17.585938 Z M 27.972656 21.058594 L 30.617188 21.058594 C 30.910156 21.058594 31.148438 21.296875 31.148438 21.589844 L 31.148438 27.503906 C 31.148438 27.800781 30.910156 28.035156 30.617188 28.035156 L 27.972656 28.035156 C 27.679688 28.035156 27.441406 27.800781 27.441406 27.503906 L 27.441406 21.589844 C 27.441406 21.296875 27.679688 21.058594 27.972656 21.058594 Z M 27.972656 21.058594 " fill-opacity="1" fill-rule="evenodd"/><path fill="#f9ab24" d="M 6.914062 22.121094 L 8.496094 22.121094 L 8.496094 26.972656 L 6.914062 26.972656 Z M 6.914062 22.121094 " fill-opacity="1" fill-rule="evenodd"/><path fill="#f9ab24" d="M 10.710938 17.589844 L 4.355469 17.589844 L 4.355469 30.878906 L 11.34375 30.878906 L 11.34375 19.953125 C 11.34375 19.910156 11.351562 19.867188 11.359375 19.828125 Z M 6.382812 21.058594 L 9.027344 21.058594 C 9.320312 21.058594 9.558594 21.296875 9.558594 21.589844 L 9.558594 27.503906 C 9.558594 27.800781 9.320312 28.035156 9.027344 28.035156 L 6.382812 28.035156 C 6.089844 28.035156 5.851562 27.800781 5.851562 27.503906 L 5.851562 21.589844 C 5.851562 21.296875 6.089844 21.058594 6.382812 21.058594 Z M 6.382812 21.058594 " fill-opacity="1" fill-rule="evenodd"/><path fill="#f9ab24" d="M 5.234375 12.050781 L 3.1875 16.527344 L 10.882812 16.527344 L 15.234375 12.050781 Z M 5.234375 12.050781 " fill-opacity="1" fill-rule="evenodd"/><path fill="#f9ab24" d="M 16.871094 11.890625 L 12.367188 16.527344 L 25.152344 16.527344 L 20.601562 11.890625 L 20.59375 11.882812 L 18.726562 9.980469 L 16.878906 11.882812 Z M 16.871094 11.890625 " fill-opacity="1" fill-rule="evenodd"/><path fill="#f9ab24" d="M 5.527344 4.988281 L 5.527344 8.722656 C 5.527344 8.941406 5.609375 9.113281 5.777344 9.25 C 5.945312 9.382812 6.128906 9.421875 6.335938 9.375 L 11.933594 8.015625 C 12.210938 7.945312 12.496094 8.113281 12.570312 8.394531 L 13.273438 10.988281 L 14.554688 10.988281 L 13.3125 5.367188 C 13.246094 5.074219 13.015625 4.871094 12.71875 4.847656 L 6.234375 4.320312 C 6.039062 4.304688 5.882812 4.363281 5.738281 4.496094 C 5.59375 4.632812 5.527344 4.789062 5.527344 4.988281 Z M 5.527344 4.988281 " fill-opacity="1" fill-rule="evenodd"/><path fill="#f9ab24" d="M 16.148438 4.023438 C 16.148438 5.34375 17.226562 6.417969 18.542969 6.417969 C 19.867188 6.417969 20.9375 5.34375 20.9375 4.023438 C 20.9375 2.699219 19.867188 1.628906 18.542969 1.628906 C 17.226562 1.628906 16.148438 2.703125 16.148438 4.023438 Z M 18.441406 5.582031 C 18.144531 5.582031 17.90625 5.34375 17.90625 5.050781 C 17.90625 4.753906 18.140625 4.519531 18.433594 4.519531 L 18.441406 4.519531 C 18.734375 4.519531 18.972656 4.753906 18.972656 5.050781 C 18.972656 5.339844 18.734375 5.582031 18.441406 5.582031 Z M 19.488281 3.972656 C 19.195312 3.972656 18.953125 3.734375 18.953125 3.441406 C 18.953125 3.144531 19.1875 2.910156 19.480469 2.910156 L 19.484375 2.910156 C 19.78125 2.910156 20.019531 3.144531 20.019531 3.441406 C 20.019531 3.734375 19.78125 3.972656 19.488281 3.972656 Z M 17.597656 3.808594 C 17.304688 3.808594 17.0625 3.570312 17.0625 3.273438 C 17.0625 2.980469 17.300781 2.742188 17.59375 2.742188 L 17.597656 2.742188 C 17.890625 2.742188 18.128906 2.980469 18.128906 3.273438 C 18.128906 3.570312 17.890625 3.808594 17.597656 3.808594 Z M 17.597656 3.808594 " fill-opacity="1" fill-rule="evenodd"/><path fill="#f9ab24" d="M 24.140625 4.960938 L 22.808594 10.988281 L 24.066406 10.988281 L 24.878906 7.984375 C 24.953125 7.707031 25.238281 7.539062 25.519531 7.609375 L 31.113281 8.96875 C 31.324219 9.019531 31.503906 8.976562 31.671875 8.84375 C 31.84375 8.707031 31.925781 8.535156 31.925781 8.316406 L 31.925781 4.578125 C 31.925781 4.378906 31.859375 4.222656 31.710938 4.085938 C 31.570312 3.953125 31.410156 3.898438 31.214844 3.914062 L 24.730469 4.4375 C 24.433594 4.464844 24.203125 4.667969 24.140625 4.960938 Z M 24.140625 4.960938 " fill-opacity="1" fill-rule="evenodd"/><path fill="#f9ab24" d="M 22.246094 12.050781 L 26.640625 16.527344 L 34.261719 16.527344 L 32.21875 12.050781 Z M 22.246094 12.050781 " fill-opacity="1" fill-rule="evenodd"/><g clip-path="url(#cc08a00ade)"><path fill="#f9ab24" d="M 18.5 -10.066406 C 26.128906 -10.066406 33.039062 -6.972656 38.042969 -1.96875 C 43.042969 3.03125 46.136719 9.941406 46.136719 17.574219 C 46.136719 25.203125 43.046875 32.117188 38.042969 37.117188 C 33.042969 42.117188 26.132812 45.210938 18.5 45.210938 C 10.867188 45.210938 3.957031 42.121094 -1.042969 37.117188 C -6.046875 32.113281 -9.140625 25.207031 -9.140625 17.574219 C -9.140625 9.941406 -6.046875 3.03125 -1.042969 -1.96875 C 3.957031 -6.972656 10.867188 -10.066406 18.5 -10.066406 Z M 37.167969 -1.097656 C 32.394531 -5.875 25.789062 -8.832031 18.5 -8.832031 C 11.207031 -8.832031 4.605469 -5.875 -0.171875 -1.097656 C -4.949219 3.679688 -7.90625 10.28125 -7.90625 17.574219 C -7.90625 24.867188 -4.949219 31.464844 -0.171875 36.246094 C 4.605469 41.023438 11.207031 43.976562 18.5 43.976562 C 25.789062 43.976562 32.390625 41.023438 37.167969 36.246094 C 41.949219 31.464844 44.902344 24.867188 44.902344 17.574219 C 44.902344 10.28125 41.949219 3.683594 37.167969 -1.097656 Z M 37.167969 -1.097656 " fill-opacity="1" fill-rule="nonzero"/></g></svg>