<svg xmlns="http://www.w3.org/2000/svg" xmlns:xlink="http://www.w3.org/1999/xlink" width="50" zoomAndPan="magnify" viewBox="0 0 37.5 37.499999" height="50" preserveAspectRatio="xMidYMid meet" version="1.0"><defs><clipPath id="83dfe53a52"><path d="M 0 0 L 37.007812 0 L 37.007812 37.007812 L 0 37.007812 Z M 0 0 " clip-rule="nonzero"/></clipPath></defs><g clip-path="url(#83dfe53a52)"><path fill="#ffffff" d="M 0 0 L 37.007812 0 L 37.007812 37.007812 L 0 37.007812 Z M 0 0 " fill-opacity="1" fill-rule="nonzero"/><path fill="#ffffff" d="M 0 0 L 37.007812 0 L 37.007812 37.007812 L 0 37.007812 Z M 0 0 " fill-opacity="1" fill-rule="nonzero"/></g><path fill="#f9ab24" d="M 10.089844 15.09375 C 13.101562 18.878906 15.113281 23.171875 11.523438 26.207031 C 9.53125 27.878906 6.351562 27.46875 4.679688 25.480469 C 3.007812 23.488281 3.488281 20.308594 5.238281 18.832031 C 6.988281 17.351562 10.453125 17.183594 11.761719 21.695312 C 12.558594 18.660156 8.605469 13.59375 4.070312 17.421875 C 1.082031 19.945312 0.820312 24.046875 3.148438 26.785156 L 3.171875 26.808594 C 5.5 29.570312 9.523438 29.988281 12.511719 27.46875 C 17.078125 23.589844 14 17.761719 10.089844 15.09375 Z M 10.089844 15.09375 " fill-opacity="1" fill-rule="nonzero"/><path fill="#f9ab24" d="M 19.554688 15.363281 C 17.25 14.367188 11.476562 12.625 13.679688 10.582031 C 14.871094 9.492188 18.464844 7.378906 20.429688 8.445312 C 23.828125 10.3125 18.898438 14.582031 29.746094 14.390625 C 28.214844 13.152344 25.351562 13.753906 24.289062 12.355469 C 23.757812 11.648438 23.515625 10.898438 23.347656 10.046875 C 23.199219 9.273438 23.082031 8.421875 22.664062 7.742188 C 20.53125 4.367188 15.382812 7.59375 13.078125 8.878906 C 12.304688 9.3125 11.476562 9.753906 10.769531 10.265625 C 10.261719 10.628906 9.703125 11.140625 9.679688 11.820312 C 9.65625 12.957031 11.28125 13.714844 12.15625 14.125 C 14.097656 15.046875 16.0625 15.851562 18.03125 16.695312 C 19.777344 17.445312 19.824219 18.003906 19.027344 19.707031 C 18.59375 20.648438 17.960938 21.570312 17.355469 22.398438 C 16.605469 23.441406 15.777344 24.433594 15.003906 25.480469 C 14.59375 26.035156 13.640625 27.226562 14.152344 27.933594 C 14.300781 28.125 14.515625 28.25 14.757812 28.273438 C 15.847656 28.417969 16.9375 28.636719 18.054688 28.78125 L 19.359375 28.953125 C 18.339844 27.375 15.113281 27.226562 17.132812 24.679688 C 19.476562 21.695312 23.796875 17.183594 19.554688 15.363281 Z M 19.554688 15.363281 " fill-opacity="1" fill-rule="nonzero"/><path fill="#f9ab24" d="M 23.828125 8.445312 L 23.871094 8.878906 C 25.714844 7.710938 24.476562 6.164062 23.167969 5.457031 C 30.425781 5.027344 28.65625 8.957031 26.292969 9.320312 C 27.464844 11.238281 29.375 8.664062 29.621094 7.425781 C 29.746094 6.789062 29.597656 6.1875 29.234375 5.652344 C 27.949219 3.8125 22.679688 4.320312 20.621094 4.390625 C 20.179688 6.550781 23.484375 5.09375 23.828125 8.445312 Z M 23.828125 8.445312 " fill-opacity="1" fill-rule="nonzero"/><path fill="#f9ab24" d="M 25.0625 26.375 C 23.074219 24.703125 22.953125 21.5 24.632812 19.511719 C 26.300781 17.523438 29.53125 17.476562 31.277344 18.953125 C 33.027344 20.433594 33.800781 23.832031 29.550781 25.875 C 32.679688 26.167969 37.003906 21.386719 32.460938 17.578125 C 29.476562 15.054688 25.375 15.488281 23.074219 18.234375 L 23.050781 18.257812 C 20.722656 21.019531 20.984375 25.054688 23.996094 27.574219 C 28.585938 31.4375 33.800781 27.429688 35.765625 23.109375 C 32.53125 26.695312 28.65625 29.386719 25.0625 26.375 Z M 25.0625 26.375 " fill-opacity="1" fill-rule="nonzero"/></svg>