<svg xmlns="http://www.w3.org/2000/svg" xmlns:xlink="http://www.w3.org/1999/xlink" width="50" zoomAndPan="magnify" viewBox="0 0 37.5 37.499999" height="50" preserveAspectRatio="xMidYMid meet" version="1.0"><defs><clipPath id="9d8ef11d33"><path d="M 0 0 L 37.007812 0 L 37.007812 37.007812 L 0 37.007812 Z M 0 0 " clip-rule="nonzero"/></clipPath><clipPath id="8c7df389d7"><path d="M 0.0390625 0 L 36.957031 0 L 36.957031 13 L 0.0390625 13 Z M 0.0390625 0 " clip-rule="nonzero"/></clipPath><clipPath id="7b7c9adc4d"><path d="M 0.0390625 3.511719 L 36.957031 3.511719 L 36.957031 36.265625 L 0.0390625 36.265625 Z M 0.0390625 3.511719 " clip-rule="nonzero"/></clipPath></defs><g clip-path="url(#9d8ef11d33)"><path fill="#ffffff" d="M 0 0 L 37.007812 0 L 37.007812 37.007812 L 0 37.007812 Z M 0 0 " fill-opacity="1" fill-rule="nonzero"/><path fill="#ffffff" d="M 0 0 L 37.007812 0 L 37.007812 37.007812 L 0 37.007812 Z M 0 0 " fill-opacity="1" fill-rule="nonzero"/></g><path fill="#f9ab24" d="M 17.914062 29.152344 L 17.914062 27.863281 L 19.851562 29.800781 L 19.085938 30.183594 L 19.085938 31.476562 L 17.144531 29.535156 Z M 16.742188 28.429688 L 15.167969 29.214844 L 20.253906 34.300781 L 20.253906 30.910156 L 21.828125 30.121094 L 16.742188 25.039062 L 16.742188 28.429688 " fill-opacity="1" fill-rule="nonzero"/><path fill="#f9ab24" d="M 18.5 18.839844 C 18.175781 18.839844 17.914062 18.578125 17.914062 18.257812 C 17.914062 17.933594 18.175781 17.671875 18.5 17.671875 C 18.820312 17.671875 19.085938 17.933594 19.085938 18.257812 C 19.085938 18.578125 18.820312 18.839844 18.5 18.839844 Z M 18.5 16.5 C 17.53125 16.5 16.742188 17.285156 16.742188 18.257812 C 16.742188 19.222656 17.53125 20.011719 18.5 20.011719 C 19.464844 20.011719 20.253906 19.222656 20.253906 18.257812 C 20.253906 17.285156 19.464844 16.5 18.5 16.5 " fill-opacity="1" fill-rule="nonzero"/><path fill="#f9ab24" d="M 18.5 14.160156 C 16.832031 14.160156 15.332031 15.085938 14.585938 16.574219 L 14.464844 16.824219 L 15.511719 17.347656 L 15.632812 17.097656 C 16.179688 16.007812 17.277344 15.328125 18.5 15.328125 C 19.71875 15.328125 20.816406 16.007812 21.363281 17.097656 L 21.488281 17.347656 L 22.535156 16.824219 L 22.410156 16.574219 C 21.664062 15.085938 20.164062 14.160156 18.5 14.160156 " fill-opacity="1" fill-rule="nonzero"/><path fill="#f9ab24" d="M 12.550781 15 L 12.160156 15.589844 L 13.132812 16.238281 L 13.527344 15.648438 C 14.636719 13.984375 16.496094 12.988281 18.5 12.988281 C 20.503906 12.988281 22.359375 13.984375 23.472656 15.648438 L 23.863281 16.238281 L 24.839844 15.589844 L 24.445312 15 C 23.117188 13.007812 20.894531 11.816406 18.5 11.816406 C 16.101562 11.816406 13.878906 13.007812 12.550781 15 " fill-opacity="1" fill-rule="nonzero"/><g clip-path="url(#8c7df389d7)"><path fill="#f9ab24" d="M 18.5 1.390625 L 36.324219 12.894531 L 36.960938 11.910156 L 18.5 0 L 0.0390625 11.910156 L 0.671875 12.894531 L 18.5 1.390625 " fill-opacity="1" fill-rule="nonzero"/></g><g clip-path="url(#7b7c9adc4d)"><path fill="#f9ab24" d="M 31.960938 34.058594 L 27.277344 34.058594 L 27.277344 22.9375 C 27.277344 22.175781 26.785156 21.53125 26.109375 21.289062 L 26.109375 20.011719 C 26.109375 19.363281 25.582031 18.839844 24.9375 18.839844 L 23.765625 18.839844 C 23.121094 18.839844 22.597656 19.363281 22.597656 20.011719 L 22.597656 21.183594 L 14.402344 21.183594 L 14.402344 20.011719 C 14.402344 19.363281 13.875 18.839844 13.230469 18.839844 L 12.0625 18.839844 C 11.417969 18.839844 10.890625 19.363281 10.890625 20.011719 L 10.890625 21.289062 C 10.210938 21.53125 9.71875 22.175781 9.71875 22.9375 L 9.71875 34.058594 L 5.039062 34.058594 L 5.039062 13.589844 L 18.5 4.902344 L 31.960938 13.589844 Z M 25.523438 35.230469 L 11.476562 35.230469 C 11.152344 35.230469 10.890625 34.964844 10.890625 34.644531 L 10.890625 24.695312 L 26.109375 24.695312 L 26.109375 34.644531 C 26.109375 34.964844 25.84375 35.230469 25.523438 35.230469 Z M 24.9375 21.183594 L 23.765625 21.183594 L 23.765625 20.011719 L 24.9375 20.011719 Z M 11.476562 22.351562 L 25.523438 22.351562 C 25.84375 22.351562 26.109375 22.617188 26.109375 22.9375 L 26.109375 23.523438 L 10.890625 23.523438 L 10.890625 22.9375 C 10.890625 22.617188 11.152344 22.351562 11.476562 22.351562 Z M 13.230469 21.183594 L 12.0625 21.183594 L 12.0625 20.011719 L 13.230469 20.011719 Z M 0.0390625 15.421875 L 0.671875 16.40625 L 3.867188 14.34375 L 3.867188 34.058594 C 3.867188 34.703125 4.390625 35.230469 5.039062 35.230469 L 9.828125 35.230469 C 10.070312 35.910156 10.710938 36.398438 11.476562 36.398438 L 25.523438 36.398438 C 26.285156 36.398438 26.929688 35.910156 27.167969 35.230469 L 31.960938 35.230469 C 32.605469 35.230469 33.132812 34.703125 33.132812 34.058594 L 33.132812 14.34375 L 36.324219 16.40625 L 36.960938 15.421875 L 18.5 3.511719 L 0.0390625 15.421875 " fill-opacity="1" fill-rule="nonzero"/></g></svg>