<svg xmlns="http://www.w3.org/2000/svg" xmlns:xlink="http://www.w3.org/1999/xlink" width="50" zoomAndPan="magnify" viewBox="0 0 37.5 37.499999" height="50" preserveAspectRatio="xMidYMid meet" version="1.0"><defs><clipPath id="b2e82c393a"><path d="M 0 0 L 37.007812 0 L 37.007812 37.007812 L 0 37.007812 Z M 0 0 " clip-rule="nonzero"/></clipPath><clipPath id="0c65c45787"><path d="M 0.683594 4.621094 L 36.210938 4.621094 L 36.210938 29.785156 L 0.683594 29.785156 Z M 0.683594 4.621094 " clip-rule="nonzero"/></clipPath></defs><g clip-path="url(#b2e82c393a)"><path fill="#ffffff" d="M 0 0 L 37.007812 0 L 37.007812 37.007812 L 0 37.007812 Z M 0 0 " fill-opacity="1" fill-rule="nonzero"/><path fill="#ffffff" d="M 0 0 L 37.007812 0 L 37.007812 37.007812 L 0 37.007812 Z M 0 0 " fill-opacity="1" fill-rule="nonzero"/></g><g clip-path="url(#0c65c45787)"><path fill="#f9ab24" d="M 35.582031 4.640625 L 35.148438 4.640625 C 34.875 4.640625 34.65625 4.859375 34.65625 5.132812 L 34.65625 9.300781 L 32.195312 9.300781 L 32.195312 7.828125 L 32.53125 7.828125 L 32.179688 7.214844 L 31.824219 6.601562 L 31.472656 7.214844 L 31.117188 7.828125 L 31.457031 7.828125 L 31.457031 9.300781 L 29.363281 9.300781 L 29.363281 7.828125 L 29.703125 7.828125 L 29.347656 7.214844 L 28.996094 6.601562 L 28.285156 7.828125 L 28.625 7.828125 L 28.625 9.300781 L 26.53125 9.300781 L 26.53125 7.828125 L 26.871094 7.828125 L 26.515625 7.214844 L 26.164062 6.601562 L 25.808594 7.214844 L 25.457031 7.828125 L 25.792969 7.828125 L 25.792969 9.300781 L 23.699219 9.300781 L 23.699219 7.828125 L 24.039062 7.828125 L 23.6875 7.214844 L 23.332031 6.601562 L 22.976562 7.214844 L 22.625 7.828125 L 22.964844 7.828125 L 22.964844 9.300781 L 20.871094 9.300781 L 20.871094 7.828125 L 21.207031 7.828125 L 20.855469 7.214844 L 20.5 6.601562 L 20.148438 7.214844 L 19.792969 7.828125 L 20.132812 7.828125 L 20.132812 9.300781 L 16.625 9.300781 L 16.625 7.828125 L 16.960938 7.828125 L 16.609375 7.214844 L 16.253906 6.601562 L 15.902344 7.214844 L 15.546875 7.828125 L 15.886719 7.828125 L 15.886719 9.300781 L 13.792969 9.300781 L 13.792969 7.828125 L 14.132812 7.828125 L 13.421875 6.601562 L 13.070312 7.214844 L 12.714844 7.828125 L 13.054688 7.828125 L 13.054688 9.300781 L 10.960938 9.300781 L 10.960938 7.828125 L 11.300781 7.828125 L 10.945312 7.214844 L 10.59375 6.601562 L 10.238281 7.214844 L 9.886719 7.828125 L 10.222656 7.828125 L 10.222656 9.300781 L 8.128906 9.300781 L 8.128906 7.828125 L 8.46875 7.828125 L 8.117188 7.214844 L 7.761719 6.601562 L 7.40625 7.214844 L 7.054688 7.828125 L 7.394531 7.828125 L 7.394531 9.300781 L 5.300781 9.300781 L 5.300781 7.828125 L 5.636719 7.828125 L 5.285156 7.214844 L 4.929688 6.601562 L 4.578125 7.214844 L 4.222656 7.828125 L 4.5625 7.828125 L 4.5625 9.300781 L 2.101562 9.300781 L 2.101562 5.132812 C 2.101562 4.859375 1.878906 4.640625 1.609375 4.640625 L 1.175781 4.640625 C 0.902344 4.640625 0.683594 4.859375 0.683594 5.132812 L 0.683594 29.628906 C 0.683594 29.902344 0.902344 30.121094 1.175781 30.121094 L 1.609375 30.121094 C 1.878906 30.121094 2.101562 29.902344 2.101562 29.628906 L 2.101562 27.304688 L 34.65625 27.304688 L 34.65625 29.628906 C 34.65625 29.902344 34.875 30.121094 35.148438 30.121094 L 35.582031 30.121094 C 35.851562 30.121094 36.070312 29.902344 36.070312 29.628906 L 36.070312 5.132812 C 36.070312 4.859375 35.851562 4.640625 35.582031 4.640625 Z M 4.5625 26.566406 L 2.101562 26.566406 L 2.101562 24.472656 L 4.5625 24.472656 Z M 4.5625 23.734375 L 2.101562 23.734375 L 2.101562 10.039062 L 4.5625 10.039062 Z M 7.394531 26.566406 L 5.300781 26.566406 L 5.300781 24.472656 L 7.394531 24.472656 Z M 7.394531 23.734375 L 5.300781 23.734375 L 5.300781 10.039062 L 7.394531 10.039062 Z M 10.222656 26.566406 L 8.128906 26.566406 L 8.128906 24.472656 L 10.222656 24.472656 Z M 10.222656 23.734375 L 8.128906 23.734375 L 8.128906 10.039062 L 10.222656 10.039062 Z M 13.054688 26.566406 L 10.960938 26.566406 L 10.960938 24.472656 L 13.054688 24.472656 Z M 13.054688 23.734375 L 10.960938 23.734375 L 10.960938 10.039062 L 13.054688 10.039062 Z M 15.886719 26.566406 L 13.792969 26.566406 L 13.792969 24.472656 L 15.886719 24.472656 Z M 20.132812 26.566406 L 16.625 26.566406 L 16.625 24.472656 L 20.132812 24.472656 Z M 22.964844 26.566406 L 20.871094 26.566406 L 20.871094 24.472656 L 22.964844 24.472656 Z M 22.964844 23.734375 L 20.871094 23.734375 L 20.871094 20.558594 C 20.695312 20.835938 20.4375 21.054688 20.132812 21.175781 L 20.132812 23.734375 L 16.625 23.734375 L 16.625 21.175781 C 16.316406 21.054688 16.058594 20.835938 15.886719 20.558594 L 15.886719 23.734375 L 13.792969 23.734375 L 13.792969 10.039062 L 15.886719 10.039062 L 15.886719 14.203125 C 16.058594 13.925781 16.316406 13.710938 16.625 13.585938 L 16.625 10.039062 L 20.132812 10.039062 L 20.132812 13.585938 C 20.4375 13.710938 20.695312 13.925781 20.871094 14.203125 L 20.871094 10.039062 L 22.964844 10.039062 Z M 25.792969 26.566406 L 23.699219 26.566406 L 23.699219 24.472656 L 25.792969 24.472656 Z M 25.792969 23.734375 L 23.699219 23.734375 L 23.699219 10.039062 L 25.792969 10.039062 Z M 28.625 26.566406 L 26.53125 26.566406 L 26.53125 24.472656 L 28.625 24.472656 Z M 28.625 23.734375 L 26.53125 23.734375 L 26.53125 10.039062 L 28.625 10.039062 Z M 31.457031 26.566406 L 29.363281 26.566406 L 29.363281 24.472656 L 31.457031 24.472656 Z M 31.457031 23.734375 L 29.363281 23.734375 L 29.363281 10.039062 L 31.457031 10.039062 Z M 34.65625 26.566406 L 32.195312 26.566406 L 32.195312 24.472656 L 34.65625 24.472656 Z M 34.65625 23.734375 L 32.195312 23.734375 L 32.195312 10.039062 L 34.65625 10.039062 Z M 19.558594 13.84375 L 17.199219 13.84375 C 16.546875 13.84375 16.019531 14.371094 16.019531 15.023438 L 16.019531 19.742188 C 16.019531 20.390625 16.546875 20.921875 17.199219 20.921875 L 19.558594 20.921875 C 20.210938 20.921875 20.738281 20.390625 20.738281 19.742188 L 20.738281 15.023438 C 20.738281 14.371094 20.210938 13.84375 19.558594 13.84375 Z M 18.96875 17.695312 L 18.96875 18.679688 C 18.96875 19.003906 18.703125 19.269531 18.378906 19.269531 C 18.050781 19.269531 17.789062 19.003906 17.789062 18.679688 L 17.789062 17.695312 C 17.4375 17.488281 17.199219 17.109375 17.199219 16.671875 C 17.199219 16.023438 17.726562 15.492188 18.378906 15.492188 C 19.03125 15.492188 19.558594 16.023438 19.558594 16.671875 C 19.558594 17.109375 19.320312 17.488281 18.96875 17.695312 Z M 18.96875 17.695312 " fill-opacity="1" fill-rule="nonzero"/></g></svg>