<svg xmlns="http://www.w3.org/2000/svg" xmlns:xlink="http://www.w3.org/1999/xlink" width="50" zoomAndPan="magnify" viewBox="0 0 37.5 37.499999" height="50" preserveAspectRatio="xMidYMid meet" version="1.0"><defs><clipPath id="f39285746e"><path d="M 0 0 L 37.007812 0 L 37.007812 37.007812 L 0 37.007812 Z M 0 0 " clip-rule="nonzero"/></clipPath><clipPath id="e0276256b7"><path d="M 1.042969 12 L 22 12 L 22 30.144531 L 1.042969 30.144531 Z M 1.042969 12 " clip-rule="nonzero"/></clipPath><clipPath id="6e8fa8c535"><path d="M 13.070312 5.71875 L 35.699219 5.71875 L 35.699219 30.144531 L 13.070312 30.144531 Z M 13.070312 5.71875 " clip-rule="nonzero"/></clipPath><clipPath id="82c68f7777"><path d="M 5 5.71875 L 30 5.71875 L 30 20 L 5 20 Z M 5 5.71875 " clip-rule="nonzero"/></clipPath></defs><g clip-path="url(#f39285746e)"><path fill="#ffffff" d="M 0 0 L 37.007812 0 L 37.007812 37.007812 L 0 37.007812 Z M 0 0 " fill-opacity="1" fill-rule="nonzero"/><path fill="#ffffff" d="M 0 0 L 37.007812 0 L 37.007812 37.007812 L 0 37.007812 Z M 0 0 " fill-opacity="1" fill-rule="nonzero"/></g><g clip-path="url(#e0276256b7)"><path fill="#f9ab24" d="M 8.96875 28.882812 L 7.679688 27.167969 C 7.566406 27.019531 7.386719 26.9375 7.199219 26.949219 C 7.089844 26.953125 6.988281 26.992188 6.898438 27.058594 C 6.652344 27.242188 6.605469 27.59375 6.789062 27.839844 L 7.234375 28.429688 L 6.300781 29.132812 L 2.210938 23.707031 L 3.144531 23.003906 L 5.648438 26.320312 C 5.761719 26.46875 5.9375 26.550781 6.125 26.542969 C 6.234375 26.535156 6.339844 26.496094 6.425781 26.429688 C 6.671875 26.246094 6.722656 25.894531 6.539062 25.652344 L 3.1875 21.210938 L 4.234375 20.425781 L 10.011719 28.09375 Z M 3.390625 27.753906 L 2.738281 26.882812 L 3.039062 26.65625 L 3.695312 27.523438 Z M 14.109375 18.3125 L 14.765625 19.183594 L 8.339844 24.027344 L 7.683594 23.15625 Z M 12.4375 14.242188 L 13.480469 13.457031 L 16.828125 17.898438 C 16.941406 18.046875 17.117188 18.128906 17.304688 18.117188 C 17.414062 18.109375 17.519531 18.074219 17.609375 18.007812 C 17.851562 17.820312 17.902344 17.472656 17.71875 17.226562 L 15.214844 13.910156 L 16.148438 13.207031 L 20.238281 18.632812 L 19.304688 19.335938 L 18.859375 18.746094 C 18.746094 18.59375 18.566406 18.511719 18.382812 18.523438 C 18.269531 18.53125 18.167969 18.566406 18.078125 18.632812 C 17.960938 18.722656 17.882812 18.855469 17.863281 19 C 17.839844 19.148438 17.878906 19.296875 17.96875 19.414062 L 19.257812 21.128906 L 18.214844 21.914062 Z M 19.058594 14.585938 L 19.710938 15.457031 L 19.410156 15.683594 L 18.753906 14.816406 Z M 9.007812 24.914062 L 15.433594 20.070312 L 17.351562 22.617188 C 17.566406 22.902344 17.910156 23.0625 18.269531 23.039062 C 18.484375 23.027344 18.6875 22.953125 18.855469 22.824219 L 19.960938 21.992188 C 20.1875 21.820312 20.335938 21.570312 20.378906 21.285156 C 20.417969 21 20.34375 20.71875 20.171875 20.488281 L 19.972656 20.226562 L 20.960938 19.480469 C 21.183594 19.3125 21.328125 19.070312 21.367188 18.792969 C 21.40625 18.515625 21.335938 18.242188 21.167969 18.019531 L 20.078125 16.574219 L 20.828125 16.007812 C 21.070312 15.824219 21.121094 15.476562 20.9375 15.230469 L 19.609375 13.472656 C 19.5 13.320312 19.320312 13.238281 19.132812 13.25 C 19.023438 13.257812 18.917969 13.296875 18.832031 13.363281 L 18.082031 13.925781 L 16.992188 12.480469 C 16.785156 12.203125 16.449219 12.046875 16.097656 12.066406 C 15.894531 12.078125 15.695312 12.152344 15.53125 12.277344 L 14.542969 13.019531 L 14.34375 12.753906 C 14.128906 12.46875 13.785156 12.308594 13.425781 12.332031 C 13.214844 12.34375 13.011719 12.417969 12.839844 12.546875 L 11.738281 13.378906 C 11.507812 13.550781 11.359375 13.800781 11.320312 14.085938 C 11.277344 14.371094 11.351562 14.652344 11.523438 14.882812 L 13.441406 17.425781 L 7.015625 22.265625 L 5.097656 19.722656 C 4.882812 19.4375 4.539062 19.277344 4.179688 19.300781 C 3.964844 19.3125 3.761719 19.386719 3.59375 19.515625 L 2.488281 20.34375 C 2.015625 20.703125 1.921875 21.378906 2.277344 21.851562 L 2.476562 22.113281 L 1.488281 22.859375 C 1.265625 23.027344 1.121094 23.269531 1.082031 23.546875 C 1.042969 23.824219 1.113281 24.097656 1.28125 24.320312 L 2.371094 25.765625 L 1.621094 26.328125 C 1.503906 26.417969 1.425781 26.550781 1.40625 26.695312 C 1.386719 26.84375 1.421875 26.992188 1.511719 27.109375 L 2.835938 28.867188 C 2.949219 29.015625 3.128906 29.097656 3.316406 29.089844 C 3.425781 29.082031 3.527344 29.042969 3.617188 28.976562 L 4.367188 28.414062 L 5.457031 29.859375 C 5.664062 30.136719 6 30.292969 6.347656 30.273438 C 6.554688 30.261719 6.753906 30.1875 6.917969 30.0625 L 7.90625 29.320312 L 8.105469 29.582031 C 8.320312 29.871094 8.664062 30.027344 9.023438 30.007812 C 9.234375 29.996094 9.4375 29.921875 9.609375 29.792969 L 10.710938 28.960938 C 10.941406 28.789062 11.089844 28.539062 11.128906 28.253906 C 11.171875 27.96875 11.097656 27.6875 10.925781 27.457031 L 9.007812 24.914062 " fill-opacity="1" fill-rule="nonzero"/></g><g clip-path="url(#6e8fa8c535)"><path fill="#f9ab24" d="M 35.371094 11.195312 C 35.164062 10.46875 34.855469 9.789062 34.457031 9.171875 C 33.703125 8.003906 32.621094 7.070312 31.332031 6.472656 C 29.945312 5.828125 28.390625 5.589844 26.839844 5.789062 C 25.214844 5.996094 23.6875 6.671875 22.414062 7.742188 C 22.15625 7.960938 22.121094 8.347656 22.339844 8.605469 C 22.558594 8.863281 22.945312 8.898438 23.203125 8.679688 C 25.359375 6.863281 28.347656 6.433594 30.816406 7.582031 C 33.140625 8.664062 34.472656 10.859375 34.472656 13.605469 C 34.472656 15.269531 33.722656 17.082031 32.175781 19.144531 C 30.777344 21.011719 28.980469 22.769531 27.246094 24.46875 L 27.203125 24.511719 C 25.519531 26.160156 24.1875 27.335938 23.128906 28.113281 C 21.832031 29.0625 21.160156 29.246094 20.824219 29.230469 C 20.507812 29.21875 19.765625 29.054688 18.402344 28.097656 C 17.183594 27.242188 15.746094 25.960938 14.136719 24.285156 C 13.902344 24.042969 13.511719 24.035156 13.269531 24.269531 C 13.027344 24.503906 13.019531 24.890625 13.253906 25.136719 C 14.921875 26.867188 16.417969 28.203125 17.699219 29.101562 C 18.9375 29.96875 19.972656 30.425781 20.777344 30.457031 C 20.804688 30.457031 20.832031 30.457031 20.859375 30.457031 C 21.632812 30.457031 22.589844 30.023438 23.851562 29.097656 C 24.960938 28.289062 26.335938 27.074219 28.0625 25.386719 L 28.101562 25.34375 C 29.789062 23.691406 31.703125 21.820312 33.152344 19.878906 C 34.867188 17.597656 35.699219 15.542969 35.699219 13.605469 C 35.699219 12.761719 35.589844 11.949219 35.371094 11.195312 " fill-opacity="1" fill-rule="nonzero"/></g><g clip-path="url(#82c68f7777)"><path fill="#f9ab24" d="M 7.765625 18.515625 C 7.867188 18.515625 7.96875 18.492188 8.058594 18.441406 C 8.355469 18.277344 8.464844 17.90625 8.304688 17.609375 C 7.523438 16.191406 7.128906 14.84375 7.128906 13.605469 C 7.128906 10.753906 8.65625 8.476562 11.210938 7.507812 C 14.019531 6.445312 17.257812 7.253906 19.269531 9.527344 C 20.261719 10.683594 21.171875 11.984375 22.050781 13.246094 C 23.050781 14.675781 23.996094 16.027344 25.050781 17.179688 C 25.628906 17.8125 26.1875 18.324219 26.753906 18.742188 C 27.402344 19.222656 28.046875 19.574219 28.726562 19.8125 C 28.792969 19.835938 28.863281 19.847656 28.929688 19.847656 C 29.183594 19.847656 29.417969 19.691406 29.507812 19.441406 C 29.621094 19.121094 29.453125 18.769531 29.132812 18.660156 C 26.738281 17.8125 24.949219 15.253906 23.054688 12.542969 C 22.15625 11.257812 21.230469 9.929688 20.195312 8.726562 C 20.195312 8.726562 20.195312 8.726562 20.191406 8.722656 C 20.191406 8.722656 20.191406 8.722656 20.191406 8.71875 C 18.992188 7.367188 17.433594 6.4375 15.6875 6.039062 C 14.867188 5.851562 14.027344 5.785156 13.1875 5.839844 C 12.355469 5.898438 11.542969 6.074219 10.777344 6.363281 C 9.359375 6.898438 8.160156 7.808594 7.3125 8.992188 C 6.863281 9.621094 6.515625 10.320312 6.277344 11.074219 C 6.03125 11.863281 5.90625 12.714844 5.90625 13.605469 C 5.90625 15.050781 6.351562 16.597656 7.230469 18.199219 C 7.339844 18.402344 7.550781 18.515625 7.765625 18.515625 " fill-opacity="1" fill-rule="nonzero"/></g></svg>