<svg xmlns="http://www.w3.org/2000/svg" xmlns:xlink="http://www.w3.org/1999/xlink" width="50" zoomAndPan="magnify" viewBox="0 0 37.5 37.499999" height="50" preserveAspectRatio="xMidYMid meet" version="1.0"><defs><clipPath id="5148afd964"><path d="M 0 0 L 37.007812 0 L 37.007812 37.007812 L 0 37.007812 Z M 0 0 " clip-rule="nonzero"/></clipPath><clipPath id="825775cf6e"><path d="M 1.867188 0 L 34.433594 0 L 34.433594 36.265625 L 1.867188 36.265625 Z M 1.867188 0 " clip-rule="nonzero"/></clipPath></defs><g clip-path="url(#5148afd964)"><path fill="#ffffff" d="M 0 0 L 37.007812 0 L 37.007812 37.007812 L 0 37.007812 Z M 0 0 " fill-opacity="1" fill-rule="nonzero"/><path fill="#ffffff" d="M 0 0 L 37.007812 0 L 37.007812 37.007812 L 0 37.007812 Z M 0 0 " fill-opacity="1" fill-rule="nonzero"/></g><g clip-path="url(#825775cf6e)"><path fill="#f9ab24" d="M 8.953125 10.085938 L 12.050781 10.085938 L 12.050781 14.164062 C 12.050781 14.433594 12.273438 14.65625 12.542969 14.65625 L 19.183594 14.65625 C 19.457031 14.65625 19.675781 14.433594 19.675781 14.164062 L 19.675781 10.085938 L 22.605469 10.085938 C 22.792969 10.085938 22.964844 9.980469 23.046875 9.8125 C 23.128906 9.644531 23.113281 9.445312 23 9.296875 L 16.175781 0.207031 C 16.082031 0.0859375 15.9375 0.0117188 15.78125 0.0117188 C 15.625 0.0117188 15.480469 0.0859375 15.386719 0.207031 L 11.972656 4.75 L 8.558594 9.296875 C 8.449219 9.445312 8.429688 9.644531 8.511719 9.8125 C 8.597656 9.980469 8.765625 10.085938 8.953125 10.085938 Z M 12.761719 5.34375 L 15.78125 1.324219 L 21.621094 9.097656 L 19.183594 9.097656 C 18.910156 9.097656 18.691406 9.320312 18.691406 9.59375 L 18.691406 13.667969 L 13.039062 13.667969 L 13.039062 9.59375 C 13.039062 9.320312 12.816406 9.097656 12.542969 9.097656 L 9.941406 9.097656 Z M 12.914062 26.125 C 13.054688 25.890625 13.359375 25.816406 13.589844 25.957031 C 14.59375 26.570312 15.394531 26.761719 15.984375 26.78125 C 15.988281 26.78125 15.992188 26.78125 15.996094 26.78125 C 16 26.78125 16.007812 26.78125 16.011719 26.78125 C 16.519531 26.792969 16.867188 26.675781 17.058594 26.585938 C 17.425781 26.414062 17.679688 26.128906 17.722656 25.84375 C 17.792969 25.34375 17.507812 25.1875 16.113281 24.972656 C 15.097656 24.816406 13.949219 24.636719 13.46875 23.714844 C 13.140625 23.085938 13.285156 22.328125 13.839844 21.789062 C 14.203125 21.433594 14.769531 21.144531 15.5 21.078125 L 15.5 20.242188 C 15.5 19.96875 15.722656 19.746094 15.996094 19.746094 C 16.265625 19.746094 16.488281 19.96875 16.488281 20.242188 L 16.488281 21.113281 C 17.035156 21.203125 17.636719 21.40625 18.289062 21.765625 C 18.527344 21.894531 18.617188 22.195312 18.484375 22.433594 C 18.351562 22.671875 18.054688 22.757812 17.816406 22.628906 C 16.296875 21.796875 15.070312 21.960938 14.53125 22.492188 C 14.414062 22.605469 14.160156 22.910156 14.34375 23.261719 C 14.59375 23.738281 15.441406 23.871094 16.261719 23.996094 C 16.871094 24.089844 17.449219 24.179688 17.90625 24.417969 C 18.523438 24.738281 18.796875 25.277344 18.699219 25.984375 C 18.609375 26.601562 18.152344 27.160156 17.480469 27.476562 C 17.175781 27.621094 16.839844 27.710938 16.488281 27.75 L 16.488281 28.59375 C 16.488281 28.867188 16.265625 29.085938 15.996094 29.085938 C 15.722656 29.085938 15.5 28.867188 15.5 28.59375 L 15.5 27.722656 C 14.734375 27.617188 13.910156 27.304688 13.078125 26.800781 C 12.847656 26.660156 12.769531 26.355469 12.914062 26.125 Z M 32.691406 21.144531 C 33.300781 20.222656 33.65625 19.121094 33.65625 17.933594 C 33.65625 14.714844 31.039062 12.097656 27.820312 12.097656 C 25.15625 12.097656 22.90625 13.890625 22.210938 16.332031 L 3.359375 16.332031 C 2.535156 16.332031 1.867188 17 1.867188 17.824219 L 1.867188 31.011719 C 1.867188 31.832031 2.535156 32.5 3.359375 32.5 L 21.21875 32.5 L 21.21875 33.699219 C 21.222656 34.410156 22.382812 34.972656 23.359375 35.3125 C 24.144531 35.589844 25.773438 36.058594 27.863281 36.058594 C 29.953125 36.058594 31.558594 35.589844 32.332031 35.3125 C 33.285156 34.96875 34.421875 34.410156 34.421875 33.699219 L 34.421875 22.902344 C 34.421875 22.394531 34.101562 21.703125 32.691406 21.144531 Z M 33.4375 29.898438 C 33.4375 30.417969 31.453125 31.429688 27.820312 31.429688 C 24.1875 31.429688 22.207031 30.417969 22.207031 29.898438 L 22.207031 27.933594 C 23.433594 28.679688 25.636719 29.0625 27.820312 29.0625 C 30.007812 29.0625 32.210938 28.679688 33.4375 27.933594 Z M 22.949219 21.144531 C 21.539062 21.703125 21.21875 22.394531 21.21875 22.902344 L 21.21875 29.84375 L 6.484375 29.84375 C 6.285156 28.859375 5.511719 28.082031 4.527344 27.886719 L 4.527344 20.949219 C 5.511719 20.75 6.285156 19.972656 6.484375 18.988281 L 22.082031 18.988281 C 22.226562 19.773438 22.527344 20.503906 22.949219 21.144531 Z M 33.4375 26.546875 C 33.4375 27.066406 31.453125 28.078125 27.820312 28.078125 C 24.1875 28.078125 22.207031 27.066406 22.207031 26.546875 L 22.207031 24.292969 C 23.433594 25.039062 25.636719 25.421875 27.820312 25.421875 C 30.007812 25.421875 32.210938 25.039062 33.4375 24.292969 Z M 33.4375 22.902344 C 33.4375 23.425781 31.453125 24.4375 27.820312 24.4375 C 24.1875 24.4375 22.207031 23.425781 22.207031 22.902344 C 22.207031 22.730469 22.503906 22.328125 23.597656 21.957031 C 24.660156 23.074219 26.160156 23.773438 27.820312 23.773438 C 29.480469 23.773438 30.980469 23.074219 32.042969 21.957031 C 33.136719 22.328125 33.4375 22.730469 33.4375 22.902344 Z M 27.820312 13.082031 C 30.496094 13.082031 32.671875 15.257812 32.671875 17.933594 C 32.671875 20.609375 30.496094 22.785156 27.820312 22.785156 C 25.144531 22.785156 22.96875 20.609375 22.96875 17.933594 C 22.96875 15.257812 25.144531 13.082031 27.820312 13.082031 Z M 3.359375 31.515625 C 3.078125 31.515625 2.851562 31.289062 2.851562 31.011719 L 2.851562 17.824219 C 2.851562 17.542969 3.078125 17.316406 3.359375 17.316406 L 22.015625 17.316406 C 21.996094 17.519531 21.984375 17.726562 21.984375 17.933594 C 21.984375 17.957031 21.984375 17.980469 21.984375 18.003906 L 5.546875 18.003906 L 5.546875 18.496094 C 5.546875 19.332031 4.867188 20.011719 4.03125 20.011719 L 3.539062 20.011719 L 3.539062 28.824219 L 4.03125 28.824219 C 4.867188 28.824219 5.546875 29.5 5.546875 30.335938 L 5.546875 30.832031 L 21.21875 30.832031 L 21.21875 31.515625 Z M 27.863281 35.074219 C 24.816406 35.070312 22.542969 34.027344 22.207031 33.621094 L 22.207031 31.289062 C 23.433594 32.03125 25.636719 32.417969 27.820312 32.417969 C 30.007812 32.417969 32.210938 32.03125 33.4375 31.289062 L 33.4375 33.625 C 33.113281 34.027344 30.878906 35.070312 27.863281 35.074219 Z M 25.152344 19.484375 C 25.292969 19.25 25.59375 19.179688 25.828125 19.320312 C 27.550781 20.367188 28.609375 20.070312 28.984375 19.890625 C 29.308594 19.738281 29.53125 19.488281 29.566406 19.238281 C 29.625 18.835938 29.445312 18.6875 28.121094 18.484375 C 27.179688 18.335938 26.113281 18.171875 25.660156 17.308594 C 25.351562 16.714844 25.488281 16 26.007812 15.488281 C 26.339844 15.160156 26.859375 14.894531 27.523438 14.824219 L 27.523438 14.09375 C 27.523438 13.820312 27.746094 13.597656 28.019531 13.597656 C 28.289062 13.597656 28.511719 13.820312 28.511719 14.09375 L 28.511719 14.863281 C 29.011719 14.949219 29.558594 15.136719 30.148438 15.460938 C 30.386719 15.589844 30.476562 15.890625 30.34375 16.128906 C 30.214844 16.367188 29.914062 16.457031 29.675781 16.324219 C 28.296875 15.570312 27.1875 15.710938 26.699219 16.191406 C 26.597656 16.289062 26.378906 16.554688 26.535156 16.851562 C 26.757812 17.273438 27.527344 17.394531 28.273438 17.507812 C 28.835938 17.597656 29.367188 17.679688 29.792969 17.898438 C 30.382812 18.203125 30.640625 18.714844 30.542969 19.378906 C 30.460938 19.960938 30.035156 20.484375 29.402344 20.78125 C 29.128906 20.914062 28.828125 20.996094 28.511719 21.03125 L 28.511719 21.773438 C 28.511719 22.046875 28.289062 22.265625 28.019531 22.265625 C 27.746094 22.265625 27.523438 22.046875 27.523438 21.773438 L 27.523438 21.007812 C 26.824219 20.90625 26.070312 20.621094 25.316406 20.160156 C 25.082031 20.019531 25.007812 19.71875 25.152344 19.484375 Z M 25.152344 19.484375 " fill-opacity="1" fill-rule="nonzero"/></g></svg>