<svg xmlns="http://www.w3.org/2000/svg" xmlns:xlink="http://www.w3.org/1999/xlink" width="50" zoomAndPan="magnify" viewBox="0 0 37.5 37.499999" height="50" preserveAspectRatio="xMidYMid meet" version="1.0"><defs><clipPath id="a9e43c5fd8"><path d="M 0 0 L 37.007812 0 L 37.007812 37.007812 L 0 37.007812 Z M 0 0 " clip-rule="nonzero"/></clipPath><clipPath id="f6ae04dd7f"><path d="M 2.074219 3.761719 L 35.378906 3.761719 L 35.378906 32.628906 L 2.074219 32.628906 Z M 2.074219 3.761719 " clip-rule="nonzero"/></clipPath><clipPath id="ed19f65b36"><path d="M 10 22 L 28 22 L 28 32.628906 L 10 32.628906 Z M 10 22 " clip-rule="nonzero"/></clipPath></defs><g clip-path="url(#a9e43c5fd8)"><path fill="#ffffff" d="M 0 0 L 37.007812 0 L 37.007812 37.007812 L 0 37.007812 Z M 0 0 " fill-opacity="1" fill-rule="nonzero"/><path fill="#ffffff" d="M 0 0 L 37.007812 0 L 37.007812 37.007812 L 0 37.007812 Z M 0 0 " fill-opacity="1" fill-rule="nonzero"/></g><g clip-path="url(#f6ae04dd7f)"><path fill="#f9ab24" d="M 35.257812 20.542969 C 34.816406 18.160156 34.378906 15.777344 33.9375 13.394531 C 33.757812 12.410156 33.574219 11.429688 33.394531 10.445312 C 33.320312 10.046875 33.203125 9.675781 32.910156 9.371094 C 32.355469 8.796875 31.394531 8.710938 30.734375 9.15625 C 30.386719 9.390625 30.152344 9.742188 30.050781 10.144531 C 30.042969 10.167969 30.035156 10.191406 30.03125 10.214844 C 29.738281 11.796875 29.445312 13.378906 29.15625 14.960938 C 28.921875 14.796875 28.667969 14.660156 28.386719 14.5625 C 27.308594 14.183594 26.160156 14.496094 25.355469 15.238281 C 24.785156 14.566406 24.007812 14.074219 23.128906 13.902344 C 22.183594 13.710938 21.246094 13.867188 20.425781 14.304688 C 20.074219 12.871094 19.027344 11.6875 17.585938 11.207031 C 15.898438 10.648438 13.972656 11.246094 12.882812 12.644531 C 12.390625 13.273438 12.085938 14.019531 11.996094 14.804688 C 11.398438 14.636719 10.761719 14.640625 10.171875 14.832031 C 9.84375 13.050781 9.515625 11.269531 9.183594 9.488281 C 8.960938 8.273438 8.738281 7.0625 8.511719 5.851562 C 8.429688 5.40625 8.324219 4.988281 8.019531 4.628906 C 7.390625 3.898438 6.226562 3.761719 5.433594 4.300781 C 5.007812 4.589844 4.726562 5.03125 4.625 5.53125 C 4.167969 8.007812 3.710938 10.484375 3.25 12.960938 C 2.984375 14.410156 2.714844 15.863281 2.449219 17.3125 C 2.386719 17.636719 2.328125 17.957031 2.269531 18.277344 C 2.09375 19.246094 2.203125 20.210938 2.636719 21.097656 C 3.300781 22.453125 4.628906 23.296875 6.042969 23.46875 L 6.042969 32.046875 C 6.042969 32.683594 7.035156 32.683594 7.035156 32.046875 L 7.035156 23.476562 C 7.675781 23.410156 8.304688 23.203125 8.875 22.839844 C 9.875 22.195312 10.613281 21.140625 10.824219 19.964844 C 10.9375 19.335938 10.890625 18.722656 10.777344 18.101562 L 10.714844 17.765625 C 10.597656 17.125 10.476562 16.480469 10.359375 15.835938 C 10.929688 15.605469 11.601562 15.609375 12.214844 15.949219 C 12.527344 16.121094 12.976562 15.910156 12.960938 15.523438 C 12.871094 13.714844 14.226562 12.078125 16.074219 11.992188 C 17.890625 11.90625 19.464844 13.3125 19.558594 15.136719 C 19.582031 15.585938 20.074219 15.757812 20.40625 15.484375 C 21.824219 14.320312 23.945312 14.730469 24.890625 16.273438 C 25.09375 16.605469 25.535156 16.578125 25.746094 16.273438 C 26.273438 15.511719 27.253906 15.199219 28.125 15.515625 C 28.453125 15.636719 28.730469 15.835938 28.945312 16.089844 C 28.929688 16.175781 28.914062 16.261719 28.898438 16.34375 C 28.832031 16.710938 28.765625 17.074219 28.695312 17.4375 C 28.542969 18.273438 28.386719 19.109375 28.234375 19.945312 C 28.1875 20.199219 28.136719 20.453125 28.09375 20.710938 C 27.945312 21.558594 28.042969 22.398438 28.445312 23.164062 C 29.003906 24.234375 30.0625 24.90625 31.195312 25.070312 L 31.195312 32.046875 C 31.195312 32.683594 32.1875 32.683594 32.1875 32.046875 L 32.1875 25.078125 C 32.710938 25.011719 33.226562 24.832031 33.691406 24.527344 C 34.519531 23.976562 35.128906 23.101562 35.300781 22.113281 C 35.394531 21.582031 35.355469 21.070312 35.257812 20.542969 Z M 32.1875 24.066406 L 32.1875 15.648438 C 32.1875 15.011719 31.195312 15.007812 31.195312 15.648438 L 31.195312 24.066406 C 30.496094 23.941406 29.839844 23.546875 29.425781 22.886719 C 28.894531 22.039062 29.007812 21.1875 29.175781 20.277344 C 29.328125 19.449219 29.480469 18.625 29.632812 17.796875 C 29.65625 17.671875 29.679688 17.542969 29.703125 17.417969 C 29.730469 17.277344 29.757812 17.132812 29.78125 16.988281 C 29.800781 16.894531 29.816406 16.800781 29.835938 16.703125 C 29.886719 16.425781 29.9375 16.144531 29.992188 15.867188 C 30.316406 14.113281 30.648438 12.359375 30.960938 10.601562 C 30.96875 10.558594 30.976562 10.519531 30.984375 10.480469 C 31.105469 9.914062 31.6875 9.671875 32.125 9.992188 C 32.339844 10.148438 32.386719 10.421875 32.433594 10.679688 C 32.59375 11.554688 32.757812 12.429688 32.917969 13.304688 L 34.230469 20.410156 C 34.265625 20.605469 34.304688 20.800781 34.339844 20.992188 C 34.464844 21.746094 34.265625 22.535156 33.785156 23.128906 C 33.363281 23.644531 32.789062 23.957031 32.1875 24.066406 Z M 9.734375 17.886719 C 9.777344 18.117188 9.820312 18.347656 9.863281 18.582031 C 10.027344 19.527344 9.769531 20.53125 9.160156 21.277344 C 8.605469 21.957031 7.835938 22.351562 7.035156 22.46875 L 7.035156 12.105469 C 7.035156 11.46875 6.042969 11.46875 6.042969 12.105469 L 6.042969 22.472656 C 5.144531 22.34375 4.292969 21.867188 3.742188 21.039062 C 3.257812 20.308594 3.066406 19.425781 3.21875 18.558594 C 3.265625 18.292969 3.320312 18.023438 3.367188 17.753906 C 3.613281 16.433594 3.855469 15.113281 4.101562 13.792969 C 4.582031 11.175781 5.066406 8.5625 5.550781 5.945312 C 5.558594 5.894531 5.570312 5.84375 5.578125 5.792969 C 5.730469 5.054688 6.5 4.726562 7.09375 5.121094 C 7.402344 5.324219 7.476562 5.667969 7.539062 6.011719 C 7.734375 7.070312 7.929688 8.128906 8.125 9.1875 C 8.503906 11.230469 8.882812 13.273438 9.257812 15.3125 C 9.292969 15.5 9.328125 15.683594 9.359375 15.871094 C 9.398438 16.078125 9.4375 16.285156 9.476562 16.492188 C 9.554688 16.921875 9.636719 17.355469 9.714844 17.785156 C 9.722656 17.820312 9.726562 17.851562 9.734375 17.886719 Z M 9.734375 17.886719 " fill-opacity="1" fill-rule="nonzero"/></g><g clip-path="url(#ed19f65b36)"><path fill="#f9ab24" d="M 27.027344 27.234375 L 26.089844 27.234375 L 26.089844 26.082031 C 26.09375 26.054688 26.097656 26.027344 26.097656 25.996094 L 26.097656 22.941406 C 26.097656 22.671875 25.871094 22.445312 25.601562 22.445312 L 12.253906 22.445312 C 11.984375 22.445312 11.757812 22.671875 11.757812 22.941406 L 11.757812 24.546875 C 11.757812 24.5625 11.757812 24.582031 11.757812 24.601562 L 11.757812 27.234375 L 10.828125 27.234375 C 10.5625 27.234375 10.335938 27.460938 10.335938 27.726562 L 10.335938 29.367188 C 10.335938 29.429688 10.347656 29.488281 10.367188 29.542969 L 10.367188 31.957031 C 10.367188 32.59375 11.359375 32.59375 11.359375 31.957031 L 11.359375 29.863281 L 26.53125 29.863281 L 26.53125 31.957031 C 26.53125 32.59375 27.523438 32.59375 27.523438 31.957031 L 27.523438 27.726562 C 27.523438 27.460938 27.292969 27.234375 27.027344 27.234375 Z M 25.296875 28.875 L 11.324219 28.875 L 11.324219 28.222656 L 26.53125 28.222656 L 26.53125 28.875 Z M 12.75 23.4375 L 25.109375 23.4375 L 25.109375 24.019531 L 12.75 24.019531 Z M 12.75 25.007812 L 25.109375 25.007812 L 25.109375 25.503906 L 12.75 25.503906 Z M 12.746094 26.492188 L 25.101562 26.492188 L 25.101562 27.234375 L 12.746094 27.234375 Z M 12.746094 26.492188 " fill-opacity="1" fill-rule="nonzero"/></g><path fill="#f9ab24" d="M 23.960938 8.695312 C 25 8.5 25.71875 7.582031 25.773438 6.554688 C 25.777344 6.53125 25.777344 6.503906 25.777344 6.480469 C 25.777344 6.449219 25.777344 6.417969 25.773438 6.390625 C 25.714844 5.480469 25.160156 4.6875 24.296875 4.359375 C 23.433594 4.035156 22.402344 4.300781 21.808594 5.007812 C 21.191406 5.742188 21.078125 6.816406 21.582031 7.644531 C 22.078125 8.460938 23.03125 8.867188 23.960938 8.695312 Z M 23.519531 5.210938 C 24.226562 5.210938 24.769531 5.789062 24.789062 6.480469 C 24.769531 7.175781 24.226562 7.75 23.519531 7.75 C 22.824219 7.753906 22.246094 7.171875 22.25 6.480469 C 22.25 5.785156 22.824219 5.210938 23.519531 5.210938 Z M 23.519531 5.210938 " fill-opacity="1" fill-rule="nonzero"/></svg>