<svg xmlns="http://www.w3.org/2000/svg" xmlns:xlink="http://www.w3.org/1999/xlink" width="50" zoomAndPan="magnify" viewBox="0 0 37.5 37.499999" height="50" preserveAspectRatio="xMidYMid meet" version="1.0"><defs><clipPath id="99e6cc8b3e"><path d="M 0 0 L 37.007812 0 L 37.007812 37.007812 L 0 37.007812 Z M 0 0 " clip-rule="nonzero"/></clipPath><clipPath id="1355b8b778"><path d="M 0 3.683594 L 37 3.683594 L 37 31 L 0 31 Z M 0 3.683594 " clip-rule="nonzero"/></clipPath><clipPath id="9893068b8b"><path d="M 11 26 L 22 26 L 22 31.808594 L 11 31.808594 Z M 11 26 " clip-rule="nonzero"/></clipPath></defs><g clip-path="url(#99e6cc8b3e)"><path fill="#ffffff" d="M 0 0 L 37.007812 0 L 37.007812 37.007812 L 0 37.007812 Z M 0 0 " fill-opacity="1" fill-rule="nonzero"/><path fill="#ffffff" d="M 0 0 L 37.007812 0 L 37.007812 37.007812 L 0 37.007812 Z M 0 0 " fill-opacity="1" fill-rule="nonzero"/></g><g clip-path="url(#1355b8b778)"><path fill="#f9ab24" d="M 0.015625 29.953125 L 0.730469 30.351562 L 1.4375 29.082031 L 7.152344 29.082031 L 6.671875 29.949219 L 7.386719 30.347656 L 15.804688 15.234375 L 25.398438 28.800781 L 25.378906 28.800781 C 25.082031 28.800781 24.835938 29.042969 24.835938 29.34375 C 24.835938 29.644531 25.082031 29.890625 25.378906 29.890625 L 36.445312 29.890625 C 36.742188 29.890625 36.988281 29.644531 36.988281 29.34375 C 36.988281 29.042969 36.742188 28.800781 36.445312 28.800781 L 35.660156 28.800781 L 32.09375 23.761719 C 32.042969 23.8125 31.988281 23.863281 31.929688 23.910156 C 31.699219 24.085938 31.425781 24.179688 31.132812 24.179688 C 30.722656 24.179688 30.34375 23.992188 30.097656 23.667969 L 28.773438 21.941406 L 25.957031 21.488281 C 25.8125 21.464844 25.671875 21.417969 25.542969 21.347656 C 24.902344 21.128906 24.425781 19.921875 24.421875 19.910156 L 23.324219 16.679688 L 19.757812 14.046875 C 19.304688 13.710938 19.207031 13.070312 19.542969 12.617188 C 19.734375 12.359375 20.042969 12.203125 20.367188 12.203125 C 20.585938 12.203125 20.792969 12.273438 20.972656 12.402344 L 22.972656 13.878906 C 22.957031 13.839844 22.941406 13.804688 22.929688 13.765625 C 22.75 13.214844 22.792969 12.628906 23.054688 12.113281 C 23.160156 11.902344 23.300781 11.714844 23.460938 11.554688 L 22.628906 10.378906 L 22.535156 10.378906 L 22.535156 9.703125 L 22.273438 9.703125 L 22.273438 6.707031 C 22.273438 5.039062 20.917969 3.683594 19.25 3.683594 L 19.03125 3.683594 C 18.140625 3.683594 17.335938 4.070312 16.78125 4.6875 C 17.039062 5.050781 17.226562 5.460938 17.332031 5.90625 C 17.632812 5.269531 18.28125 4.828125 19.03125 4.828125 L 19.25 4.828125 C 20.285156 4.828125 21.128906 5.671875 21.128906 6.707031 L 21.128906 9.703125 L 16.933594 9.703125 L 16.933594 6.707031 C 16.933594 5.039062 15.578125 3.683594 13.910156 3.683594 L 13.691406 3.683594 C 12.023438 3.683594 10.667969 5.039062 10.667969 6.707031 L 10.667969 9.703125 L 9.347656 9.703125 L 9.347656 10.628906 L 10.78125 10.628906 Z M 12.546875 10.628906 L 13.105469 11.417969 L 11.28125 11.417969 L 11.71875 10.628906 Z M 6.585938 19.839844 L 8.476562 16.445312 L 14.191406 16.445312 L 12.300781 19.839844 Z M 11.847656 20.660156 L 9.957031 24.054688 L 4.242188 24.054688 L 6.132812 20.660156 Z M 1.894531 28.265625 L 3.785156 24.871094 L 9.5 24.871094 L 7.609375 28.265625 Z M 14.648438 15.628906 L 8.933594 15.628906 L 10.824219 12.234375 L 13.683594 12.234375 L 15.28125 14.496094 Z M 27.730469 28.800781 L 26.667969 28.800781 L 13.8125 10.628906 L 14.875 10.628906 Z M 11.8125 9.472656 L 11.8125 6.707031 C 11.8125 5.671875 12.65625 4.828125 13.691406 4.828125 L 13.910156 4.828125 C 14.945312 4.828125 15.789062 5.671875 15.789062 6.707031 L 15.789062 9.703125 L 11.8125 9.703125 Z M 11.8125 9.472656 " fill-opacity="1" fill-rule="nonzero"/></g><path fill="#f9ab24" d="M 24.332031 15.492188 L 20.679688 12.796875 C 20.445312 12.621094 20.113281 12.671875 19.9375 12.910156 C 19.761719 13.144531 19.8125 13.476562 20.050781 13.652344 L 23.738281 16.375 L 24.886719 19.757812 C 24.964844 20.003906 25.460938 20.875 25.730469 20.886719 C 25.820312 20.945312 25.925781 20.984375 26.035156 21.003906 L 29.042969 21.488281 L 30.484375 23.371094 C 30.644531 23.578125 30.890625 23.691406 31.132812 23.691406 C 31.308594 23.691406 31.484375 23.636719 31.632812 23.523438 C 31.988281 23.246094 32.058594 22.734375 31.78125 22.375 L 30.140625 20.234375 C 30.015625 20.070312 29.828125 19.957031 29.625 19.925781 L 28.953125 19.816406 L 29.921875 19.453125 L 33.078125 20.746094 C 33.179688 20.785156 33.285156 20.804688 33.386719 20.804688 C 33.710938 20.804688 34.015625 20.613281 34.144531 20.296875 C 34.316406 19.878906 34.117188 19.402344 33.699219 19.230469 L 30.246094 17.820312 C 30.054688 17.742188 29.839844 17.738281 29.648438 17.8125 L 28.332031 18.304688 L 27.339844 15.386719 L 30.476562 12.246094 C 30.683594 12.039062 30.683594 11.703125 30.476562 11.496094 C 30.269531 11.289062 29.933594 11.289062 29.722656 11.496094 L 26.414062 14.8125 Z M 24.332031 15.492188 " fill-opacity="1" fill-rule="nonzero"/><path fill="#f9ab24" d="M 23.394531 13.613281 C 23.402344 13.636719 23.414062 13.664062 23.425781 13.6875 L 23.410156 13.6875 C 23.367188 13.691406 23.332031 13.730469 23.332031 13.773438 C 23.335938 13.820312 23.371094 13.851562 23.414062 13.851562 C 23.417969 13.851562 23.417969 13.851562 23.417969 13.851562 L 24.03125 13.816406 C 24.011719 13.867188 23.996094 13.914062 23.988281 13.960938 L 23.574219 13.988281 C 23.734375 14.238281 23.953125 14.4375 24.207031 14.574219 L 24.203125 14.578125 C 24.179688 14.617188 24.1875 14.667969 24.222656 14.691406 C 24.238281 14.703125 24.253906 14.707031 24.269531 14.707031 C 24.296875 14.707031 24.324219 14.695312 24.339844 14.671875 L 24.359375 14.644531 C 24.417969 14.667969 24.480469 14.6875 24.542969 14.707031 C 24.734375 14.789062 24.960938 14.84375 25.191406 14.84375 C 25.398438 14.84375 25.613281 14.800781 25.808594 14.699219 C 26.117188 14.542969 26.363281 14.253906 26.496094 13.890625 C 26.519531 13.820312 26.539062 13.75 26.554688 13.683594 C 26.578125 13.621094 26.597656 13.558594 26.613281 13.492188 L 26.648438 13.496094 C 26.695312 13.496094 26.730469 13.457031 26.730469 13.414062 C 26.734375 13.367188 26.695312 13.332031 26.652344 13.332031 L 26.644531 13.332031 C 26.679688 13.082031 26.664062 12.824219 26.582031 12.570312 C 26.570312 12.539062 26.558594 12.507812 26.542969 12.476562 L 26.277344 12.796875 C 26.234375 12.773438 26.1875 12.757812 26.136719 12.746094 L 26.523438 12.269531 C 26.550781 12.234375 26.546875 12.183594 26.511719 12.152344 C 26.476562 12.125 26.425781 12.128906 26.398438 12.164062 L 26.390625 12.175781 C 25.984375 11.554688 25.203125 11.257812 24.46875 11.5 C 23.585938 11.785156 23.109375 12.734375 23.394531 13.613281 Z M 26.300781 13.007812 L 26.300781 13.011719 L 26.304688 13.011719 C 26.328125 13.039062 26.351562 13.066406 26.367188 13.097656 C 26.453125 13.265625 26.445312 13.554688 26.34375 13.832031 C 26.328125 13.867188 26.3125 13.90625 26.292969 13.949219 L 26.242188 13.894531 C 26.226562 13.910156 26.203125 13.929688 26.183594 13.945312 L 26.234375 14.007812 C 26.253906 13.992188 26.269531 13.980469 26.285156 13.964844 C 26.195312 14.15625 26.027344 14.40625 25.734375 14.554688 C 25.480469 14.683594 25.191406 14.703125 24.929688 14.65625 C 24.953125 14.652344 24.972656 14.648438 24.996094 14.640625 L 24.980469 14.5625 C 24.949219 14.566406 24.925781 14.574219 24.898438 14.578125 L 24.917969 14.65625 C 24.574219 14.589844 24.28125 14.410156 24.183594 14.214844 C 24.164062 14.179688 24.15625 14.144531 24.148438 14.113281 L 24.152344 14.109375 L 24.148438 14.105469 C 24.125 13.949219 24.210938 13.796875 24.292969 13.6875 C 24.445312 13.488281 24.699219 13.289062 25.007812 13.132812 C 25.335938 12.964844 25.648438 12.878906 25.894531 12.878906 C 26.070312 12.878906 26.210938 12.921875 26.300781 13.007812 Z M 26.300781 13.007812 " fill-opacity="1" fill-rule="nonzero"/><path fill="#f9ab24" d="M 25.40625 13.269531 L 25.378906 13.191406 C 25.351562 13.203125 25.324219 13.214844 25.296875 13.222656 L 25.328125 13.300781 C 25.355469 13.289062 25.378906 13.277344 25.40625 13.269531 Z M 25.40625 13.269531 " fill-opacity="1" fill-rule="nonzero"/><path fill="#f9ab24" d="M 25.890625 13.113281 L 25.867188 13.035156 C 25.839844 13.042969 25.8125 13.050781 25.785156 13.058594 L 25.808594 13.136719 C 25.835938 13.128906 25.863281 13.121094 25.890625 13.113281 Z M 25.890625 13.113281 " fill-opacity="1" fill-rule="nonzero"/><path fill="#f9ab24" d="M 25.648438 13.183594 L 25.621094 13.105469 C 25.59375 13.117188 25.566406 13.125 25.539062 13.132812 L 25.566406 13.210938 C 25.59375 13.203125 25.621094 13.195312 25.648438 13.183594 Z M 25.648438 13.183594 " fill-opacity="1" fill-rule="nonzero"/><path fill="#f9ab24" d="M 25.136719 13.386719 C 25.148438 13.378906 25.164062 13.375 25.175781 13.367188 L 25.140625 13.292969 C 25.125 13.300781 25.113281 13.308594 25.101562 13.3125 L 25.0625 13.335938 L 25.101562 13.40625 Z M 25.136719 13.386719 " fill-opacity="1" fill-rule="nonzero"/><path fill="#f9ab24" d="M 24.957031 13.488281 L 24.914062 13.421875 C 24.886719 13.4375 24.863281 13.449219 24.839844 13.46875 L 24.882812 13.535156 C 24.90625 13.519531 24.933594 13.503906 24.957031 13.488281 Z M 24.957031 13.488281 " fill-opacity="1" fill-rule="nonzero"/><path fill="#f9ab24" d="M 24.34375 13.941406 L 24.289062 13.878906 C 24.269531 13.898438 24.246094 13.917969 24.226562 13.933594 L 24.277344 13.996094 C 24.296875 13.980469 24.320312 13.960938 24.34375 13.941406 Z M 24.34375 13.941406 " fill-opacity="1" fill-rule="nonzero"/><path fill="#f9ab24" d="M 24.421875 13.769531 L 24.472656 13.835938 C 24.496094 13.816406 24.519531 13.800781 24.542969 13.78125 L 24.492188 13.71875 C 24.46875 13.734375 24.445312 13.753906 24.421875 13.769531 Z M 24.421875 13.769531 " fill-opacity="1" fill-rule="nonzero"/><path fill="#f9ab24" d="M 24.628906 13.613281 L 24.675781 13.679688 C 24.699219 13.664062 24.722656 13.648438 24.746094 13.628906 L 24.699219 13.5625 C 24.675781 13.582031 24.652344 13.597656 24.628906 13.613281 Z M 24.628906 13.613281 " fill-opacity="1" fill-rule="nonzero"/><path fill="#f9ab24" d="M 26.117188 12.96875 C 26.089844 12.976562 26.0625 12.984375 26.035156 12.992188 L 26.054688 13.070312 C 26.082031 13.0625 26.109375 13.054688 26.136719 13.050781 Z M 26.117188 12.96875 " fill-opacity="1" fill-rule="nonzero"/><path fill="#f9ab24" d="M 25.589844 14.359375 L 25.625 14.433594 C 25.636719 14.425781 25.648438 14.421875 25.664062 14.414062 C 25.675781 14.410156 25.6875 14.402344 25.699219 14.394531 L 25.660156 14.324219 C 25.648438 14.328125 25.636719 14.335938 25.625 14.34375 C 25.613281 14.347656 25.601562 14.355469 25.589844 14.359375 Z M 25.589844 14.359375 " fill-opacity="1" fill-rule="nonzero"/><path fill="#f9ab24" d="M 25.996094 14.101562 L 26.042969 14.164062 C 26.066406 14.148438 26.089844 14.132812 26.109375 14.113281 L 26.058594 14.050781 C 26.039062 14.066406 26.015625 14.082031 25.996094 14.101562 Z M 25.996094 14.101562 " fill-opacity="1" fill-rule="nonzero"/><path fill="#f9ab24" d="M 25.796875 14.242188 L 25.84375 14.308594 C 25.867188 14.292969 25.886719 14.277344 25.910156 14.261719 L 25.863281 14.195312 C 25.84375 14.210938 25.820312 14.226562 25.796875 14.242188 Z M 25.796875 14.242188 " fill-opacity="1" fill-rule="nonzero"/><path fill="#f9ab24" d="M 25.394531 14.527344 C 25.421875 14.519531 25.445312 14.507812 25.472656 14.5 L 25.441406 14.421875 C 25.417969 14.433594 25.390625 14.441406 25.367188 14.449219 Z M 25.394531 14.527344 " fill-opacity="1" fill-rule="nonzero"/><path fill="#f9ab24" d="M 25.136719 14.519531 L 25.15625 14.601562 C 25.183594 14.59375 25.210938 14.585938 25.238281 14.578125 L 25.214844 14.5 C 25.1875 14.507812 25.160156 14.515625 25.136719 14.519531 Z M 25.136719 14.519531 " fill-opacity="1" fill-rule="nonzero"/><g clip-path="url(#9893068b8b)"><path fill="#f9ab24" d="M 15.28125 30.328125 L 14.269531 31.480469 L 20.480469 31.480469 C 20 30.96875 18.023438 28.742188 18.089844 27.125 C 18.171875 27.144531 18.253906 27.167969 18.332031 27.191406 C 18.71875 27.3125 19.019531 27.464844 19.148438 27.53125 L 20.414062 29.042969 C 20.503906 29.152344 20.632812 29.207031 20.757812 29.207031 C 20.863281 29.207031 20.964844 29.171875 21.046875 29.101562 C 21.238281 28.941406 21.261719 28.65625 21.105469 28.46875 L 19.78125 26.890625 C 19.75 26.851562 19.710938 26.816406 19.667969 26.789062 C 19.589844 26.746094 17.808594 25.710938 16.273438 26.3125 C 15.851562 26.449219 14.417969 27.199219 13.816406 27.515625 L 12.0625 26.640625 C 11.84375 26.527344 11.570312 26.617188 11.460938 26.839844 C 11.351562 27.0625 11.441406 27.332031 11.660156 27.445312 L 13.625 28.425781 C 13.753906 28.492188 13.90625 28.488281 14.035156 28.417969 C 14.355469 28.25 14.734375 28.050781 15.105469 27.859375 C 15.195312 27.8125 15.285156 27.765625 15.375 27.722656 C 15.15625 29.136719 15.28125 30.328125 15.28125 30.328125 Z M 15.28125 30.328125 " fill-opacity="1" fill-rule="nonzero"/></g><path fill="#f9ab24" d="M 17.203125 23.523438 C 17.339844 23.789062 17.40625 24.078125 17.402344 24.371094 C 17.914062 24.703125 18.503906 25.160156 19.089844 25.082031 C 20.328125 24.921875 20.292969 23.773438 20.089844 24.082031 C 19.882812 24.390625 19.433594 24.632812 18.347656 23.796875 C 17.921875 23.464844 17.546875 23.3125 17.222656 23.269531 C 17.253906 23.351562 17.246094 23.445312 17.203125 23.523438 Z M 17.203125 23.523438 " fill-opacity="1" fill-rule="nonzero"/><path fill="#f9ab24" d="M 17.046875 23.628906 C 16.859375 23.847656 16.503906 24.21875 16.023438 24.578125 C 16.035156 24.609375 16.042969 24.636719 16.054688 24.664062 C 16.042969 24.671875 16.023438 24.6875 15.996094 24.707031 L 16.042969 24.773438 C 16.058594 24.765625 16.070312 24.757812 16.078125 24.75 C 16.257812 25.429688 16.035156 25.90625 15.972656 25.984375 C 15.851562 26.015625 15.730469 26.035156 15.601562 26.042969 C 15.175781 26.0625 14.773438 25.921875 14.457031 25.660156 C 14.40625 25.621094 14.359375 25.578125 14.3125 25.53125 C 14.3125 25.527344 14.3125 25.527344 14.316406 25.527344 L 14.300781 25.449219 C 14.28125 25.453125 14.265625 25.453125 14.25 25.457031 C 14.242188 25.449219 14.234375 25.441406 14.226562 25.429688 C 14.164062 25.445312 14.105469 25.453125 14.042969 25.460938 C 14.394531 25.933594 14.9375 26.207031 15.523438 26.207031 C 15.550781 26.207031 15.582031 26.207031 15.609375 26.207031 C 15.753906 26.199219 15.898438 26.175781 16.035156 26.136719 C 16.054688 26.132812 16.097656 26.117188 16.164062 25.976562 C 16.171875 25.960938 16.183594 25.9375 16.195312 25.914062 C 16.25 25.886719 16.308594 25.859375 16.363281 25.828125 C 17.140625 25.386719 17.429688 24.421875 17.046875 23.628906 Z M 17.046875 23.628906 " fill-opacity="1" fill-rule="nonzero"/><path fill="#f9ab24" d="M 13.804688 25.179688 C 13.8125 25.242188 13.867188 25.289062 13.929688 25.289062 C 13.933594 25.289062 13.9375 25.289062 13.941406 25.289062 C 15.433594 25.109375 16.59375 23.945312 17.023438 23.453125 C 17.070312 23.402344 17.0625 23.324219 17.011719 23.28125 C 16.960938 23.238281 16.886719 23.242188 16.839844 23.292969 C 16.839844 23.292969 16.839844 23.296875 16.835938 23.296875 C 16.324219 22.664062 15.417969 22.472656 14.6875 22.890625 C 13.929688 23.324219 13.632812 24.253906 13.976562 25.035156 C 13.953125 25.039062 13.933594 25.042969 13.910156 25.042969 C 13.84375 25.050781 13.796875 25.113281 13.804688 25.179688 Z M 13.804688 25.179688 " fill-opacity="1" fill-rule="nonzero"/><path fill="#f9ab24" d="M 14.476562 25.496094 C 14.503906 25.488281 14.53125 25.480469 14.558594 25.472656 L 14.535156 25.394531 C 14.511719 25.402344 14.484375 25.410156 14.457031 25.414062 Z M 14.476562 25.496094 " fill-opacity="1" fill-rule="nonzero"/><path fill="#f9ab24" d="M 15.863281 24.800781 C 15.839844 24.8125 15.816406 24.828125 15.792969 24.84375 L 15.835938 24.914062 C 15.863281 24.898438 15.886719 24.882812 15.90625 24.867188 Z M 15.863281 24.800781 " fill-opacity="1" fill-rule="nonzero"/><path fill="#f9ab24" d="M 15.222656 25.152344 C 15.199219 25.160156 15.171875 25.171875 15.148438 25.183594 L 15.179688 25.257812 C 15.207031 25.246094 15.230469 25.238281 15.257812 25.226562 Z M 15.222656 25.152344 " fill-opacity="1" fill-rule="nonzero"/><path fill="#f9ab24" d="M 15.027344 25.320312 L 15 25.246094 C 14.972656 25.253906 14.949219 25.265625 14.921875 25.273438 L 14.949219 25.351562 C 14.976562 25.339844 15.003906 25.332031 15.027344 25.320312 Z M 15.027344 25.320312 " fill-opacity="1" fill-rule="nonzero"/><path fill="#f9ab24" d="M 14.792969 25.40625 L 14.769531 25.328125 C 14.742188 25.335938 14.71875 25.34375 14.691406 25.351562 L 14.714844 25.429688 C 14.742188 25.421875 14.769531 25.414062 14.792969 25.40625 Z M 14.792969 25.40625 " fill-opacity="1" fill-rule="nonzero"/><path fill="#f9ab24" d="M 15.65625 24.929688 C 15.632812 24.941406 15.609375 24.953125 15.585938 24.96875 L 15.625 25.039062 C 15.648438 25.027344 15.671875 25.011719 15.695312 25 Z M 15.65625 24.929688 " fill-opacity="1" fill-rule="nonzero"/><path fill="#f9ab24" d="M 15.441406 25.042969 C 15.417969 25.058594 15.394531 25.070312 15.367188 25.082031 L 15.40625 25.15625 C 15.429688 25.140625 15.453125 25.128906 15.480469 25.117188 Z M 15.441406 25.042969 " fill-opacity="1" fill-rule="nonzero"/><path fill="#f9ab24" d="M 15.742188 25.175781 L 15.78125 25.25 C 15.804688 25.234375 15.828125 25.222656 15.851562 25.207031 L 15.8125 25.136719 C 15.789062 25.148438 15.765625 25.164062 15.742188 25.175781 Z M 15.742188 25.175781 " fill-opacity="1" fill-rule="nonzero"/><path fill="#f9ab24" d="M 15.078125 25.476562 L 15.105469 25.554688 C 15.132812 25.542969 15.15625 25.535156 15.183594 25.523438 L 15.152344 25.449219 C 15.128906 25.457031 15.101562 25.46875 15.078125 25.476562 Z M 15.078125 25.476562 " fill-opacity="1" fill-rule="nonzero"/><path fill="#f9ab24" d="M 16.0625 25.078125 L 16.019531 25.007812 C 15.996094 25.023438 15.976562 25.039062 15.949219 25.054688 L 15.996094 25.121094 C 16.019531 25.105469 16.042969 25.09375 16.0625 25.078125 Z M 16.0625 25.078125 " fill-opacity="1" fill-rule="nonzero"/><path fill="#f9ab24" d="M 14.871094 25.632812 C 14.898438 25.625 14.925781 25.617188 14.949219 25.609375 L 14.925781 25.53125 C 14.898438 25.539062 14.871094 25.546875 14.847656 25.554688 Z M 14.871094 25.632812 " fill-opacity="1" fill-rule="nonzero"/><path fill="#f9ab24" d="M 15.523438 25.289062 L 15.5625 25.363281 C 15.585938 25.347656 15.609375 25.335938 15.636719 25.324219 L 15.597656 25.253906 C 15.574219 25.265625 15.550781 25.277344 15.523438 25.289062 Z M 15.523438 25.289062 " fill-opacity="1" fill-rule="nonzero"/><path fill="#f9ab24" d="M 15.304688 25.386719 L 15.335938 25.464844 C 15.359375 25.453125 15.386719 25.441406 15.410156 25.429688 L 15.378906 25.355469 C 15.355469 25.367188 15.328125 25.378906 15.304688 25.386719 Z M 15.304688 25.386719 " fill-opacity="1" fill-rule="nonzero"/><path fill="#f9ab24" d="M 14.613281 25.621094 L 14.632812 25.703125 C 14.660156 25.695312 14.6875 25.6875 14.714844 25.679688 L 14.691406 25.601562 C 14.664062 25.609375 14.640625 25.617188 14.613281 25.621094 Z M 14.613281 25.621094 " fill-opacity="1" fill-rule="nonzero"/></svg>