<svg xmlns="http://www.w3.org/2000/svg" xmlns:xlink="http://www.w3.org/1999/xlink" width="50" zoomAndPan="magnify" viewBox="0 0 37.5 37.499999" height="50" preserveAspectRatio="xMidYMid meet" version="1.0"><defs><clipPath id="fa4c3d8281"><path d="M 0 0 L 37.007812 0 L 37.007812 37.007812 L 0 37.007812 Z M 0 0 " clip-rule="nonzero"/></clipPath><clipPath id="ed0dabcbcd"><path d="M 6.371094 0 L 27.835938 0 L 27.835938 36.265625 L 6.371094 36.265625 Z M 6.371094 0 " clip-rule="nonzero"/></clipPath></defs><g clip-path="url(#fa4c3d8281)"><path fill="#ffffff" d="M 0 0 L 37.007812 0 L 37.007812 37.007812 L 0 37.007812 Z M 0 0 " fill-opacity="1" fill-rule="nonzero"/><path fill="#ffffff" d="M 0 0 L 37.007812 0 L 37.007812 37.007812 L 0 37.007812 Z M 0 0 " fill-opacity="1" fill-rule="nonzero"/></g><g clip-path="url(#ed0dabcbcd)"><path fill="#f9ab24" d="M 8.820312 36.027344 C 8.820312 36.027344 8.820312 35.890625 8.851562 35.554688 C 8.917969 34.824219 9.042969 33.210938 9.101562 32.3125 C 9.132812 31.800781 9.183594 29.230469 9.214844 26.59375 C 9.246094 23.960938 9.292969 21.230469 9.316406 20.523438 C 9.40625 18.21875 9.449219 14.410156 9.390625 14.445312 C 9.359375 14.464844 9.265625 14.507812 9.179688 14.542969 C 9.023438 14.601562 9.023438 14.601562 9.144531 14.648438 C 9.230469 14.683594 9.265625 14.742188 9.265625 14.847656 C 9.265625 15.042969 9.078125 15.355469 8.960938 15.355469 C 8.886719 15.355469 8.875 15.316406 8.902344 15.144531 L 8.9375 14.9375 L 8.683594 14.878906 C 8.476562 14.832031 8.386719 14.835938 8.210938 14.90625 C 8.015625 14.984375 7.992188 14.984375 7.929688 14.898438 C 7.867188 14.8125 7.820312 14.816406 7.277344 14.972656 C 6.601562 15.160156 6.5 15.167969 6.453125 15.046875 C 6.398438 14.910156 6.535156 14.839844 7.269531 14.648438 C 7.828125 14.5 7.941406 14.453125 7.921875 14.378906 C 7.886719 14.238281 8.050781 14.125 8.75 13.8125 C 9.269531 13.578125 9.402344 13.496094 9.433594 13.390625 C 9.453125 13.316406 9.484375 12.691406 9.507812 12 L 9.546875 10.742188 L 9.261719 10.800781 C 9.039062 10.847656 8.96875 10.84375 8.953125 10.792969 C 8.941406 10.757812 8.886719 10.726562 8.835938 10.726562 C 8.785156 10.726562 8.71875 10.703125 8.6875 10.671875 C 8.648438 10.632812 8.429688 10.710938 8.007812 10.914062 C 7.640625 11.085938 7.265625 11.226562 7.097656 11.246094 C 6.835938 11.28125 6.816406 11.277344 6.816406 11.167969 C 6.816406 11.09375 6.882812 11.011719 6.992188 10.945312 L 7.171875 10.835938 L 7.019531 10.835938 C 6.839844 10.835938 6.765625 10.699219 6.878906 10.585938 C 6.984375 10.480469 7.785156 10.136719 8.53125 9.878906 C 9.09375 9.683594 9.140625 9.675781 9.304688 9.75 C 9.402344 9.792969 9.488281 9.863281 9.5 9.910156 C 9.511719 9.953125 9.539062 9.828125 9.5625 9.625 C 9.585938 9.421875 9.59375 9.226562 9.574219 9.183594 C 9.523438 9.050781 9.144531 9.03125 8.8125 9.144531 C 8.648438 9.203125 8.464844 9.238281 8.410156 9.222656 C 8.359375 9.207031 8.207031 9.234375 8.074219 9.28125 C 7.753906 9.394531 7.632812 9.390625 7.632812 9.261719 C 7.632812 9.171875 7.597656 9.164062 7.285156 9.1875 C 7.046875 9.207031 6.925781 9.195312 6.898438 9.148438 C 6.820312 9.019531 7.011719 8.945312 7.628906 8.859375 C 8.117188 8.792969 8.269531 8.75 8.335938 8.667969 C 8.457031 8.515625 8.628906 8.441406 8.847656 8.441406 C 8.957031 8.441406 9.117188 8.382812 9.234375 8.304688 C 9.34375 8.230469 9.46875 8.167969 9.511719 8.167969 C 9.574219 8.167969 9.59375 8.089844 9.59375 7.839844 C 9.59375 7.59375 9.574219 7.515625 9.511719 7.515625 C 9.46875 7.515625 9.414062 7.546875 9.390625 7.585938 C 9.304688 7.726562 7.1875 8.632812 7.058594 8.582031 C 6.90625 8.523438 6.980469 8.386719 7.238281 8.253906 C 7.433594 8.152344 7.464844 8.117188 7.375 8.117188 C 7.289062 8.113281 7.25 8.082031 7.25 8.007812 C 7.25 7.925781 7.324219 7.878906 7.550781 7.804688 C 7.796875 7.730469 7.84375 7.695312 7.820312 7.613281 C 7.796875 7.542969 7.839844 7.488281 7.96875 7.410156 C 8.070312 7.351562 8.1875 7.269531 8.230469 7.226562 C 8.277344 7.179688 8.613281 7.054688 8.980469 6.941406 C 9.636719 6.738281 9.648438 6.730469 9.648438 6.574219 C 9.648438 6.429688 9.632812 6.417969 9.511719 6.449219 C 9.441406 6.464844 9.175781 6.601562 8.929688 6.753906 C 8.679688 6.902344 8.433594 7.023438 8.382812 7.023438 C 8.269531 7.023438 8.253906 6.863281 8.355469 6.753906 C 8.390625 6.710938 8.261719 6.792969 8.066406 6.929688 C 7.253906 7.511719 7.148438 7.578125 7.09375 7.542969 C 6.90625 7.429688 7.246094 7.085938 7.972656 6.648438 C 8.148438 6.542969 8.167969 6.507812 8.140625 6.371094 C 8.113281 6.234375 8.136719 6.199219 8.292969 6.105469 C 8.390625 6.042969 8.546875 5.976562 8.636719 5.957031 C 8.730469 5.941406 8.921875 5.875 9.066406 5.8125 C 9.285156 5.71875 9.351562 5.710938 9.441406 5.765625 C 9.605469 5.871094 9.703125 5.753906 9.703125 5.445312 C 9.703125 5.222656 9.683594 5.183594 9.578125 5.152344 C 9.347656 5.089844 9.046875 5.121094 8.636719 5.238281 C 8.324219 5.332031 8.203125 5.347656 8.128906 5.300781 C 8.054688 5.253906 7.988281 5.265625 7.820312 5.371094 C 7.703125 5.441406 7.566406 5.5 7.515625 5.5 C 7.417969 5.5 7.25 5.28125 7.25 5.148438 C 7.25 5.027344 8.277344 4.375 9.007812 4.03125 L 9.644531 3.730469 L 9.644531 3.519531 C 9.648438 3.320312 9.640625 3.3125 9.496094 3.347656 C 9.375 3.378906 8.082031 3.65625 7.089844 3.863281 C 6.808594 3.921875 6.652344 3.863281 6.652344 3.699219 C 6.652344 3.566406 6.894531 3.457031 7.785156 3.183594 C 8.488281 2.96875 8.816406 2.855469 9.101562 2.730469 L 9.292969 2.648438 L 9.128906 2.617188 C 9 2.59375 8.964844 2.558594 8.964844 2.449219 C 8.964844 2.339844 9.023438 2.289062 9.265625 2.167969 L 9.566406 2.019531 L 9.390625 1.984375 C 9.222656 1.949219 9.128906 1.835938 9.1875 1.738281 C 9.203125 1.710938 9.316406 1.640625 9.433594 1.578125 C 9.648438 1.46875 9.707031 1.335938 9.585938 1.214844 C 9.542969 1.171875 9.457031 1.246094 9.273438 1.492188 C 8.839844 2.0625 8.671875 1.855469 9.054688 1.222656 C 9.238281 0.914062 9.777344 0.0898438 9.84375 0.0078125 C 9.851562 -0.00390625 9.898438 0.00390625 9.945312 0.0234375 C 10.011719 0.046875 10.019531 0.078125 9.980469 0.148438 C 9.9375 0.226562 9.957031 0.257812 10.074219 0.308594 C 10.152344 0.34375 10.382812 0.511719 10.585938 0.679688 C 10.964844 1 11.050781 1.183594 10.84375 1.238281 C 10.773438 1.257812 10.734375 1.3125 10.734375 1.398438 C 10.734375 1.5625 10.605469 1.617188 10.394531 1.539062 C 10.265625 1.488281 10.199219 1.492188 10.074219 1.558594 C 9.886719 1.65625 9.917969 1.742188 10.140625 1.742188 C 10.242188 1.742188 10.316406 1.777344 10.339844 1.835938 C 10.371094 1.921875 10.316406 1.984375 10.046875 2.167969 C 9.960938 2.226562 9.984375 2.230469 10.207031 2.203125 C 10.351562 2.1875 10.5 2.195312 10.535156 2.222656 C 10.574219 2.253906 10.765625 2.253906 11.03125 2.226562 C 11.398438 2.183594 11.480469 2.191406 11.601562 2.273438 C 11.679688 2.324219 11.773438 2.371094 11.816406 2.378906 C 11.984375 2.40625 12.042969 2.457031 12.042969 2.582031 C 12.042969 2.65625 12.015625 2.734375 11.984375 2.753906 C 11.953125 2.773438 11.628906 2.824219 11.265625 2.867188 C 10.625 2.941406 10.28125 3.050781 10.683594 3.050781 C 10.929688 3.050781 11.128906 3.1875 11.105469 3.339844 C 11.097656 3.40625 11 3.515625 10.886719 3.589844 C 10.703125 3.707031 10.691406 3.726562 10.777344 3.789062 C 10.878906 3.863281 10.835938 3.945312 10.691406 3.953125 C 10.441406 3.96875 10.410156 3.980469 10.410156 4.054688 C 10.410156 4.101562 10.476562 4.152344 10.558594 4.171875 C 10.640625 4.191406 10.753906 4.246094 10.804688 4.292969 C 10.871094 4.351562 11.128906 4.398438 11.613281 4.449219 C 12.007812 4.484375 12.359375 4.546875 12.402344 4.578125 C 12.503906 4.664062 12.496094 4.84375 12.386719 4.886719 C 12.339844 4.902344 11.933594 4.875 11.484375 4.824219 C 11.035156 4.773438 10.65625 4.742188 10.644531 4.757812 C 10.613281 4.785156 10.757812 4.8125 11.335938 4.886719 C 11.679688 4.929688 11.6875 4.933594 11.6875 5.09375 L 11.6875 5.253906 L 11.335938 5.25 C 11.140625 5.25 10.785156 5.238281 10.546875 5.222656 L 10.109375 5.199219 L 10.09375 5.40625 C 10.082031 5.539062 10.097656 5.609375 10.144531 5.609375 C 10.179688 5.609375 10.261719 5.65625 10.328125 5.71875 C 10.40625 5.792969 10.570312 5.84375 10.855469 5.878906 C 11.195312 5.921875 11.320312 5.96875 11.597656 6.152344 C 11.851562 6.320312 11.933594 6.40625 11.933594 6.503906 C 11.933594 6.585938 11.972656 6.640625 12.042969 6.660156 C 12.167969 6.691406 12.183594 6.820312 12.074219 6.910156 C 11.867188 7.082031 10.332031 6.582031 10.261719 6.316406 C 10.246094 6.257812 10.199219 6.207031 10.15625 6.207031 C 10.101562 6.207031 10.082031 6.304688 10.082031 6.617188 C 10.082031 6.988281 10.09375 7.023438 10.191406 7.023438 C 10.25 7.023438 10.300781 6.988281 10.300781 6.945312 C 10.300781 6.808594 10.394531 6.800781 10.882812 6.890625 C 11.414062 6.992188 11.550781 7.046875 11.550781 7.160156 C 11.550781 7.199219 11.625 7.308594 11.714844 7.398438 C 11.898438 7.578125 11.921875 7.703125 11.792969 7.773438 C 11.722656 7.816406 11.738281 7.835938 11.882812 7.898438 C 12.074219 7.976562 12.367188 8.207031 12.367188 8.277344 C 12.367188 8.300781 12.300781 8.335938 12.214844 8.355469 C 12.054688 8.390625 11.195312 8.0625 10.585938 7.734375 C 10.097656 7.46875 10.082031 7.480469 10.082031 8.082031 C 10.082031 8.367188 10.101562 8.605469 10.125 8.621094 C 10.144531 8.632812 10.371094 8.609375 10.625 8.570312 C 11.269531 8.472656 11.339844 8.476562 11.375 8.601562 C 11.390625 8.675781 11.449219 8.710938 11.535156 8.710938 C 11.710938 8.710938 11.878906 8.804688 11.878906 8.902344 C 11.878906 8.945312 11.824219 9.015625 11.757812 9.0625 C 11.640625 9.144531 11.644531 9.148438 11.894531 9.148438 C 12.179688 9.148438 12.273438 9.246094 12.160156 9.425781 C 12.105469 9.511719 12.113281 9.527344 12.195312 9.527344 C 12.308594 9.527344 12.421875 9.628906 12.421875 9.730469 C 12.421875 9.964844 11.789062 9.875 10.394531 9.449219 L 10.136719 9.371094 L 10.136719 9.695312 C 10.136719 10.007812 10.140625 10.019531 10.277344 10.019531 C 10.542969 10.019531 10.902344 10.140625 11.003906 10.269531 C 11.066406 10.351562 11.1875 10.410156 11.339844 10.433594 C 11.65625 10.480469 11.769531 10.542969 11.769531 10.671875 C 11.769531 10.769531 11.828125 10.9375 11.949219 11.203125 C 11.996094 11.300781 11.988281 11.347656 11.917969 11.417969 C 11.839844 11.496094 11.785156 11.5 11.433594 11.4375 C 11.214844 11.398438 10.847656 11.3125 10.621094 11.246094 L 10.207031 11.128906 L 10.175781 13.0625 L 10.140625 15 L 10.300781 15.144531 C 10.410156 15.25 10.539062 15.300781 10.757812 15.328125 C 11.117188 15.375 11.179688 15.449219 11.085938 15.726562 C 11.011719 15.945312 10.933594 15.964844 10.421875 15.886719 L 10.1875 15.855469 L 10.203125 16.675781 L 10.21875 17.5 L 10.789062 17.71875 C 11.105469 17.839844 11.421875 17.980469 11.496094 18.027344 C 11.574219 18.078125 11.773438 18.132812 11.941406 18.152344 C 12.339844 18.195312 12.410156 18.222656 12.457031 18.363281 C 12.507812 18.53125 12.34375 18.621094 11.984375 18.621094 C 11.6875 18.621094 11.675781 18.625 11.703125 18.75 C 11.738281 18.933594 11.566406 19.011719 11.125 19.015625 C 10.835938 19.015625 10.703125 18.984375 10.476562 18.871094 C 10.265625 18.765625 10.183594 18.746094 10.167969 18.796875 C 10.113281 18.976562 9.941406 29.195312 9.949219 31.875 C 9.953125 32.65625 9.984375 33.769531 10.023438 34.351562 C 10.140625 36.152344 10.113281 36.082031 10.113281 36.082031 C 9.921875 36.042969 8.980469 36.128906 8.820312 36.027344 Z M 10.675781 18 C 10.664062 17.988281 10.550781 17.925781 10.421875 17.863281 L 10.191406 17.746094 L 10.191406 17.882812 C 10.191406 18.011719 10.210938 18.019531 10.445312 18.019531 C 10.585938 18.019531 10.6875 18.011719 10.675781 18 Z M 9.308594 14.175781 C 9.402344 14.148438 9.429688 14.105469 9.429688 13.960938 C 9.429688 13.746094 9.417969 13.742188 9.207031 13.867188 C 9.105469 13.929688 9.046875 14.007812 9.046875 14.085938 C 9.046875 14.214844 9.097656 14.230469 9.308594 14.175781 Z M 9.34375 7.261719 C 9.390625 7.246094 9.429688 7.210938 9.429688 7.1875 C 9.429688 7.132812 9.21875 7.183594 9.179688 7.25 C 9.144531 7.304688 9.21875 7.3125 9.34375 7.261719 Z M 10.308594 3.488281 C 10.445312 3.425781 10.507812 3.375 10.460938 3.359375 C 10.417969 3.347656 10.296875 3.3125 10.195312 3.277344 C 10.09375 3.242188 9.996094 3.226562 9.984375 3.238281 C 9.960938 3.261719 10.023438 3.59375 10.054688 3.59375 C 10.0625 3.59375 10.175781 3.546875 10.308594 3.488281 Z M 14.019531 36.078125 C 14.007812 35.917969 14.101562 35.15625 14.25 32.175781 C 14.265625 31.832031 14.304688 30.3125 14.332031 28.800781 C 14.359375 27.289062 14.398438 25.300781 14.417969 24.386719 L 14.453125 22.71875 L 14.332031 22.6875 C 14.210938 22.65625 13.910156 22.734375 13.8125 22.820312 C 13.785156 22.84375 13.71875 22.867188 13.667969 22.867188 C 13.613281 22.867188 13.371094 22.929688 13.128906 23.007812 C 12.703125 23.140625 12.679688 23.144531 12.496094 23.054688 C 12.386719 23.003906 12.316406 22.9375 12.332031 22.898438 C 12.351562 22.847656 12.300781 22.828125 12.160156 22.832031 C 11.996094 22.839844 11.960938 22.820312 11.960938 22.730469 C 11.960938 22.632812 12.015625 22.613281 12.507812 22.5625 C 13.164062 22.488281 13.617188 22.386719 13.71875 22.285156 C 13.765625 22.242188 13.917969 22.214844 14.113281 22.214844 L 14.4375 22.214844 L 14.4375 21.695312 C 14.4375 21.410156 14.429688 21.179688 14.417969 21.179688 C 14.410156 21.179688 14.214844 21.261719 13.984375 21.359375 C 13.683594 21.488281 13.585938 21.558594 13.628906 21.601562 C 13.703125 21.675781 13.632812 21.792969 13.535156 21.753906 C 13.492188 21.738281 13.238281 21.777344 12.96875 21.839844 C 12.457031 21.960938 12.25 21.949219 12.367188 21.808594 C 12.402344 21.765625 12.539062 21.6875 12.671875 21.636719 C 12.804688 21.585938 12.914062 21.511719 12.914062 21.46875 C 12.914062 21.425781 13.046875 21.332031 13.210938 21.257812 C 13.375 21.1875 13.554688 21.082031 13.609375 21.023438 C 13.734375 20.902344 14.257812 20.824219 14.367188 20.914062 C 14.40625 20.949219 14.4375 20.953125 14.4375 20.921875 C 14.4375 20.894531 14.378906 20.839844 14.308594 20.800781 C 14.199219 20.742188 14.019531 20.777344 12.972656 21.046875 C 12.058594 21.285156 11.75 21.34375 11.703125 21.296875 C 11.605469 21.199219 11.707031 21.132812 12.15625 20.988281 C 12.378906 20.917969 12.519531 20.859375 12.46875 20.855469 C 12.3125 20.847656 12.296875 20.742188 12.4375 20.605469 C 12.578125 20.464844 12.96875 20.363281 13.359375 20.363281 C 13.476562 20.363281 13.625 20.328125 13.691406 20.285156 C 13.871094 20.171875 14.214844 20.125 14.308594 20.203125 C 14.414062 20.292969 14.445312 20.246094 14.40625 20.050781 L 14.371094 19.886719 L 14.046875 19.988281 C 13.644531 20.113281 13.46875 20.117188 13.339844 20 C 13.246094 19.914062 13.207031 19.917969 12.722656 20.085938 C 12.195312 20.265625 12.097656 20.265625 12.097656 20.09375 C 12.097656 20.023438 12.207031 19.957031 12.492188 19.847656 C 12.707031 19.761719 12.925781 19.660156 12.976562 19.617188 C 13.027344 19.574219 13.183594 19.503906 13.328125 19.460938 C 13.476562 19.417969 13.769531 19.304688 13.988281 19.207031 L 14.378906 19.027344 L 14.382812 18.496094 C 14.382812 18.207031 14.375 17.964844 14.367188 17.964844 C 14.355469 17.964844 14.167969 18.027344 13.949219 18.101562 C 13.726562 18.175781 13.5 18.238281 13.445312 18.238281 C 13.316406 18.238281 13.269531 18.113281 13.347656 17.972656 C 13.394531 17.878906 13.390625 17.867188 13.320312 17.890625 C 13.277344 17.910156 13.203125 17.894531 13.160156 17.859375 C 13.101562 17.8125 13.027344 17.828125 12.808594 17.9375 C 12.476562 18.105469 12.3125 18.117188 12.3125 17.96875 C 12.3125 17.894531 12.4375 17.796875 12.730469 17.628906 C 13.222656 17.355469 13.703125 17.078125 14.097656 16.851562 L 14.382812 16.6875 L 14.382812 16.265625 C 14.382812 15.832031 14.351562 15.777344 14.164062 15.898438 C 14.101562 15.941406 14.109375 15.949219 14.210938 15.953125 C 14.429688 15.953125 14.324219 16.132812 14.007812 16.292969 C 13.710938 16.441406 13.609375 16.453125 13.71875 16.320312 C 13.765625 16.265625 13.726562 16.253906 13.53125 16.257812 C 13.359375 16.265625 13.277344 16.242188 13.253906 16.1875 C 13.210938 16.070312 13.28125 16.023438 13.816406 15.792969 C 14.140625 15.652344 14.324219 15.542969 14.367188 15.457031 C 14.429688 15.339844 14.46875 14.753906 14.417969 14.753906 C 14.40625 14.753906 14.292969 14.792969 14.164062 14.835938 C 13.835938 14.953125 13.785156 14.941406 13.785156 14.757812 C 13.785156 14.625 13.761719 14.597656 13.636719 14.582031 C 13.546875 14.570312 13.480469 14.527344 13.46875 14.472656 C 13.449219 14.363281 13.640625 14.253906 14.164062 14.070312 C 14.5 13.953125 14.507812 13.945312 14.320312 13.941406 C 14.207031 13.941406 14.082031 13.898438 14.03125 13.851562 C 13.929688 13.75 13.925781 13.707031 14.011719 13.625 C 14.058594 13.578125 14.058594 13.542969 14.007812 13.484375 C 13.933594 13.390625 13.980469 13.246094 14.109375 13.175781 C 14.21875 13.117188 14.199219 12.847656 14.082031 12.847656 C 13.984375 12.847656 13.945312 12.710938 14.019531 12.628906 C 14.070312 12.570312 14.066406 12.566406 13.996094 12.621094 C 13.949219 12.65625 13.800781 12.820312 13.671875 12.988281 C 13.503906 13.199219 13.398438 13.285156 13.320312 13.273438 C 13.121094 13.246094 13.183594 13.097656 13.597656 12.605469 C 14.554688 11.472656 14.515625 11.511719 14.765625 11.535156 C 14.941406 11.550781 15.015625 11.59375 15.132812 11.75 C 15.214844 11.855469 15.421875 12.097656 15.59375 12.285156 C 15.765625 12.472656 15.90625 12.660156 15.90625 12.703125 C 15.90625 12.789062 15.628906 13.066406 15.542969 13.066406 C 15.464844 13.066406 15.515625 13.261719 15.613281 13.34375 C 15.714844 13.429688 15.710938 13.648438 15.605469 13.6875 C 15.554688 13.707031 15.460938 13.707031 15.394531 13.6875 C 15.296875 13.664062 15.261719 13.683594 15.238281 13.769531 C 15.214844 13.863281 15.167969 13.882812 14.988281 13.882812 L 14.765625 13.882812 L 14.765625 15.441406 L 15.457031 15.570312 C 15.839844 15.640625 16.207031 15.71875 16.273438 15.742188 C 16.4375 15.800781 16.445312 16.058594 16.285156 16.101562 C 16.175781 16.128906 16.175781 16.128906 16.289062 16.210938 C 16.359375 16.257812 16.398438 16.335938 16.386719 16.40625 C 16.371094 16.515625 16.339844 16.523438 15.988281 16.515625 C 15.664062 16.503906 15.214844 16.402344 14.859375 16.253906 C 14.773438 16.214844 14.765625 16.257812 14.765625 16.730469 L 14.765625 17.246094 L 15.023438 17.3125 C 15.453125 17.421875 15.851562 17.628906 15.851562 17.746094 C 15.851562 17.800781 15.820312 17.859375 15.785156 17.871094 C 15.746094 17.886719 15.839844 17.929688 15.988281 17.972656 C 16.222656 18.039062 16.265625 18.074219 16.277344 18.199219 C 16.289062 18.304688 16.265625 18.359375 16.195312 18.378906 C 16.140625 18.398438 16.042969 18.4375 15.976562 18.46875 C 15.863281 18.523438 15.515625 18.507812 15.023438 18.421875 L 14.820312 18.386719 L 14.820312 18.941406 C 14.820312 19.523438 14.84375 19.574219 15.050781 19.378906 C 15.117188 19.316406 15.207031 19.28125 15.253906 19.292969 C 15.300781 19.308594 15.519531 19.390625 15.742188 19.476562 L 16.152344 19.632812 L 16.140625 19.871094 C 16.121094 20.253906 16.109375 20.269531 15.785156 20.226562 C 15.628906 20.203125 15.355469 20.128906 15.175781 20.054688 C 15 19.984375 14.84375 19.925781 14.832031 19.925781 C 14.820312 19.925781 14.820312 20.003906 14.828125 20.101562 C 14.84375 20.265625 14.867188 20.285156 15.277344 20.429688 C 15.515625 20.511719 15.800781 20.589844 15.910156 20.597656 C 16.121094 20.613281 16.398438 20.761719 16.398438 20.851562 C 16.398438 20.882812 16.367188 20.90625 16.328125 20.90625 C 16.292969 20.910156 16.328125 20.949219 16.410156 21.003906 C 16.503906 21.058594 16.5625 21.144531 16.5625 21.21875 C 16.5625 21.367188 16.445312 21.378906 16.148438 21.253906 C 16.035156 21.207031 15.832031 21.148438 15.691406 21.125 C 15.554688 21.101562 15.316406 21.027344 15.160156 20.964844 L 14.871094 20.851562 L 14.871094 21.070312 C 14.871094 21.261719 14.890625 21.289062 15.023438 21.316406 C 15.28125 21.375 15.316406 21.394531 15.34375 21.492188 C 15.359375 21.550781 15.480469 21.628906 15.636719 21.6875 C 15.914062 21.785156 15.996094 21.886719 15.796875 21.886719 C 15.730469 21.886719 15.667969 21.9375 15.636719 22.023438 C 15.570312 22.195312 15.453125 22.195312 15.152344 22.023438 C 15.023438 21.949219 14.90625 21.886719 14.890625 21.886719 C 14.878906 21.886719 14.875 21.988281 14.882812 22.117188 C 14.898438 22.320312 14.917969 22.347656 15.0625 22.378906 C 15.257812 22.417969 15.777344 22.675781 15.824219 22.757812 C 15.84375 22.789062 15.984375 22.875 16.132812 22.953125 C 16.492188 23.132812 16.480469 23.265625 16.105469 23.292969 C 15.960938 23.300781 15.816406 23.285156 15.777344 23.253906 C 15.742188 23.222656 15.605469 23.179688 15.472656 23.160156 C 15.328125 23.136719 15.1875 23.070312 15.113281 22.992188 C 15.050781 22.921875 14.972656 22.867188 14.945312 22.867188 C 14.878906 22.867188 14.914062 29.648438 14.992188 30.949219 C 15.023438 31.519531 15.058594 32.375 15.066406 32.855469 C 15.078125 33.335938 15.226562 34.78125 15.242188 35.1875 C 15.28125 36.089844 15.289062 36.070312 15.289062 36.070312 C 14.941406 36.0625 14.019531 36.078125 14.019531 36.078125 Z M 15.078125 17.996094 C 15.070312 17.988281 15.007812 17.953125 14.941406 17.917969 C 14.835938 17.863281 14.820312 17.867188 14.820312 17.957031 C 14.820312 18.039062 14.847656 18.054688 14.957031 18.035156 C 15.03125 18.019531 15.089844 18 15.078125 17.996094 Z M 15.199219 17.695312 C 15.15625 17.664062 15.09375 17.640625 15.0625 17.640625 C 15.035156 17.640625 15.046875 17.664062 15.089844 17.695312 C 15.136719 17.722656 15.195312 17.746094 15.226562 17.746094 C 15.257812 17.746094 15.246094 17.722656 15.199219 17.695312 Z M 14.261719 17.355469 C 14.371094 17.246094 14.335938 17.203125 14.191406 17.269531 C 14.117188 17.304688 14.054688 17.351562 14.054688 17.375 C 14.054688 17.445312 14.1875 17.433594 14.261719 17.355469 Z M 14.4375 14.289062 C 14.4375 14.226562 14.414062 14.21875 14.34375 14.253906 C 14.289062 14.28125 14.210938 14.316406 14.164062 14.335938 C 14.121094 14.351562 14.164062 14.367188 14.261719 14.371094 C 14.386719 14.371094 14.4375 14.347656 14.4375 14.289062 Z M 15.117188 12.902344 C 15.078125 12.835938 14.765625 12.671875 14.765625 12.714844 C 14.765625 12.765625 14.890625 12.882812 14.984375 12.917969 C 15.109375 12.96875 15.15625 12.964844 15.117188 12.902344 Z M 14.414062 12.535156 C 14.445312 12.511719 14.457031 12.4375 14.441406 12.371094 L 14.410156 12.242188 L 14.089844 12.578125 L 14.222656 12.578125 C 14.296875 12.574219 14.382812 12.558594 14.414062 12.535156 Z M 22.628906 36.074219 C 22.628906 36.074219 22.863281 34.304688 22.90625 33.945312 C 22.992188 33.21875 23.058594 32.359375 23.144531 30.894531 C 23.175781 30.355469 23.238281 29.304688 23.285156 28.554688 C 23.328125 27.804688 23.402344 26.03125 23.445312 24.609375 C 23.492188 23.1875 23.539062 21.671875 23.554688 21.246094 C 23.585938 20.367188 23.628906 20.441406 23.113281 20.46875 C 22.816406 20.484375 22.65625 20.398438 22.65625 20.21875 C 22.65625 20.078125 22.65625 20.078125 22.316406 20.117188 C 22.109375 20.140625 21.707031 20.261719 21.28125 20.429688 C 20.746094 20.640625 20.570312 20.691406 20.519531 20.640625 C 20.410156 20.53125 20.542969 20.40625 20.945312 20.238281 C 21.152344 20.152344 21.339844 20.0625 21.363281 20.042969 C 21.382812 20.023438 21.175781 20.007812 20.898438 20.007812 C 20.40625 20.007812 20.398438 20.003906 20.398438 19.878906 C 20.398438 19.769531 20.441406 19.738281 20.671875 19.675781 C 20.917969 19.613281 21.90625 19.496094 23.09375 19.394531 L 23.554688 19.355469 L 23.574219 19.074219 L 23.589844 18.789062 L 23.417969 18.855469 C 23.273438 18.910156 23.238281 18.90625 23.183594 18.828125 C 23.125 18.75 23.101562 18.75 22.964844 18.820312 C 22.878906 18.863281 22.773438 18.886719 22.730469 18.867188 C 22.683594 18.851562 22.574219 18.890625 22.484375 18.953125 C 22.335938 19.058594 22.3125 19.0625 22.234375 18.984375 C 22.167969 18.914062 22.164062 18.882812 22.214844 18.816406 C 22.261719 18.765625 22.265625 18.726562 22.226562 18.703125 C 22.140625 18.652344 22.15625 18.480469 22.25 18.402344 C 22.414062 18.265625 22.320312 18.253906 21.882812 18.351562 C 21.539062 18.429688 21.328125 18.449219 20.980469 18.421875 C 20.511719 18.386719 20.425781 18.335938 20.511719 18.144531 C 20.53125 18.089844 20.546875 18.019531 20.542969 17.988281 C 20.539062 17.953125 20.566406 17.898438 20.605469 17.867188 C 20.691406 17.792969 22.039062 17.566406 22.171875 17.601562 C 22.226562 17.617188 22.421875 17.59375 22.609375 17.546875 C 22.832031 17.496094 22.992188 17.488281 23.0625 17.519531 C 23.125 17.546875 23.265625 17.558594 23.378906 17.542969 L 23.582031 17.519531 L 23.582031 16.652344 L 23.40625 16.691406 C 23.167969 16.742188 23.152344 16.753906 23.183594 16.871094 C 23.210938 16.964844 23.171875 16.976562 22.785156 16.996094 C 22.277344 17.023438 22.113281 17 22.113281 16.898438 C 22.113281 16.796875 22.046875 16.800781 21.3125 16.960938 C 20.664062 17.101562 20.535156 17.101562 20.535156 16.96875 C 20.535156 16.875 20.6875 16.804688 21.433594 16.546875 C 21.980469 16.355469 22.046875 16.269531 21.5625 16.382812 C 21.136719 16.480469 21.136719 16.253906 21.558594 16.089844 C 21.816406 15.992188 21.828125 15.980469 21.730469 15.910156 C 21.558594 15.792969 21.679688 15.664062 22.113281 15.492188 C 22.359375 15.398438 22.523438 15.296875 22.558594 15.226562 C 22.617188 15.097656 23.375 14.589844 23.503906 14.589844 C 23.546875 14.589844 23.582031 14.554688 23.582031 14.511719 C 23.582031 14.386719 23.453125 14.410156 23.007812 14.617188 C 22.785156 14.722656 22.585938 14.808594 22.5625 14.808594 C 22.542969 14.808594 22.113281 15.007812 21.609375 15.253906 C 20.765625 15.660156 20.683594 15.691406 20.605469 15.609375 C 20.480469 15.488281 20.574219 15.390625 21.035156 15.15625 C 21.382812 14.980469 21.492188 14.851562 21.335938 14.792969 C 21.242188 14.757812 21.316406 14.691406 21.707031 14.453125 C 21.953125 14.300781 21.992188 14.261719 21.867188 14.289062 C 21.777344 14.308594 21.535156 14.425781 21.332031 14.550781 C 21.042969 14.722656 20.898438 14.777344 20.707031 14.777344 C 20.476562 14.78125 20.449219 14.765625 20.300781 14.546875 C 20.046875 14.171875 20.234375 13.996094 20.539062 14.324219 C 20.699219 14.496094 20.863281 14.507812 20.863281 14.351562 C 20.863281 14.308594 21.042969 14.160156 21.265625 14.023438 C 21.5 13.875 21.679688 13.722656 21.695312 13.65625 C 21.726562 13.546875 21.75 13.542969 22.238281 13.578125 C 22.664062 13.605469 22.765625 13.597656 22.820312 13.527344 C 22.859375 13.484375 22.882812 13.441406 22.871094 13.433594 C 22.65625 13.3125 22.582031 13.289062 22.472656 13.316406 C 22.402344 13.332031 22.328125 13.324219 22.3125 13.296875 C 22.261719 13.214844 22.503906 13.035156 22.945312 12.839844 C 23.113281 12.761719 23.144531 12.632812 22.996094 12.632812 C 22.941406 12.632812 22.800781 12.679688 22.683594 12.742188 C 22.457031 12.859375 22.25 12.882812 22.195312 12.796875 C 22.175781 12.765625 22.011719 12.796875 21.792969 12.878906 C 21.359375 13.035156 21.25 13.042969 21.207031 12.925781 C 21.164062 12.816406 21.523438 12.472656 21.691406 12.460938 C 21.757812 12.453125 21.910156 12.445312 22.03125 12.441406 C 22.152344 12.433594 22.550781 12.3125 22.917969 12.167969 L 23.582031 11.902344 L 23.582031 11.585938 C 23.582031 11.285156 23.578125 11.269531 23.445312 11.269531 C 23.363281 11.269531 23.3125 11.238281 23.3125 11.1875 C 23.3125 11.082031 22.953125 11.078125 22.847656 11.179688 C 22.746094 11.28125 21.332031 11.816406 21.164062 11.816406 C 21.0625 11.816406 21.023438 11.785156 21.023438 11.707031 C 21.023438 11.632812 21.105469 11.558594 21.292969 11.464844 C 21.4375 11.390625 21.566406 11.308594 21.578125 11.285156 C 21.605469 11.226562 21.945312 10.976562 22.136719 10.878906 C 22.292969 10.796875 22.296875 10.792969 22.175781 10.730469 C 22.113281 10.695312 22.058594 10.621094 22.058594 10.5625 C 22.058594 10.402344 22.234375 10.335938 22.503906 10.394531 C 22.636719 10.425781 22.75 10.425781 22.765625 10.398438 C 22.808594 10.328125 23.085938 10.230469 23.367188 10.1875 L 23.609375 10.148438 L 23.402344 10.058594 C 23.238281 9.984375 23.199219 9.941406 23.210938 9.84375 C 23.226562 9.75 23.28125 9.707031 23.433594 9.667969 L 23.636719 9.617188 L 23.636719 9.035156 L 23.492188 9.132812 C 23.371094 9.210938 23.359375 9.230469 23.4375 9.246094 C 23.589844 9.277344 23.515625 9.378906 23.28125 9.457031 C 22.996094 9.558594 22.792969 9.480469 22.84375 9.289062 L 22.875 9.164062 L 22.488281 9.242188 C 22.207031 9.300781 22.085938 9.304688 22.042969 9.261719 C 22.007812 9.230469 21.90625 9.203125 21.808594 9.203125 C 21.613281 9.203125 21.519531 9.0625 21.636719 8.949219 C 21.746094 8.839844 22.660156 8.589844 22.9375 8.59375 C 23.210938 8.597656 23.351562 8.476562 23.101562 8.453125 C 22.792969 8.429688 22.695312 8.445312 22.160156 8.601562 C 21.859375 8.691406 21.546875 8.765625 21.464844 8.765625 C 21.386719 8.765625 21.203125 8.804688 21.058594 8.847656 C 20.675781 8.964844 20.480469 8.957031 20.480469 8.824219 C 20.480469 8.707031 20.628906 8.644531 21.675781 8.304688 C 22.023438 8.195312 22.316406 8.078125 22.335938 8.050781 C 22.355469 8.019531 22.359375 7.941406 22.347656 7.875 C 22.328125 7.773438 22.371094 7.734375 22.609375 7.621094 C 22.765625 7.546875 22.957031 7.484375 23.035156 7.476562 C 23.113281 7.472656 23.292969 7.4375 23.433594 7.402344 L 23.691406 7.332031 L 23.691406 6.859375 C 23.691406 6.289062 23.703125 6.296875 23.011719 6.433594 C 22.742188 6.488281 22.421875 6.53125 22.304688 6.527344 C 22.183594 6.523438 21.886719 6.574219 21.640625 6.636719 C 21.21875 6.746094 21.023438 6.746094 21.023438 6.636719 C 21.023438 6.609375 20.984375 6.589844 20.9375 6.589844 C 20.882812 6.589844 20.859375 6.550781 20.871094 6.472656 C 20.886719 6.382812 20.992188 6.320312 21.398438 6.175781 C 21.679688 6.074219 22.101562 5.9375 22.335938 5.875 C 22.679688 5.777344 22.765625 5.734375 22.765625 5.652344 C 22.765625 5.589844 22.835938 5.519531 22.945312 5.46875 C 23.121094 5.386719 23.121094 5.386719 22.828125 5.421875 C 22.636719 5.445312 22.492188 5.433594 22.410156 5.390625 C 22.304688 5.332031 22.226562 5.347656 21.902344 5.46875 C 21.503906 5.625 21.40625 5.617188 21.40625 5.445312 C 21.40625 5.304688 21.8125 5.085938 22.765625 4.714844 C 23.199219 4.542969 23.609375 4.382812 23.679688 4.355469 C 23.765625 4.320312 23.800781 4.257812 23.800781 4.148438 C 23.800781 4.027344 23.769531 3.980469 23.679688 3.957031 C 23.554688 3.921875 23.015625 4.109375 22.890625 4.230469 C 22.8125 4.300781 22.808594 4.304688 22.222656 4.464844 C 22 4.523438 21.773438 4.574219 21.71875 4.574219 C 21.570312 4.574219 21.605469 4.417969 21.761719 4.378906 C 21.863281 4.351562 21.890625 4.320312 21.867188 4.246094 C 21.847656 4.175781 21.878906 4.117188 21.96875 4.058594 C 22.15625 3.933594 23.0625 3.617188 23.460938 3.535156 L 23.789062 3.464844 L 23.820312 3.246094 C 23.835938 3.125 23.839844 3.015625 23.828125 3.003906 C 23.816406 2.992188 23.738281 3.007812 23.65625 3.039062 C 23.519531 3.089844 23.515625 3.097656 23.625 3.101562 C 23.835938 3.109375 23.757812 3.207031 23.507812 3.242188 C 23.269531 3.277344 23.039062 3.210938 23.039062 3.101562 C 23.039062 3.074219 22.984375 3.050781 22.914062 3.050781 C 22.84375 3.050781 22.761719 3.023438 22.730469 2.992188 C 22.691406 2.957031 22.59375 2.972656 22.417969 3.046875 C 22.273438 3.109375 22.125 3.160156 22.082031 3.160156 C 21.980469 3.160156 21.984375 2.972656 22.085938 2.886719 C 22.132812 2.851562 22.167969 2.765625 22.167969 2.699219 C 22.167969 2.601562 22.25 2.539062 22.59375 2.378906 C 22.824219 2.269531 23.066406 2.179688 23.128906 2.179688 C 23.191406 2.179688 23.320312 2.152344 23.414062 2.117188 C 23.558594 2.066406 23.605469 2.074219 23.695312 2.15625 C 23.753906 2.207031 23.8125 2.242188 23.824219 2.230469 C 23.855469 2.195312 23.925781 1.582031 23.894531 1.582031 C 23.882812 1.582031 23.769531 1.617188 23.644531 1.660156 C 23.519531 1.703125 23.386719 1.726562 23.347656 1.710938 C 23.308594 1.699219 23.230469 1.738281 23.171875 1.800781 C 23.050781 1.933594 22.722656 2.085938 22.652344 2.039062 C 22.511719 1.953125 22.65625 1.757812 23.316406 1.136719 C 23.707031 0.765625 24.078125 0.445312 24.136719 0.421875 C 24.21875 0.394531 24.296875 0.425781 24.433594 0.546875 C 24.539062 0.636719 24.667969 0.710938 24.722656 0.710938 C 24.878906 0.710938 25.597656 1.296875 25.597656 1.421875 C 25.597656 1.476562 25.570312 1.527344 25.535156 1.527344 C 25.496094 1.527344 25.507812 1.566406 25.5625 1.625 C 25.675781 1.75 25.679688 1.941406 25.566406 1.984375 C 25.519531 2 25.410156 1.980469 25.324219 1.933594 C 25.238281 1.890625 25.132812 1.867188 25.089844 1.882812 C 25 1.917969 24.671875 1.726562 24.367188 1.460938 L 24.164062 1.28125 L 24.199219 1.546875 C 24.21875 1.695312 24.238281 1.882812 24.238281 1.96875 C 24.238281 2.054688 24.261719 2.125 24.296875 2.125 C 24.328125 2.125 24.417969 2.175781 24.492188 2.234375 C 24.574219 2.296875 24.71875 2.34375 24.828125 2.34375 C 24.964844 2.347656 25.164062 2.425781 25.460938 2.605469 C 25.8125 2.8125 25.902344 2.894531 25.945312 3.039062 C 26.007812 3.253906 25.933594 3.351562 25.75 3.304688 C 25.683594 3.285156 25.410156 3.148438 25.148438 2.996094 C 24.671875 2.726562 24.425781 2.664062 24.300781 2.789062 C 24.222656 2.867188 24.214844 3.105469 24.289062 3.105469 C 24.320312 3.105469 24.34375 3.066406 24.34375 3.019531 C 24.34375 2.886719 24.496094 2.867188 24.816406 2.96875 C 25.136719 3.070312 25.234375 3.1875 25.089844 3.296875 C 24.992188 3.367188 24.964844 3.59375 25.050781 3.59375 C 25.078125 3.59375 25.117188 3.644531 25.136719 3.707031 C 25.15625 3.769531 25.242188 3.847656 25.332031 3.878906 C 25.425781 3.910156 25.503906 3.984375 25.523438 4.0625 C 25.546875 4.15625 25.617188 4.210938 25.765625 4.257812 C 26.015625 4.332031 26.101562 4.417969 26.054688 4.539062 C 26.007812 4.667969 25.769531 4.652344 25.425781 4.5 C 25.265625 4.429688 24.972656 4.332031 24.777344 4.285156 C 24.578125 4.238281 24.375 4.179688 24.328125 4.160156 C 24.257812 4.136719 24.238281 4.160156 24.238281 4.257812 C 24.238281 4.363281 24.277344 4.398438 24.445312 4.445312 C 24.582031 4.480469 24.679688 4.480469 24.738281 4.445312 C 24.84375 4.378906 25.15625 4.464844 25.425781 4.628906 C 25.566406 4.71875 25.601562 4.769531 25.585938 4.890625 C 25.574219 5.007812 25.605469 5.058594 25.761719 5.148438 C 25.929688 5.246094 25.953125 5.285156 25.964844 5.5 C 25.984375 5.914062 25.8125 5.941406 25.171875 5.613281 C 24.964844 5.507812 24.929688 5.503906 24.769531 5.578125 C 24.609375 5.644531 24.605469 5.65625 24.71875 5.660156 C 24.796875 5.660156 24.855469 5.703125 24.875 5.769531 C 24.886719 5.828125 24.960938 5.914062 25.03125 5.960938 C 25.101562 6.007812 25.160156 6.09375 25.160156 6.148438 C 25.160156 6.226562 25.269531 6.296875 25.582031 6.425781 C 26.4375 6.777344 26.46875 6.792969 26.46875 6.914062 C 26.46875 7.0625 26.328125 7.113281 26.128906 7.035156 C 26.015625 6.992188 25.933594 6.992188 25.84375 7.035156 C 25.734375 7.082031 25.621094 7.046875 25.113281 6.8125 C 24.78125 6.660156 24.4375 6.515625 24.347656 6.5 L 24.183594 6.464844 L 24.183594 7.527344 C 24.183594 8.109375 24.195312 8.597656 24.210938 8.617188 C 24.265625 8.667969 24.453125 8.59375 24.453125 8.523438 C 24.453125 8.484375 24.417969 8.421875 24.375 8.386719 C 24.25 8.28125 24.335938 8.210938 24.527344 8.253906 C 24.621094 8.277344 24.859375 8.320312 25.054688 8.351562 L 25.40625 8.414062 L 25.40625 8.628906 C 25.40625 8.84375 25.402344 8.847656 25.203125 8.863281 C 25.089844 8.875 24.996094 8.910156 24.992188 8.945312 C 24.976562 9.121094 25.019531 9.242188 25.148438 9.378906 C 25.328125 9.566406 25.269531 9.628906 25.023438 9.511719 C 24.917969 9.460938 24.765625 9.417969 24.683594 9.417969 C 24.601562 9.417969 24.457031 9.398438 24.359375 9.367188 L 24.183594 9.320312 L 24.183594 9.667969 C 24.183594 9.992188 24.191406 10.027344 24.320312 10.082031 C 24.433594 10.136719 24.46875 10.128906 24.527344 10.046875 C 24.597656 9.953125 24.636719 9.953125 25.125 10.015625 C 25.421875 10.058594 25.675781 10.117188 25.710938 10.160156 C 25.792969 10.261719 25.738281 10.390625 25.585938 10.449219 C 25.476562 10.488281 25.484375 10.496094 25.679688 10.53125 C 25.964844 10.578125 26.046875 10.636719 26.058594 10.785156 C 26.066406 10.875 26.132812 10.929688 26.351562 11.011719 C 26.503906 11.066406 26.660156 11.164062 26.691406 11.222656 C 26.828125 11.480469 26.457031 11.5625 25.875 11.410156 C 25.589844 11.332031 25.574219 11.335938 25.496094 11.441406 C 25.425781 11.542969 25.382812 11.550781 25.082031 11.523438 C 24.898438 11.503906 24.621094 11.453125 24.464844 11.414062 L 24.183594 11.339844 L 24.183594 11.664062 C 24.183594 11.957031 24.191406 11.984375 24.277344 11.945312 C 24.570312 11.800781 25.835938 12.03125 26.136719 12.277344 C 26.238281 12.363281 26.417969 12.414062 26.765625 12.464844 C 27.316406 12.539062 27.339844 12.546875 27.339844 12.679688 C 27.339844 12.824219 27.226562 12.902344 27.027344 12.902344 C 26.863281 12.902344 26.855469 12.910156 26.917969 13.011719 C 27.003906 13.148438 26.921875 13.292969 26.734375 13.347656 C 26.539062 13.402344 25.617188 13.398438 25.222656 13.339844 C 25.035156 13.3125 24.839844 13.257812 24.789062 13.214844 C 24.738281 13.171875 24.582031 13.117188 24.4375 13.097656 L 24.175781 13.058594 L 24.191406 13.398438 L 24.210938 13.738281 L 24.535156 13.804688 C 24.9375 13.886719 25.488281 14.125 25.488281 14.21875 C 25.488281 14.257812 25.519531 14.242188 25.5625 14.1875 C 25.628906 14.09375 25.644531 14.097656 25.785156 14.285156 C 25.964844 14.515625 26.121094 14.539062 26.429688 14.375 C 26.539062 14.3125 26.710938 14.265625 26.808594 14.269531 C 26.90625 14.273438 27.050781 14.257812 27.128906 14.238281 C 27.242188 14.207031 27.3125 14.234375 27.457031 14.363281 C 27.667969 14.554688 27.636719 14.617188 27.34375 14.605469 C 27.207031 14.601562 27.097656 14.632812 27.023438 14.703125 C 26.949219 14.769531 26.851562 14.800781 26.726562 14.789062 C 26.546875 14.777344 26.535156 14.785156 26.476562 15.015625 L 26.410156 15.257812 L 26.117188 15.234375 C 25.953125 15.21875 25.832031 15.230469 25.851562 15.257812 C 25.890625 15.324219 25.765625 15.460938 25.660156 15.460938 C 25.574219 15.460938 24.710938 15.003906 24.386719 14.789062 L 24.238281 14.6875 L 24.238281 15.398438 L 24.523438 15.507812 C 24.679688 15.566406 25.089844 15.691406 25.433594 15.785156 C 26.117188 15.976562 26.207031 16.023438 26.183594 16.183594 C 26.171875 16.273438 26.234375 16.308594 26.578125 16.40625 C 26.96875 16.519531 26.984375 16.53125 27.003906 16.699219 C 27.019531 16.859375 27.003906 16.878906 26.878906 16.878906 C 26.804688 16.878906 26.742188 16.855469 26.742188 16.824219 C 26.742188 16.769531 26.085938 16.550781 25.917969 16.550781 C 25.828125 16.550781 25.824219 16.566406 25.878906 16.65625 C 25.929688 16.734375 25.929688 16.777344 25.882812 16.835938 C 25.839844 16.886719 25.835938 16.929688 25.871094 16.96875 C 25.902344 17 25.910156 17.0625 25.894531 17.113281 C 25.820312 17.304688 24.515625 17.1875 24.324219 16.96875 L 24.21875 16.851562 L 24.253906 16.988281 C 24.273438 17.0625 24.289062 17.261719 24.289062 17.429688 L 24.289062 17.738281 L 25.421875 17.738281 C 26.042969 17.738281 26.671875 17.757812 26.816406 17.785156 C 27.117188 17.835938 27.242188 17.960938 27.140625 18.117188 C 27.085938 18.199219 27 18.210938 26.386719 18.195312 C 25.359375 18.167969 25.136719 18.253906 25.820312 18.414062 C 26.378906 18.546875 26.464844 18.617188 26.449219 18.917969 C 26.429688 19.261719 26.386719 19.289062 25.972656 19.222656 C 25.78125 19.191406 25.453125 19.164062 25.242188 19.164062 C 24.824219 19.164062 24.648438 19.085938 24.679688 18.917969 C 24.695312 18.84375 24.644531 18.785156 24.511719 18.714844 C 24.40625 18.664062 24.316406 18.621094 24.304688 18.621094 C 24.296875 18.621094 24.289062 18.839844 24.289062 19.105469 L 24.289062 19.59375 L 24.476562 19.5625 C 24.644531 19.535156 25.578125 19.617188 25.910156 19.683594 C 25.976562 19.699219 26.03125 19.75 26.03125 19.792969 C 26.03125 19.867188 26.128906 19.871094 26.78125 19.839844 C 27.414062 19.808594 27.542969 19.816406 27.601562 19.886719 C 27.695312 20.003906 27.628906 20.132812 27.449219 20.171875 C 27.363281 20.191406 27.261719 20.242188 27.226562 20.285156 C 27.191406 20.328125 27.140625 20.363281 27.109375 20.363281 C 27.082031 20.363281 27.015625 20.414062 26.964844 20.476562 C 26.910156 20.542969 26.777344 20.609375 26.65625 20.628906 C 26.492188 20.65625 26.4375 20.691406 26.414062 20.792969 C 26.351562 21.058594 26.066406 21.035156 25.691406 20.734375 C 25.496094 20.582031 25.234375 20.472656 25.058594 20.472656 C 24.996094 20.472656 24.996094 20.488281 25.066406 20.566406 C 25.199219 20.71875 25.238281 20.90625 25.136719 20.90625 C 24.992188 20.90625 24.75 20.757812 24.601562 20.582031 C 24.523438 20.492188 24.417969 20.417969 24.367188 20.417969 C 24.28125 20.417969 24.277344 20.511719 24.3125 21.738281 C 24.332031 22.460938 24.371094 24.171875 24.402344 25.535156 C 24.496094 29.957031 24.5625 31.859375 24.644531 32.71875 C 24.792969 34.234375 24.933594 36.074219 24.933594 36.074219 C 23.507812 36.089844 24.175781 36.117188 22.628906 36.074219 Z M 23.09375 20.121094 C 23.09375 20.105469 23.070312 20.082031 23.039062 20.0625 C 23.007812 20.042969 22.984375 20.054688 22.984375 20.085938 C 22.984375 20.117188 23.007812 20.144531 23.039062 20.144531 C 23.070312 20.144531 23.09375 20.132812 23.09375 20.121094 Z M 23.582031 16.386719 C 23.582031 16.359375 23.515625 16.335938 23.433594 16.335938 C 23.300781 16.339844 23.296875 16.347656 23.394531 16.386719 C 23.542969 16.453125 23.582031 16.453125 23.582031 16.386719 Z M 24.5625 16.386719 C 24.488281 16.363281 24.378906 16.34375 24.316406 16.34375 L 24.210938 16.339844 L 24.316406 16.386719 C 24.378906 16.414062 24.488281 16.433594 24.5625 16.433594 L 24.699219 16.429688 Z M 22.207031 15.863281 C 22.1875 15.847656 22.140625 15.84375 22.101562 15.859375 C 22.058594 15.878906 22.074219 15.890625 22.136719 15.894531 C 22.195312 15.894531 22.226562 15.882812 22.207031 15.863281 Z M 22.96875 15.777344 C 23.265625 15.722656 23.332031 15.691406 23.398438 15.5625 L 23.476562 15.40625 L 23.191406 15.523438 C 23.03125 15.585938 22.78125 15.671875 22.628906 15.714844 C 22.480469 15.753906 22.332031 15.800781 22.304688 15.8125 C 22.183594 15.863281 22.640625 15.839844 22.96875 15.777344 Z M 23.582031 14.992188 C 23.582031 14.921875 23.570312 14.917969 23.5 14.972656 C 23.457031 15.011719 23.417969 15.050781 23.417969 15.0625 C 23.417969 15.070312 23.457031 15.082031 23.5 15.082031 C 23.546875 15.082031 23.582031 15.042969 23.582031 14.992188 Z M 25.632812 14.417969 C 25.578125 14.332031 25.566406 14.328125 25.550781 14.402344 C 25.542969 14.449219 25.550781 14.53125 25.570312 14.578125 C 25.597656 14.652344 25.613281 14.65625 25.648438 14.59375 C 25.675781 14.550781 25.671875 14.476562 25.632812 14.417969 Z M 24.367188 14.269531 C 24.386719 14.246094 24.363281 14.191406 24.316406 14.15625 C 24.25 14.097656 24.238281 14.109375 24.238281 14.203125 C 24.238281 14.320312 24.3125 14.359375 24.367188 14.269531 Z M 23.582031 13.199219 L 23.582031 12.835938 L 23.433594 12.875 C 23.234375 12.925781 23.222656 12.941406 23.328125 13.058594 C 23.441406 13.179688 23.449219 13.339844 23.34375 13.339844 C 23.261719 13.339844 23.1875 13.472656 23.242188 13.523438 C 23.261719 13.542969 23.34375 13.558594 23.429688 13.558594 C 23.582031 13.558594 23.582031 13.554688 23.582031 13.199219 Z M 26.140625 12.742188 C 26.066406 12.714844 25.945312 12.695312 25.871094 12.695312 L 25.734375 12.695312 L 25.871094 12.742188 C 25.945312 12.765625 26.066406 12.785156 26.140625 12.785156 L 26.277344 12.785156 Z M 24.34375 12.632812 C 24.34375 12.601562 24.308594 12.578125 24.265625 12.578125 C 24.21875 12.578125 24.183594 12.601562 24.183594 12.632812 C 24.183594 12.660156 24.21875 12.6875 24.265625 12.6875 C 24.308594 12.6875 24.34375 12.660156 24.34375 12.632812 Z M 25.570312 12.632812 C 25.328125 12.570312 25.207031 12.570312 25.242188 12.632812 C 25.261719 12.660156 25.378906 12.683594 25.503906 12.679688 C 25.722656 12.671875 25.722656 12.671875 25.570312 12.632812 Z M 25 11.085938 C 25 11.027344 24.5625 10.78125 24.453125 10.78125 C 24.339844 10.78125 24.332031 10.789062 24.402344 10.859375 C 24.503906 10.960938 25 11.152344 25 11.085938 Z M 23.636719 8.738281 C 23.636719 8.695312 23.601562 8.65625 23.554688 8.65625 C 23.414062 8.65625 23.460938 8.765625 23.625 8.816406 C 23.632812 8.820312 23.636719 8.785156 23.636719 8.738281 Z M 23.316406 8.128906 C 23.382812 8.050781 23.378906 8.042969 23.292969 8.074219 C 23.238281 8.097656 23.171875 8.113281 23.144531 8.113281 C 23.117188 8.113281 23.09375 8.136719 23.09375 8.167969 C 23.09375 8.253906 23.234375 8.230469 23.316406 8.128906 Z M 23.65625 7.652344 C 23.695312 7.546875 23.640625 7.550781 23.503906 7.652344 C 23.402344 7.730469 23.402344 7.730469 23.511719 7.730469 C 23.574219 7.730469 23.640625 7.695312 23.65625 7.652344 Z M 24.617188 5.941406 C 24.617188 5.917969 24.542969 5.878906 24.453125 5.863281 C 24.230469 5.816406 24.230469 5.613281 24.453125 5.484375 L 24.613281 5.386719 L 24.445312 5.226562 C 24.351562 5.136719 24.253906 5.066406 24.226562 5.066406 C 24.203125 5.066406 24.183594 5.246094 24.183594 5.46875 L 24.183594 5.871094 L 24.386719 5.925781 C 24.5 5.953125 24.597656 5.980469 24.605469 5.984375 C 24.613281 5.988281 24.617188 5.96875 24.617188 5.941406 Z M 23.746094 5.523438 C 23.746094 5.445312 23.71875 5.390625 23.6875 5.402344 C 23.65625 5.414062 23.632812 5.4375 23.632812 5.460938 C 23.636719 5.484375 23.636719 5.535156 23.636719 5.582031 C 23.636719 5.625 23.664062 5.664062 23.691406 5.664062 C 23.722656 5.664062 23.746094 5.601562 23.746094 5.523438 Z M 23.746094 4.984375 C 23.746094 4.90625 23.726562 4.847656 23.707031 4.847656 C 23.683594 4.847656 23.664062 4.90625 23.664062 4.984375 C 23.664062 5.058594 23.683594 5.121094 23.707031 5.121094 C 23.726562 5.121094 23.746094 5.058594 23.746094 4.984375 Z M 23.703125 3.703125 C 23.757812 3.703125 23.800781 3.683594 23.800781 3.65625 C 23.800781 3.628906 23.703125 3.632812 23.578125 3.664062 C 23.429688 3.699219 23.378906 3.734375 23.429688 3.761719 C 23.46875 3.789062 23.523438 3.785156 23.554688 3.757812 C 23.582031 3.726562 23.648438 3.703125 23.703125 3.703125 Z M 23.839844 2.527344 C 23.824219 2.507812 23.777344 2.507812 23.738281 2.523438 C 23.691406 2.539062 23.707031 2.554688 23.769531 2.554688 C 23.828125 2.558594 23.859375 2.546875 23.839844 2.527344 Z M 24.300781 0.804688 C 24.238281 0.742188 24.113281 0.804688 24.15625 0.875 C 24.171875 0.902344 24.222656 0.90625 24.269531 0.890625 C 24.324219 0.871094 24.335938 0.839844 24.300781 0.804688 Z M 24.300781 0.804688 " fill-opacity="1" fill-rule="nonzero"/></g></svg>