<svg xmlns="http://www.w3.org/2000/svg" xmlns:xlink="http://www.w3.org/1999/xlink" width="50" zoomAndPan="magnify" viewBox="0 0 37.5 37.499999" height="50" preserveAspectRatio="xMidYMid meet" version="1.0"><defs><clipPath id="dd990276b7"><path d="M 0 0 L 37.007812 0 L 37.007812 37.007812 L 0 37.007812 Z M 0 0 " clip-rule="nonzero"/></clipPath><clipPath id="76be84b69d"><path d="M 16 1.015625 L 23 1.015625 L 23 11 L 16 11 Z M 16 1.015625 " clip-rule="nonzero"/></clipPath><clipPath id="ae4ad34f39"><path d="M 1.480469 24 L 34.785156 24 L 34.785156 35.800781 L 1.480469 35.800781 Z M 1.480469 24 " clip-rule="nonzero"/></clipPath></defs><g clip-path="url(#dd990276b7)"><path fill="#ffffff" d="M 0 0 L 37.007812 0 L 37.007812 37.007812 L 0 37.007812 Z M 0 0 " fill-opacity="1" fill-rule="nonzero"/><path fill="#ffffff" d="M 0 0 L 37.007812 0 L 37.007812 37.007812 L 0 37.007812 Z M 0 0 " fill-opacity="1" fill-rule="nonzero"/></g><g clip-path="url(#76be84b69d)"><path fill="#f9ab24" d="M 19.933594 10.3125 C 21.582031 10.3125 22.914062 8.972656 22.914062 7.332031 C 22.957031 6.023438 21.851562 5.023438 21.335938 3.941406 C 20.839844 3.050781 20.347656 1.941406 19.921875 1.015625 C 19.921875 1.015625 19.378906 2.226562 19.378906 2.226562 C 18.847656 3.421875 18.167969 4.613281 17.488281 5.613281 C 17.140625 6.121094 16.945312 6.707031 16.949219 7.332031 C 16.945312 8.972656 18.285156 10.3125 19.933594 10.3125 Z M 18.425781 6.386719 C 18.832031 5.78125 19.230469 5.15625 19.640625 4.410156 C 19.964844 3.675781 19.980469 3.953125 20.285156 4.523438 C 20.679688 5.441406 21.660156 6.261719 21.71875 7.332031 C 21.71875 8.3125 20.921875 9.109375 19.9375 9.109375 C 18.566406 9.152344 17.667969 7.511719 18.425781 6.386719 Z M 18.425781 6.386719 " fill-opacity="1" fill-rule="nonzero"/></g><path fill="#f9ab24" d="M 18.828125 7.425781 C 18.894531 7.164062 19.019531 6.980469 19.203125 6.738281 C 19.570312 6.246094 19.777344 5.597656 19.667969 4.980469 C 19.378906 5.90625 18.5625 6.515625 18.480469 7.375 C 18.46875 7.707031 18.585938 8.023438 18.777344 8.265625 C 18.753906 7.96875 18.765625 7.675781 18.828125 7.425781 Z M 18.828125 7.425781 " fill-opacity="1" fill-rule="nonzero"/><path fill="#f9ab24" d="M 20.746094 17.367188 C 18.945312 19.859375 20.914062 23.613281 24 23.527344 C 27.167969 23.589844 29.109375 19.753906 27.175781 17.25 C 25.886719 15.351562 24.910156 13.390625 23.996094 11.320312 C 23.101562 13.40625 21.996094 15.582031 20.746094 17.367188 Z M 24 14.183594 C 24.65625 15.5 25.339844 16.675781 26.179688 17.933594 C 26.546875 18.414062 26.742188 18.984375 26.742188 19.589844 C 26.742188 21.101562 25.515625 22.324219 24.007812 22.324219 C 22.496094 22.324219 21.265625 21.09375 21.265625 19.589844 C 21.261719 19.019531 21.453125 18.464844 21.765625 18.007812 C 22.515625 16.921875 23.367188 15.488281 24 14.183594 Z M 24 14.183594 " fill-opacity="1" fill-rule="nonzero"/><path fill="#f9ab24" d="M 22.234375 19.53125 C 22.339844 19.039062 22.582031 18.660156 22.914062 18.222656 C 23.570312 17.339844 23.964844 16.1875 23.855469 15.082031 C 23.445312 16.414062 22.699219 17.441406 21.976562 18.605469 C 21.605469 19.402344 21.734375 20.398438 22.21875 21.089844 C 22.148438 20.539062 22.132812 20.015625 22.234375 19.53125 Z M 22.234375 19.53125 " fill-opacity="1" fill-rule="nonzero"/><path fill="#f9ab24" d="M 13.648438 18.941406 C 15.820312 18.941406 17.59375 17.175781 17.59375 15 C 17.636719 13.210938 16.109375 11.851562 15.40625 10.363281 C 14.777344 9.234375 14.171875 7.925781 13.640625 6.738281 C 13.640625 6.738281 13.097656 7.949219 13.097656 7.949219 C 12.324219 9.683594 11.40625 11.300781 10.398438 12.777344 C 9.953125 13.433594 9.707031 14.203125 9.707031 15 C 9.707031 17.175781 11.472656 18.941406 13.648438 18.941406 Z M 11.335938 13.539062 C 11.898438 12.699219 12.460938 11.8125 13.03125 10.785156 C 13.839844 9.148438 13.574219 9.621094 14.355469 10.9375 C 14.925781 12.242188 16.371094 13.507812 16.394531 14.996094 C 16.277344 18.613281 11.035156 18.613281 10.917969 14.996094 C 10.910156 14.46875 11.058594 13.964844 11.335938 13.539062 Z M 11.335938 13.539062 " fill-opacity="1" fill-rule="nonzero"/><path fill="#f9ab24" d="M 11.882812 14.945312 C 11.984375 14.449219 12.226562 14.074219 12.558594 13.636719 C 13.214844 12.753906 13.609375 11.597656 13.5 10.492188 C 13.089844 11.828125 12.34375 12.851562 11.621094 14.019531 C 11.25 14.816406 11.378906 15.808594 11.863281 16.5 C 11.792969 15.953125 11.769531 15.425781 11.882812 14.945312 Z M 11.882812 14.945312 " fill-opacity="1" fill-rule="nonzero"/><g clip-path="url(#ae4ad34f39)"><path fill="#f9ab24" d="M 34.332031 33.605469 L 28.027344 24.652344 C 27.792969 24.316406 27.402344 24.113281 26.996094 24.113281 L 9.429688 24.113281 C 9.023438 24.113281 8.632812 24.3125 8.398438 24.652344 L 2.101562 33.605469 C 1.507812 34.394531 2.136719 35.625 3.132812 35.59375 C 3.132812 35.59375 33.300781 35.59375 33.300781 35.59375 C 34.289062 35.625 34.929688 34.394531 34.332031 33.605469 Z M 33.300781 34.390625 C 33.25 34.300781 3.019531 34.554688 3.089844 34.300781 C 3.089844 34.300781 9.4375 25.324219 9.4375 25.324219 L 27.003906 25.324219 L 33.34375 34.300781 Z M 33.300781 34.390625 " fill-opacity="1" fill-rule="nonzero"/></g><path fill="#f9ab24" d="M 11.28125 25.972656 C 10.980469 25.835938 10.621094 25.972656 10.484375 26.277344 L 7.378906 33.195312 C 7.242188 33.5 7.378906 33.859375 7.683594 33.992188 C 7.980469 34.128906 8.34375 34 8.480469 33.691406 C 8.480469 33.691406 11.585938 26.769531 11.585938 26.769531 C 11.71875 26.46875 11.585938 26.109375 11.28125 25.972656 Z M 11.28125 25.972656 " fill-opacity="1" fill-rule="nonzero"/><path fill="#f9ab24" d="M 14.757812 25.9375 C 14.4375 25.863281 14.109375 26.066406 14.042969 26.394531 L 12.492188 33.316406 C 12.417969 33.640625 12.621094 33.960938 12.949219 34.03125 C 13.265625 34.105469 13.597656 33.902344 13.664062 33.574219 L 15.214844 26.652344 C 15.289062 26.332031 15.078125 26.011719 14.757812 25.9375 Z M 14.757812 25.9375 " fill-opacity="1" fill-rule="nonzero"/><path fill="#f9ab24" d="M 18.214844 25.917969 C 17.882812 25.917969 17.609375 26.1875 17.609375 26.523438 L 17.609375 33.445312 C 17.609375 33.777344 17.882812 34.050781 18.214844 34.050781 C 18.550781 34.050781 18.820312 33.777344 18.820312 33.445312 L 18.820312 26.523438 C 18.816406 26.1875 18.550781 25.917969 18.214844 25.917969 Z M 18.214844 25.917969 " fill-opacity="1" fill-rule="nonzero"/><path fill="#f9ab24" d="M 22.390625 26.394531 C 22.21875 25.628906 21.042969 25.886719 21.21875 26.660156 C 21.21875 26.660156 22.765625 33.578125 22.765625 33.578125 C 22.945312 34.34375 24.113281 34.085938 23.941406 33.316406 C 23.945312 33.316406 22.390625 26.394531 22.390625 26.394531 Z M 22.390625 26.394531 " fill-opacity="1" fill-rule="nonzero"/><path fill="#f9ab24" d="M 25.148438 25.972656 C 24.847656 26.109375 24.710938 26.46875 24.847656 26.769531 L 27.953125 33.691406 C 28.089844 34 28.453125 34.128906 28.75 33.992188 C 29.050781 33.859375 29.1875 33.5 29.050781 33.195312 L 25.945312 26.277344 C 25.804688 25.972656 25.453125 25.835938 25.148438 25.972656 Z M 25.148438 25.972656 " fill-opacity="1" fill-rule="nonzero"/></svg>