<svg xmlns="http://www.w3.org/2000/svg" xmlns:xlink="http://www.w3.org/1999/xlink" width="50" zoomAndPan="magnify" viewBox="0 0 37.5 37.499999" height="50" preserveAspectRatio="xMidYMid meet" version="1.0"><defs><clipPath id="845cd0f211"><path d="M 0 0 L 37.007812 0 L 37.007812 37.007812 L 0 37.007812 Z M 0 0 " clip-rule="nonzero"/></clipPath><clipPath id="54c940738f"><path d="M 0 1.765625 L 16 1.765625 L 16 12 L 0 12 Z M 0 1.765625 " clip-rule="nonzero"/></clipPath><clipPath id="5b1efe3aea"><path d="M 4 1.765625 L 12 1.765625 L 12 11 L 4 11 Z M 4 1.765625 " clip-rule="nonzero"/></clipPath><clipPath id="49213f5461"><path d="M 32 12 L 36.265625 12 L 36.265625 25 L 32 25 Z M 32 12 " clip-rule="nonzero"/></clipPath></defs><g clip-path="url(#845cd0f211)"><path fill="#ffffff" d="M 0 0 L 37.007812 0 L 37.007812 37.007812 L 0 37.007812 Z M 0 0 " fill-opacity="1" fill-rule="nonzero"/><path fill="#ffffff" d="M 0 0 L 37.007812 0 L 37.007812 37.007812 L 0 37.007812 Z M 0 0 " fill-opacity="1" fill-rule="nonzero"/></g><path fill="#f9ab24" d="M 22.003906 25.875 C 21.300781 25.875 20.0625 23.6875 16.554688 25.785156 C 16.417969 25.863281 16.246094 25.859375 16.113281 25.773438 C 14.722656 24.839844 12.203125 24.355469 11.265625 25.679688 C 11.132812 25.867188 10.871094 25.910156 10.6875 25.773438 C 9.746094 25.097656 7.703125 24.136719 6.703125 25.375 C 6.671875 25.414062 6.636719 25.445312 6.597656 25.46875 C 4.976562 26.453125 3.070312 25.027344 3.757812 24.457031 C 3.929688 24.3125 4.191406 24.335938 4.335938 24.507812 C 4.414062 24.601562 5.113281 25.363281 6.113281 24.800781 C 7.394531 23.300781 9.554688 24.070312 10.851562 24.894531 C 12.1875 23.523438 14.753906 23.988281 16.351562 24.949219 C 18.449219 23.75 20.117188 23.753906 21.992188 24.960938 C 23.6875 23.804688 25.695312 23.796875 27.351562 24.945312 C 31.023438 22.984375 31.117188 24.839844 33.164062 25.019531 C 34.261719 25.117188 34.472656 23.988281 35.003906 24.453125 C 35.613281 24.980469 34.140625 25.933594 33.089844 25.839844 C 30.625 25.621094 31.085938 23.8125 27.515625 25.789062 C 27.375 25.871094 27.199219 25.855469 27.066406 25.757812 C 25.601562 24.628906 23.757812 24.640625 22.25 25.789062 C 22.179688 25.847656 22.089844 25.875 22.003906 25.875 Z M 22.003906 25.875 " fill-opacity="1" fill-rule="evenodd"/><path fill="#f9ab24" d="M 22.003906 29.296875 C 21.300781 29.296875 20.054688 27.109375 16.554688 29.207031 C 16.417969 29.289062 16.246094 29.285156 16.113281 29.199219 C 14.722656 28.265625 12.203125 27.78125 11.265625 29.105469 C 11.132812 29.289062 10.875 29.332031 10.6875 29.199219 C 9.746094 28.519531 7.703125 27.5625 6.703125 28.800781 C 6.675781 28.835938 6.636719 28.871094 6.597656 28.894531 C 4.96875 29.875 3.074219 28.453125 3.757812 27.882812 C 3.929688 27.738281 4.191406 27.761719 4.335938 27.933594 C 4.414062 28.023438 5.113281 28.789062 6.113281 28.222656 C 7.394531 26.726562 9.554688 27.492188 10.851562 28.316406 C 12.191406 26.945312 14.753906 27.414062 16.351562 28.375 C 18.449219 27.175781 20.117188 27.179688 21.992188 28.386719 C 23.6875 27.226562 25.695312 27.222656 27.351562 28.371094 C 31.023438 26.410156 31.113281 28.261719 33.164062 28.445312 C 34.261719 28.546875 34.472656 27.414062 35.003906 27.878906 C 35.613281 28.40625 34.140625 29.359375 33.089844 29.265625 C 30.625 29.046875 31.082031 27.234375 27.519531 29.214844 C 27.375 29.292969 27.199219 29.28125 27.066406 29.179688 C 25.601562 28.054688 23.757812 28.066406 22.253906 29.214844 C 22.179688 29.269531 22.089844 29.300781 22.003906 29.300781 Z M 22.003906 29.296875 " fill-opacity="1" fill-rule="evenodd"/><path fill="#f9ab24" d="M 22.003906 32.722656 C 21.308594 32.722656 20.054688 30.535156 16.554688 32.632812 C 16.417969 32.714844 16.246094 32.710938 16.113281 32.621094 C 14.722656 31.691406 12.203125 31.203125 11.265625 32.53125 C 11.132812 32.714844 10.875 32.757812 10.6875 32.625 C 9.746094 31.945312 7.703125 30.988281 6.703125 32.226562 C 6.675781 32.261719 6.636719 32.292969 6.597656 32.320312 C 4.96875 33.300781 3.074219 31.878906 3.757812 31.308594 C 3.929688 31.164062 4.191406 31.183594 4.335938 31.359375 C 4.414062 31.449219 5.113281 32.210938 6.113281 31.648438 C 7.394531 30.152344 9.554688 30.917969 10.851562 31.742188 C 12.1875 30.371094 14.753906 30.839844 16.351562 31.800781 C 18.449219 30.601562 20.117188 30.605469 21.992188 31.8125 C 23.683594 30.652344 25.695312 30.648438 27.351562 31.796875 C 31.023438 29.835938 31.117188 31.6875 33.164062 31.871094 C 34.261719 31.96875 34.472656 30.839844 35.003906 31.300781 C 35.613281 31.832031 34.140625 32.785156 33.089844 32.691406 C 30.625 32.472656 31.085938 30.660156 27.519531 32.640625 C 27.375 32.71875 27.199219 32.707031 27.066406 32.605469 C 25.601562 31.476562 23.757812 31.488281 22.253906 32.640625 C 22.179688 32.695312 22.089844 32.722656 22.003906 32.722656 Z M 22.003906 32.722656 " fill-opacity="1" fill-rule="evenodd"/><path fill="#f9ab24" d="M 24.207031 20.703125 C 24.085938 20.703125 23.964844 20.648438 23.882812 20.542969 L 21.929688 18.023438 L 8.429688 18.023438 C 8.3125 18.023438 8.199219 17.972656 8.121094 17.886719 L 4.082031 13.320312 C 3.851562 13.058594 4.035156 12.640625 4.386719 12.636719 L 6.808594 12.601562 C 6.9375 12.605469 7.058594 12.660156 7.136719 12.761719 L 9.382812 15.640625 L 20.917969 15.640625 C 21.046875 15.640625 21.164062 15.699219 21.242188 15.800781 L 24.53125 20.039062 C 24.746094 20.3125 24.539062 20.703125 24.207031 20.703125 Z M 8.617188 17.203125 L 21.289062 17.203125 L 20.71875 16.464844 L 9.183594 16.464844 C 9.054688 16.464844 8.9375 16.40625 8.859375 16.304688 L 6.613281 13.429688 L 5.292969 13.445312 Z M 8.617188 17.203125 " fill-opacity="1" fill-rule="evenodd"/><path fill="#f9ab24" d="M 6.117188 20.699219 C 5.769531 20.699219 5.574219 20.289062 5.808594 20.019531 L 8.117188 17.34375 C 8.472656 16.933594 9.09375 17.472656 8.742188 17.882812 L 6.429688 20.558594 C 6.347656 20.652344 6.234375 20.699219 6.117188 20.699219 Z M 6.117188 20.699219 " fill-opacity="1" fill-rule="evenodd"/><path fill="#f9ab24" d="M 24.511719 20.703125 L 4.085938 20.703125 C 3.546875 20.703125 3.546875 19.878906 4.085938 19.878906 L 24.511719 19.878906 C 25.054688 19.878906 25.054688 20.703125 24.511719 20.703125 Z M 24.511719 20.703125 " fill-opacity="1" fill-rule="evenodd"/><g clip-path="url(#54c940738f)"><path fill="#f9ab24" d="M 1.734375 11.441406 C 1.34375 11.441406 1.308594 11.039062 1.222656 10.707031 C 0.0117188 6.183594 3.441406 1.765625 8.070312 1.765625 C 11.285156 1.765625 14.109375 3.929688 14.941406 7.03125 C 15.019531 7.328125 15.238281 7.835938 14.765625 7.964844 Z M 8.070312 2.589844 C 4.011719 2.589844 0.941406 6.433594 2.023438 10.527344 L 14.15625 7.273438 C 13.425781 4.511719 10.929688 2.589844 8.070312 2.589844 Z M 8.070312 2.589844 " fill-opacity="1" fill-rule="evenodd"/></g><g clip-path="url(#5b1efe3aea)"><path fill="#f9ab24" d="M 5.199219 10.511719 C 5.066406 10.511719 4.933594 10.445312 4.855469 10.328125 C 2.769531 7.144531 5.972656 2.226562 6.007812 2.179688 C 6.121094 2.003906 6.347656 1.945312 6.53125 2.035156 C 6.585938 2.0625 11.816406 4.78125 11.605469 8.519531 C 11.574219 9.0625 10.753906 9.011719 10.785156 8.472656 C 10.933594 5.777344 7.582031 3.59375 6.496094 2.957031 C 5.875 4.050781 4.066406 7.621094 5.542969 9.875 C 5.722656 10.152344 5.519531 10.511719 5.199219 10.511719 Z M 5.199219 10.511719 " fill-opacity="1" fill-rule="evenodd"/></g><path fill="#f9ab24" d="M 10.007812 16.464844 C 9.824219 16.464844 9.65625 16.34375 9.609375 16.160156 L 7.800781 9.402344 C 7.660156 8.882812 8.453125 8.667969 8.59375 9.191406 L 10.402344 15.945312 C 10.472656 16.207031 10.277344 16.464844 10.007812 16.464844 Z M 10.007812 16.464844 " fill-opacity="1" fill-rule="evenodd"/><path fill="#f9ab24" d="M 21.933594 8.613281 C 20.84375 8.613281 19.960938 7.726562 19.960938 6.636719 C 19.960938 5.546875 20.84375 4.664062 21.933594 4.664062 C 23.023438 4.664062 23.910156 5.546875 23.910156 6.636719 C 23.910156 7.726562 23.023438 8.613281 21.933594 8.613281 Z M 21.933594 5.484375 C 20.417969 5.484375 20.417969 7.789062 21.933594 7.789062 C 23.449219 7.789062 23.449219 5.484375 21.933594 5.484375 Z M 21.933594 5.484375 " fill-opacity="1" fill-rule="evenodd"/><path fill="#f9ab24" d="M 21.933594 4.464844 C 21.375 4.464844 21.523438 3.679688 21.523438 2.988281 C 21.523438 2.445312 22.34375 2.445312 22.34375 2.988281 C 22.34375 3.679688 22.496094 4.464844 21.933594 4.464844 Z M 21.933594 4.464844 " fill-opacity="1" fill-rule="evenodd"/><path fill="#f9ab24" d="M 23.761719 5.222656 C 23.398438 5.222656 23.210938 4.777344 23.472656 4.519531 C 23.960938 4.027344 24.410156 3.367188 24.808594 3.765625 C 25.203125 4.160156 24.542969 4.609375 24.054688 5.101562 C 23.972656 5.179688 23.867188 5.222656 23.761719 5.222656 Z M 23.761719 5.222656 " fill-opacity="1" fill-rule="evenodd"/><path fill="#f9ab24" d="M 25.585938 7.046875 C 24.890625 7.046875 24.109375 7.199219 24.109375 6.636719 C 24.109375 6.078125 24.890625 6.226562 25.585938 6.226562 C 26.125 6.226562 26.125 7.046875 25.585938 7.046875 Z M 25.585938 7.046875 " fill-opacity="1" fill-rule="evenodd"/><path fill="#f9ab24" d="M 24.515625 9.628906 C 24.230469 9.628906 23.796875 9.082031 23.46875 8.757812 C 23.085938 8.371094 23.667969 7.792969 24.054688 8.175781 C 24.542969 8.664062 25.203125 9.113281 24.808594 9.511719 C 24.726562 9.589844 24.621094 9.628906 24.515625 9.628906 Z M 24.515625 9.628906 " fill-opacity="1" fill-rule="evenodd"/><path fill="#f9ab24" d="M 21.933594 10.699219 C 21.375 10.699219 21.523438 9.914062 21.523438 9.222656 C 21.523438 8.679688 22.34375 8.679688 22.34375 9.222656 C 22.34375 9.917969 22.496094 10.699219 21.933594 10.699219 Z M 21.933594 10.699219 " fill-opacity="1" fill-rule="evenodd"/><path fill="#f9ab24" d="M 19.351562 9.628906 C 18.988281 9.628906 18.800781 9.1875 19.0625 8.929688 C 19.550781 8.4375 20 7.777344 20.398438 8.175781 C 20.792969 8.570312 20.136719 9.019531 19.644531 9.511719 C 19.5625 9.589844 19.457031 9.628906 19.351562 9.628906 Z M 19.351562 9.628906 " fill-opacity="1" fill-rule="evenodd"/><path fill="#f9ab24" d="M 19.347656 7.046875 C 18.65625 7.046875 17.871094 7.199219 17.871094 6.636719 C 17.871094 6.078125 18.65625 6.226562 19.347656 6.226562 C 19.890625 6.226562 19.890625 7.046875 19.347656 7.046875 Z M 19.347656 7.046875 " fill-opacity="1" fill-rule="evenodd"/><path fill="#f9ab24" d="M 20.105469 5.222656 C 19.820312 5.222656 19.386719 4.671875 19.0625 4.347656 C 18.679688 3.964844 19.261719 3.382812 19.644531 3.765625 C 20.132812 4.257812 20.792969 4.703125 20.398438 5.101562 C 20.316406 5.179688 20.210938 5.222656 20.105469 5.222656 Z M 20.105469 5.222656 " fill-opacity="1" fill-rule="evenodd"/><path fill="#f9ab24" d="M 34.808594 20.703125 L 24.511719 20.703125 C 23.96875 20.703125 23.96875 19.878906 24.511719 19.878906 L 34.808594 19.878906 C 35.347656 19.878906 35.347656 20.703125 34.808594 20.703125 Z M 34.808594 20.703125 " fill-opacity="1" fill-rule="evenodd"/><path fill="#f9ab24" d="M 27.71875 24.113281 C 27.488281 24.113281 27.304688 23.929688 27.304688 23.703125 L 27.304688 14.691406 C 27.304688 13.625 28.171875 12.761719 29.234375 12.761719 C 31.015625 12.761719 31.683594 15.101562 30.753906 15.101562 C 30.527344 15.101562 30.34375 14.917969 30.34375 14.691406 C 30.34375 13.230469 28.128906 13.234375 28.128906 14.691406 L 28.128906 23.703125 C 28.128906 23.929688 27.945312 24.113281 27.71875 24.113281 Z M 27.71875 24.113281 " fill-opacity="1" fill-rule="evenodd"/><g clip-path="url(#49213f5461)"><path fill="#f9ab24" d="M 32.636719 24.113281 C 32.410156 24.113281 32.226562 23.929688 32.226562 23.703125 L 32.226562 14.691406 C 32.226562 13.625 33.09375 12.761719 34.15625 12.761719 C 35.9375 12.761719 36.605469 15.101562 35.675781 15.101562 C 35.449219 15.101562 35.265625 14.917969 35.265625 14.691406 C 35.265625 13.234375 33.050781 13.230469 33.050781 14.691406 L 33.050781 23.703125 C 33.050781 23.929688 32.867188 24.113281 32.636719 24.113281 Z M 32.636719 24.113281 " fill-opacity="1" fill-rule="evenodd"/></g><path fill="#f9ab24" d="M 32.636719 16.929688 L 27.71875 16.929688 C 27.175781 16.929688 27.175781 16.109375 27.71875 16.109375 L 32.636719 16.109375 C 33.179688 16.109375 33.179688 16.929688 32.636719 16.929688 Z M 32.636719 16.929688 " fill-opacity="1" fill-rule="evenodd"/><path fill="#f9ab24" d="M 32.636719 18.816406 L 27.71875 18.816406 C 27.175781 18.816406 27.175781 17.992188 27.71875 17.992188 L 32.636719 17.992188 C 33.179688 17.992188 33.179688 18.816406 32.636719 18.816406 Z M 32.636719 18.816406 " fill-opacity="1" fill-rule="evenodd"/><path fill="#f9ab24" d="M 32.636719 20.703125 L 27.71875 20.703125 C 27.175781 20.703125 27.175781 19.878906 27.71875 19.878906 L 32.636719 19.878906 C 33.179688 19.878906 33.179688 20.703125 32.636719 20.703125 Z M 32.636719 20.703125 " fill-opacity="1" fill-rule="evenodd"/><path fill="#f9ab24" d="M 32.636719 22.585938 L 27.71875 22.585938 C 27.175781 22.585938 27.175781 21.761719 27.71875 21.761719 L 32.636719 21.761719 C 33.179688 21.761719 33.179688 22.585938 32.636719 22.585938 Z M 32.636719 22.585938 " fill-opacity="1" fill-rule="evenodd"/></svg>