<svg xmlns="http://www.w3.org/2000/svg" xmlns:xlink="http://www.w3.org/1999/xlink" width="50" zoomAndPan="magnify" viewBox="0 0 37.5 37.499999" height="50" preserveAspectRatio="xMidYMid meet" version="1.0"><defs><clipPath id="f2bbb7de0f"><path d="M 0 0 L 37.007812 0 L 37.007812 37.007812 L 0 37.007812 Z M 0 0 " clip-rule="nonzero"/></clipPath><clipPath id="67a6b1b99d"><path d="M 1.480469 1.292969 L 35.527344 1.292969 L 35.527344 36 L 1.480469 36 Z M 1.480469 1.292969 " clip-rule="nonzero"/></clipPath></defs><g clip-path="url(#f2bbb7de0f)"><path fill="#ffffff" d="M 0 0 L 37.007812 0 L 37.007812 37.007812 L 0 37.007812 Z M 0 0 " fill-opacity="1" fill-rule="nonzero"/><path fill="#ffffff" d="M 0 0 L 37.007812 0 L 37.007812 37.007812 L 0 37.007812 Z M 0 0 " fill-opacity="1" fill-rule="nonzero"/></g><g clip-path="url(#67a6b1b99d)"><path fill="#f9ab24" d="M 35.238281 14.683594 C 34.773438 12.742188 33.941406 10.894531 32.839844 9.230469 C 30.703125 5.960938 27.433594 3.453125 23.722656 2.230469 C 21.703125 1.574219 19.5625 1.296875 17.441406 1.457031 C 15.398438 1.597656 13.378906 2.128906 11.527344 2.992188 C 9.808594 3.789062 8.238281 4.894531 6.871094 6.199219 C 4.515625 8.441406 2.8125 11.351562 2.023438 14.503906 C 1.675781 15.871094 1.503906 17.285156 1.480469 18.691406 C 1.484375 20.597656 1.800781 22.507812 2.425781 24.308594 C 3.664062 27.878906 6.070312 31.046875 9.21875 33.148438 C 10.882812 34.269531 12.75 35.074219 14.699219 35.546875 C 16.605469 35.996094 18.585938 36.109375 20.53125 35.886719 C 23.242188 35.578125 25.867188 34.570312 28.113281 33.019531 C 29.941406 31.757812 31.523438 30.144531 32.757812 28.296875 C 34.410156 25.859375 35.433594 23 35.671875 20.0625 C 35.828125 18.261719 35.667969 16.4375 35.238281 14.683594 Z M 9.015625 26.394531 C 8.613281 26.902344 8.296875 27.476562 8.082031 28.09375 C 7.777344 29.003906 7.636719 29.964844 7.578125 30.925781 C 7.515625 30.804688 7.503906 30.664062 7.484375 30.527344 C 7.335938 29.445312 7.332031 28.328125 7.597656 27.261719 C 7.800781 26.4375 8.203125 25.660156 8.777344 25.035156 C 9.261719 24.523438 9.882812 24.15625 10.523438 23.867188 C 11.324219 23.496094 12.148438 23.1875 12.988281 22.941406 C 13.449219 22.804688 13.890625 22.601562 14.363281 22.523438 C 14.03125 22.710938 13.671875 22.859375 13.335938 23.046875 C 12.523438 23.503906 11.730469 24.015625 10.980469 24.570312 C 10.261719 25.097656 9.566406 25.691406 9.015625 26.394531 Z M 9.628906 23.730469 C 9.695312 23.628906 9.789062 23.5625 9.867188 23.472656 C 10 23.332031 10.097656 23.167969 10.242188 23.042969 C 10.160156 23.28125 10.046875 23.507812 9.949219 23.734375 C 9.84375 23.742188 9.738281 23.734375 9.628906 23.730469 Z M 12.734375 22.519531 C 12.804688 22.363281 12.886719 22.21875 12.964844 22.066406 C 13.046875 22.203125 13.210938 22.277344 13.265625 22.425781 C 13.207031 22.5625 13.148438 22.703125 13.050781 22.8125 C 12.875 22.839844 12.828125 22.621094 12.734375 22.519531 Z M 10.839844 31.957031 C 10.820312 31.917969 10.800781 31.875 10.785156 31.835938 C 10.558594 30.769531 10.53125 29.664062 10.710938 28.585938 C 10.851562 27.777344 11.113281 26.976562 11.574219 26.289062 C 12.066406 25.527344 12.792969 24.9375 13.597656 24.53125 C 14.996094 23.828125 16.515625 23.410156 18.039062 23.070312 C 18.105469 23.046875 18.210938 23.050781 18.222656 22.953125 C 18.300781 22.625 18.425781 22.308594 18.523438 21.988281 C 18.171875 22.269531 17.824219 22.546875 17.5 22.851562 C 17.429688 22.933594 17.339844 22.886719 17.261719 22.851562 C 17.277344 22.71875 17.324219 22.582031 17.40625 22.472656 C 17.765625 22.011719 18.265625 21.6875 18.691406 21.296875 C 18.023438 21.664062 17.359375 22.0625 16.777344 22.5625 C 16.496094 22.800781 16.226562 23.054688 15.964844 23.3125 C 15.859375 23.425781 15.734375 23.261719 15.703125 23.164062 C 15.882812 22.8125 16.167969 22.53125 16.433594 22.242188 C 16.132812 22.222656 15.875 22.390625 15.625 22.539062 C 15.398438 22.671875 15.203125 22.859375 14.992188 23.007812 C 14.871094 23.039062 14.832031 22.886719 14.78125 22.804688 C 14.800781 22.699219 14.878906 22.605469 14.933594 22.511719 C 15.214844 22.121094 15.460938 21.699219 15.804688 21.347656 C 15.945312 21.203125 16.097656 21.066406 16.238281 20.917969 C 15.765625 21.246094 15.277344 21.558594 14.839844 21.9375 C 14.65625 22.097656 14.519531 22.300781 14.359375 22.472656 C 14.199219 22.507812 14.03125 22.519531 13.867188 22.511719 C 13.859375 22.328125 13.988281 22.183594 14.074219 22.03125 C 14.78125 20.933594 15.796875 20.078125 16.769531 19.21875 C 16.515625 19.351562 16.300781 19.542969 16.074219 19.71875 C 15.175781 20.4375 14.339844 21.277344 13.789062 22.292969 C 13.699219 22.464844 13.492188 22.441406 13.332031 22.449219 C 13.3125 22.117188 13.371094 21.78125 13.429688 21.449219 C 13.460938 21.214844 13.679688 21.074219 13.851562 20.933594 C 13.789062 21.378906 13.699219 21.828125 13.726562 22.285156 C 14.148438 21.445312 14.65625 20.648438 15.28125 19.941406 C 15.859375 19.257812 16.621094 18.769531 17.371094 18.300781 C 17.667969 18.101562 17.992188 17.941406 18.265625 17.714844 C 17.457031 18.101562 16.679688 18.554688 15.933594 19.050781 C 15.535156 19.316406 15.125 19.59375 14.804688 19.957031 C 14.660156 20.105469 14.570312 20.300781 14.417969 20.445312 C 14.613281 19.945312 14.839844 19.453125 14.902344 18.914062 C 14.492188 19.472656 14.097656 20.058594 13.875 20.722656 C 13.761719 20.867188 13.585938 20.941406 13.4375 21.046875 C 13.496094 20.683594 13.539062 20.316406 13.480469 19.953125 C 13.367188 20.195312 13.265625 20.453125 13.171875 20.707031 C 13.097656 20.90625 13.085938 21.128906 12.957031 21.304688 C 12.71875 21.65625 12.4375 21.988281 12.289062 22.390625 C 12.230469 22.527344 12.203125 22.683594 12.117188 22.808594 C 11.957031 22.96875 11.726562 23 11.527344 23.082031 C 11.75 22.484375 11.96875 21.886719 12.15625 21.28125 C 11.664062 21.589844 11.332031 22.097656 11.121094 22.628906 C 11.027344 22.847656 10.964844 23.074219 10.859375 23.285156 C 10.832031 23.300781 10.785156 23.324219 10.761719 23.332031 C 10.703125 23.28125 10.589844 23.246094 10.621094 23.148438 C 10.667969 22.890625 10.765625 22.648438 10.859375 22.40625 C 11.046875 21.96875 11.421875 21.65625 11.707031 21.285156 C 11.523438 21.398438 11.371094 21.558594 11.210938 21.703125 C 10.578125 22.3125 9.917969 22.902344 9.277344 23.503906 C 8.160156 24.625 7.203125 25.972656 6.796875 27.515625 C 6.648438 28.0625 6.5625 28.625 6.546875 29.191406 C 6.046875 27.15625 6.253906 24.910156 7.289062 23.0625 C 7.375 22.90625 7.449219 22.742188 7.570312 22.605469 C 7.269531 23.53125 6.988281 24.464844 6.730469 25.40625 C 7.203125 24.714844 7.75 24.070312 8.382812 23.527344 C 8.65625 23.261719 9.007812 23.070312 9.207031 22.742188 C 9.621094 22.109375 10.011719 21.464844 10.488281 20.878906 C 11.167969 20.03125 11.933594 19.253906 12.746094 18.53125 C 12.832031 18.449219 12.917969 18.375 13 18.289062 C 12.609375 18.519531 12.230469 18.792969 11.835938 19.023438 C 10.925781 19.570312 10.082031 20.238281 9.40625 21.066406 C 8.882812 21.699219 8.496094 22.425781 8.160156 23.167969 C 8.058594 23.371094 8 23.605469 7.855469 23.785156 C 7.800781 23.855469 7.710938 23.808594 7.636719 23.804688 C 7.761719 23.226562 7.933594 22.660156 8.085938 22.085938 C 8.136719 21.917969 8.179688 21.738281 8.300781 21.605469 C 8.726562 21.128906 9.183594 20.675781 9.582031 20.175781 C 9.75 19.972656 9.929688 19.773438 10.050781 19.539062 C 9.25 20.238281 8.5 20.984375 7.78125 21.769531 C 7.257812 22.332031 6.816406 22.96875 6.460938 23.652344 C 6.074219 24.40625 5.828125 25.214844 5.574219 26.015625 C 5.429688 26.523438 5.289062 27.039062 5.171875 27.558594 C 5.148438 27.664062 5.128906 27.773438 5.078125 27.867188 C 5.007812 26.984375 5.113281 26.109375 5.191406 25.230469 C 5.191406 25.167969 5.199219 25.105469 5.234375 25.046875 L 5.269531 25.175781 C 5.6875 24.347656 5.910156 23.433594 6.351562 22.621094 C 6.738281 21.9375 7.253906 21.328125 7.835938 20.800781 C 7.992188 20.648438 8.195312 20.527344 8.273438 20.316406 C 8.195312 20.355469 8.121094 20.402344 8.042969 20.453125 C 8.207031 20.054688 8.40625 19.664062 8.59375 19.277344 C 8.71875 18.988281 8.996094 18.8125 9.238281 18.628906 C 9.824219 18.1875 10.527344 17.953125 11.160156 17.589844 C 10.363281 17.871094 9.5625 18.191406 8.878906 18.699219 C 8.144531 19.316406 7.433594 19.980469 6.890625 20.773438 C 6.453125 21.386719 6.109375 22.066406 5.8125 22.761719 C 5.539062 23.445312 5.398438 24.171875 5.277344 24.894531 C 5.277344 24.929688 5.277344 25 5.285156 25.039062 C 5.265625 25.039062 5.230469 25.039062 5.214844 25.039062 C 5.359375 23.949219 5.558594 22.859375 5.929688 21.820312 C 6.21875 21 6.78125 20.320312 7.296875 19.632812 C 7.601562 19.230469 7.9375 18.851562 8.316406 18.511719 C 8.695312 18.171875 9.023438 17.777344 9.277344 17.335938 C 8.933594 17.59375 8.558594 17.8125 8.222656 18.089844 C 7.671875 18.550781 7.175781 19.082031 6.757812 19.671875 C 6.277344 20.367188 5.875 21.121094 5.535156 21.898438 C 5.054688 22.964844 4.925781 24.136719 4.773438 25.289062 C 4.808594 24.804688 4.855469 24.316406 4.90625 23.835938 C 5.003906 22.648438 5.21875 21.46875 5.519531 20.320312 C 5.550781 20.207031 5.570312 20.082031 5.65625 19.996094 C 5.628906 19.976562 5.59375 19.957031 5.566406 19.9375 L 5.714844 19.976562 C 5.695312 19.941406 5.660156 19.871094 5.644531 19.832031 C 5.875 19.183594 6.191406 18.5625 6.339844 17.890625 C 6.402344 17.605469 6.433594 17.308594 6.492188 17.023438 C 6.65625 16.242188 6.894531 15.472656 7.238281 14.757812 C 6.589844 15.460938 6.261719 16.386719 5.992188 17.285156 C 5.816406 17.886719 5.625 18.480469 5.515625 19.101562 C 5.46875 19.433594 5.484375 19.777344 5.386719 20.101562 C 5.078125 21.164062 4.898438 22.25 4.765625 23.347656 C 4.609375 24.707031 4.597656 26.082031 4.695312 27.445312 C 4.675781 27.40625 4.65625 27.371094 4.644531 27.324219 C 4.410156 26.335938 4.15625 25.339844 4.105469 24.324219 C 4.074219 23.621094 4.140625 22.914062 4.308594 22.230469 C 4.414062 21.808594 4.574219 21.40625 4.734375 21 C 4.832031 21.054688 4.929688 21.109375 5.027344 21.167969 C 4.933594 20.984375 4.898438 20.777344 4.855469 20.578125 C 4.695312 19.9375 4.515625 19.300781 4.285156 18.679688 C 4.140625 18.308594 3.894531 17.980469 3.710938 17.625 C 3.8125 18.21875 3.886719 18.820312 3.953125 19.421875 C 4 19.800781 4.085938 20.175781 4.226562 20.527344 C 3.710938 21.457031 3.492188 22.511719 3.378906 23.550781 C 3.273438 23.304688 3.246094 23.039062 3.179688 22.785156 C 3 22.019531 2.9375 21.234375 2.746094 20.464844 C 2.6875 20.988281 2.636719 21.515625 2.601562 22.042969 C 2.382812 20.839844 2.238281 19.621094 2.265625 18.398438 C 2.285156 16.917969 2.53125 15.449219 2.9375 14.027344 C 4.367188 14.023438 5.796875 14.027344 7.234375 14.023438 C 7.3125 14.035156 7.359375 13.960938 7.414062 13.917969 C 7.703125 13.625 8.023438 13.363281 8.351562 13.113281 C 8.257812 13.421875 8.132812 13.722656 8 14.019531 C 8.421875 14.019531 8.84375 14.023438 9.269531 14.023438 C 9.457031 14.039062 9.617188 13.925781 9.78125 13.859375 C 10.753906 13.425781 11.816406 13.265625 12.867188 13.125 C 12.164062 13.425781 11.445312 13.699219 10.746094 14.015625 C 9.867188 14.40625 9.054688 14.9375 8.335938 15.574219 C 7.683594 16.152344 7.160156 16.863281 6.753906 17.625 C 6.46875 18.113281 6.246094 18.636719 5.988281 19.140625 C 5.933594 19.253906 5.871094 19.378906 5.917969 19.511719 L 5.871094 19.484375 C 5.8125 19.613281 5.746094 19.730469 5.671875 19.84375 C 5.691406 19.875 5.710938 19.902344 5.726562 19.933594 C 6.207031 19.21875 6.722656 18.527344 7.378906 17.96875 C 7.898438 17.496094 8.476562 17.09375 9.097656 16.769531 C 10.152344 16.210938 11.300781 15.84375 12.390625 15.363281 C 12.828125 15.167969 13.277344 15.007812 13.734375 14.867188 C 12.953125 15.066406 12.191406 15.34375 11.429688 15.601562 C 10.453125 15.90625 9.464844 16.203125 8.585938 16.738281 C 7.472656 17.398438 6.652344 18.433594 5.914062 19.476562 C 5.933594 19.28125 6.058594 19.128906 6.140625 18.957031 C 6.8125 17.890625 7.496094 16.8125 8.433594 15.953125 C 9.226562 15.25 10.066406 14.589844 10.96875 14.027344 C 13.394531 14.015625 15.820312 14.027344 18.246094 14.023438 C 20.21875 14.035156 22.191406 14.007812 24.164062 14.039062 C 24.265625 14.039062 24.367188 14.035156 24.46875 14.023438 C 23.765625 13.847656 23.058594 13.6875 22.371094 13.46875 C 20.335938 12.835938 18.332031 12.0625 16.460938 11.035156 C 16.085938 11.277344 15.726562 11.542969 15.355469 11.785156 C 14.804688 11.496094 14.25 11.21875 13.691406 10.9375 C 13.289062 11.179688 12.875 11.414062 12.464844 11.640625 C 11.535156 11.03125 10.582031 10.457031 9.648438 9.855469 C 9.597656 9.828125 9.539062 9.765625 9.480469 9.824219 C 8.980469 10.132812 8.496094 10.460938 7.996094 10.777344 C 7.074219 10.285156 6.152344 9.785156 5.238281 9.269531 C 5.246094 9.253906 5.25 9.222656 5.25 9.203125 C 6.789062 7.042969 8.824219 5.226562 11.171875 3.992188 C 14.570312 2.1875 18.632812 1.664062 22.371094 2.605469 C 24.265625 3.078125 26.082031 3.894531 27.691406 5.011719 C 29.636719 6.359375 31.304688 8.105469 32.527344 10.132812 C 32.226562 10.46875 31.917969 10.792969 31.621094 11.136719 C 30.824219 10.660156 30.042969 10.15625 29.257812 9.65625 C 28.054688 10.957031 26.832031 12.257812 25.441406 13.359375 C 25.082031 13.621094 24.738281 13.90625 24.328125 14.089844 C 23.5625 14.484375 22.757812 14.785156 21.941406 15.0625 C 19.464844 15.882812 16.925781 16.527344 14.378906 17.089844 C 13.941406 17.195312 13.496094 17.265625 13.070312 17.394531 C 16.945312 17.40625 20.816406 17.390625 24.695312 17.398438 C 24.550781 17.777344 24.464844 18.175781 24.328125 18.554688 C 24.183594 18.75 23.988281 18.894531 23.835938 19.074219 C 23.894531 19.183594 23.953125 19.296875 24.015625 19.410156 C 24.078125 19.269531 24.160156 19.136719 24.257812 19.015625 C 24.222656 19.355469 24.058594 19.695312 24.167969 20.035156 C 24.226562 20.285156 24.300781 20.542969 24.289062 20.808594 C 24.285156 20.964844 23.996094 21.140625 23.957031 20.914062 C 23.777344 20.300781 23.601562 19.683594 23.421875 19.074219 C 23.320312 18.71875 23.136719 18.402344 22.972656 18.078125 C 23.019531 18.699219 23.015625 19.320312 23.078125 19.9375 C 23.113281 20.066406 23 20.160156 22.941406 20.265625 C 22.4375 21.015625 22.238281 21.890625 22 22.738281 C 21.929688 22.984375 21.894531 23.25 21.769531 23.484375 C 21.691406 23.625 21.519531 23.648438 21.375 23.65625 C 21.457031 23.222656 21.59375 22.792969 21.730469 22.371094 C 21.832031 22.03125 22 21.710938 22.082031 21.363281 C 21.882812 21.429688 21.695312 21.519531 21.515625 21.628906 C 21.191406 21.828125 20.859375 22.03125 20.59375 22.308594 C 20.40625 22.492188 20.265625 22.71875 20.070312 22.894531 C 20.09375 22.699219 20.214844 22.53125 20.308594 22.363281 C 20.472656 22.050781 20.671875 21.757812 20.773438 21.417969 C 20.886719 21.023438 20.980469 20.625 21.050781 20.222656 C 20.8125 20.546875 20.589844 20.882812 20.386719 21.226562 C 20.125 21.683594 20.023438 22.203125 19.894531 22.707031 C 19.84375 22.832031 19.929688 22.945312 19.972656 23.054688 C 19.949219 23.179688 19.886719 23.289062 19.835938 23.40625 C 19.746094 23.375 19.652344 23.34375 19.566406 23.304688 C 19.695312 22.382812 19.675781 21.449219 19.59375 20.527344 C 19.46875 20.933594 19.367188 21.339844 19.253906 21.746094 C 19.113281 22.277344 19.050781 22.824219 18.945312 23.363281 C 18.664062 23.171875 18.273438 23.046875 17.953125 23.214844 C 17.007812 23.59375 16.078125 24.023438 15.203125 24.546875 C 14.488281 24.972656 13.792969 25.4375 13.179688 26.015625 C 12.496094 26.652344 11.945312 27.425781 11.566406 28.28125 C 11.066406 29.429688 10.878906 30.703125 10.839844 31.957031 Z M 28.109375 20.195312 C 27.914062 19.757812 27.574219 19.398438 27.445312 18.933594 C 27.402344 18.796875 27.410156 18.636719 27.285156 18.542969 L 27.417969 18.554688 C 27.390625 18.535156 27.363281 18.519531 27.335938 18.5 C 27.605469 18.195312 27.84375 17.871094 28.089844 17.554688 C 27.875 17.65625 27.714844 17.835938 27.527344 17.972656 C 26.902344 18.492188 26.289062 19.035156 25.789062 19.683594 C 25.230469 20.402344 24.765625 21.207031 24.496094 22.078125 C 24.296875 22.664062 24.15625 23.269531 24 23.871094 C 23.988281 23.964844 23.882812 23.964844 23.816406 23.992188 C 23.941406 22.925781 24.238281 21.886719 24.542969 20.863281 C 24.703125 20.4375 24.851562 20 25.066406 19.59375 C 25.523438 18.789062 26.121094 18.066406 26.785156 17.417969 C 27.433594 17.394531 28.085938 17.417969 28.734375 17.414062 C 28.527344 18.136719 28.308594 18.863281 28.175781 19.613281 C 28.148438 19.804688 28.097656 19.996094 28.109375 20.195312 Z M 26.1875 21.257812 C 25.597656 22.046875 25.121094 22.914062 24.71875 23.8125 C 24.65625 23.824219 24.589844 23.832031 24.527344 23.84375 C 24.796875 23.074219 25.242188 22.386719 25.699219 21.722656 C 26.066406 21.222656 26.488281 20.765625 26.957031 20.359375 C 27.066406 20.5625 27.175781 20.765625 27.289062 20.96875 C 26.910156 21.527344 26.65625 22.152344 26.355469 22.75 C 26.273438 22.722656 26.148438 22.683594 26.179688 22.570312 C 26.261719 21.984375 26.601562 21.46875 26.691406 20.882812 C 26.472656 20.933594 26.3125 21.089844 26.1875 21.257812 Z M 24.179688 21.496094 C 23.917969 22.308594 23.746094 23.152344 23.644531 24.003906 C 23.492188 24.152344 23.277344 24.234375 23.085938 24.332031 C 23.234375 23.320312 23.65625 22.371094 24.179688 21.496094 Z M 22.921875 22.640625 C 22.703125 23.0625 22.5625 23.523438 22.359375 23.949219 C 22.355469 23.390625 22.464844 22.839844 22.589844 22.300781 C 22.71875 21.707031 23.011719 21.167969 23.253906 20.617188 C 23.386719 20.878906 23.617188 21.078125 23.894531 21.179688 C 23.507812 21.621094 23.164062 22.101562 22.921875 22.640625 Z M 24.558594 19.617188 C 24.703125 19.101562 24.808594 18.578125 24.941406 18.058594 C 25.058594 17.566406 25.21875 17.085938 25.382812 16.605469 C 25.511719 16.191406 25.691406 15.789062 25.980469 15.460938 C 26.222656 15.171875 26.492188 14.910156 26.785156 14.671875 C 26.492188 15.484375 26.007812 16.203125 25.570312 16.933594 C 25.121094 17.691406 24.941406 18.578125 24.921875 19.453125 C 24.835938 19.734375 24.675781 19.984375 24.570312 20.261719 C 24.507812 20.382812 24.46875 20.539062 24.347656 20.613281 L 24.394531 20.539062 C 24.339844 20.222656 24.476562 19.917969 24.558594 19.617188 Z M 28.257812 15.945312 C 27.035156 16.882812 25.910156 17.96875 25.082031 19.269531 C 25.207031 18.957031 25.402344 18.679688 25.542969 18.375 C 25.78125 17.96875 25.960938 17.515625 26.28125 17.164062 C 26.691406 16.652344 27.1875 16.210938 27.746094 15.875 C 28.367188 15.488281 29.046875 15.222656 29.699219 14.90625 C 29.21875 15.253906 28.726562 15.574219 28.257812 15.945312 Z M 21.199219 22.472656 C 21.054688 22.75 20.976562 23.066406 20.796875 23.328125 C 20.695312 23.492188 20.4375 23.449219 20.351562 23.289062 C 20.429688 23.101562 20.589844 22.964844 20.695312 22.792969 C 20.957031 22.453125 21.1875 22.0625 21.570312 21.84375 C 21.460938 22.0625 21.308594 22.25 21.199219 22.472656 Z M 12.984375 32.230469 C 12.871094 32.929688 12.886719 33.632812 12.914062 34.335938 C 12.554688 33.515625 12.34375 32.632812 12.285156 31.738281 C 12.246094 30.855469 12.429688 29.96875 12.816406 29.179688 C 13.175781 28.421875 13.710938 27.761719 14.320312 27.195312 C 15.015625 26.554688 15.800781 26.03125 16.605469 25.546875 C 17.46875 25.039062 18.363281 24.589844 19.28125 24.195312 C 19.464844 24.117188 19.648438 24.023438 19.84375 23.976562 C 18.34375 24.855469 16.941406 25.902344 15.695312 27.117188 C 14.992188 27.816406 14.320312 28.574219 13.855469 29.449219 C 13.40625 30.308594 13.117188 31.261719 12.984375 32.230469 Z M 14.921875 32.828125 C 14.757812 33.488281 14.679688 34.160156 14.640625 34.839844 C 14.375 34.234375 14.238281 33.570312 14.214844 32.90625 C 14.175781 31.964844 14.460938 31.027344 14.933594 30.21875 C 15.304688 29.582031 15.792969 29.015625 16.324219 28.507812 C 17.484375 27.433594 18.8125 26.542969 20.230469 25.835938 C 20.054688 26 19.847656 26.117188 19.664062 26.261719 C 18.1875 27.351562 16.886719 28.695312 15.957031 30.273438 C 15.5 31.074219 15.140625 31.933594 14.921875 32.828125 Z M 24.890625 29.738281 C 23.632812 30.726562 22.449219 31.847656 21.496094 33.140625 C 21.058594 33.730469 20.707031 34.371094 20.355469 35.011719 C 20.371094 34.097656 20.597656 33.175781 21.085938 32.394531 C 21.5625 31.589844 22.3125 30.984375 23.074219 30.453125 C 24.035156 29.78125 25.097656 29.269531 26.183594 28.835938 C 25.753906 29.144531 25.300781 29.410156 24.890625 29.738281 Z M 23.71875 28.480469 C 22.335938 29.230469 21.097656 30.269531 20.167969 31.542969 C 19.691406 32.207031 19.308594 32.9375 19.027344 33.703125 C 18.851562 34.160156 18.730469 34.636719 18.589844 35.101562 C 18.507812 35.175781 18.507812 35.03125 18.488281 34.980469 C 18.171875 33.277344 18.734375 31.46875 19.867188 30.167969 C 21.027344 28.808594 22.644531 27.886719 24.359375 27.433594 C 25.773438 27.054688 27.265625 26.941406 28.71875 27.101562 C 28.757812 27.105469 28.796875 27.125 28.832031 27.152344 C 27.066406 27.234375 25.289062 27.636719 23.71875 28.480469 Z M 27.515625 26.042969 C 26.25 25.796875 24.921875 25.757812 23.664062 26.09375 C 22.21875 26.457031 20.957031 27.320312 19.886719 28.328125 C 18.5625 29.597656 17.617188 31.234375 17.121094 32.996094 C 16.921875 33.6875 16.808594 34.398438 16.71875 35.113281 C 16.582031 34.832031 16.519531 34.515625 16.457031 34.214844 C 16.226562 33.152344 16.304688 32.027344 16.695312 31.011719 C 17.226562 29.550781 18.273438 28.355469 19.40625 27.316406 C 20.226562 26.589844 21.109375 25.902344 22.121094 25.476562 C 22.984375 25.09375 23.953125 24.996094 24.886719 25.050781 C 26.484375 25.160156 28.050781 25.660156 29.449219 26.4375 C 29.597656 26.535156 29.773438 26.609375 29.894531 26.738281 C 29.121094 26.453125 28.328125 26.199219 27.515625 26.042969 Z M 32.566406 27.164062 C 31.320312 26.1875 29.941406 25.378906 28.496094 24.734375 C 27.667969 24.382812 26.8125 24.082031 25.933594 23.882812 C 26.441406 23.308594 26.996094 22.769531 27.664062 22.378906 C 27.464844 22.425781 27.253906 22.441406 27.050781 22.417969 C 27.15625 22.046875 27.390625 21.730469 27.484375 21.359375 C 27.613281 21.640625 27.824219 21.871094 28.066406 22.066406 C 28.152344 22.082031 28.25 22.101562 28.296875 22.003906 C 28.417969 21.820312 28.535156 21.597656 28.496094 21.367188 C 28.621094 21.507812 28.789062 21.605469 28.921875 21.738281 C 28.707031 21.863281 28.515625 22.027344 28.300781 22.160156 C 27.84375 22.402344 27.488281 22.792969 27.148438 23.1875 C 26.957031 23.394531 26.828125 23.648438 26.761719 23.921875 C 28.414062 24.25 30.039062 24.789062 31.480469 25.679688 C 31.976562 26.015625 32.5 26.394531 32.722656 26.972656 C 32.667969 27.035156 32.617188 27.097656 32.566406 27.164062 Z M 28.230469 21.117188 C 28.308594 21.164062 28.398438 21.195312 28.460938 21.265625 C 28.386719 21.523438 28.269531 21.765625 28.207031 22.023438 C 28.191406 22.027344 28.15625 22.039062 28.144531 22.042969 C 28.128906 22.03125 28.097656 22.019531 28.089844 22.011719 C 28.035156 21.703125 28.148438 21.40625 28.230469 21.117188 Z M 28.214844 22.238281 C 28.289062 22.1875 28.375 22.152344 28.460938 22.199219 C 29.039062 22.421875 29.59375 22.753906 29.992188 23.234375 C 30.25 23.546875 30.539062 23.835938 30.71875 24.207031 C 30.800781 24.363281 30.824219 24.550781 30.765625 24.71875 C 30.519531 24.457031 30.332031 24.144531 30.082031 23.882812 C 29.554688 23.230469 28.851562 22.769531 28.214844 22.238281 Z M 29.640625 24.515625 C 29.46875 24.410156 29.375 24.222656 29.269531 24.054688 C 29.171875 23.902344 29.070312 23.75 28.992188 23.585938 C 29.234375 23.710938 29.414062 23.933594 29.578125 24.148438 C 29.660156 24.25 29.679688 24.386719 29.640625 24.515625 Z M 28.867188 22.304688 C 28.9375 22.183594 29 22.0625 29.03125 21.921875 C 29.117188 21.988281 29.195312 22.070312 29.269531 22.160156 C 29.140625 22.238281 29.007812 22.285156 28.867188 22.304688 Z M 34.882812 20.277344 C 34.59375 20.457031 34.234375 20.527344 33.992188 20.78125 C 34.300781 20.714844 34.589844 20.582031 34.871094 20.457031 C 34.75 21.527344 34.507812 22.585938 34.210938 23.625 C 34.191406 23.328125 34.1875 23.027344 34.125 22.742188 C 34.023438 22.339844 33.726562 22.023438 33.441406 21.738281 C 32.859375 21.203125 32.222656 20.722656 31.539062 20.324219 C 31.59375 20.453125 31.625 20.585938 31.6875 20.707031 C 31.753906 20.800781 31.835938 20.875 31.90625 20.957031 C 31.867188 21.007812 31.828125 21.066406 31.789062 21.121094 C 32.1875 21.144531 32.578125 21.296875 32.851562 21.585938 C 33.164062 21.925781 33.460938 22.304688 33.582031 22.761719 C 33.773438 23.472656 33.742188 24.222656 33.703125 24.953125 C 33.699219 25.039062 33.6875 25.128906 33.652344 25.210938 C 33.5625 24.449219 33.433594 23.675781 33.128906 22.96875 C 32.929688 22.484375 32.660156 22.003906 32.226562 21.6875 C 32.078125 21.578125 31.910156 21.488281 31.753906 21.386719 C 31.789062 21.542969 31.824219 21.703125 31.9375 21.828125 C 32.457031 22.453125 32.785156 23.226562 32.90625 24.027344 C 33.007812 24.6875 32.992188 25.359375 32.964844 26.027344 C 32.769531 25.253906 32.640625 24.453125 32.324219 23.722656 C 32.101562 23.164062 31.746094 22.671875 31.324219 22.25 C 30.855469 21.785156 30.355469 21.347656 29.839844 20.933594 C 29.921875 21.023438 30.003906 21.117188 30.070312 21.222656 C 30.035156 21.242188 29.964844 21.28125 29.933594 21.300781 C 30.144531 21.5 30.394531 21.65625 30.59375 21.863281 C 31.1875 22.449219 31.707031 23.160156 31.910156 23.984375 C 32.027344 24.464844 32.105469 24.957031 32.101562 25.453125 C 31.988281 25.246094 31.917969 25.019531 31.820312 24.808594 C 31.183594 23.402344 30.144531 22.171875 28.851562 21.328125 C 28.191406 20.914062 27.527344 20.5 26.84375 20.125 C 26.847656 20.15625 26.855469 20.21875 26.863281 20.253906 C 26.710938 20.40625 26.535156 20.527344 26.382812 20.679688 C 26.003906 21.015625 25.6875 21.40625 25.382812 21.808594 C 25.828125 20.984375 26.207031 20.121094 26.75 19.355469 C 26.914062 19.09375 27.109375 18.855469 27.269531 18.589844 C 27.292969 18.613281 27.324219 18.640625 27.347656 18.667969 C 27.292969 19.070312 27.277344 19.480469 27.433594 19.863281 C 27.351562 19.917969 27.269531 19.972656 27.191406 20.035156 C 27.277344 20.039062 27.382812 20.011719 27.464844 20.058594 C 27.738281 20.203125 28.035156 20.304688 28.320312 20.421875 C 28.546875 19.871094 28.695312 19.289062 28.777344 18.695312 C 28.851562 18.160156 28.96875 17.628906 29.195312 17.136719 C 29.394531 16.691406 29.695312 16.304688 30.015625 15.933594 C 29.914062 16.792969 29.417969 17.535156 29.203125 18.367188 C 29.417969 18.078125 29.550781 17.746094 29.75 17.453125 C 30.214844 16.757812 30.875 16.214844 31.605469 15.8125 C 31.941406 15.632812 32.265625 15.433594 32.605469 15.253906 C 31.582031 16.070312 30.601562 16.964844 29.835938 18.03125 C 29.503906 18.441406 29.113281 18.8125 28.875 19.292969 C 28.726562 19.605469 28.578125 19.933594 28.480469 20.273438 C 28.585938 20.078125 28.652344 19.871094 28.773438 19.691406 C 29.050781 19.261719 29.273438 18.808594 29.578125 18.398438 C 29.839844 18.070312 30.132812 17.765625 30.414062 17.449219 C 30.585938 17.433594 30.773438 17.464844 30.933594 17.375 C 31.324219 17.1875 31.703125 16.953125 32.121094 16.8125 C 31.726562 17.085938 31.292969 17.296875 30.925781 17.609375 C 30.179688 18.179688 29.53125 18.878906 28.980469 19.640625 C 28.777344 19.917969 28.613281 20.21875 28.410156 20.496094 C 28.496094 20.5625 28.546875 20.472656 28.589844 20.417969 C 29.132812 19.601562 29.777344 18.859375 30.464844 18.160156 C 30.714844 17.925781 30.945312 17.667969 31.21875 17.453125 C 31.242188 17.445312 31.285156 17.425781 31.308594 17.414062 C 32.511719 17.425781 33.722656 17.414062 34.925781 17.425781 C 34.976562 18.367188 34.992188 19.332031 34.882812 20.277344 Z M 34.882812 20.277344 " fill-opacity="1" fill-rule="nonzero"/></g><path fill="#f9ab24" d="M 19.609375 5.304688 C 19.324219 4.945312 18.894531 4.675781 18.433594 4.621094 C 17.960938 4.582031 17.511719 4.824219 17.160156 5.125 C 17.488281 5.011719 17.839844 4.972656 18.1875 4.960938 C 18.683594 4.972656 19.195312 5.023438 19.609375 5.304688 Z M 19.609375 5.304688 " fill-opacity="1" fill-rule="nonzero"/><path fill="#f9ab24" d="M 18.332031 6.222656 C 17.941406 5.667969 17.328125 5.226562 16.636719 5.183594 C 15.992188 5.15625 15.378906 5.464844 14.898438 5.878906 C 15.214844 5.777344 15.535156 5.695312 15.863281 5.667969 C 16.714844 5.578125 17.640625 5.695312 18.332031 6.222656 Z M 18.332031 6.222656 " fill-opacity="1" fill-rule="nonzero"/><path fill="#f9ab24" d="M 14.148438 6.242188 C 13.566406 6.003906 12.910156 5.933594 12.296875 6.097656 C 11.546875 6.285156 10.851562 6.703125 10.3125 7.25 C 10.90625 6.902344 11.589844 6.742188 12.269531 6.675781 C 12.816406 6.617188 13.375 6.636719 13.917969 6.707031 C 14.554688 6.789062 15.195312 6.960938 15.714844 7.34375 C 15.285156 6.859375 14.738281 6.488281 14.148438 6.242188 Z M 14.148438 6.242188 " fill-opacity="1" fill-rule="nonzero"/><path fill="#f9ab24" d="M 25.347656 7.398438 C 24.757812 6.984375 24.058594 6.6875 23.332031 6.6875 C 23.101562 6.679688 22.882812 6.746094 22.65625 6.765625 C 22.195312 6.328125 21.597656 6 20.949219 5.988281 C 20.285156 6.007812 19.652344 6.34375 19.191406 6.808594 C 19.511719 6.648438 19.863281 6.570312 20.214844 6.527344 C 20.988281 6.441406 21.796875 6.5 22.511719 6.824219 C 21.894531 7.03125 21.308594 7.363281 20.847656 7.832031 C 21.554688 7.441406 22.382812 7.328125 23.183594 7.304688 C 24.125 7.304688 25.089844 7.460938 25.941406 7.890625 C 25.78125 7.6875 25.550781 7.550781 25.347656 7.398438 Z M 25.347656 7.398438 " fill-opacity="1" fill-rule="nonzero"/><path fill="#f9ab24" d="M 19.453125 7.773438 C 19.714844 7.828125 19.984375 7.871094 20.21875 7.992188 C 20.214844 7.980469 20.210938 7.953125 20.207031 7.945312 C 19.566406 7.421875 18.734375 7.03125 17.890625 7.148438 C 17.117188 7.269531 16.394531 7.699219 15.894531 8.304688 C 16.1875 8.089844 16.523438 7.941406 16.882812 7.863281 C 17.71875 7.640625 18.605469 7.609375 19.453125 7.773438 Z M 19.453125 7.773438 " fill-opacity="1" fill-rule="nonzero"/><path fill="#f9ab24" d="M 19.410156 8.414062 C 18.730469 8.625 18.101562 9.015625 17.625 9.539062 C 18.03125 9.246094 18.53125 9.105469 19.023438 9.023438 C 19.773438 8.894531 20.546875 8.890625 21.296875 9.027344 C 21.894531 9.132812 22.492188 9.308594 22.992188 9.65625 C 22.582031 9.230469 22.09375 8.875 21.558594 8.625 C 20.898438 8.300781 20.117188 8.191406 19.410156 8.414062 Z M 19.410156 8.414062 " fill-opacity="1" fill-rule="nonzero"/><path fill="#f9ab24" d="M 8.980469 18.039062 C 8.835938 18.234375 8.71875 18.441406 8.613281 18.65625 C 8.839844 18.535156 8.960938 18.292969 8.980469 18.039062 Z M 8.980469 18.039062 " fill-opacity="1" fill-rule="nonzero"/><path fill="#f9ab24" d="M 5.109375 19.460938 C 5.195312 19.300781 5.328125 19.164062 5.410156 19 C 5.496094 18.753906 5.515625 18.488281 5.574219 18.230469 C 5.335938 18.476562 5.125 18.738281 4.898438 18.996094 C 4.964844 19.15625 5.03125 19.3125 5.109375 19.460938 Z M 5.109375 19.460938 " fill-opacity="1" fill-rule="nonzero"/><path fill="#f9ab24" d="M 29.761719 19.835938 C 29.472656 20.101562 29.179688 20.375 28.9375 20.6875 C 29.128906 20.800781 29.316406 20.914062 29.519531 21.007812 C 29.753906 20.777344 29.941406 20.503906 30.136719 20.242188 C 30.542969 19.636719 30.9375 19.011719 31.234375 18.335938 C 30.796875 18.890625 30.265625 19.351562 29.761719 19.835938 Z M 29.761719 19.835938 " fill-opacity="1" fill-rule="nonzero"/><path fill="#f9ab24" d="M 31.34375 19.015625 C 31.339844 19.277344 31.277344 19.539062 31.273438 19.800781 C 31.433594 19.914062 31.621094 19.980469 31.800781 20.0625 C 31.941406 19.882812 32.101562 19.714844 32.207031 19.511719 C 32.039062 19.601562 31.875 19.695312 31.703125 19.792969 C 31.648438 19.511719 31.5625 19.21875 31.34375 19.015625 Z M 31.34375 19.015625 " fill-opacity="1" fill-rule="nonzero"/><path fill="#f9ab24" d="M 31.101562 19.972656 C 31.117188 20.132812 31.058594 20.28125 31.039062 20.441406 C 31.214844 20.464844 31.308594 20.234375 31.488281 20.300781 C 31.347656 20.203125 31.21875 20.097656 31.101562 19.972656 Z M 31.101562 19.972656 " fill-opacity="1" fill-rule="nonzero"/><path fill="#f9ab24" d="M 30.25 20.867188 C 30.34375 20.960938 30.457031 21.039062 30.578125 21.101562 C 30.652344 21 30.746094 20.898438 30.765625 20.773438 C 30.734375 20.675781 30.65625 20.597656 30.601562 20.507812 C 30.425781 20.5625 30.332031 20.722656 30.25 20.867188 Z M 30.25 20.867188 " fill-opacity="1" fill-rule="nonzero"/><path fill="#f9ab24" d="M 33.761719 20.824219 C 33.632812 20.707031 33.503906 20.582031 33.324219 20.554688 C 33.308594 20.679688 33.285156 20.816406 33.308594 20.941406 C 33.339844 21.027344 33.429688 21.074219 33.5 21.128906 C 33.714844 21.28125 33.914062 21.464844 34.125 21.636719 C 34.011719 21.363281 34 21.027344 33.761719 20.824219 Z M 33.761719 20.824219 " fill-opacity="1" fill-rule="nonzero"/><path fill="#f9ab24" d="M 30.9375 21.359375 C 31.015625 21.429688 31.101562 21.496094 31.195312 21.546875 C 31.335938 21.40625 31.496094 21.234375 31.476562 21.019531 C 31.257812 21.054688 31.074219 21.1875 30.9375 21.359375 Z M 30.9375 21.359375 " fill-opacity="1" fill-rule="nonzero"/></svg>