<svg xmlns="http://www.w3.org/2000/svg" xmlns:xlink="http://www.w3.org/1999/xlink" width="50" zoomAndPan="magnify" viewBox="0 0 37.5 37.499999" height="50" preserveAspectRatio="xMidYMid meet" version="1.0"><defs><clipPath id="e451653b14"><path d="M 0 0 L 37.007812 0 L 37.007812 37.007812 L 0 37.007812 Z M 0 0 " clip-rule="nonzero"/></clipPath><clipPath id="7be1012570"><path d="M 23 4 L 31 4 L 31 36.667969 L 23 36.667969 Z M 23 4 " clip-rule="nonzero"/></clipPath><clipPath id="e6764418d0"><path d="M 2.945312 0.402344 L 34.769531 0.402344 L 34.769531 36.667969 L 2.945312 36.667969 Z M 2.945312 0.402344 " clip-rule="nonzero"/></clipPath></defs><g clip-path="url(#e451653b14)"><path fill="#ffffff" d="M 0 0 L 37.007812 0 L 37.007812 37.007812 L 0 37.007812 Z M 0 0 " fill-opacity="1" fill-rule="nonzero"/><path fill="#ffffff" d="M 0 0 L 37.007812 0 L 37.007812 37.007812 L 0 37.007812 Z M 0 0 " fill-opacity="1" fill-rule="nonzero"/></g><path fill="#f9ab24" d="M 7.804688 11.84375 C 7.804688 11.527344 7.546875 11.269531 7.230469 11.269531 C 6.917969 11.269531 6.660156 11.527344 6.660156 11.84375 L 6.660156 17.5625 C 6.660156 17.875 6.917969 18.132812 7.230469 18.132812 C 7.546875 18.132812 7.804688 17.875 7.804688 17.5625 Z M 7.804688 11.84375 " fill-opacity="1" fill-rule="nonzero"/><path fill="#f9ab24" d="M 7.230469 19.277344 C 6.917969 19.277344 6.660156 19.535156 6.660156 19.847656 L 6.660156 20.992188 C 6.660156 21.304688 6.917969 21.5625 7.230469 21.5625 C 7.546875 21.5625 7.804688 21.304688 7.804688 20.992188 L 7.804688 19.847656 C 7.804688 19.535156 7.546875 19.277344 7.230469 19.277344 Z M 7.230469 19.277344 " fill-opacity="1" fill-rule="nonzero"/><path fill="#f9ab24" d="M 15.523438 12.871094 C 15.464844 12.613281 15.238281 12.414062 14.953125 12.414062 C 14.664062 12.414062 14.4375 12.613281 14.378906 12.871094 C 14.378906 12.898438 13.867188 15.417969 11.121094 19.304688 C 9.949219 20.933594 8.71875 23.421875 9.460938 25.964844 C 10.035156 27.96875 11.921875 29.65625 14.066406 30.027344 C 14.664062 30.140625 15.351562 30.140625 15.953125 29.996094 C 18.066406 29.597656 19.925781 27.910156 20.46875 25.9375 C 21.183594 23.394531 19.957031 20.90625 18.8125 19.277344 C 16.007812 15.445312 15.523438 12.898438 15.523438 12.871094 Z M 19.355469 25.679688 C 18.925781 27.222656 17.382812 28.597656 15.722656 28.941406 C 15.265625 29.027344 14.722656 29.027344 14.265625 28.941406 C 12.578125 28.625 11.007812 27.253906 10.578125 25.679688 C 9.976562 23.566406 11.0625 21.421875 12.09375 19.992188 C 13.636719 17.816406 14.523438 16.046875 14.980469 14.84375 C 15.464844 16.046875 16.351562 17.816406 17.898438 19.992188 C 18.867188 21.421875 19.957031 23.566406 19.355469 25.679688 Z M 19.355469 25.679688 " fill-opacity="1" fill-rule="nonzero"/><path fill="#f9ab24" d="M 13.09375 23.050781 C 13.207031 22.765625 13.066406 22.421875 12.777344 22.308594 C 12.492188 22.191406 12.148438 22.335938 12.035156 22.621094 C 12.007812 22.707031 11.234375 24.765625 12.691406 26.253906 C 12.921875 26.480469 13.265625 26.480469 13.492188 26.253906 C 13.722656 26.023438 13.722656 25.679688 13.492188 25.453125 C 12.578125 24.507812 13.09375 23.109375 13.09375 23.050781 Z M 13.09375 23.050781 " fill-opacity="1" fill-rule="nonzero"/><g clip-path="url(#7be1012570)"><path fill="#f9ab24" d="M 30.390625 4.121094 C 30.078125 4.121094 29.820312 4.378906 29.820312 4.695312 L 29.820312 6.980469 L 24.671875 6.980469 L 24.671875 4.695312 C 24.671875 4.378906 24.414062 4.121094 24.101562 4.121094 C 23.785156 4.121094 23.527344 4.378906 23.527344 4.695312 L 23.527344 36.429688 C 23.527344 36.746094 23.785156 37.003906 24.101562 37.003906 C 24.414062 37.003906 24.671875 36.746094 24.671875 36.429688 L 24.671875 33.859375 L 29.820312 33.859375 L 29.820312 36.429688 C 29.820312 36.746094 30.078125 37.003906 30.390625 37.003906 C 30.707031 37.003906 30.964844 36.746094 30.964844 36.429688 L 30.964844 4.695312 C 30.964844 4.378906 30.707031 4.121094 30.390625 4.121094 Z M 24.671875 16.703125 L 29.820312 16.703125 L 29.820312 19.847656 L 24.671875 19.847656 Z M 24.671875 20.992188 L 29.820312 20.992188 L 29.820312 24.136719 L 24.671875 24.136719 Z M 29.820312 15.558594 L 24.671875 15.558594 L 24.671875 12.414062 L 29.820312 12.414062 Z M 24.671875 25.28125 L 29.820312 25.28125 L 29.820312 28.425781 L 24.671875 28.425781 Z M 29.820312 8.125 L 29.820312 11.269531 L 24.671875 11.269531 L 24.671875 8.125 Z M 24.671875 32.714844 L 24.671875 29.570312 L 29.820312 29.570312 L 29.820312 32.714844 Z M 24.671875 32.714844 " fill-opacity="1" fill-rule="nonzero"/></g><g clip-path="url(#e6764418d0)"><path fill="#f9ab24" d="M 34.964844 5.265625 C 34.964844 2.179688 27.046875 0.464844 19.410156 0.40625 C 19.269531 0.40625 18.613281 0.40625 18.410156 0.40625 C 10.835938 0.492188 2.945312 2.179688 2.945312 5.265625 L 2.945312 31.285156 C 2.945312 34.429688 11.207031 36.144531 18.953125 36.144531 C 20.097656 36.144531 21.242188 36.117188 22.386719 36.03125 L 22.386719 34.886719 C 21.300781 34.945312 20.15625 35 18.953125 35 C 9.75 35 4.085938 32.828125 4.085938 31.285156 L 4.085938 7.152344 C 6.601562 9.097656 12.921875 10.128906 18.953125 10.128906 C 20.097656 10.128906 21.242188 10.097656 22.386719 10.011719 L 22.386719 8.867188 C 21.300781 8.925781 20.15625 8.984375 18.953125 8.984375 C 9.75 8.984375 4.085938 6.808594 4.085938 5.265625 C 4.085938 4.722656 4.800781 4.09375 6.144531 3.492188 C 6.117188 3.609375 6.089844 3.722656 6.089844 3.835938 C 6.089844 6.554688 14.496094 7.269531 18.953125 7.269531 C 20.125 7.269531 21.269531 7.238281 22.386719 7.152344 L 22.386719 6.011719 C 21.269531 6.09375 20.125 6.125 18.953125 6.125 C 11.378906 6.125 7.230469 4.609375 7.230469 3.835938 C 7.230469 3.121094 10.835938 1.75 17.496094 1.578125 C 17.582031 1.578125 18.699219 1.550781 18.953125 1.550781 C 28.160156 1.550781 33.820312 3.722656 33.820312 5.265625 C 33.820312 5.78125 33.222656 6.324219 32.105469 6.867188 L 32.105469 8.125 C 32.792969 7.839844 33.363281 7.523438 33.820312 7.152344 L 33.820312 31.285156 C 33.820312 31.800781 33.222656 32.34375 32.105469 32.886719 L 32.105469 34.144531 C 33.878906 33.398438 34.964844 32.429688 34.964844 31.285156 C 34.964844 31.285156 34.964844 5.324219 34.964844 5.265625 Z M 34.964844 5.265625 " fill-opacity="1" fill-rule="nonzero"/></g></svg>