<svg xmlns="http://www.w3.org/2000/svg" xmlns:xlink="http://www.w3.org/1999/xlink" width="50" zoomAndPan="magnify" viewBox="0 0 37.5 37.499999" height="50" preserveAspectRatio="xMidYMid meet" version="1.0"><defs><clipPath id="e05380d51c"><path d="M 0 0 L 37.007812 0 L 37.007812 37.007812 L 0 37.007812 Z M 0 0 " clip-rule="nonzero"/></clipPath><clipPath id="d9c3a1de79"><path d="M 0.910156 5.027344 L 35.675781 5.027344 L 35.675781 29.453125 L 0.910156 29.453125 Z M 0.910156 5.027344 " clip-rule="nonzero"/></clipPath></defs><g clip-path="url(#e05380d51c)"><path fill="#ffffff" d="M 0 0 L 37.007812 0 L 37.007812 37.007812 L 0 37.007812 Z M 0 0 " fill-opacity="1" fill-rule="nonzero"/><path fill="#ffffff" d="M 0 0 L 37.007812 0 L 37.007812 37.007812 L 0 37.007812 Z M 0 0 " fill-opacity="1" fill-rule="nonzero"/></g><g clip-path="url(#d9c3a1de79)"><path fill="#f9ab24" d="M 21.167969 19.648438 C 21.050781 19.75 20.917969 19.800781 20.761719 19.800781 L 16.070312 19.800781 C 15.914062 19.800781 15.78125 19.75 15.664062 19.648438 C 15.550781 19.542969 15.496094 19.417969 15.511719 19.261719 L 15.511719 19.183594 L 15.972656 13.027344 C 15.984375 12.863281 16.054688 12.71875 16.183594 12.597656 C 16.3125 12.476562 16.460938 12.414062 16.625 12.414062 L 20.203125 12.414062 C 20.371094 12.414062 20.519531 12.476562 20.648438 12.597656 C 20.777344 12.71875 20.847656 12.863281 20.859375 13.027344 L 21.320312 19.183594 L 21.320312 19.261719 C 21.332031 19.417969 21.28125 19.542969 21.167969 19.648438 Z M 35.421875 26.015625 L 27.398438 5.929688 C 27.296875 5.6875 27.128906 5.476562 26.898438 5.296875 C 26.667969 5.117188 26.421875 5.027344 26.167969 5.027344 L 19.644531 5.027344 C 19.8125 5.027344 19.960938 5.089844 20.089844 5.210938 C 20.214844 5.332031 20.289062 5.476562 20.300781 5.644531 L 20.589844 9.335938 C 20.601562 9.515625 20.550781 9.664062 20.433594 9.777344 C 20.320312 9.894531 20.179688 9.953125 20.011719 9.953125 L 16.820312 9.953125 C 16.652344 9.953125 16.511719 9.894531 16.394531 9.777344 C 16.28125 9.664062 16.230469 9.515625 16.242188 9.335938 L 16.53125 5.644531 C 16.542969 5.476562 16.613281 5.332031 16.742188 5.210938 C 16.871094 5.089844 17.015625 5.027344 17.183594 5.027344 L 10.664062 5.027344 C 10.40625 5.027344 10.164062 5.117188 9.933594 5.296875 C 9.703125 5.476562 9.535156 5.6875 9.433594 5.929688 L 1.410156 26.015625 C 1.078125 26.808594 0.910156 27.554688 0.910156 28.246094 C 0.910156 29.183594 1.207031 29.648438 1.796875 29.648438 L 15.335938 29.648438 C 15.171875 29.648438 15.03125 29.589844 14.914062 29.46875 C 14.800781 29.34375 14.75 29.199219 14.761719 29.035156 L 15.144531 24.109375 C 15.160156 23.945312 15.230469 23.800781 15.355469 23.675781 C 15.484375 23.554688 15.632812 23.496094 15.800781 23.496094 L 21.03125 23.496094 C 21.199219 23.496094 21.347656 23.554688 21.472656 23.675781 C 21.601562 23.800781 21.671875 23.945312 21.6875 24.109375 L 22.070312 29.035156 C 22.082031 29.199219 22.03125 29.34375 21.917969 29.46875 C 21.800781 29.589844 21.660156 29.648438 21.492188 29.648438 L 35.035156 29.648438 C 35.625 29.648438 35.921875 29.183594 35.921875 28.246094 C 35.921875 27.554688 35.753906 26.808594 35.421875 26.015625 " fill-opacity="1" fill-rule="nonzero"/></g></svg>