<svg xmlns="http://www.w3.org/2000/svg" xmlns:xlink="http://www.w3.org/1999/xlink" width="50" zoomAndPan="magnify" viewBox="0 0 37.5 37.499999" height="50" preserveAspectRatio="xMidYMid meet" version="1.0"><defs><clipPath id="63c0c4231a"><path d="M 0 0 L 37.007812 0 L 37.007812 37.007812 L 0 37.007812 Z M 0 0 " clip-rule="nonzero"/></clipPath><clipPath id="831f5a44af"><path d="M 0.71875 0.976562 L 36.242188 0.976562 L 36.242188 35.765625 L 0.71875 35.765625 Z M 0.71875 0.976562 " clip-rule="nonzero"/></clipPath></defs><g clip-path="url(#63c0c4231a)"><path fill="#ffffff" d="M 0 0 L 37.007812 0 L 37.007812 37.007812 L 0 37.007812 Z M 0 0 " fill-opacity="1" fill-rule="nonzero"/><path fill="#ffffff" d="M 0 0 L 37.007812 0 L 37.007812 37.007812 L 0 37.007812 Z M 0 0 " fill-opacity="1" fill-rule="nonzero"/></g><g clip-path="url(#831f5a44af)"><path fill="#f9ab24" d="M 3.8125 27.75 L 2.226562 28.417969 C 1.683594 28.648438 1.253906 29.097656 1.054688 29.65625 C 0.734375 30.554688 1.058594 31.558594 1.835938 32.101562 C 2.835938 32.792969 4.324219 33.695312 5.71875 34.046875 C 7.945312 34.601562 15.796875 35.3125 16.664062 35.386719 L 17.128906 35.671875 C 17.269531 35.757812 17.425781 35.800781 17.585938 35.800781 C 17.785156 35.800781 17.984375 35.730469 18.144531 35.597656 C 18.347656 35.429688 18.460938 35.183594 18.460938 34.921875 C 18.460938 34.6875 18.367188 34.46875 18.203125 34.304688 L 18.503906 33.851562 L 18.804688 34.304688 C 18.644531 34.46875 18.550781 34.6875 18.550781 34.921875 C 18.546875 35.183594 18.664062 35.429688 18.863281 35.597656 C 19.027344 35.730469 19.226562 35.800781 19.425781 35.800781 C 19.582031 35.800781 19.738281 35.757812 19.878906 35.671875 L 20.464844 35.316406 C 21.328125 35.246094 29.066406 34.601562 31.289062 34.046875 C 32.6875 33.695312 34.171875 32.792969 35.171875 32.101562 C 35.953125 31.558594 36.273438 30.554688 35.953125 29.65625 C 35.753906 29.097656 35.328125 28.648438 34.78125 28.417969 L 33.207031 27.753906 C 32.882812 27.617188 32.523438 27.5625 32.171875 27.601562 L 24.265625 28.398438 L 24.421875 27.765625 C 24.425781 27.75 24.425781 27.730469 24.429688 27.714844 L 24.714844 23.394531 L 25.789062 16.414062 C 25.851562 16.019531 25.800781 15.617188 25.648438 15.25 L 25.472656 14.828125 C 25.222656 14.222656 24.714844 13.769531 24.085938 13.582031 L 22.492188 13.113281 L 20.527344 12.460938 L 20.527344 11.039062 C 21.480469 10.003906 22.105469 8.351562 22.105469 6.886719 C 22.105469 5.574219 21.578125 4.402344 20.761719 3.636719 C 20.785156 3.527344 20.808594 3.410156 20.808594 3.289062 C 20.808594 2.019531 19.777344 0.984375 18.503906 0.984375 C 17.234375 0.984375 16.199219 2.019531 16.199219 3.289062 C 16.199219 3.421875 16.226562 3.53125 16.253906 3.632812 C 15.433594 4.398438 14.90625 5.570312 14.90625 6.886719 C 14.90625 8.351562 15.53125 10.003906 16.480469 11.039062 L 16.480469 12.378906 L 14.511719 13.117188 L 12.925781 13.582031 C 12.292969 13.769531 11.789062 14.222656 11.535156 14.828125 L 11.359375 15.25 C 11.207031 15.617188 11.160156 16.019531 11.21875 16.414062 L 12.292969 23.390625 L 12.582031 27.714844 C 12.582031 27.730469 12.585938 27.75 12.589844 27.765625 L 12.71875 28.292969 L 4.820312 27.59375 C 4.480469 27.5625 4.132812 27.617188 3.8125 27.75 Z M 5.859375 33.484375 C 5.554688 33.40625 5.242188 33.300781 4.933594 33.175781 C 4.902344 32.863281 4.863281 32.113281 5.109375 31.394531 C 5.246094 31 5.890625 30.363281 6.222656 30.0625 L 7.566406 30.203125 C 9.015625 30.355469 10.40625 30.773438 11.703125 31.445312 L 13.742188 32.5 L 14.003906 33.574219 C 14.042969 33.722656 14.136719 33.847656 14.265625 33.929688 L 15.539062 34.703125 C 13.0625 34.46875 7.597656 33.917969 5.859375 33.484375 Z M 17.886719 32.28125 C 17.820312 32.109375 17.6875 31.96875 17.515625 31.894531 L 17.886719 31.578125 C 17.957031 31.515625 18.054688 31.492188 18.148438 31.515625 L 18.214844 31.535156 L 18.214844 33.242188 L 17.757812 33.929688 L 16.855469 33.1875 L 17.257812 33.1875 C 17.511719 33.1875 17.742188 33.042969 17.859375 32.816406 C 17.941406 32.648438 17.949219 32.453125 17.886719 32.28125 Z M 21.796875 26.039062 C 21.277344 26.21875 19.695312 26.722656 18.539062 26.738281 C 17.382812 26.753906 15.742188 26.222656 15.210938 26.039062 L 15.058594 23.9375 L 21.949219 23.9375 Z M 18.492188 27.316406 C 18.507812 27.316406 18.527344 27.316406 18.542969 27.316406 C 19.652344 27.304688 21.0625 26.890625 21.753906 26.664062 L 21.414062 31.308594 L 20.960938 31.308594 C 20.921875 31.308594 20.886719 31.316406 20.851562 31.332031 L 20.089844 31.648438 L 19.5 31.140625 C 19.285156 30.957031 18.996094 30.886719 18.722656 30.957031 L 18.503906 31.011719 L 18.289062 30.957031 C 18.015625 30.886719 17.726562 30.957031 17.511719 31.140625 L 16.917969 31.648438 L 16.160156 31.332031 C 16.125 31.316406 16.085938 31.308594 16.046875 31.308594 L 15.59375 31.308594 L 15.257812 26.667969 C 15.957031 26.898438 17.382812 27.316406 18.492188 27.316406 Z M 18.792969 31.535156 L 18.863281 31.515625 C 18.953125 31.492188 19.050781 31.515625 19.121094 31.578125 L 19.492188 31.894531 C 19.324219 31.96875 19.1875 32.109375 19.125 32.28125 C 19.058594 32.453125 19.070312 32.648438 19.152344 32.816406 C 19.265625 33.042969 19.496094 33.1875 19.753906 33.1875 L 20.15625 33.1875 L 19.253906 33.929688 L 18.792969 33.242188 Z M 31.152344 33.484375 C 29.410156 33.917969 24.015625 34.425781 21.574219 34.640625 L 22.742188 33.929688 C 22.875 33.847656 22.96875 33.722656 23.003906 33.574219 L 23.300781 32.355469 L 25.414062 31.328125 C 26.636719 30.734375 27.941406 30.363281 29.292969 30.21875 L 30.554688 30.085938 C 30.789062 30.277344 31.445312 30.851562 31.617188 31.4375 C 31.777344 31.976562 31.558594 32.941406 31.421875 33.410156 C 31.332031 33.4375 31.242188 33.460938 31.152344 33.484375 Z M 32.230469 28.175781 C 32.488281 28.148438 32.746094 28.1875 32.980469 28.289062 L 34.558594 28.949219 C 34.953125 29.117188 35.265625 29.445312 35.410156 29.851562 C 35.640625 30.5 35.410156 31.230469 34.84375 31.625 C 34.105469 32.136719 33.101562 32.761719 32.082031 33.175781 C 32.207031 32.640625 32.339844 31.839844 32.171875 31.273438 C 32.027344 30.78125 31.648438 30.324219 31.328125 30.003906 L 32.695312 29.863281 L 32.636719 29.285156 L 29.230469 29.644531 C 27.8125 29.792969 26.445312 30.1875 25.160156 30.808594 L 23.480469 31.628906 L 24.121094 28.996094 Z M 24.941406 15.050781 L 25.117188 15.472656 C 25.226562 15.742188 25.265625 16.035156 25.21875 16.324219 L 24.144531 23.316406 C 24.140625 23.324219 24.140625 23.332031 24.140625 23.339844 L 23.855469 27.652344 L 22.441406 33.433594 L 19.582031 35.179688 C 19.472656 35.246094 19.332031 35.234375 19.234375 35.152344 C 19.140625 35.074219 19.125 34.976562 19.128906 34.921875 C 19.128906 34.871094 19.140625 34.769531 19.234375 34.691406 L 21.144531 33.121094 C 21.238281 33.042969 21.273438 32.914062 21.234375 32.800781 C 21.191406 32.683594 21.082031 32.609375 20.960938 32.609375 L 19.753906 32.609375 C 19.71875 32.609375 19.683594 32.589844 19.667969 32.558594 C 19.652344 32.523438 19.660156 32.496094 19.664062 32.484375 C 19.671875 32.46875 19.683594 32.441406 19.71875 32.429688 L 21.019531 31.886719 L 21.414062 31.886719 C 21.714844 31.886719 21.96875 31.652344 21.992188 31.351562 L 22.550781 23.679688 L 23.160156 19.285156 C 23.238281 18.722656 23.214844 18.152344 23.089844 17.597656 L 22.625 15.53125 C 22.492188 14.945312 22.488281 14.335938 22.613281 13.753906 L 23.921875 14.136719 C 24.382812 14.273438 24.753906 14.605469 24.941406 15.050781 Z M 17.058594 11.558594 C 17.503906 11.878906 17.988281 12.070312 18.503906 12.070312 C 19.019531 12.070312 19.507812 11.878906 19.949219 11.558594 L 19.949219 12.976562 C 19.949219 13.773438 19.300781 14.421875 18.503906 14.421875 C 17.707031 14.421875 17.058594 13.773438 17.058594 12.976562 Z M 15.5625 7.738281 C 15.886719 6.160156 17.117188 5.015625 18.503906 5.015625 C 19.933594 5.015625 21.144531 6.097656 21.464844 7.644531 C 21.175781 9.503906 19.910156 11.492188 18.503906 11.492188 C 17.125 11.492188 15.875 9.570312 15.5625 7.738281 Z M 18.503906 1.5625 C 19.433594 1.5625 20.191406 2.300781 20.226562 3.222656 C 19.714844 2.898438 19.128906 2.710938 18.503906 2.710938 C 17.882812 2.710938 17.292969 2.898438 16.78125 3.222656 C 16.816406 2.300781 17.574219 1.5625 18.503906 1.5625 Z M 18.503906 3.289062 C 19.945312 3.289062 21.152344 4.492188 21.453125 6.101562 C 20.792969 5.078125 19.71875 4.4375 18.503906 4.4375 C 17.296875 4.4375 16.195312 5.148438 15.53125 6.242188 C 15.789062 4.566406 17.023438 3.289062 18.503906 3.289062 Z M 16.484375 12.996094 C 16.492188 14.101562 17.394531 15 18.503906 15 C 19.589844 15 20.476562 14.140625 20.523438 13.066406 L 22.058594 13.578125 C 21.90625 14.261719 21.90625 14.972656 22.058594 15.65625 L 22.527344 17.726562 C 22.636719 18.214844 22.65625 18.710938 22.585938 19.207031 L 22.011719 23.359375 L 15 23.359375 L 14.421875 19.191406 C 14.351562 18.707031 14.371094 18.214844 14.476562 17.734375 L 14.945312 15.59375 C 15.089844 14.929688 15.089844 14.234375 14.945312 13.570312 Z M 11.789062 16.324219 C 11.746094 16.035156 11.78125 15.742188 11.894531 15.472656 L 12.070312 15.050781 C 12.253906 14.605469 12.625 14.273438 13.089844 14.136719 L 14.394531 13.753906 C 14.507812 14.320312 14.503906 14.90625 14.382812 15.472656 L 13.914062 17.613281 C 13.792969 18.160156 13.769531 18.71875 13.847656 19.273438 L 14.460938 23.679688 L 15.019531 31.351562 C 15.039062 31.652344 15.292969 31.886719 15.59375 31.886719 L 15.992188 31.886719 L 17.292969 32.429688 C 17.324219 32.441406 17.339844 32.46875 17.34375 32.480469 C 17.351562 32.496094 17.355469 32.523438 17.339844 32.558594 C 17.324219 32.589844 17.292969 32.609375 17.257812 32.609375 L 16.046875 32.609375 C 15.925781 32.609375 15.816406 32.683594 15.777344 32.800781 C 15.734375 32.914062 15.769531 33.042969 15.863281 33.121094 L 17.773438 34.691406 C 17.867188 34.769531 17.882812 34.871094 17.882812 34.921875 C 17.882812 34.972656 17.871094 35.074219 17.777344 35.152344 C 17.675781 35.234375 17.539062 35.242188 17.429688 35.175781 L 14.566406 33.433594 L 13.15625 27.652344 L 12.867188 23.339844 C 12.867188 23.332031 12.867188 23.324219 12.867188 23.316406 Z M 13.5625 31.753906 L 11.96875 30.929688 C 10.609375 30.226562 9.148438 29.789062 7.625 29.628906 L 4.375 29.285156 L 4.3125 29.863281 L 5.46875 29.984375 C 5.125 30.328125 4.699219 30.8125 4.5625 31.207031 C 4.347656 31.84375 4.320312 32.484375 4.335938 32.910156 C 3.527344 32.523438 2.757812 32.035156 2.167969 31.625 C 1.601562 31.230469 1.367188 30.5 1.601562 29.851562 C 1.746094 29.445312 2.054688 29.117188 2.449219 28.949219 L 4.039062 28.28125 C 4.269531 28.1875 4.519531 28.144531 4.769531 28.167969 L 12.863281 28.882812 Z M 13.5625 31.753906 " fill-opacity="1" fill-rule="nonzero"/></g></svg>