<svg xmlns="http://www.w3.org/2000/svg" xmlns:xlink="http://www.w3.org/1999/xlink" width="50" zoomAndPan="magnify" viewBox="0 0 37.5 37.499999" height="50" preserveAspectRatio="xMidYMid meet" version="1.0"><defs><clipPath id="fbb4ea65e1"><path d="M 0 0 L 37.007812 0 L 37.007812 37.007812 L 0 37.007812 Z M 0 0 " clip-rule="nonzero"/></clipPath><clipPath id="c2d63341f0"><path d="M 2.515625 32 L 34.34375 32 L 34.34375 34 L 2.515625 34 Z M 2.515625 32 " clip-rule="nonzero"/></clipPath><clipPath id="ca93a226ac"><path d="M 16 3.035156 L 21 3.035156 L 21 8 L 16 8 Z M 16 3.035156 " clip-rule="nonzero"/></clipPath></defs><g clip-path="url(#fbb4ea65e1)"><path fill="#ffffff" d="M 0 0 L 37.007812 0 L 37.007812 37.007812 L 0 37.007812 Z M 0 0 " fill-opacity="1" fill-rule="nonzero"/><path fill="#ffffff" d="M 0 0 L 37.007812 0 L 37.007812 37.007812 L 0 37.007812 Z M 0 0 " fill-opacity="1" fill-rule="nonzero"/></g><g clip-path="url(#c2d63341f0)"><path fill="#46b65e" d="M 33.707031 32.429688 L 3.289062 32.429688 C 2.867188 32.429688 2.523438 32.773438 2.523438 33.195312 L 2.523438 33.960938 L 34.472656 33.960938 L 34.472656 33.195312 C 34.472656 32.765625 34.128906 32.429688 33.707031 32.429688 Z M 33.707031 32.429688 " fill-opacity="1" fill-rule="evenodd"/></g><path fill="#46b65e" d="M 18.050781 27.125 L 18.050781 28.675781 C 18.050781 28.960938 17.820312 29.191406 17.539062 29.191406 C 17.253906 29.191406 17.023438 28.960938 17.023438 28.675781 L 17.023438 27.125 C 17.023438 26.839844 17.253906 26.609375 17.539062 26.609375 C 17.8125 26.601562 18.050781 26.832031 18.050781 27.125 Z M 15.476562 26.546875 L 15.476562 31.394531 L 21.964844 31.394531 L 21.964844 26.546875 C 21.964844 24.757812 20.507812 23.300781 18.714844 23.300781 C 16.933594 23.300781 15.476562 24.757812 15.476562 26.546875 Z M 15.476562 26.546875 " fill-opacity="1" fill-rule="evenodd"/><path fill="#46b65e" d="M 24.839844 21.320312 L 12.589844 21.320312 L 12.589844 31.394531 L 14.445312 31.394531 L 14.445312 26.546875 C 14.445312 24.191406 16.359375 22.277344 18.714844 22.277344 C 21.074219 22.277344 22.988281 24.191406 22.988281 26.546875 L 22.988281 31.394531 L 24.84375 31.394531 L 24.84375 21.320312 Z M 24.839844 21.320312 " fill-opacity="1" fill-rule="evenodd"/><path fill="#46b65e" d="M 25.492188 18.507812 L 12.015625 18.507812 L 12.539062 20.285156 L 24.972656 20.285156 Z M 25.492188 18.507812 " fill-opacity="1" fill-rule="evenodd"/><path fill="#46b65e" d="M 28.195312 22.902344 L 29.726562 22.902344 L 29.726562 27.613281 L 28.195312 27.613281 Z M 28.195312 22.902344 " fill-opacity="1" fill-rule="evenodd"/><path fill="#46b65e" d="M 26.566406 18.507812 L 25.875 20.875 L 25.875 31.386719 L 32.214844 31.386719 L 32.214844 18.507812 Z M 27.683594 21.878906 L 30.246094 21.878906 C 30.53125 21.878906 30.757812 22.105469 30.757812 22.390625 L 30.757812 28.125 C 30.757812 28.40625 30.53125 28.636719 30.246094 28.636719 L 27.683594 28.636719 C 27.398438 28.636719 27.167969 28.40625 27.167969 28.125 L 27.167969 22.390625 C 27.167969 22.109375 27.398438 21.878906 27.683594 21.878906 Z M 27.683594 21.878906 " fill-opacity="1" fill-rule="evenodd"/><path fill="#46b65e" d="M 7.269531 22.902344 L 8.800781 22.902344 L 8.800781 27.613281 L 7.269531 27.613281 Z M 7.269531 22.902344 " fill-opacity="1" fill-rule="evenodd"/><path fill="#46b65e" d="M 10.945312 18.507812 L 4.78125 18.507812 L 4.78125 31.394531 L 11.558594 31.394531 L 11.558594 20.804688 C 11.558594 20.761719 11.566406 20.722656 11.574219 20.683594 Z M 6.75 21.878906 L 9.3125 21.878906 C 9.597656 21.878906 9.828125 22.105469 9.828125 22.390625 L 9.828125 28.125 C 9.828125 28.40625 9.597656 28.636719 9.3125 28.636719 L 6.75 28.636719 C 6.464844 28.636719 6.238281 28.40625 6.238281 28.125 L 6.238281 22.390625 C 6.238281 22.109375 6.464844 21.878906 6.75 21.878906 Z M 6.75 21.878906 " fill-opacity="1" fill-rule="evenodd"/><path fill="#46b65e" d="M 5.640625 13.140625 L 3.65625 17.484375 L 11.113281 17.484375 L 15.332031 13.140625 Z M 5.640625 13.140625 " fill-opacity="1" fill-rule="evenodd"/><path fill="#46b65e" d="M 16.925781 12.988281 L 12.554688 17.484375 L 24.949219 17.484375 L 20.539062 12.988281 L 20.53125 12.980469 L 18.714844 11.136719 L 16.933594 12.980469 Z M 16.925781 12.988281 " fill-opacity="1" fill-rule="evenodd"/><path fill="#46b65e" d="M 5.921875 6.296875 L 5.921875 9.917969 C 5.921875 10.132812 6 10.300781 6.167969 10.429688 C 6.328125 10.5625 6.503906 10.597656 6.710938 10.554688 L 12.140625 9.238281 C 12.40625 9.167969 12.683594 9.335938 12.761719 9.605469 L 13.441406 12.125 L 14.679688 12.125 L 13.480469 6.671875 C 13.417969 6.386719 13.1875 6.1875 12.90625 6.164062 L 6.609375 5.644531 C 6.417969 5.628906 6.265625 5.683594 6.128906 5.8125 C 5.984375 5.945312 5.921875 6.097656 5.921875 6.296875 Z M 5.921875 6.296875 " fill-opacity="1" fill-rule="evenodd"/><g clip-path="url(#ca93a226ac)"><path fill="#46b65e" d="M 16.222656 5.355469 C 16.222656 6.632812 17.261719 7.675781 18.539062 7.675781 C 19.820312 7.675781 20.859375 6.632812 20.859375 5.355469 C 20.859375 4.078125 19.820312 3.035156 18.539062 3.035156 C 17.261719 3.035156 16.222656 4.078125 16.222656 5.355469 Z M 18.441406 6.871094 C 18.160156 6.871094 17.921875 6.640625 17.921875 6.359375 C 17.921875 6.074219 18.152344 5.847656 18.433594 5.847656 L 18.441406 5.847656 C 18.722656 5.847656 18.953125 6.074219 18.953125 6.359375 C 18.953125 6.640625 18.722656 6.871094 18.441406 6.871094 Z M 19.460938 5.308594 C 19.175781 5.308594 18.9375 5.082031 18.9375 4.796875 C 18.9375 4.515625 19.167969 4.285156 19.453125 4.285156 L 19.460938 4.285156 C 19.742188 4.285156 19.972656 4.515625 19.972656 4.796875 C 19.972656 5.078125 19.742188 5.308594 19.460938 5.308594 Z M 17.628906 5.148438 C 17.347656 5.148438 17.109375 4.917969 17.109375 4.636719 C 17.109375 4.351562 17.339844 4.125 17.621094 4.125 L 17.628906 4.125 C 17.914062 4.125 18.140625 4.351562 18.140625 4.636719 C 18.140625 4.917969 17.914062 5.148438 17.628906 5.148438 Z M 17.628906 5.148438 " fill-opacity="1" fill-rule="evenodd"/></g><path fill="#46b65e" d="M 23.96875 6.265625 L 22.675781 12.109375 L 23.902344 12.109375 L 24.6875 9.199219 C 24.765625 8.929688 25.035156 8.769531 25.308594 8.832031 L 30.738281 10.148438 C 30.9375 10.195312 31.113281 10.15625 31.28125 10.027344 C 31.449219 9.894531 31.527344 9.726562 31.527344 9.515625 L 31.527344 5.890625 C 31.527344 5.699219 31.457031 5.546875 31.320312 5.417969 C 31.183594 5.285156 31.027344 5.234375 30.835938 5.25 L 24.550781 5.753906 C 24.25 5.785156 24.03125 5.984375 23.96875 6.265625 Z M 23.96875 6.265625 " fill-opacity="1" fill-rule="evenodd"/><path fill="#46b65e" d="M 22.132812 13.140625 L 26.394531 17.484375 L 33.777344 17.484375 L 31.800781 13.140625 Z M 22.132812 13.140625 " fill-opacity="1" fill-rule="evenodd"/></svg>