<svg xmlns="http://www.w3.org/2000/svg" xmlns:xlink="http://www.w3.org/1999/xlink" width="50" zoomAndPan="magnify" viewBox="0 0 37.5 37.499999" height="50" preserveAspectRatio="xMidYMid meet" version="1.0"><defs><clipPath id="802fc9d3b4"><path d="M 0 0 L 37.007812 0 L 37.007812 37.007812 L 0 37.007812 Z M 0 0 " clip-rule="nonzero"/></clipPath><clipPath id="154f4b942b"><path d="M 0.691406 2.152344 L 29.824219 2.152344 L 29.824219 35.445312 L 0.691406 35.445312 Z M 0.691406 2.152344 " clip-rule="nonzero"/></clipPath><clipPath id="363dd4a9ed"><path d="M 22.441406 3.234375 L 36.921875 3.234375 L 36.921875 17.800781 L 22.441406 17.800781 Z M 22.441406 3.234375 " clip-rule="nonzero"/></clipPath></defs><g clip-path="url(#802fc9d3b4)"><path fill="#ffffff" d="M 0 0 L 37.007812 0 L 37.007812 37.007812 L 0 37.007812 Z M 0 0 " fill-opacity="1" fill-rule="nonzero"/><path fill="#ffffff" d="M 0 0 L 37.007812 0 L 37.007812 37.007812 L 0 37.007812 Z M 0 0 " fill-opacity="1" fill-rule="nonzero"/></g><g clip-path="url(#154f4b942b)"><path fill="#46b65e" d="M 15.515625 35.445312 C 15.433594 35.445312 15.351562 35.429688 15.277344 35.394531 C 15.238281 35.375 11.261719 33.460938 7.464844 29.277344 C 5.339844 26.933594 3.683594 24.339844 2.546875 21.5625 C 1.132812 18.113281 0.523438 14.375 0.734375 10.449219 C 0.746094 10.183594 0.949219 9.960938 1.214844 9.917969 C 3.21875 9.617188 5.171875 9.050781 7.03125 8.234375 C 8.53125 7.574219 9.972656 6.75 11.3125 5.785156 C 13.476562 4.226562 14.742188 2.769531 15.078125 2.359375 C 15.1875 2.226562 15.347656 2.152344 15.515625 2.152344 C 15.6875 2.152344 15.847656 2.226562 15.957031 2.359375 L 15.980469 2.386719 C 16.703125 3.277344 17.539062 4.054688 18.113281 4.550781 C 19.738281 5.957031 21.578125 7.128906 23.582031 8.042969 C 23.867188 8.171875 23.992188 8.507812 23.863281 8.792969 C 23.734375 9.078125 23.398438 9.203125 23.113281 9.074219 C 21.011719 8.117188 19.078125 6.882812 17.371094 5.410156 C 16.867188 4.972656 16.175781 4.332031 15.511719 3.585938 C 14.878906 4.285156 13.691406 5.46875 11.976562 6.703125 C 10.570312 7.714844 9.058594 8.578125 7.488281 9.269531 C 5.683594 10.0625 3.785156 10.632812 1.847656 10.964844 C 1.714844 14.550781 2.304688 17.96875 3.601562 21.132812 C 4.6875 23.785156 6.269531 26.265625 8.308594 28.511719 C 9.761719 30.113281 11.484375 31.617188 13.285156 32.863281 C 14.335938 33.589844 15.144531 34.042969 15.519531 34.242188 C 16.265625 33.847656 18.652344 32.503906 21.222656 30.089844 C 22.957031 28.457031 24.441406 26.652344 25.628906 24.726562 C 27.105469 22.339844 28.140625 19.753906 28.695312 17.035156 C 28.757812 16.730469 29.054688 16.53125 29.363281 16.59375 C 29.667969 16.660156 29.867188 16.957031 29.804688 17.261719 C 29.222656 20.109375 28.140625 22.820312 26.59375 25.324219 C 25.351562 27.332031 23.804688 29.210938 21.996094 30.914062 C 18.722656 33.992188 15.785156 35.378906 15.753906 35.390625 C 15.679688 35.425781 15.597656 35.445312 15.515625 35.445312 " fill-opacity="1" fill-rule="evenodd"/></g><path fill="#46b65e" d="M 15.515625 32.019531 C 15.433594 32.019531 15.351562 32.003906 15.277344 31.96875 C 15.246094 31.953125 12.09375 30.433594 9.09375 27.125 C 7.40625 25.269531 6.097656 23.214844 5.199219 21.019531 C 4.078125 18.285156 3.597656 15.324219 3.761719 12.21875 C 3.777344 11.949219 3.976562 11.730469 4.246094 11.6875 C 5.8125 11.453125 7.339844 11.007812 8.792969 10.371094 C 9.964844 9.855469 11.09375 9.210938 12.144531 8.457031 C 13.828125 7.242188 14.816406 6.105469 15.078125 5.785156 C 15.1875 5.652344 15.347656 5.574219 15.515625 5.574219 C 15.6875 5.574219 15.847656 5.652344 15.957031 5.785156 L 15.980469 5.8125 C 16.613281 6.597656 19.023438 9.28125 23.300781 10.796875 C 23.597656 10.898438 23.75 11.222656 23.644531 11.519531 C 23.542969 11.8125 23.21875 11.96875 22.921875 11.863281 C 20.863281 11.132812 18.972656 10.070312 17.304688 8.707031 C 16.820312 8.304688 16.148438 7.714844 15.511719 7.003906 C 14.988281 7.566406 14.082031 8.453125 12.800781 9.375 C 11.6875 10.175781 10.492188 10.859375 9.246094 11.40625 C 7.847656 12.023438 6.378906 12.46875 4.871094 12.734375 C 4.785156 15.503906 5.246094 18.144531 6.246094 20.585938 C 7.097656 22.660156 8.332031 24.601562 9.925781 26.359375 C 12.3125 28.984375 14.757812 30.410156 15.515625 30.8125 C 15.78125 30.671875 16.253906 30.40625 16.863281 30.011719 C 18.050781 29.234375 19.171875 28.332031 20.203125 27.332031 C 21.621094 25.953125 22.8125 24.425781 23.738281 22.792969 C 24.886719 20.769531 25.636719 18.574219 25.960938 16.269531 C 26.007812 15.960938 26.292969 15.742188 26.601562 15.785156 C 26.910156 15.832031 27.128906 16.117188 27.082031 16.425781 C 25.546875 27.289062 15.847656 31.917969 15.753906 31.964844 C 15.679688 32.003906 15.597656 32.019531 15.515625 32.019531 " fill-opacity="1" fill-rule="evenodd"/><g clip-path="url(#363dd4a9ed)"><path fill="#46b65e" d="M 29.734375 17.738281 C 27.796875 17.738281 25.980469 16.984375 24.613281 15.617188 C 23.246094 14.25 22.492188 12.433594 22.492188 10.5 C 22.492188 8.5625 23.246094 6.746094 24.613281 5.378906 C 25.980469 4.011719 27.800781 3.257812 29.734375 3.257812 C 31.667969 3.257812 33.484375 4.011719 34.851562 5.378906 C 36.21875 6.746094 36.972656 8.5625 36.972656 10.5 C 36.972656 12.433594 36.21875 14.25 34.851562 15.617188 C 33.484375 16.984375 31.667969 17.738281 29.734375 17.738281 Z M 29.734375 4.394531 C 28.101562 4.394531 26.566406 5.03125 25.414062 6.183594 C 24.261719 7.335938 23.628906 8.867188 23.628906 10.5 C 23.628906 12.128906 24.261719 13.660156 25.414062 14.8125 C 26.566406 15.964844 28.101562 16.601562 29.734375 16.601562 C 31.363281 16.601562 32.898438 15.964844 34.050781 14.8125 C 35.203125 13.660156 35.839844 12.128906 35.839844 10.5 C 35.839844 8.867188 35.203125 7.335938 34.050781 6.183594 C 32.898438 5.03125 31.363281 4.394531 29.734375 4.394531 " fill-opacity="1" fill-rule="evenodd"/></g><path fill="#46b65e" d="M 27.890625 13.3125 C 27.738281 13.3125 27.582031 13.253906 27.472656 13.128906 L 25.921875 11.445312 C 25.710938 11.214844 25.726562 10.855469 25.957031 10.644531 C 26.1875 10.433594 26.542969 10.449219 26.757812 10.679688 L 27.933594 11.957031 L 32.75 7.816406 C 32.988281 7.613281 33.34375 7.640625 33.546875 7.878906 C 33.75 8.117188 33.726562 8.472656 33.488281 8.675781 L 28.261719 13.175781 C 28.152344 13.269531 28.023438 13.3125 27.890625 13.3125 " fill-opacity="1" fill-rule="evenodd"/><path fill="#46b65e" d="M 15.621094 14.734375 C 14.457031 14.734375 13.507812 13.789062 13.507812 12.625 C 13.507812 11.460938 14.457031 10.511719 15.621094 10.511719 C 16.785156 10.511719 17.730469 11.460938 17.730469 12.625 C 17.730469 13.789062 16.78125 14.734375 15.621094 14.734375 Z M 15.621094 11.644531 C 15.082031 11.644531 14.640625 12.085938 14.640625 12.625 C 14.640625 13.164062 15.078125 13.601562 15.621094 13.601562 C 16.160156 13.601562 16.597656 13.164062 16.597656 12.625 C 16.597656 12.085938 16.160156 11.644531 15.621094 11.644531 " fill-opacity="1" fill-rule="evenodd"/><path fill="#46b65e" d="M 17.109375 27.085938 L 14.199219 27.085938 C 13.882812 27.085938 13.632812 26.832031 13.632812 26.515625 C 13.632812 26.203125 13.882812 25.949219 14.199219 25.949219 L 17.109375 25.949219 C 17.421875 25.949219 17.675781 26.203125 17.675781 26.515625 C 17.675781 26.832031 17.421875 27.085938 17.109375 27.085938 " fill-opacity="1" fill-rule="evenodd"/><path fill="#46b65e" d="M 17.109375 27.085938 C 17.097656 27.085938 17.085938 27.085938 17.078125 27.085938 C 16.765625 27.066406 16.527344 26.796875 16.546875 26.484375 L 16.832031 21.652344 L 17.007812 18.019531 C 17.015625 17.824219 17.128906 17.644531 17.300781 17.550781 C 17.472656 17.453125 17.683594 17.453125 17.851562 17.550781 L 20.1875 18.875 L 20.222656 18.839844 C 20.226562 18.835938 20.230469 18.832031 20.226562 18.824219 C 20.226562 18.816406 20.222656 18.8125 20.222656 18.808594 C 20.210938 18.804688 20.203125 18.796875 20.191406 18.789062 L 16.925781 16.234375 C 16.863281 16.195312 16.796875 16.175781 16.722656 16.175781 L 14.382812 16.175781 C 14.304688 16.175781 14.230469 16.199219 14.167969 16.242188 L 11.167969 18.566406 C 11.164062 18.570312 11.160156 18.574219 11.152344 18.578125 C 11.117188 18.605469 11.105469 18.640625 11.101562 18.664062 C 11.097656 18.683594 11.097656 18.707031 11.113281 18.734375 L 13.484375 17.535156 C 13.65625 17.449219 13.859375 17.457031 14.027344 17.554688 C 14.191406 17.652344 14.296875 17.824219 14.308594 18.015625 L 14.480469 21.652344 L 14.769531 26.480469 C 14.785156 26.792969 14.546875 27.0625 14.234375 27.082031 C 13.925781 27.101562 13.65625 26.863281 13.636719 26.550781 L 13.351562 21.714844 C 13.351562 21.714844 13.351562 21.710938 13.351562 21.707031 L 13.21875 18.941406 L 11.582031 19.769531 C 11.578125 19.769531 11.570312 19.773438 11.566406 19.777344 C 11.113281 19.984375 10.578125 19.867188 10.261719 19.484375 C 10.039062 19.214844 9.9375 18.867188 9.980469 18.523438 C 10.023438 18.183594 10.210938 17.871094 10.484375 17.667969 L 13.488281 15.339844 C 13.492188 15.332031 13.496094 15.332031 13.5 15.324219 C 13.761719 15.140625 14.066406 15.039062 14.386719 15.039062 L 16.726562 15.039062 C 17.035156 15.039062 17.332031 15.132812 17.585938 15.308594 C 17.59375 15.3125 17.605469 15.320312 17.613281 15.328125 L 20.882812 17.886719 C 21.152344 18.082031 21.324219 18.378906 21.359375 18.707031 C 21.394531 19.046875 21.28125 19.378906 21.042969 19.621094 L 21 19.667969 C 20.664062 20.015625 20.148438 20.113281 19.714844 19.902344 C 19.703125 19.898438 19.691406 19.890625 19.679688 19.886719 L 18.097656 18.988281 L 17.96875 21.707031 C 17.96875 21.710938 17.96875 21.714844 17.96875 21.714844 L 17.675781 26.550781 C 17.660156 26.851562 17.410156 27.085938 17.109375 27.085938 " fill-opacity="1" fill-rule="evenodd"/><path fill="#46b65e" d="M 15.652344 27.085938 C 15.339844 27.085938 15.085938 26.832031 15.085938 26.515625 L 15.085938 22.777344 C 15.085938 22.464844 15.339844 22.210938 15.652344 22.210938 C 15.96875 22.210938 16.21875 22.464844 16.21875 22.777344 L 16.21875 26.515625 C 16.21875 26.828125 15.96875 27.085938 15.652344 27.085938 " fill-opacity="1" fill-rule="evenodd"/></svg>