<svg xmlns="http://www.w3.org/2000/svg" xmlns:xlink="http://www.w3.org/1999/xlink" width="50" zoomAndPan="magnify" viewBox="0 0 37.5 37.499999" height="50" preserveAspectRatio="xMidYMid meet" version="1.0"><defs><clipPath id="743d88eb01"><path d="M 0 0 L 37.007812 0 L 37.007812 37.007812 L 0 37.007812 Z M 0 0 " clip-rule="nonzero"/></clipPath><clipPath id="b1288161eb"><path d="M 9 34 L 28 34 L 28 35.410156 L 9 35.410156 Z M 9 34 " clip-rule="nonzero"/></clipPath><clipPath id="670a40a4f3"><path d="M 4.300781 1.363281 L 32.425781 1.363281 L 32.425781 31 L 4.300781 31 Z M 4.300781 1.363281 " clip-rule="nonzero"/></clipPath></defs><g clip-path="url(#743d88eb01)"><path fill="#ffffff" d="M 0 0 L 37.007812 0 L 37.007812 37.007812 L 0 37.007812 Z M 0 0 " fill-opacity="1" fill-rule="nonzero"/><path fill="#ffffff" d="M 0 0 L 37.007812 0 L 37.007812 37.007812 L 0 37.007812 Z M 0 0 " fill-opacity="1" fill-rule="nonzero"/></g><path fill="#46b65e" d="M 31.078125 32.429688 L 5.921875 32.429688 C 5.628906 32.429688 5.386719 32.671875 5.386719 32.964844 C 5.386719 33.257812 5.628906 33.5 5.921875 33.5 L 31.078125 33.5 C 31.371094 33.5 31.613281 33.257812 31.613281 32.964844 C 31.613281 32.671875 31.371094 32.429688 31.078125 32.429688 Z M 31.078125 32.429688 " fill-opacity="1" fill-rule="nonzero"/><g clip-path="url(#b1288161eb)"><path fill="#46b65e" d="M 27.332031 34.570312 L 9.671875 34.570312 C 9.375 34.570312 9.136719 34.8125 9.136719 35.105469 C 9.136719 35.398438 9.375 35.640625 9.671875 35.640625 L 27.332031 35.640625 C 27.625 35.640625 27.867188 35.398438 27.867188 35.105469 C 27.867188 34.8125 27.625 34.570312 27.332031 34.570312 Z M 27.332031 34.570312 " fill-opacity="1" fill-rule="nonzero"/></g><path fill="#46b65e" d="M 14.488281 12.898438 C 14.488281 13.246094 14.699219 13.511719 14.859375 13.699219 C 14.886719 13.753906 14.941406 13.804688 14.96875 13.832031 C 14.96875 13.886719 14.941406 13.96875 14.941406 14.019531 C 14.886719 14.261719 14.835938 14.582031 15.023438 14.875 C 15.207031 15.171875 15.503906 15.304688 15.742188 15.386719 C 15.796875 15.410156 15.878906 15.4375 15.929688 15.464844 C 15.957031 15.492188 15.984375 15.597656 16.011719 15.652344 C 16.09375 15.867188 16.199219 16.1875 16.519531 16.375 C 16.652344 16.457031 16.8125 16.507812 17 16.507812 C 17.136719 16.507812 17.269531 16.480469 17.375 16.457031 C 17.457031 16.457031 17.511719 16.429688 17.5625 16.429688 C 17.589844 16.457031 17.671875 16.507812 17.699219 16.535156 C 17.882812 16.695312 18.125 16.910156 18.5 16.910156 C 18.847656 16.910156 19.117188 16.695312 19.304688 16.535156 C 19.355469 16.480469 19.4375 16.429688 19.4375 16.429688 C 19.492188 16.429688 19.570312 16.429688 19.652344 16.457031 C 19.757812 16.480469 19.890625 16.507812 20.027344 16.507812 C 20.210938 16.507812 20.375 16.457031 20.507812 16.375 C 20.800781 16.1875 20.933594 15.894531 21.015625 15.652344 C 21.042969 15.597656 21.070312 15.519531 21.097656 15.464844 C 21.121094 15.4375 21.230469 15.410156 21.28125 15.386719 C 21.496094 15.304688 21.816406 15.199219 22.003906 14.875 C 22.191406 14.582031 22.140625 14.261719 22.085938 14.019531 C 22.085938 13.96875 22.058594 13.859375 22.058594 13.832031 C 22.085938 13.804688 22.140625 13.726562 22.167969 13.699219 C 22.328125 13.511719 22.539062 13.246094 22.539062 12.898438 C 22.539062 12.523438 22.328125 12.28125 22.167969 12.09375 C 22.140625 12.039062 22.085938 11.988281 22.058594 11.960938 C 22.058594 11.90625 22.085938 11.828125 22.085938 11.773438 C 22.140625 11.53125 22.191406 11.210938 22.003906 10.917969 C 21.816406 10.59375 21.523438 10.488281 21.28125 10.40625 C 21.230469 10.382812 21.148438 10.355469 21.097656 10.328125 C 21.070312 10.300781 21.042969 10.195312 21.015625 10.140625 C 20.933594 9.898438 20.828125 9.605469 20.507812 9.417969 C 20.375 9.335938 20.210938 9.285156 20.027344 9.285156 C 19.890625 9.285156 19.757812 9.3125 19.652344 9.335938 C 19.570312 9.335938 19.515625 9.363281 19.464844 9.363281 C 19.4375 9.335938 19.355469 9.285156 19.328125 9.257812 C 19.140625 9.097656 18.875 8.882812 18.527344 8.882812 C 18.152344 8.882812 17.910156 9.097656 17.722656 9.257812 C 17.671875 9.3125 17.589844 9.363281 17.589844 9.363281 C 17.535156 9.363281 17.457031 9.335938 17.375 9.335938 C 17.269531 9.3125 17.136719 9.285156 17 9.285156 C 16.8125 9.285156 16.652344 9.3125 16.519531 9.417969 C 16.226562 9.605469 16.09375 9.898438 16.011719 10.140625 C 15.984375 10.195312 15.957031 10.273438 15.929688 10.328125 C 15.90625 10.355469 15.796875 10.382812 15.742188 10.40625 C 15.53125 10.488281 15.207031 10.59375 15.023438 10.917969 C 14.835938 11.210938 14.886719 11.53125 14.941406 11.773438 C 14.941406 11.828125 14.96875 11.933594 14.96875 11.960938 C 14.941406 11.988281 14.886719 12.066406 14.859375 12.09375 C 14.699219 12.28125 14.488281 12.523438 14.488281 12.898438 Z M 15.691406 12.789062 C 15.824219 12.65625 15.957031 12.46875 16.011719 12.226562 C 16.066406 11.988281 16.039062 11.746094 16.011719 11.558594 C 16.011719 11.53125 15.984375 11.476562 15.984375 11.425781 C 16.011719 11.398438 16.066406 11.398438 16.117188 11.371094 C 16.304688 11.316406 16.519531 11.238281 16.679688 11.050781 C 16.867188 10.863281 16.949219 10.648438 17 10.488281 C 17 10.460938 17.027344 10.40625 17.054688 10.355469 C 17.082031 10.355469 17.136719 10.355469 17.1875 10.382812 C 17.375 10.40625 17.644531 10.433594 17.859375 10.382812 C 18.097656 10.328125 18.257812 10.167969 18.417969 10.058594 C 18.445312 10.035156 18.5 10.007812 18.527344 9.980469 C 18.554688 10.007812 18.605469 10.035156 18.632812 10.058594 C 18.769531 10.167969 18.953125 10.328125 19.195312 10.382812 C 19.410156 10.433594 19.652344 10.40625 19.863281 10.382812 C 19.917969 10.382812 19.945312 10.355469 20 10.355469 C 20.027344 10.382812 20.027344 10.433594 20.050781 10.488281 C 20.105469 10.675781 20.1875 10.890625 20.375 11.050781 C 20.5625 11.238281 20.773438 11.316406 20.933594 11.371094 C 20.960938 11.371094 21.015625 11.398438 21.070312 11.425781 C 21.070312 11.476562 21.042969 11.503906 21.042969 11.558594 C 21.015625 11.746094 20.960938 11.988281 21.042969 12.226562 C 21.097656 12.46875 21.257812 12.628906 21.363281 12.789062 C 21.390625 12.816406 21.417969 12.871094 21.445312 12.898438 C 21.417969 12.921875 21.390625 12.976562 21.363281 13.003906 C 21.257812 13.136719 21.097656 13.324219 21.042969 13.566406 C 20.988281 13.804688 21.015625 14.046875 21.042969 14.234375 C 21.042969 14.261719 21.070312 14.316406 21.070312 14.367188 C 21.042969 14.394531 20.988281 14.394531 20.933594 14.421875 C 20.746094 14.476562 20.535156 14.554688 20.375 14.742188 C 20.1875 14.929688 20.105469 15.144531 20.050781 15.304688 C 20.050781 15.332031 20.027344 15.386719 20 15.4375 C 19.972656 15.4375 19.917969 15.4375 19.863281 15.410156 C 19.675781 15.386719 19.410156 15.359375 19.195312 15.410156 C 18.953125 15.464844 18.792969 15.625 18.632812 15.734375 C 18.605469 15.757812 18.554688 15.785156 18.527344 15.8125 C 18.5 15.785156 18.445312 15.757812 18.417969 15.734375 C 18.285156 15.597656 18.097656 15.464844 17.859375 15.410156 C 17.777344 15.386719 17.671875 15.386719 17.589844 15.386719 C 17.457031 15.386719 17.324219 15.410156 17.214844 15.4375 C 17.164062 15.4375 17.136719 15.464844 17.082031 15.464844 C 17.054688 15.4375 17.054688 15.386719 17.027344 15.332031 C 16.976562 15.144531 16.894531 14.929688 16.707031 14.769531 C 16.519531 14.582031 16.304688 14.503906 16.144531 14.449219 C 16.117188 14.449219 16.066406 14.421875 16.011719 14.394531 C 16.011719 14.339844 16.039062 14.316406 16.039062 14.261719 C 16.066406 14.074219 16.117188 13.832031 16.039062 13.59375 C 15.984375 13.351562 15.824219 13.191406 15.71875 13.03125 C 15.691406 13.003906 15.664062 12.949219 15.636719 12.921875 C 15.609375 12.871094 15.664062 12.816406 15.691406 12.789062 Z M 15.691406 12.789062 " fill-opacity="1" fill-rule="nonzero"/><path fill="#46b65e" d="M 20.105469 12.898438 C 20.105469 13.109375 20.066406 13.3125 19.984375 13.511719 C 19.902344 13.707031 19.785156 13.882812 19.636719 14.03125 C 19.484375 14.183594 19.3125 14.296875 19.113281 14.378906 C 18.917969 14.460938 18.714844 14.503906 18.5 14.503906 C 18.289062 14.503906 18.082031 14.460938 17.886719 14.378906 C 17.6875 14.296875 17.515625 14.183594 17.363281 14.03125 C 17.214844 13.882812 17.097656 13.707031 17.015625 13.511719 C 16.933594 13.3125 16.894531 13.109375 16.894531 12.898438 C 16.894531 12.683594 16.933594 12.480469 17.015625 12.28125 C 17.097656 12.085938 17.214844 11.910156 17.363281 11.761719 C 17.515625 11.609375 17.6875 11.496094 17.886719 11.414062 C 18.082031 11.332031 18.289062 11.292969 18.5 11.292969 C 18.714844 11.292969 18.917969 11.332031 19.113281 11.414062 C 19.3125 11.496094 19.484375 11.609375 19.636719 11.761719 C 19.785156 11.910156 19.902344 12.085938 19.984375 12.28125 C 20.066406 12.480469 20.105469 12.683594 20.105469 12.898438 Z M 20.105469 12.898438 " fill-opacity="1" fill-rule="nonzero"/><g clip-path="url(#670a40a4f3)"><path fill="#46b65e" d="M 32.46875 11.128906 C 32.441406 11.128906 18.820312 1.496094 18.820312 1.496094 C 18.632812 1.363281 18.394531 1.363281 18.207031 1.496094 C 18.207031 1.496094 4.558594 11.128906 4.558594 11.128906 C 4.398438 11.238281 4.316406 11.371094 4.316406 11.558594 C 4.316406 11.558594 4.316406 13.699219 4.316406 13.699219 C 4.316406 13.992188 4.558594 14.234375 4.851562 14.234375 L 5.414062 14.234375 L 5.414062 19.613281 C 5.414062 19.878906 5.628906 20.121094 5.898438 20.148438 C 5.898438 20.148438 5.148438 29.726562 5.148438 29.726562 C 5.121094 30.101562 5.414062 30.316406 5.761719 30.316406 C 6.296875 30.316406 8.839844 30.210938 9.535156 28.441406 C 9.5625 28.390625 9.535156 28.335938 9.617188 28.335938 C 9.722656 28.335938 9.832031 28.363281 9.964844 28.363281 C 11.222656 28.363281 12.132812 27.585938 12.183594 27.558594 C 12.320312 27.425781 12.398438 27.238281 12.371094 27.050781 L 10.847656 18.675781 C 12.078125 17.792969 13.175781 16.429688 13.628906 14.261719 L 13.898438 14.261719 C 13.898438 14.234375 13.898438 14.207031 13.898438 14.179688 C 13.871094 14.152344 13.84375 14.128906 13.84375 14.101562 C 13.84375 14.101562 13.816406 14.074219 13.816406 14.074219 C 13.816406 14.046875 13.789062 14.046875 13.789062 14.019531 C 13.65625 13.832031 13.550781 13.566406 13.496094 13.269531 C 13.496094 13.246094 13.496094 13.246094 13.496094 13.21875 L 5.386719 13.21875 L 5.386719 12.148438 L 13.601562 12.148438 C 13.683594 11.960938 13.765625 11.828125 13.871094 11.691406 C 13.84375 11.34375 13.84375 10.863281 14.113281 10.40625 C 14.378906 9.925781 14.808594 9.6875 15.101562 9.550781 C 15.234375 9.230469 15.476562 8.828125 15.957031 8.5625 C 16.253906 8.375 16.601562 8.292969 16.976562 8.292969 C 17.082031 8.292969 17.164062 8.292969 17.242188 8.320312 C 17.511719 8.105469 17.9375 7.894531 18.5 7.894531 C 19.0625 7.894531 19.464844 8.132812 19.757812 8.320312 C 19.839844 8.320312 19.945312 8.292969 20.027344 8.292969 C 20.398438 8.292969 20.746094 8.375 21.042969 8.5625 C 21.523438 8.828125 21.765625 9.257812 21.898438 9.550781 C 22.21875 9.6875 22.621094 9.925781 22.886719 10.40625 C 23.15625 10.890625 23.183594 11.371094 23.128906 11.691406 C 23.210938 11.828125 23.316406 11.960938 23.398438 12.148438 L 31.613281 12.148438 L 31.613281 13.21875 L 23.558594 13.21875 C 23.503906 13.644531 23.316406 13.96875 23.15625 14.207031 C 23.15625 14.234375 23.15625 14.261719 23.15625 14.289062 L 23.398438 14.289062 C 23.851562 16.457031 24.949219 17.847656 26.179688 18.703125 L 24.65625 27.023438 C 24.628906 27.210938 24.679688 27.398438 24.84375 27.535156 C 24.894531 27.558594 25.804688 28.335938 27.0625 28.335938 C 27.304688 28.335938 27.464844 28.390625 27.492188 28.417969 C 28.1875 30.183594 30.730469 30.289062 31.265625 30.289062 C 31.613281 30.289062 31.90625 30.074219 31.878906 29.699219 L 31.101562 20.121094 C 31.371094 20.09375 31.585938 19.855469 31.585938 19.585938 L 31.585938 14.234375 L 32.148438 14.234375 C 32.441406 14.234375 32.683594 13.992188 32.683594 13.699219 C 32.683594 13.699219 32.683594 11.613281 32.683594 11.613281 C 32.683594 11.425781 32.628906 11.238281 32.46875 11.128906 Z M 9.832031 19.238281 L 11.222656 26.890625 C 10.875 27.105469 10.230469 27.371094 9.507812 27.210938 L 9.160156 19.53125 C 9.375 19.453125 9.617188 19.34375 9.832031 19.238281 Z M 6.96875 20.066406 C 7.289062 20.015625 7.691406 19.960938 8.117188 19.855469 L 8.492188 28.121094 C 8.117188 28.84375 7.019531 29.113281 6.246094 29.191406 Z M 13.953125 8.882812 L 13.417969 8.882812 C 13.121094 8.882812 12.882812 8.640625 12.882812 8.347656 C 12.882812 8.054688 13.121094 7.8125 13.417969 7.8125 L 13.953125 7.8125 C 14.246094 7.8125 14.488281 8.054688 14.488281 8.347656 C 14.488281 8.640625 14.246094 8.882812 13.953125 8.882812 Z M 23.585938 8.882812 L 23.050781 8.882812 C 22.753906 8.882812 22.515625 8.640625 22.515625 8.347656 C 22.515625 8.054688 22.753906 7.8125 23.050781 7.8125 L 23.585938 7.8125 C 23.878906 7.8125 24.121094 8.054688 24.121094 8.347656 C 24.121094 8.640625 23.878906 8.882812 23.585938 8.882812 Z M 27.492188 27.210938 C 26.769531 27.371094 26.097656 27.078125 25.777344 26.890625 L 27.167969 19.238281 C 27.382812 19.34375 27.625 19.453125 27.839844 19.53125 Z M 28.507812 28.121094 L 28.882812 19.855469 C 29.308594 19.960938 29.683594 20.015625 30.03125 20.066406 L 30.753906 29.191406 C 29.980469 29.140625 28.882812 28.871094 28.507812 28.121094 Z M 28.507812 28.121094 " fill-opacity="1" fill-rule="nonzero"/></g><path fill="#46b65e" d="M 14.914062 26.785156 L 18.070312 31.117188 C 18.179688 31.253906 18.339844 31.332031 18.5 31.332031 C 18.660156 31.332031 18.820312 31.253906 18.929688 31.117188 C 18.929688 31.117188 22.03125 26.835938 22.085938 26.785156 C 22.59375 26.113281 22.78125 25.179688 22.78125 24.429688 C 22.78125 22.046875 20.855469 20.121094 18.5 20.121094 C 16.144531 20.121094 14.21875 22.046875 14.21875 24.429688 C 14.21875 25.3125 14.488281 26.195312 14.914062 26.785156 Z M 18.5 23.332031 C 19.089844 23.332031 19.570312 23.8125 19.570312 24.402344 C 19.570312 24.992188 19.089844 25.472656 18.5 25.472656 C 17.910156 25.472656 17.429688 24.992188 17.429688 24.402344 C 17.429688 23.8125 17.910156 23.332031 18.5 23.332031 Z M 18.5 23.332031 " fill-opacity="1" fill-rule="nonzero"/></svg>