<svg xmlns="http://www.w3.org/2000/svg" xmlns:xlink="http://www.w3.org/1999/xlink" width="50" zoomAndPan="magnify" viewBox="0 0 37.5 37.499999" height="50" preserveAspectRatio="xMidYMid meet" version="1.0"><defs><clipPath id="3308136eae"><path d="M 0 0 L 37.007812 0 L 37.007812 37.007812 L 0 37.007812 Z M 0 0 " clip-rule="nonzero"/></clipPath><clipPath id="8ca63c3cdd"><path d="M 0.457031 23 L 18 23 L 18 25 L 0.457031 25 Z M 0.457031 23 " clip-rule="nonzero"/></clipPath><clipPath id="187779399b"><path d="M 0.457031 9 L 13 9 L 13 22 L 0.457031 22 Z M 0.457031 9 " clip-rule="nonzero"/></clipPath><clipPath id="9cd9faf695"><path d="M 11 30 L 32 30 L 32 33.304688 L 11 33.304688 Z M 11 30 " clip-rule="nonzero"/></clipPath><clipPath id="ee79990459"><path d="M 19 3.699219 L 32 3.699219 L 32 11 L 19 11 Z M 19 3.699219 " clip-rule="nonzero"/></clipPath><clipPath id="403de7424e"><path d="M 26 8 L 36.722656 8 L 36.722656 13 L 26 13 Z M 26 8 " clip-rule="nonzero"/></clipPath></defs><g clip-path="url(#3308136eae)"><path fill="#ffffff" d="M 0 0 L 37.007812 0 L 37.007812 37.007812 L 0 37.007812 Z M 0 0 " fill-opacity="1" fill-rule="nonzero"/><path fill="#ffffff" d="M 0 0 L 37.007812 0 L 37.007812 37.007812 L 0 37.007812 Z M 0 0 " fill-opacity="1" fill-rule="nonzero"/></g><g clip-path="url(#8ca63c3cdd)"><path fill="#46b65e" d="M 16.988281 24.972656 L 0.960938 24.972656 C 0.683594 24.972656 0.460938 24.75 0.460938 24.472656 C 0.460938 24.195312 0.683594 23.96875 0.960938 23.96875 L 16.988281 23.96875 C 17.265625 23.96875 17.492188 24.195312 17.492188 24.472656 C 17.492188 24.75 17.265625 24.972656 16.988281 24.972656 Z M 16.988281 24.972656 " fill-opacity="1" fill-rule="nonzero"/></g><path fill="#46b65e" d="M 21.785156 24.972656 L 19.15625 24.972656 C 18.878906 24.972656 18.652344 24.75 18.652344 24.472656 C 18.652344 24.195312 18.878906 23.96875 19.15625 23.96875 L 21.785156 23.96875 C 22.0625 23.96875 22.289062 24.195312 22.289062 24.472656 C 22.289062 24.75 22.0625 24.972656 21.785156 24.972656 Z M 21.785156 24.972656 " fill-opacity="1" fill-rule="nonzero"/><g clip-path="url(#187779399b)"><path fill="#46b65e" d="M 6.703125 21.625 C 3.484375 21.625 0.863281 19.007812 0.863281 15.785156 C 0.863281 12.5625 3.484375 9.945312 6.703125 9.945312 C 9.925781 9.945312 12.546875 12.5625 12.546875 15.785156 C 12.546875 19.007812 9.925781 21.625 6.703125 21.625 Z M 6.703125 10.949219 C 4.035156 10.949219 1.867188 13.117188 1.867188 15.785156 C 1.867188 18.453125 4.035156 20.621094 6.703125 20.621094 C 9.371094 20.621094 11.542969 18.453125 11.542969 15.785156 C 11.542969 13.117188 9.371094 10.949219 6.703125 10.949219 Z M 6.703125 10.949219 " fill-opacity="1" fill-rule="nonzero"/></g><path fill="#46b65e" d="M 6.703125 24.972656 C 6.425781 24.972656 6.203125 24.75 6.203125 24.472656 L 6.203125 15.085938 C 6.203125 14.808594 6.425781 14.582031 6.703125 14.582031 C 6.980469 14.582031 7.207031 14.808594 7.207031 15.085938 L 7.207031 24.472656 C 7.207031 24.75 6.980469 24.972656 6.703125 24.972656 Z M 6.703125 24.972656 " fill-opacity="1" fill-rule="nonzero"/><path fill="#46b65e" d="M 6.703125 19.453125 C 6.574219 19.453125 6.445312 19.402344 6.347656 19.304688 C 6.152344 19.109375 6.152344 18.789062 6.347656 18.59375 L 8.171875 16.773438 C 8.367188 16.574219 8.683594 16.574219 8.882812 16.773438 C 9.078125 16.96875 9.078125 17.285156 8.882812 17.484375 L 7.058594 19.304688 C 6.960938 19.402344 6.832031 19.453125 6.703125 19.453125 Z M 6.703125 19.453125 " fill-opacity="1" fill-rule="nonzero"/><path fill="#46b65e" d="M 6.703125 17.628906 C 6.574219 17.628906 6.445312 17.582031 6.347656 17.484375 L 5.160156 16.296875 C 4.964844 16.097656 4.964844 15.78125 5.160156 15.585938 C 5.359375 15.390625 5.675781 15.390625 5.871094 15.585938 L 7.058594 16.773438 C 7.253906 16.96875 7.253906 17.285156 7.058594 17.484375 C 6.960938 17.582031 6.832031 17.628906 6.703125 17.628906 Z M 6.703125 17.628906 " fill-opacity="1" fill-rule="nonzero"/><path fill="#46b65e" d="M 15.574219 21.628906 C 13.625 21.628906 11.8125 20.660156 10.722656 19.039062 C 10.570312 18.808594 10.628906 18.496094 10.859375 18.339844 C 11.089844 18.183594 11.402344 18.246094 11.558594 18.476562 C 12.460938 19.820312 13.960938 20.621094 15.574219 20.621094 C 18.242188 20.621094 20.414062 18.453125 20.414062 15.785156 C 20.414062 12.859375 18.074219 6.417969 15.574219 6.417969 C 13.859375 6.417969 12.160156 9.585938 11.304688 12.523438 C 11.230469 12.792969 10.949219 12.945312 10.683594 12.867188 C 10.417969 12.789062 10.265625 12.511719 10.339844 12.246094 C 11.296875 8.945312 13.175781 5.414062 15.574219 5.414062 C 18.949219 5.414062 21.417969 12.691406 21.417969 15.785156 C 21.417969 19.007812 18.796875 21.628906 15.574219 21.628906 Z M 15.574219 21.628906 " fill-opacity="1" fill-rule="nonzero"/><path fill="#46b65e" d="M 15.574219 24.972656 C 15.296875 24.972656 15.074219 24.75 15.074219 24.472656 L 15.074219 10.628906 C 15.074219 10.351562 15.296875 10.128906 15.574219 10.128906 C 15.851562 10.128906 16.078125 10.351562 16.078125 10.628906 L 16.078125 24.472656 C 16.078125 24.75 15.851562 24.972656 15.574219 24.972656 Z M 15.574219 24.972656 " fill-opacity="1" fill-rule="nonzero"/><path fill="#46b65e" d="M 15.46875 18.265625 C 15.339844 18.265625 15.210938 18.214844 15.113281 18.117188 L 13.289062 16.292969 C 13.09375 16.097656 13.09375 15.78125 13.289062 15.585938 C 13.488281 15.386719 13.804688 15.386719 14 15.585938 L 15.824219 17.40625 C 16.019531 17.601562 16.019531 17.921875 15.824219 18.117188 C 15.726562 18.214844 15.597656 18.265625 15.46875 18.265625 Z M 15.46875 18.265625 " fill-opacity="1" fill-rule="nonzero"/><path fill="#46b65e" d="M 15.617188 15.210938 C 15.488281 15.210938 15.359375 15.160156 15.261719 15.0625 C 15.066406 14.867188 15.066406 14.550781 15.261719 14.351562 L 16.449219 13.164062 C 16.644531 12.96875 16.960938 12.96875 17.160156 13.164062 C 17.355469 13.363281 17.355469 13.679688 17.160156 13.875 L 15.972656 15.0625 C 15.875 15.160156 15.746094 15.210938 15.617188 15.210938 Z M 15.617188 15.210938 " fill-opacity="1" fill-rule="nonzero"/><path fill="#46b65e" d="M 12.6875 31.292969 C 12.675781 31.292969 12.660156 31.292969 12.648438 31.292969 C 4.460938 30.640625 4.460938 29.382812 4.460938 28.90625 C 4.460938 28.25 5.035156 27.496094 9.296875 26.886719 C 12.15625 26.476562 15.957031 26.25 19.996094 26.25 C 21.003906 26.25 22.03125 26.265625 23.050781 26.292969 C 23.328125 26.300781 23.546875 26.53125 23.539062 26.808594 C 23.53125 27.085938 23.304688 27.304688 23.023438 27.296875 C 22.011719 27.269531 20.992188 27.253906 19.996094 27.253906 C 11.625 27.253906 6.269531 28.203125 5.511719 28.902344 C 5.882812 29.207031 7.652344 29.886719 12.726562 30.289062 C 13.003906 30.3125 13.210938 30.554688 13.1875 30.832031 C 13.167969 31.09375 12.949219 31.292969 12.6875 31.292969 Z M 12.6875 31.292969 " fill-opacity="1" fill-rule="nonzero"/><path fill="#46b65e" d="M 29.476562 31.082031 C 29.222656 31.082031 29.007812 30.894531 28.976562 30.636719 C 28.945312 30.359375 29.144531 30.113281 29.417969 30.078125 C 33.195312 29.644531 34.21875 29.097656 34.46875 28.90625 C 34.265625 28.746094 33.550781 28.359375 31.183594 27.976562 C 30.941406 27.941406 30.75 27.734375 30.75 27.480469 C 30.75 27.203125 30.976562 26.976562 31.253906 26.976562 L 31.335938 26.984375 C 35.035156 27.582031 35.535156 28.292969 35.535156 28.90625 C 35.535156 29.347656 35.535156 30.382812 29.535156 31.078125 C 29.515625 31.082031 29.496094 31.082031 29.476562 31.082031 Z M 29.476562 31.082031 " fill-opacity="1" fill-rule="nonzero"/><g clip-path="url(#9cd9faf695)"><path fill="#46b65e" d="M 21.519531 33.296875 C 18.886719 33.296875 16.40625 33.148438 14.539062 32.882812 C 11.640625 32.46875 11.242188 31.921875 11.242188 31.394531 C 11.242188 30.78125 11.9375 30.496094 12.542969 30.3125 C 12.808594 30.230469 13.089844 30.378906 13.167969 30.644531 C 13.25 30.910156 13.097656 31.191406 12.835938 31.273438 C 12.683594 31.316406 12.566406 31.359375 12.476562 31.398438 C 13.402344 31.773438 16.402344 32.292969 21.519531 32.292969 C 26.640625 32.292969 29.640625 31.773438 30.5625 31.394531 C 30.355469 31.308594 29.992188 31.195312 29.378906 31.070312 C 29.105469 31.015625 28.929688 30.753906 28.984375 30.480469 C 29.039062 30.207031 29.300781 30.03125 29.574219 30.085938 C 31.152344 30.402344 31.796875 30.78125 31.796875 31.394531 C 31.796875 31.921875 31.398438 32.46875 28.503906 32.882812 C 26.632812 33.148438 24.15625 33.296875 21.519531 33.296875 Z M 30.839844 31.546875 L 30.84375 31.546875 Z M 30.839844 31.546875 " fill-opacity="1" fill-rule="nonzero"/></g><path fill="#46b65e" d="M 31.277344 27.980469 L 31.257812 27.980469 C 30.980469 27.980469 30.753906 27.757812 30.753906 27.480469 C 30.753906 27.207031 30.96875 26.984375 31.238281 26.976562 C 32.09375 26.917969 32.707031 26.832031 33.140625 26.753906 C 32.273438 26.59375 30.785156 26.441406 28.714844 26.441406 C 25.742188 26.441406 23.96875 26.753906 23.515625 26.953125 C 23.472656 27.074219 23.386719 27.183594 23.261719 27.246094 C 23.015625 27.371094 22.714844 27.269531 22.589844 27.023438 C 22.546875 26.941406 22.523438 26.847656 22.523438 26.75 C 22.523438 26.109375 23.363281 25.859375 24.621094 25.679688 C 25.71875 25.523438 27.171875 25.433594 28.714844 25.433594 C 30.253906 25.433594 31.707031 25.523438 32.804688 25.679688 C 34.0625 25.859375 34.898438 26.109375 34.898438 26.75 C 34.898438 27.222656 34.621094 27.742188 31.292969 27.980469 Z M 31.277344 27.980469 " fill-opacity="1" fill-rule="nonzero"/><g clip-path="url(#ee79990459)"><path fill="#46b65e" d="M 31.121094 10.144531 C 31.011719 10.144531 30.898438 10.109375 30.804688 10.03125 L 24.394531 4.867188 C 24.308594 4.800781 24.1875 4.789062 24.089844 4.835938 L 19.964844 6.949219 C 19.71875 7.074219 19.414062 6.976562 19.289062 6.730469 C 19.164062 6.484375 19.261719 6.183594 19.507812 6.054688 L 23.632812 3.945312 C 24.082031 3.714844 24.628906 3.769531 25.023438 4.085938 L 31.4375 9.25 C 31.652344 9.425781 31.6875 9.742188 31.511719 9.957031 C 31.414062 10.078125 31.265625 10.144531 31.121094 10.144531 Z M 31.121094 10.144531 " fill-opacity="1" fill-rule="nonzero"/></g><g clip-path="url(#403de7424e)"><path fill="#46b65e" d="M 26.851562 12.238281 C 26.652344 12.238281 26.464844 12.117188 26.386719 11.921875 C 26.28125 11.664062 26.40625 11.375 26.664062 11.269531 L 33.105469 8.652344 C 33.425781 8.519531 33.792969 8.570312 34.070312 8.777344 L 36.738281 10.789062 C 36.960938 10.953125 37.003906 11.269531 36.835938 11.492188 C 36.671875 11.714844 36.355469 11.757812 36.132812 11.589844 L 33.464844 9.578125 L 27.042969 12.199219 C 26.980469 12.222656 26.914062 12.238281 26.851562 12.238281 Z M 26.851562 12.238281 " fill-opacity="1" fill-rule="nonzero"/></g></svg>