<svg xmlns="http://www.w3.org/2000/svg" xmlns:xlink="http://www.w3.org/1999/xlink" width="50" zoomAndPan="magnify" viewBox="0 0 37.5 37.499999" height="50" preserveAspectRatio="xMidYMid meet" version="1.0"><defs><clipPath id="2494a4491f"><path d="M 0 0 L 37.007812 0 L 37.007812 37.007812 L 0 37.007812 Z M 0 0 " clip-rule="nonzero"/></clipPath><clipPath id="a3f72dd764"><path d="M 1.941406 20 L 11 20 L 11 26 L 1.941406 26 Z M 1.941406 20 " clip-rule="nonzero"/></clipPath><clipPath id="70ab74f816"><path d="M 15 3.699219 L 22 3.699219 L 22 11 L 15 11 Z M 15 3.699219 " clip-rule="nonzero"/></clipPath><clipPath id="1977ae1990"><path d="M 14 28 L 23 28 L 23 33.304688 L 14 33.304688 Z M 14 28 " clip-rule="nonzero"/></clipPath></defs><g clip-path="url(#2494a4491f)"><path fill="#ffffff" d="M 0 0 L 37.007812 0 L 37.007812 37.007812 L 0 37.007812 Z M 0 0 " fill-opacity="1" fill-rule="nonzero"/><path fill="#ffffff" d="M 0 0 L 37.007812 0 L 37.007812 37.007812 L 0 37.007812 Z M 0 0 " fill-opacity="1" fill-rule="nonzero"/></g><g clip-path="url(#a3f72dd764)"><path fill="#46b65e" d="M 9.878906 21.925781 C 9.386719 21.367188 8.648438 21.050781 8.375 20.941406 C 8.308594 20.917969 8.234375 20.929688 8.179688 20.976562 C 8.035156 21.097656 7.734375 21.34375 7.546875 21.449219 C 7.242188 21.621094 6.910156 21.738281 6.566406 21.769531 C 6.171875 21.808594 5.773438 21.710938 5.417969 21.546875 C 5.121094 21.40625 4.851562 21.210938 4.617188 20.980469 C 4.566406 20.929688 4.492188 20.914062 4.421875 20.933594 C 3.722656 21.167969 3.144531 21.582031 2.691406 22.175781 C 2.210938 22.804688 1.960938 23.519531 1.957031 24.3125 C 1.957031 24.316406 1.957031 24.324219 1.957031 24.328125 C 1.957031 25.25 2.703125 25.996094 3.625 25.996094 L 9.15625 25.996094 C 10.105469 25.996094 10.863281 25.207031 10.820312 24.261719 C 10.816406 24.167969 10.8125 24.085938 10.804688 24.015625 C 10.734375 23.214844 10.410156 22.53125 9.878906 21.925781 " fill-opacity="1" fill-rule="nonzero"/></g><path fill="#46b65e" d="M 4.125 19.089844 C 4.1875 19.167969 4.25 19.246094 4.332031 19.304688 C 4.464844 19.410156 4.507812 19.546875 4.585938 19.691406 C 4.660156 19.839844 4.75 19.984375 4.84375 20.121094 C 5.199219 20.617188 5.761719 21.027344 6.390625 21.042969 C 6.65625 21.039062 6.921875 20.957031 7.183594 20.808594 C 7.472656 20.644531 7.71875 20.414062 7.914062 20.148438 C 8.015625 20.011719 8.101562 19.867188 8.179688 19.71875 C 8.222656 19.640625 8.25 19.558594 8.292969 19.480469 C 8.339844 19.398438 8.394531 19.351562 8.464844 19.292969 C 8.542969 19.230469 8.609375 19.160156 8.667969 19.078125 C 8.933594 18.714844 9.011719 18.230469 8.933594 17.789062 C 8.921875 17.714844 8.902344 17.636719 8.878906 17.5625 C 8.820312 17.390625 8.75 17.246094 8.753906 17.066406 C 8.757812 16.902344 8.746094 16.742188 8.71875 16.582031 C 8.664062 16.285156 8.554688 16 8.386719 15.746094 C 8.210938 15.488281 7.980469 15.269531 7.726562 15.089844 C 7.265625 14.769531 6.695312 14.652344 6.144531 14.699219 C 5.753906 14.734375 5.378906 14.863281 5.054688 15.089844 C 4.542969 15.445312 4.171875 15.964844 4.0625 16.585938 C 4.035156 16.742188 4.027344 16.898438 4.027344 17.058594 C 4.03125 17.246094 3.957031 17.394531 3.902344 17.570312 C 3.742188 18.054688 3.800781 18.671875 4.117188 19.082031 C 4.121094 19.085938 4.121094 19.089844 4.125 19.089844 " fill-opacity="1" fill-rule="nonzero"/><path fill="#46b65e" d="M 34.984375 24.015625 C 34.910156 23.214844 34.585938 22.53125 34.054688 21.925781 C 33.566406 21.367188 32.824219 21.050781 32.550781 20.941406 C 32.484375 20.917969 32.410156 20.929688 32.359375 20.976562 C 32.214844 21.097656 31.910156 21.34375 31.722656 21.449219 C 31.421875 21.621094 31.085938 21.738281 30.742188 21.769531 C 30.347656 21.808594 29.949219 21.710938 29.59375 21.546875 C 29.296875 21.40625 29.03125 21.210938 28.796875 20.980469 C 28.742188 20.929688 28.667969 20.914062 28.597656 20.933594 C 27.902344 21.167969 27.320312 21.582031 26.867188 22.175781 C 26.386719 22.804688 26.136719 23.519531 26.136719 24.3125 C 26.136719 24.316406 26.136719 24.324219 26.136719 24.328125 C 26.132812 25.25 26.878906 25.996094 27.800781 25.996094 L 33.335938 25.996094 C 34.28125 25.996094 35.039062 25.207031 35 24.261719 C 34.992188 24.167969 34.988281 24.085938 34.984375 24.015625 " fill-opacity="1" fill-rule="nonzero"/><path fill="#46b65e" d="M 28.300781 19.089844 C 28.363281 19.167969 28.425781 19.246094 28.507812 19.304688 C 28.644531 19.410156 28.6875 19.546875 28.761719 19.691406 C 28.839844 19.839844 28.925781 19.984375 29.023438 20.121094 C 29.378906 20.617188 29.9375 21.027344 30.566406 21.042969 C 30.832031 21.039062 31.097656 20.957031 31.359375 20.808594 C 31.652344 20.644531 31.894531 20.414062 32.089844 20.148438 C 32.191406 20.011719 32.277344 19.867188 32.359375 19.71875 C 32.398438 19.640625 32.425781 19.558594 32.46875 19.480469 C 32.515625 19.398438 32.570312 19.351562 32.644531 19.292969 C 32.71875 19.230469 32.785156 19.160156 32.84375 19.078125 C 33.109375 18.714844 33.1875 18.230469 33.113281 17.789062 C 33.097656 17.714844 33.078125 17.636719 33.054688 17.5625 C 32.996094 17.390625 32.929688 17.246094 32.929688 17.066406 C 32.933594 16.902344 32.921875 16.742188 32.894531 16.582031 C 32.84375 16.285156 32.730469 16 32.5625 15.746094 C 32.386719 15.488281 32.15625 15.269531 31.902344 15.089844 C 31.445312 14.769531 30.871094 14.652344 30.320312 14.699219 C 29.929688 14.734375 29.554688 14.863281 29.234375 15.089844 C 28.71875 15.445312 28.347656 15.964844 28.242188 16.585938 C 28.214844 16.742188 28.203125 16.898438 28.203125 17.058594 C 28.207031 17.246094 28.136719 17.394531 28.078125 17.570312 C 27.917969 18.054688 27.976562 18.671875 28.292969 19.082031 C 28.296875 19.085938 28.300781 19.089844 28.300781 19.089844 " fill-opacity="1" fill-rule="nonzero"/><path fill="#46b65e" d="M 18.480469 12.902344 C 20.023438 12.902344 21.527344 13.117188 22.90625 13.515625 C 22.910156 13.449219 22.914062 13.382812 22.910156 13.3125 C 22.90625 13.222656 22.902344 13.140625 22.894531 13.070312 C 22.820312 12.269531 22.496094 11.582031 21.96875 10.980469 C 21.476562 10.421875 20.738281 10.101562 20.460938 9.996094 C 20.394531 9.96875 20.324219 9.984375 20.269531 10.027344 C 20.125 10.152344 19.824219 10.394531 19.632812 10.503906 C 19.332031 10.671875 19 10.789062 18.652344 10.824219 C 18.261719 10.859375 17.863281 10.765625 17.507812 10.597656 C 17.210938 10.457031 16.941406 10.265625 16.707031 10.035156 C 16.65625 9.984375 16.582031 9.964844 16.511719 9.988281 C 15.8125 10.222656 15.234375 10.632812 14.78125 11.230469 C 14.300781 11.859375 14.050781 12.570312 14.046875 13.363281 L 14.046875 13.382812 C 14.046875 13.425781 14.046875 13.472656 14.050781 13.515625 C 15.429688 13.117188 16.933594 12.902344 18.480469 12.902344 " fill-opacity="1" fill-rule="nonzero"/><g clip-path="url(#70ab74f816)"><path fill="#46b65e" d="M 16.210938 8.144531 C 16.277344 8.21875 16.339844 8.296875 16.417969 8.359375 C 16.554688 8.460938 16.597656 8.597656 16.671875 8.742188 C 16.75 8.890625 16.835938 9.035156 16.933594 9.171875 C 17.289062 9.667969 17.851562 10.082031 18.480469 10.097656 C 18.742188 10.089844 19.007812 10.011719 19.273438 9.863281 C 19.5625 9.699219 19.808594 9.46875 20.003906 9.199219 C 20.101562 9.066406 20.191406 8.921875 20.269531 8.773438 C 20.308594 8.695312 20.339844 8.609375 20.382812 8.535156 C 20.425781 8.449219 20.484375 8.40625 20.554688 8.347656 C 20.628906 8.285156 20.695312 8.210938 20.753906 8.132812 C 21.023438 7.765625 21.101562 7.285156 21.023438 6.84375 C 21.011719 6.765625 20.992188 6.691406 20.964844 6.617188 C 20.910156 6.445312 20.839844 6.300781 20.84375 6.117188 C 20.84375 5.957031 20.832031 5.792969 20.804688 5.636719 C 20.753906 5.335938 20.640625 5.050781 20.472656 4.800781 C 20.300781 4.539062 20.070312 4.320312 19.8125 4.140625 C 19.355469 3.824219 18.785156 3.703125 18.230469 3.753906 C 17.839844 3.785156 17.464844 3.917969 17.144531 4.140625 C 16.632812 4.5 16.261719 5.015625 16.152344 5.636719 C 16.125 5.792969 16.113281 5.953125 16.117188 6.109375 C 16.117188 6.296875 16.046875 6.449219 15.988281 6.621094 C 15.832031 7.109375 15.886719 7.726562 16.207031 8.136719 C 16.207031 8.140625 16.210938 8.140625 16.210938 8.144531 " fill-opacity="1" fill-rule="nonzero"/></g><g clip-path="url(#1977ae1990)"><path fill="#46b65e" d="M 21.96875 29.238281 C 21.476562 28.679688 20.738281 28.359375 20.460938 28.253906 C 20.394531 28.230469 20.324219 28.242188 20.269531 28.285156 C 20.125 28.410156 19.824219 28.65625 19.632812 28.761719 C 19.332031 28.929688 19 29.046875 18.652344 29.082031 C 18.261719 29.121094 17.863281 29.023438 17.507812 28.855469 C 17.210938 28.714844 16.941406 28.523438 16.707031 28.292969 C 16.65625 28.242188 16.578125 28.222656 16.511719 28.246094 C 15.8125 28.480469 15.234375 28.890625 14.78125 29.488281 C 14.300781 30.117188 14.050781 30.828125 14.046875 31.625 C 14.046875 31.628906 14.046875 31.632812 14.046875 31.640625 C 14.042969 32.5625 14.792969 33.308594 15.710938 33.308594 L 21.246094 33.308594 C 22.195312 33.308594 22.949219 32.519531 22.910156 31.574219 C 22.90625 31.480469 22.902344 31.398438 22.894531 31.328125 C 22.820312 30.527344 22.496094 29.839844 21.96875 29.238281 " fill-opacity="1" fill-rule="nonzero"/></g><path fill="#46b65e" d="M 15.792969 27.363281 C 15.722656 27.351562 15.652344 27.339844 15.585938 27.324219 C 15.609375 27.347656 15.632812 27.371094 15.65625 27.394531 C 15.664062 27.402344 15.664062 27.410156 15.671875 27.417969 C 15.710938 27.398438 15.75 27.378906 15.792969 27.363281 " fill-opacity="1" fill-rule="nonzero"/><path fill="#46b65e" d="M 21.371094 27.324219 C 21.296875 27.339844 21.222656 27.355469 21.148438 27.367188 C 21.191406 27.386719 21.234375 27.40625 21.28125 27.429688 C 21.285156 27.417969 21.289062 27.40625 21.292969 27.398438 C 21.320312 27.375 21.347656 27.347656 21.371094 27.324219 " fill-opacity="1" fill-rule="nonzero"/><path fill="#46b65e" d="M 16.417969 26.617188 C 16.554688 26.71875 16.597656 26.855469 16.671875 27 C 16.75 27.152344 16.835938 27.296875 16.933594 27.429688 C 17.289062 27.925781 17.851562 28.339844 18.480469 28.355469 C 18.742188 28.347656 19.007812 28.269531 19.273438 28.121094 C 19.5625 27.957031 19.808594 27.726562 20.003906 27.460938 C 20.101562 27.324219 20.191406 27.179688 20.269531 27.03125 C 20.308594 26.953125 20.339844 26.871094 20.382812 26.792969 C 20.425781 26.710938 20.484375 26.664062 20.554688 26.605469 C 20.628906 26.542969 20.695312 26.46875 20.753906 26.390625 C 21.023438 26.023438 21.101562 25.542969 21.023438 25.101562 C 21.011719 25.023438 20.992188 24.949219 20.964844 24.875 C 20.910156 24.703125 20.839844 24.558594 20.84375 24.375 C 20.84375 24.214844 20.832031 24.054688 20.804688 23.894531 C 20.753906 23.597656 20.640625 23.308594 20.472656 23.058594 C 20.300781 22.796875 20.070312 22.578125 19.8125 22.398438 C 19.355469 22.082031 18.785156 21.960938 18.230469 22.011719 C 17.839844 22.042969 17.464844 22.175781 17.144531 22.398438 C 16.632812 22.757812 16.261719 23.273438 16.152344 23.894531 C 16.125 24.050781 16.113281 24.210938 16.117188 24.367188 C 16.117188 24.554688 16.046875 24.707031 15.988281 24.878906 C 15.832031 25.367188 15.886719 25.984375 16.207031 26.394531 C 16.207031 26.398438 16.210938 26.398438 16.210938 26.402344 C 16.277344 26.480469 16.339844 26.558594 16.417969 26.617188 " fill-opacity="1" fill-rule="nonzero"/><path fill="#46b65e" d="M 26.007812 21.519531 C 26.480469 20.898438 27.066406 20.425781 27.757812 20.105469 C 27.753906 20.097656 27.75 20.089844 27.746094 20.082031 C 27.628906 19.976562 27.542969 19.871094 27.480469 19.796875 L 27.46875 19.785156 C 27.457031 19.769531 27.445312 19.753906 27.433594 19.738281 C 26.917969 19.074219 26.769531 18.089844 27.046875 17.234375 C 27.0625 17.1875 27.078125 17.144531 27.09375 17.101562 C 27.097656 17.089844 27.101562 17.078125 27.105469 17.066406 C 25.265625 15.210938 22.089844 13.988281 18.480469 13.988281 C 14.871094 13.988281 11.691406 15.210938 9.851562 17.066406 C 9.855469 17.074219 9.859375 17.085938 9.859375 17.089844 C 9.875 17.132812 9.890625 17.175781 9.90625 17.222656 C 9.945312 17.34375 9.980469 17.472656 10 17.601562 C 10.132812 18.363281 9.96875 19.136719 9.539062 19.71875 C 9.441406 19.855469 9.328125 19.976562 9.207031 20.085938 C 9.203125 20.09375 9.195312 20.105469 9.191406 20.117188 C 9.648438 20.335938 10.234375 20.6875 10.691406 21.210938 C 11.394531 22.007812 11.792969 22.917969 11.886719 23.917969 C 11.890625 24.003906 11.898438 24.101562 11.902344 24.214844 C 11.929688 24.78125 11.785156 25.324219 11.488281 25.792969 C 12.640625 26.496094 14.039062 27.027344 15.585938 27.324219 C 15.503906 27.246094 15.441406 27.167969 15.390625 27.109375 L 15.378906 27.09375 C 15.367188 27.078125 15.355469 27.066406 15.34375 27.050781 C 14.832031 26.382812 14.679688 25.402344 14.960938 24.542969 C 14.976562 24.5 14.988281 24.457031 15.003906 24.414062 C 15.015625 24.386719 15.027344 24.355469 15.03125 24.335938 C 15.03125 24.117188 15.050781 23.910156 15.085938 23.710938 C 15.238281 22.832031 15.75 22.054688 16.523438 21.511719 C 16.996094 21.183594 17.554688 20.984375 18.136719 20.929688 C 18.246094 20.921875 18.359375 20.917969 18.46875 20.917969 C 19.195312 20.917969 19.875 21.121094 20.433594 21.511719 C 20.816406 21.78125 21.132812 22.097656 21.375 22.457031 C 21.625 22.832031 21.792969 23.253906 21.871094 23.707031 C 21.90625 23.910156 21.925781 24.121094 21.925781 24.335938 C 21.933594 24.355469 21.941406 24.382812 21.949219 24.402344 C 21.964844 24.445312 21.980469 24.488281 21.996094 24.53125 C 22.035156 24.652344 22.066406 24.78125 22.089844 24.914062 C 22.222656 25.675781 22.054688 26.445312 21.628906 27.027344 C 21.550781 27.136719 21.464844 27.234375 21.371094 27.324219 C 22.921875 27.027344 24.316406 26.496094 25.46875 25.792969 C 25.195312 25.355469 25.050781 24.851562 25.050781 24.324219 L 25.050781 24.304688 C 25.054688 23.285156 25.375 22.347656 26.007812 21.519531 " fill-opacity="1" fill-rule="nonzero"/></svg>