<svg xmlns="http://www.w3.org/2000/svg" xmlns:xlink="http://www.w3.org/1999/xlink" width="50" zoomAndPan="magnify" viewBox="0 0 37.5 37.499999" height="50" preserveAspectRatio="xMidYMid meet" version="1.0"><defs><clipPath id="3c722da4fa"><path d="M 0 0 L 37.007812 0 L 37.007812 37.007812 L 0 37.007812 Z M 0 0 " clip-rule="nonzero"/></clipPath><clipPath id="34f99ed148"><path d="M 1.019531 5.371094 L 35.808594 5.371094 L 35.808594 31 L 1.019531 31 Z M 1.019531 5.371094 " clip-rule="nonzero"/></clipPath><clipPath id="53f644b4c2"><path d="M 11 26 L 22 26 L 22 31.273438 L 11 31.273438 Z M 11 26 " clip-rule="nonzero"/></clipPath></defs><g clip-path="url(#3c722da4fa)"><path fill="#ffffff" d="M 0 0 L 37.007812 0 L 37.007812 37.007812 L 0 37.007812 Z M 0 0 " fill-opacity="1" fill-rule="nonzero"/><path fill="#ffffff" d="M 0 0 L 37.007812 0 L 37.007812 37.007812 L 0 37.007812 Z M 0 0 " fill-opacity="1" fill-rule="nonzero"/></g><g clip-path="url(#34f99ed148)"><path fill="#46b65e" d="M 1.035156 30.1875 L 1.710938 30.5625 L 2.378906 29.363281 L 7.777344 29.363281 L 7.324219 30.183594 L 7.996094 30.558594 L 15.949219 16.28125 L 25.015625 29.097656 L 24.996094 29.097656 C 24.714844 29.097656 24.484375 29.328125 24.484375 29.613281 C 24.484375 29.894531 24.714844 30.125 24.996094 30.125 L 35.449219 30.125 C 35.730469 30.125 35.960938 29.894531 35.960938 29.613281 C 35.960938 29.328125 35.730469 29.097656 35.449219 29.097656 L 34.707031 29.097656 L 31.339844 24.335938 C 31.292969 24.386719 31.242188 24.4375 31.183594 24.480469 C 30.964844 24.644531 30.707031 24.734375 30.433594 24.734375 C 30.046875 24.734375 29.6875 24.558594 29.453125 24.25 L 28.199219 22.617188 L 25.542969 22.191406 C 25.402344 22.167969 25.273438 22.121094 25.148438 22.054688 C 24.546875 21.851562 24.09375 20.710938 24.089844 20.699219 L 23.054688 17.648438 L 19.6875 15.160156 C 19.257812 14.84375 19.167969 14.238281 19.484375 13.8125 C 19.664062 13.566406 19.953125 13.417969 20.257812 13.417969 C 20.46875 13.417969 20.664062 13.484375 20.832031 13.609375 L 22.722656 15 C 22.707031 14.964844 22.695312 14.929688 22.679688 14.894531 C 22.511719 14.375 22.554688 13.820312 22.800781 13.332031 C 22.902344 13.136719 23.03125 12.957031 23.183594 12.808594 L 22.398438 11.695312 L 22.308594 11.695312 L 22.308594 11.058594 L 22.0625 11.058594 L 22.0625 8.226562 C 22.0625 6.652344 20.78125 5.371094 19.207031 5.371094 L 19 5.371094 C 18.15625 5.371094 17.398438 5.734375 16.875 6.320312 C 17.117188 6.660156 17.292969 7.050781 17.394531 7.46875 C 17.679688 6.867188 18.289062 6.449219 19 6.449219 L 19.207031 6.449219 C 20.183594 6.449219 20.980469 7.246094 20.980469 8.226562 L 20.980469 11.058594 L 17.019531 11.058594 L 17.019531 8.226562 C 17.019531 6.652344 15.734375 5.371094 14.160156 5.371094 L 13.953125 5.371094 C 12.378906 5.371094 11.097656 6.652344 11.097656 8.226562 L 11.097656 11.058594 L 9.851562 11.058594 L 9.851562 11.933594 L 11.207031 11.933594 Z M 12.875 11.933594 L 13.398438 12.675781 L 11.675781 12.675781 L 12.089844 11.933594 Z M 7.242188 20.632812 L 9.03125 17.429688 L 14.429688 17.429688 L 12.640625 20.632812 Z M 12.210938 21.40625 L 10.425781 24.613281 L 5.027344 24.613281 L 6.8125 21.40625 Z M 2.808594 28.589844 L 4.597656 25.386719 L 9.996094 25.386719 L 8.210938 28.589844 Z M 14.859375 16.65625 L 9.460938 16.65625 L 11.246094 13.449219 L 13.945312 13.449219 L 15.457031 15.585938 Z M 27.214844 29.097656 L 26.210938 29.097656 L 14.070312 11.933594 L 15.074219 11.933594 Z M 12.179688 10.839844 L 12.179688 8.226562 C 12.179688 7.246094 12.976562 6.449219 13.953125 6.449219 L 14.160156 6.449219 C 15.140625 6.449219 15.9375 7.246094 15.9375 8.226562 L 15.9375 11.058594 L 12.179688 11.058594 Z M 12.179688 10.839844 " fill-opacity="1" fill-rule="nonzero"/></g><path fill="#46b65e" d="M 24.007812 16.527344 L 20.558594 13.980469 C 20.335938 13.816406 20.019531 13.863281 19.855469 14.085938 C 19.691406 14.308594 19.738281 14.625 19.960938 14.789062 L 23.445312 17.359375 L 24.53125 20.554688 C 24.605469 20.785156 25.070312 21.609375 25.328125 21.625 C 25.414062 21.675781 25.511719 21.714844 25.617188 21.734375 L 28.457031 22.191406 L 29.820312 23.96875 C 29.972656 24.167969 30.199219 24.269531 30.433594 24.269531 C 30.597656 24.269531 30.761719 24.21875 30.902344 24.109375 C 31.242188 23.851562 31.304688 23.367188 31.046875 23.027344 L 29.496094 21.007812 C 29.375 20.851562 29.199219 20.746094 29.003906 20.714844 L 28.375 20.613281 L 29.289062 20.269531 L 32.269531 21.488281 C 32.363281 21.527344 32.464844 21.546875 32.5625 21.546875 C 32.867188 21.546875 33.152344 21.363281 33.277344 21.066406 C 33.4375 20.671875 33.25 20.21875 32.855469 20.058594 L 29.59375 18.722656 C 29.410156 18.652344 29.210938 18.648438 29.027344 18.714844 L 27.785156 19.183594 L 26.847656 16.425781 L 29.8125 13.460938 C 30.007812 13.265625 30.007812 12.945312 29.8125 12.75 C 29.613281 12.554688 29.296875 12.554688 29.101562 12.75 L 25.972656 15.882812 Z M 24.007812 16.527344 " fill-opacity="1" fill-rule="nonzero"/><path fill="#46b65e" d="M 23.121094 14.75 C 23.128906 14.773438 23.140625 14.796875 23.148438 14.820312 L 23.136719 14.824219 C 23.09375 14.824219 23.0625 14.859375 23.0625 14.902344 C 23.066406 14.945312 23.101562 14.976562 23.140625 14.976562 C 23.140625 14.976562 23.144531 14.976562 23.144531 14.976562 L 23.722656 14.945312 C 23.703125 14.988281 23.691406 15.035156 23.683594 15.078125 L 23.292969 15.105469 C 23.441406 15.34375 23.648438 15.53125 23.890625 15.65625 L 23.886719 15.664062 C 23.863281 15.699219 23.871094 15.746094 23.90625 15.769531 C 23.917969 15.78125 23.933594 15.785156 23.949219 15.785156 C 23.972656 15.785156 23.996094 15.773438 24.011719 15.75 L 24.03125 15.722656 C 24.089844 15.746094 24.144531 15.765625 24.207031 15.785156 C 24.386719 15.863281 24.601562 15.914062 24.816406 15.914062 C 25.015625 15.914062 25.214844 15.875 25.402344 15.777344 C 25.695312 15.628906 25.925781 15.355469 26.050781 15.011719 C 26.074219 14.945312 26.09375 14.882812 26.105469 14.816406 C 26.128906 14.757812 26.148438 14.699219 26.160156 14.636719 L 26.195312 14.640625 C 26.238281 14.640625 26.273438 14.605469 26.273438 14.5625 C 26.273438 14.519531 26.242188 14.484375 26.199219 14.484375 L 26.191406 14.484375 C 26.226562 14.25 26.210938 14.003906 26.132812 13.765625 C 26.121094 13.734375 26.109375 13.707031 26.097656 13.675781 L 25.84375 13.980469 C 25.800781 13.957031 25.757812 13.941406 25.710938 13.929688 L 26.078125 13.480469 C 26.105469 13.449219 26.097656 13.398438 26.066406 13.371094 C 26.035156 13.34375 25.984375 13.351562 25.957031 13.382812 L 25.949219 13.394531 C 25.566406 12.808594 24.828125 12.527344 24.132812 12.753906 C 23.304688 13.027344 22.851562 13.917969 23.121094 14.75 Z M 25.867188 14.179688 L 25.867188 14.183594 L 25.871094 14.183594 C 25.894531 14.207031 25.914062 14.234375 25.929688 14.265625 C 26.011719 14.421875 26 14.695312 25.90625 14.957031 C 25.894531 14.992188 25.878906 15.027344 25.859375 15.070312 L 25.8125 15.015625 C 25.792969 15.03125 25.773438 15.050781 25.753906 15.066406 L 25.804688 15.125 C 25.824219 15.109375 25.839844 15.097656 25.851562 15.082031 C 25.765625 15.261719 25.609375 15.5 25.332031 15.640625 C 25.089844 15.761719 24.816406 15.78125 24.570312 15.738281 C 24.589844 15.730469 24.613281 15.726562 24.636719 15.722656 L 24.617188 15.648438 C 24.589844 15.652344 24.566406 15.660156 24.542969 15.664062 L 24.558594 15.734375 C 24.234375 15.671875 23.960938 15.503906 23.863281 15.316406 C 23.847656 15.285156 23.839844 15.253906 23.832031 15.222656 L 23.835938 15.21875 L 23.832031 15.214844 C 23.8125 15.070312 23.890625 14.925781 23.96875 14.820312 C 24.113281 14.632812 24.351562 14.445312 24.644531 14.296875 C 24.957031 14.136719 25.25 14.058594 25.484375 14.058594 C 25.648438 14.058594 25.78125 14.097656 25.867188 14.179688 Z M 25.867188 14.179688 " fill-opacity="1" fill-rule="nonzero"/><path fill="#46b65e" d="M 25.023438 14.425781 L 24.996094 14.351562 C 24.96875 14.363281 24.945312 14.375 24.917969 14.382812 L 24.949219 14.453125 C 24.972656 14.445312 24.996094 14.433594 25.023438 14.425781 Z M 25.023438 14.425781 " fill-opacity="1" fill-rule="nonzero"/><path fill="#46b65e" d="M 25.480469 14.277344 L 25.457031 14.203125 C 25.433594 14.210938 25.40625 14.21875 25.378906 14.226562 L 25.402344 14.300781 C 25.429688 14.292969 25.453125 14.285156 25.480469 14.277344 Z M 25.480469 14.277344 " fill-opacity="1" fill-rule="nonzero"/><path fill="#46b65e" d="M 25.25 14.347656 L 25.226562 14.273438 C 25.199219 14.28125 25.171875 14.289062 25.148438 14.296875 L 25.171875 14.371094 C 25.199219 14.363281 25.222656 14.355469 25.25 14.347656 Z M 25.25 14.347656 " fill-opacity="1" fill-rule="nonzero"/><path fill="#46b65e" d="M 24.769531 14.535156 C 24.78125 14.53125 24.792969 14.523438 24.804688 14.519531 L 24.769531 14.449219 C 24.757812 14.457031 24.746094 14.460938 24.734375 14.46875 L 24.695312 14.488281 L 24.734375 14.554688 Z M 24.769531 14.535156 " fill-opacity="1" fill-rule="nonzero"/><path fill="#46b65e" d="M 24.597656 14.632812 L 24.554688 14.570312 C 24.53125 14.582031 24.507812 14.597656 24.488281 14.613281 L 24.527344 14.675781 C 24.550781 14.664062 24.574219 14.648438 24.597656 14.632812 Z M 24.597656 14.632812 " fill-opacity="1" fill-rule="nonzero"/><path fill="#46b65e" d="M 24.015625 15.0625 L 23.96875 15.003906 C 23.945312 15.019531 23.925781 15.039062 23.90625 15.054688 L 23.957031 15.113281 C 23.976562 15.097656 23.996094 15.078125 24.015625 15.0625 Z M 24.015625 15.0625 " fill-opacity="1" fill-rule="nonzero"/><path fill="#46b65e" d="M 24.09375 14.898438 L 24.140625 14.960938 C 24.160156 14.945312 24.183594 14.925781 24.203125 14.910156 L 24.15625 14.851562 C 24.136719 14.867188 24.113281 14.882812 24.09375 14.898438 Z M 24.09375 14.898438 " fill-opacity="1" fill-rule="nonzero"/><path fill="#46b65e" d="M 24.285156 14.75 L 24.332031 14.8125 C 24.351562 14.796875 24.375 14.78125 24.398438 14.765625 L 24.351562 14.703125 C 24.328125 14.71875 24.308594 14.734375 24.285156 14.75 Z M 24.285156 14.75 " fill-opacity="1" fill-rule="nonzero"/><path fill="#46b65e" d="M 25.695312 14.144531 C 25.667969 14.148438 25.644531 14.15625 25.613281 14.164062 L 25.632812 14.238281 C 25.660156 14.230469 25.6875 14.222656 25.710938 14.21875 Z M 25.695312 14.144531 " fill-opacity="1" fill-rule="nonzero"/><path fill="#46b65e" d="M 25.195312 15.457031 L 25.226562 15.527344 C 25.238281 15.519531 25.25 15.515625 25.261719 15.507812 C 25.273438 15.503906 25.285156 15.496094 25.296875 15.488281 L 25.261719 15.421875 C 25.25 15.429688 25.238281 15.433594 25.226562 15.441406 C 25.21875 15.445312 25.207031 15.449219 25.195312 15.457031 Z M 25.195312 15.457031 " fill-opacity="1" fill-rule="nonzero"/><path fill="#46b65e" d="M 25.578125 15.210938 L 25.625 15.273438 C 25.644531 15.257812 25.664062 15.242188 25.683594 15.222656 L 25.636719 15.164062 C 25.617188 15.179688 25.597656 15.195312 25.578125 15.210938 Z M 25.578125 15.210938 " fill-opacity="1" fill-rule="nonzero"/><path fill="#46b65e" d="M 25.390625 15.34375 L 25.433594 15.410156 C 25.457031 15.394531 25.476562 15.378906 25.5 15.363281 L 25.453125 15.300781 C 25.433594 15.316406 25.414062 15.332031 25.390625 15.34375 Z M 25.390625 15.34375 " fill-opacity="1" fill-rule="nonzero"/><path fill="#46b65e" d="M 25.007812 15.613281 C 25.035156 15.605469 25.058594 15.597656 25.082031 15.585938 L 25.054688 15.515625 C 25.03125 15.523438 25.007812 15.53125 24.984375 15.542969 Z M 25.007812 15.613281 " fill-opacity="1" fill-rule="nonzero"/><path fill="#46b65e" d="M 24.765625 15.609375 L 24.785156 15.683594 C 24.8125 15.675781 24.835938 15.667969 24.859375 15.660156 L 24.839844 15.585938 C 24.8125 15.59375 24.789062 15.601562 24.765625 15.609375 Z M 24.765625 15.609375 " fill-opacity="1" fill-rule="nonzero"/><g clip-path="url(#53f644b4c2)"><path fill="#46b65e" d="M 15.457031 30.542969 L 14.5 31.628906 L 20.367188 31.628906 C 19.914062 31.144531 18.046875 29.042969 18.109375 27.515625 C 18.1875 27.535156 18.265625 27.554688 18.339844 27.578125 C 18.703125 27.691406 18.988281 27.835938 19.109375 27.898438 L 20.304688 29.328125 C 20.390625 29.429688 20.511719 29.480469 20.632812 29.480469 C 20.726562 29.480469 20.824219 29.449219 20.902344 29.382812 C 21.085938 29.230469 21.109375 28.964844 20.957031 28.785156 L 19.707031 27.292969 C 19.679688 27.253906 19.640625 27.222656 19.597656 27.199219 C 19.527344 27.15625 17.84375 26.179688 16.394531 26.746094 C 15.996094 26.875 14.640625 27.585938 14.074219 27.886719 L 12.417969 27.058594 C 12.207031 26.953125 11.953125 27.039062 11.847656 27.246094 C 11.742188 27.457031 11.828125 27.710938 12.039062 27.816406 L 13.890625 28.742188 C 14.015625 28.804688 14.160156 28.804688 14.28125 28.738281 C 14.582031 28.578125 14.941406 28.386719 15.289062 28.210938 C 15.375 28.164062 15.460938 28.121094 15.542969 28.078125 C 15.339844 29.417969 15.457031 30.542969 15.457031 30.542969 Z M 15.457031 30.542969 " fill-opacity="1" fill-rule="nonzero"/></g><path fill="#46b65e" d="M 17.273438 24.113281 C 17.398438 24.363281 17.464844 24.636719 17.460938 24.914062 C 17.945312 25.226562 18.5 25.65625 19.054688 25.585938 C 20.222656 25.433594 20.191406 24.347656 19.996094 24.640625 C 19.804688 24.929688 19.378906 25.160156 18.351562 24.371094 C 17.949219 24.058594 17.597656 23.914062 17.292969 23.875 C 17.320312 23.949219 17.3125 24.039062 17.273438 24.113281 Z M 17.273438 24.113281 " fill-opacity="1" fill-rule="nonzero"/><path fill="#46b65e" d="M 17.125 24.210938 C 16.945312 24.417969 16.609375 24.773438 16.160156 25.109375 C 16.167969 25.136719 16.179688 25.164062 16.1875 25.191406 C 16.175781 25.199219 16.160156 25.210938 16.132812 25.234375 L 16.175781 25.296875 C 16.191406 25.285156 16.199219 25.277344 16.210938 25.269531 C 16.378906 25.914062 16.167969 26.363281 16.109375 26.4375 C 15.996094 26.46875 15.878906 26.488281 15.761719 26.492188 C 15.359375 26.511719 14.976562 26.378906 14.675781 26.132812 C 14.628906 26.09375 14.585938 26.050781 14.542969 26.007812 L 14.53125 25.933594 C 14.511719 25.933594 14.496094 25.9375 14.480469 25.941406 C 14.472656 25.933594 14.464844 25.921875 14.460938 25.914062 C 14.402344 25.925781 14.34375 25.9375 14.289062 25.945312 C 14.617188 26.390625 15.128906 26.648438 15.6875 26.648438 C 15.714844 26.648438 15.738281 26.648438 15.765625 26.648438 C 15.90625 26.640625 16.039062 26.617188 16.167969 26.582031 C 16.1875 26.578125 16.226562 26.566406 16.292969 26.429688 C 16.300781 26.414062 16.308594 26.394531 16.320312 26.371094 C 16.371094 26.347656 16.425781 26.320312 16.476562 26.289062 C 17.210938 25.871094 17.488281 24.960938 17.125 24.210938 Z M 17.125 24.210938 " fill-opacity="1" fill-rule="nonzero"/><path fill="#46b65e" d="M 14.0625 25.679688 C 14.070312 25.738281 14.121094 25.78125 14.179688 25.78125 C 14.183594 25.78125 14.1875 25.78125 14.191406 25.777344 C 15.601562 25.609375 16.699219 24.511719 17.105469 24.046875 C 17.144531 24 17.140625 23.925781 17.09375 23.882812 C 17.042969 23.84375 16.972656 23.847656 16.929688 23.894531 C 16.929688 23.894531 16.929688 23.898438 16.925781 23.898438 C 16.445312 23.300781 15.585938 23.121094 14.894531 23.515625 C 14.179688 23.921875 13.898438 24.800781 14.222656 25.539062 C 14.203125 25.542969 14.183594 25.546875 14.164062 25.550781 C 14.097656 25.554688 14.054688 25.613281 14.0625 25.679688 Z M 14.0625 25.679688 " fill-opacity="1" fill-rule="nonzero"/><path fill="#46b65e" d="M 14.695312 25.976562 C 14.722656 25.96875 14.746094 25.960938 14.773438 25.957031 L 14.753906 25.882812 C 14.726562 25.886719 14.703125 25.894531 14.679688 25.898438 Z M 14.695312 25.976562 " fill-opacity="1" fill-rule="nonzero"/><path fill="#46b65e" d="M 16.003906 25.320312 C 15.984375 25.332031 15.964844 25.347656 15.941406 25.359375 L 15.980469 25.425781 C 16.003906 25.410156 16.027344 25.398438 16.046875 25.382812 Z M 16.003906 25.320312 " fill-opacity="1" fill-rule="nonzero"/><path fill="#46b65e" d="M 15.402344 25.648438 C 15.378906 25.660156 15.355469 25.671875 15.332031 25.679688 L 15.359375 25.753906 C 15.386719 25.742188 15.410156 25.730469 15.433594 25.71875 Z M 15.402344 25.648438 " fill-opacity="1" fill-rule="nonzero"/><path fill="#46b65e" d="M 15.21875 25.8125 L 15.1875 25.738281 C 15.164062 25.75 15.140625 25.757812 15.117188 25.765625 L 15.144531 25.839844 C 15.167969 25.828125 15.191406 25.820312 15.21875 25.8125 Z M 15.21875 25.8125 " fill-opacity="1" fill-rule="nonzero"/><path fill="#46b65e" d="M 14.996094 25.890625 L 14.972656 25.816406 C 14.949219 25.824219 14.925781 25.832031 14.898438 25.839844 L 14.921875 25.914062 C 14.949219 25.90625 14.972656 25.898438 14.996094 25.890625 Z M 14.996094 25.890625 " fill-opacity="1" fill-rule="nonzero"/><path fill="#46b65e" d="M 15.808594 25.441406 C 15.789062 25.453125 15.765625 25.464844 15.742188 25.476562 L 15.78125 25.546875 C 15.804688 25.53125 15.828125 25.519531 15.847656 25.507812 Z M 15.808594 25.441406 " fill-opacity="1" fill-rule="nonzero"/><path fill="#46b65e" d="M 15.609375 25.550781 C 15.585938 25.5625 15.5625 25.574219 15.539062 25.585938 L 15.574219 25.652344 C 15.597656 25.640625 15.621094 25.628906 15.644531 25.617188 Z M 15.609375 25.550781 " fill-opacity="1" fill-rule="nonzero"/><path fill="#46b65e" d="M 15.890625 25.675781 L 15.929688 25.742188 C 15.953125 25.730469 15.976562 25.714844 15.996094 25.703125 L 15.957031 25.636719 C 15.9375 25.648438 15.914062 25.660156 15.890625 25.675781 Z M 15.890625 25.675781 " fill-opacity="1" fill-rule="nonzero"/><path fill="#46b65e" d="M 15.265625 25.957031 L 15.289062 26.03125 C 15.316406 26.023438 15.339844 26.011719 15.363281 26.003906 L 15.335938 25.933594 C 15.3125 25.941406 15.289062 25.949219 15.265625 25.957031 Z M 15.265625 25.957031 " fill-opacity="1" fill-rule="nonzero"/><path fill="#46b65e" d="M 16.195312 25.582031 L 16.152344 25.515625 C 16.132812 25.53125 16.113281 25.542969 16.089844 25.558594 L 16.128906 25.625 C 16.152344 25.609375 16.175781 25.59375 16.195312 25.582031 Z M 16.195312 25.582031 " fill-opacity="1" fill-rule="nonzero"/><path fill="#46b65e" d="M 15.070312 26.105469 C 15.09375 26.097656 15.117188 26.089844 15.144531 26.082031 L 15.121094 26.007812 C 15.09375 26.015625 15.070312 26.023438 15.046875 26.03125 Z M 15.070312 26.105469 " fill-opacity="1" fill-rule="nonzero"/><path fill="#46b65e" d="M 15.6875 25.78125 L 15.71875 25.851562 C 15.746094 25.839844 15.769531 25.828125 15.789062 25.816406 L 15.753906 25.746094 C 15.734375 25.757812 15.710938 25.769531 15.6875 25.78125 Z M 15.6875 25.78125 " fill-opacity="1" fill-rule="nonzero"/><path fill="#46b65e" d="M 15.476562 25.875 L 15.507812 25.945312 C 15.53125 25.933594 15.554688 25.925781 15.578125 25.914062 L 15.546875 25.84375 C 15.523438 25.855469 15.5 25.863281 15.476562 25.875 Z M 15.476562 25.875 " fill-opacity="1" fill-rule="nonzero"/><path fill="#46b65e" d="M 14.824219 26.097656 L 14.84375 26.171875 C 14.871094 26.164062 14.894531 26.15625 14.921875 26.148438 L 14.898438 26.074219 C 14.875 26.082031 14.851562 26.089844 14.824219 26.097656 Z M 14.824219 26.097656 " fill-opacity="1" fill-rule="nonzero"/></svg>