<svg xmlns="http://www.w3.org/2000/svg" xmlns:xlink="http://www.w3.org/1999/xlink" width="50" zoomAndPan="magnify" viewBox="0 0 37.5 37.499999" height="50" preserveAspectRatio="xMidYMid meet" version="1.0"><defs><clipPath id="4f7f8203cb"><path d="M 0 0 L 37.007812 0 L 37.007812 37.007812 L 0 37.007812 Z M 0 0 " clip-rule="nonzero"/></clipPath><clipPath id="b1129fdf7d"><path d="M 0 5.15625 L 37.007812 5.15625 L 37.007812 31.800781 L 0 31.800781 Z M 0 5.15625 " clip-rule="nonzero"/></clipPath></defs><g clip-path="url(#4f7f8203cb)"><path fill="#ffffff" d="M 0 0 L 37.007812 0 L 37.007812 37.007812 L 0 37.007812 Z M 0 0 " fill-opacity="1" fill-rule="nonzero"/><path fill="#ffffff" d="M 0 0 L 37.007812 0 L 37.007812 37.007812 L 0 37.007812 Z M 0 0 " fill-opacity="1" fill-rule="nonzero"/></g><g clip-path="url(#b1129fdf7d)"><path fill="#46b65e" d="M 35.679688 31.539062 C 35.699219 31.539062 35.71875 31.535156 35.738281 31.53125 C 35.777344 31.527344 36.03125 31.328125 35.886719 30.566406 C 35.816406 30.210938 35.484375 29.949219 35.277344 29.636719 C 35.222656 29.550781 35.171875 29.464844 35.132812 29.375 C 34.957031 28.992188 34.640625 28.179688 34.125 28.316406 C 33.980469 28.355469 33.839844 28.484375 33.699219 28.527344 C 33.5625 28.570312 33.40625 28.535156 33.261719 28.632812 C 32.996094 28.808594 33.082031 28.832031 33.046875 29.113281 C 33.003906 29.476562 32.890625 30.050781 32.648438 30.273438 C 32.5625 30.351562 32.4375 30.453125 32.355469 30.523438 C 32.253906 30.609375 32.296875 30.679688 32.167969 30.726562 C 32.121094 30.742188 31.914062 30.679688 31.839844 30.6875 C 31.71875 30.695312 31.648438 30.816406 31.527344 30.808594 C 31.160156 30.789062 31.203125 30.519531 30.875 30.777344 C 30.644531 30.957031 30.601562 31.109375 30.59375 31.382812 C 30.167969 31.371094 29.742188 31.363281 29.316406 31.351562 C 29.34375 31.304688 29.347656 31.25 29.316406 31.175781 C 29.101562 31.085938 29.195312 30.933594 29.023438 30.789062 C 28.820312 30.613281 28.726562 30.691406 28.488281 30.617188 C 28.335938 30.574219 27.980469 30.503906 27.839844 30.441406 C 27.601562 30.332031 27.671875 30.1875 27.5 30.011719 C 26.902344 29.390625 26.226562 30.011719 25.753906 30.367188 C 25.621094 30.464844 25.332031 30.582031 25.15625 30.75 C 25.054688 30.851562 24.976562 31.121094 25.015625 31.277344 L 24.566406 31.269531 C 24.542969 30.996094 24.589844 30.757812 24.78125 30.601562 C 24.613281 30.597656 24.492188 30.699219 24.417969 30.90625 C 24.359375 30.402344 24.410156 29.8125 24.515625 29.183594 C 24.277344 29.53125 24.117188 30.660156 24.125 31.261719 L 24.117188 31.261719 C 24.09375 30.914062 24.066406 30.15625 24.054688 30.074219 C 23.988281 30.453125 23.953125 30.851562 23.941406 31.261719 L 23.9375 31.261719 C 23.914062 30.636719 23.8125 29.953125 23.390625 29.628906 C 23.644531 30.238281 23.738281 30.699219 23.710938 31.242188 C 23.589844 30.914062 23.421875 30.8125 23.195312 30.667969 C 23.238281 30.453125 23.335938 30.265625 23.515625 30.121094 C 23.25 30.121094 23.058594 30.277344 22.945312 30.601562 C 22.851562 29.808594 22.929688 28.886719 23.09375 27.898438 C 22.710938 28.460938 22.457031 30.324219 22.488281 31.246094 L 22.480469 31.246094 C 22.445312 30.75 22.394531 29.429688 22.375 29.296875 C 22.261719 29.917969 22.207031 30.570312 22.195312 31.242188 L 22.191406 31.242188 C 22.164062 30.242188 22.011719 29.121094 21.332031 28.597656 C 21.730469 29.554688 21.878906 30.277344 21.832031 31.128906 C 21.621094 30.558594 21.320312 30.421875 20.902344 30.152344 C 21.191406 30.597656 21.4375 30.988281 21.566406 31.238281 C 20.546875 31.226562 19.527344 31.222656 18.503906 31.21875 C 18.117188 31.214844 17.730469 31.214844 17.339844 31.214844 C 17.535156 30.984375 17.609375 30.632812 17.476562 30.109375 C 17.140625 27.503906 17.09375 26.566406 16.683594 24 C 16.582031 23.355469 15.351562 21.644531 14.832031 21.25 L 13.488281 19.964844 C 13.316406 19.835938 13.199219 19.664062 13.144531 19.453125 C 13.085938 19.242188 13.101562 19.035156 13.1875 18.835938 L 13.300781 18.632812 L 15.953125 19.996094 C 16.136719 20.207031 16.363281 20.390625 16.59375 20.542969 C 16.59375 20.542969 20.140625 22.800781 20.414062 22.851562 C 20.707031 22.910156 20.976562 22.859375 21.230469 22.703125 L 22.90625 23.570312 L 29.679688 27.140625 L 28.601562 29.179688 C 28.550781 29.273438 28.542969 29.371094 28.574219 29.46875 C 28.605469 29.570312 28.664062 29.644531 28.757812 29.691406 L 28.855469 29.742188 C 28.972656 29.804688 29.089844 29.804688 29.207031 29.742188 L 29.917969 31.140625 C 29.953125 31.210938 30.007812 31.230469 30.082031 31.199219 C 30.15625 31.167969 30.175781 31.113281 30.148438 31.039062 L 29.488281 29.351562 L 29.691406 28.972656 L 30.378906 30.335938 C 30.417969 30.40625 30.472656 30.425781 30.542969 30.394531 L 30.546875 30.390625 C 30.617188 30.359375 30.640625 30.304688 30.609375 30.230469 L 29.9375 28.503906 L 30.105469 28.179688 L 30.792969 29.535156 C 30.828125 29.605469 30.882812 29.625 30.957031 29.589844 C 31.03125 29.558594 31.050781 29.503906 31.023438 29.429688 L 30.351562 27.714844 L 30.570312 27.304688 L 31.257812 28.660156 C 31.292969 28.730469 31.347656 28.75 31.421875 28.714844 C 31.496094 28.683594 31.515625 28.628906 31.488281 28.554688 L 30.816406 26.839844 L 31.085938 26.328125 L 31.804688 27.746094 C 31.839844 27.816406 31.894531 27.835938 31.96875 27.804688 L 31.96875 27.800781 C 32.042969 27.769531 32.066406 27.714844 32.035156 27.640625 L 31.335938 25.851562 L 31.511719 25.515625 L 32.230469 26.933594 C 32.269531 27.007812 32.324219 27.027344 32.394531 26.992188 L 32.398438 26.992188 C 32.46875 26.960938 32.492188 26.90625 32.460938 26.832031 L 31.761719 25.042969 C 31.808594 24.949219 31.816406 24.855469 31.785156 24.757812 C 31.753906 24.65625 31.695312 24.585938 31.601562 24.535156 L 31.507812 24.484375 C 31.414062 24.4375 31.316406 24.425781 31.21875 24.457031 C 31.117188 24.488281 31.042969 24.550781 30.996094 24.644531 L 29.878906 26.757812 L 22.890625 23.070312 L 21.578125 22.378906 C 21.839844 22.019531 21.898438 21.542969 21.621094 21.207031 C 21.496094 21.054688 18.5 18.714844 18.5 18.714844 C 18.109375 18.425781 17.914062 18.042969 17.910156 17.558594 C 17.894531 15.894531 17.742188 14.242188 17.339844 12.609375 C 17.273438 12.339844 17.152344 12.097656 16.976562 11.882812 C 17.179688 11.902344 17.382812 11.902344 17.585938 11.882812 C 19.394531 11.714844 20.726562 10.113281 20.558594 8.304688 C 20.394531 6.496094 18.789062 5.160156 16.980469 5.328125 C 15.171875 5.496094 13.839844 7.097656 14.007812 8.90625 C 14.03125 9.195312 14.097656 9.476562 14.195312 9.75 C 13.886719 9.5625 13.554688 9.441406 13.195312 9.386719 C 11.972656 9.199219 11.34375 9.214844 10.164062 9.480469 C 8.871094 9.773438 7.070312 11.65625 6.4375 12.574219 C 5.875 13.394531 5.222656 14.363281 5.082031 15.300781 C 4.832031 16.984375 5.984375 17.28125 6.644531 16.964844 C 7.058594 16.761719 7.367188 16.152344 7.511719 15.65625 L 8.125 15.972656 C 6.703125 18.570312 6.921875 20.546875 8.132812 21.976562 L 5.929688 27.851562 C 5.628906 28.503906 5.457031 29.453125 5.679688 30.136719 C 5.859375 30.667969 6.085938 31.046875 6.335938 31.28125 C 5.765625 31.292969 5.195312 31.300781 4.625 31.3125 C 4.144531 31.324219 3.664062 31.335938 3.183594 31.347656 C 3.140625 31.039062 3.175781 30.773438 3.386719 30.601562 C 3.21875 30.597656 3.097656 30.699219 3.023438 30.90625 C 2.964844 30.402344 3.015625 29.8125 3.121094 29.183594 C 2.871094 29.550781 2.707031 30.789062 2.734375 31.359375 L 2.730469 31.359375 C 2.707031 31.082031 2.675781 30.164062 2.660156 30.074219 C 2.585938 30.488281 2.550781 30.917969 2.546875 31.363281 C 2.53125 30.710938 2.441406 29.972656 1.996094 29.628906 C 2.25 30.238281 2.347656 30.699219 2.316406 31.242188 C 2.183594 30.878906 1.992188 30.792969 1.722656 30.621094 C 1.933594 30.941406 2.109375 31.222656 2.175781 31.371094 C 1.449219 31.390625 0.726562 31.414062 0 31.445312 C 0.769531 31.480469 1.542969 31.511719 2.3125 31.539062 C 3.082031 31.566406 3.855469 31.589844 4.625 31.613281 C 6.167969 31.65625 7.707031 31.691406 9.25 31.71875 C 12.335938 31.777344 15.417969 31.8125 18.503906 31.824219 C 21.585938 31.839844 24.671875 31.828125 27.753906 31.796875 C 29.296875 31.78125 30.839844 31.757812 32.378906 31.726562 C 33.152344 31.710938 33.921875 31.695312 34.691406 31.671875 C 35.464844 31.652344 36.234375 31.628906 37.007812 31.597656 C 36.566406 31.578125 36.121094 31.558594 35.679688 31.539062 Z M 14.703125 16.476562 C 14.976562 16.421875 15.203125 16.984375 15.230469 17.261719 L 15.476562 18.984375 C 15.484375 19.054688 15.496094 19.125 15.511719 19.191406 L 13.566406 18.167969 L 14.035156 17.34375 C 14.25 17.066406 14.617188 16.496094 14.703125 16.476562 Z M 7.65625 15.0625 C 8.039062 13.75 8.871094 13.023438 9.605469 12.769531 C 9.878906 12.671875 10.023438 12.550781 10.289062 12.660156 C 10.789062 12.859375 9.871094 13.449219 9.664062 13.707031 C 9.171875 14.320312 8.757812 14.90625 8.417969 15.464844 Z M 7.769531 31.261719 C 7.9375 31.09375 8.089844 30.871094 8.214844 30.589844 L 11.382812 24.027344 C 11.449219 24.050781 11.511719 24.074219 11.574219 24.09375 C 12.882812 24.40625 13.546875 24.457031 14.054688 26.875 L 14.472656 30.128906 C 14.511719 30.503906 14.742188 30.949219 15.054688 31.210938 C 13.121094 31.214844 11.1875 31.222656 9.253906 31.242188 C 8.757812 31.25 8.265625 31.253906 7.769531 31.261719 Z M 23.183594 30.726562 C 23.320312 30.933594 23.433594 31.121094 23.507812 31.253906 L 23.1875 31.25 C 23.164062 31.066406 23.160156 30.886719 23.183594 30.726562 Z M 23.183594 30.726562 " fill-opacity="1" fill-rule="nonzero"/></g></svg>