<svg xmlns="http://www.w3.org/2000/svg" xmlns:xlink="http://www.w3.org/1999/xlink" width="50" zoomAndPan="magnify" viewBox="0 0 37.5 37.499999" height="50" preserveAspectRatio="xMidYMid meet" version="1.0"><defs><clipPath id="7865af2ffd"><path d="M 0 0 L 37.007812 0 L 37.007812 37.007812 L 0 37.007812 Z M 0 0 " clip-rule="nonzero"/></clipPath><clipPath id="69d8085a89"><path d="M 28.414062 6.265625 L 36.683594 6.265625 L 36.683594 13.804688 L 28.414062 13.804688 Z M 28.414062 6.265625 " clip-rule="nonzero"/></clipPath><clipPath id="604194952a"><path d="M 3.710938 23.527344 L 31.390625 23.527344 L 31.390625 30.671875 L 3.710938 30.671875 Z M 3.710938 23.527344 " clip-rule="nonzero"/></clipPath><clipPath id="96f8e11f6d"><path d="M 0.417969 18 L 6 18 L 6 23 L 0.417969 23 Z M 0.417969 18 " clip-rule="nonzero"/></clipPath></defs><g clip-path="url(#7865af2ffd)"><path fill="#ffffff" d="M 0 0 L 37.007812 0 L 37.007812 37.007812 L 0 37.007812 Z M 0 0 " fill-opacity="1" fill-rule="nonzero"/><path fill="#ffffff" d="M 0 0 L 37.007812 0 L 37.007812 37.007812 L 0 37.007812 Z M 0 0 " fill-opacity="1" fill-rule="nonzero"/></g><path fill="#46b65e" d="M 26.082031 26.824219 C 25.921875 26.824219 25.773438 26.726562 25.71875 26.566406 C 25.652344 26.367188 25.757812 26.152344 25.953125 26.085938 C 25.960938 26.082031 25.972656 26.074219 25.980469 26.070312 C 26.015625 26.046875 26.070312 26.019531 26.136719 25.992188 C 27.972656 25.261719 29.527344 23.914062 30.511719 22.207031 C 30.566406 22.117188 30.609375 22.039062 30.648438 21.96875 C 30.675781 21.925781 30.707031 21.878906 30.730469 21.835938 C 30.683594 21.8125 30.632812 21.78125 30.582031 21.753906 C 30.515625 21.71875 30.445312 21.675781 30.363281 21.632812 L 29.746094 21.273438 L 24.507812 18.25 C 24.324219 18.144531 24.261719 17.914062 24.367188 17.730469 C 24.472656 17.546875 24.703125 17.484375 24.886719 17.589844 L 30.125 20.613281 L 30.746094 20.96875 C 30.820312 21.015625 30.894531 21.054688 30.953125 21.085938 C 31.257812 21.257812 31.460938 21.371094 31.527344 21.621094 C 31.59375 21.867188 31.480469 22.0625 31.304688 22.359375 C 31.261719 22.425781 31.21875 22.5 31.167969 22.585938 C 30.09375 24.445312 28.40625 25.910156 26.40625 26.703125 C 26.402344 26.703125 26.398438 26.707031 26.394531 26.707031 C 26.386719 26.707031 26.375 26.714844 26.367188 26.71875 C 26.328125 26.742188 26.269531 26.777344 26.195312 26.804688 C 26.160156 26.816406 26.121094 26.824219 26.082031 26.824219 Z M 26.394531 26.710938 Z M 25.960938 26.082031 Z M 21.675781 24.632812 C 21.484375 24.632812 21.320312 24.488281 21.296875 24.296875 C 21.289062 24.207031 21.269531 24.113281 21.257812 24.015625 C 21.238281 23.894531 21.214844 23.769531 21.203125 23.632812 C 21.03125 22.4375 21.101562 21.207031 21.398438 19.976562 C 21.449219 19.769531 21.65625 19.644531 21.859375 19.695312 C 22.0625 19.746094 22.1875 19.953125 22.136719 20.15625 C 21.859375 21.296875 21.796875 22.433594 21.953125 23.535156 C 21.953125 23.539062 21.957031 23.542969 21.957031 23.550781 C 21.96875 23.667969 21.988281 23.78125 22.003906 23.894531 C 22.019531 23.996094 22.039062 24.101562 22.050781 24.214844 C 22.074219 24.421875 21.921875 24.609375 21.714844 24.632812 C 21.703125 24.632812 21.691406 24.632812 21.675781 24.632812 " fill-opacity="1" fill-rule="evenodd"/><path fill="#46b65e" d="M 28.082031 20.253906 C 28.015625 20.253906 27.949219 20.238281 27.890625 20.199219 C 27.707031 20.097656 27.644531 19.863281 27.753906 19.679688 L 31.800781 12.679688 C 31.90625 12.496094 32.136719 12.433594 32.320312 12.542969 C 32.503906 12.644531 32.566406 12.878906 32.460938 13.0625 L 28.410156 20.0625 C 28.339844 20.183594 28.210938 20.253906 28.082031 20.253906 Z M 26.296875 19.230469 C 26.425781 19.230469 26.554688 19.160156 26.625 19.039062 L 30.671875 12.039062 C 30.78125 11.855469 30.71875 11.621094 30.535156 11.515625 C 30.351562 11.410156 30.121094 11.472656 30.015625 11.65625 L 25.964844 18.65625 C 25.859375 18.839844 25.921875 19.074219 26.105469 19.175781 C 26.164062 19.214844 26.230469 19.230469 26.296875 19.230469 " fill-opacity="1" fill-rule="evenodd"/><path fill="#46b65e" d="M 26.636719 22.394531 C 26.332031 22.394531 26.027344 22.3125 25.753906 22.160156 L 25.492188 22.019531 C 25.492188 22.015625 25.488281 22.015625 25.484375 22.011719 C 25.074219 21.78125 24.785156 21.398438 24.664062 20.941406 C 24.542969 20.484375 24.605469 20.011719 24.84375 19.609375 L 25.535156 18.398438 C 25.636719 18.214844 25.867188 18.152344 26.050781 18.253906 C 26.234375 18.359375 26.300781 18.589844 26.195312 18.773438 L 25.503906 19.988281 C 25.503906 19.992188 25.503906 19.992188 25.503906 19.992188 C 25.371094 20.21875 25.332031 20.488281 25.402344 20.746094 C 25.472656 21.003906 25.632812 21.21875 25.863281 21.347656 L 26.117188 21.488281 C 26.121094 21.492188 26.125 21.492188 26.125 21.492188 C 26.613281 21.773438 27.210938 21.617188 27.488281 21.136719 C 27.488281 21.136719 27.488281 21.132812 27.492188 21.132812 L 28.179688 19.945312 C 28.285156 19.761719 28.519531 19.699219 28.703125 19.804688 C 28.882812 19.910156 28.945312 20.144531 28.839844 20.328125 L 28.148438 21.519531 C 27.914062 21.925781 27.535156 22.21875 27.082031 22.339844 C 26.9375 22.375 26.785156 22.394531 26.636719 22.394531 " fill-opacity="1" fill-rule="evenodd"/><g clip-path="url(#69d8085a89)"><path fill="#46b65e" d="M 33.671875 13.777344 C 33.191406 13.777344 32.714844 13.65625 32.296875 13.417969 C 32.296875 13.417969 32.296875 13.417969 32.292969 13.417969 L 29.796875 11.96875 C 29.1875 11.632812 28.734375 11.054688 28.523438 10.335938 C 28.519531 10.332031 28.519531 10.328125 28.519531 10.320312 C 28.339844 9.597656 28.4375 8.871094 28.796875 8.273438 L 29.675781 6.734375 C 29.792969 6.515625 30 6.359375 30.246094 6.296875 C 30.492188 6.230469 30.753906 6.273438 30.964844 6.402344 L 36.527344 9.613281 C 36.96875 9.855469 37.132812 10.4375 36.886719 10.886719 C 36.886719 10.890625 36.886719 10.894531 36.882812 10.894531 L 36.003906 12.417969 C 35.644531 13.035156 35.058594 13.484375 34.351562 13.691406 C 34.34375 13.695312 34.339844 13.695312 34.335938 13.695312 C 34.121094 13.75 33.894531 13.777344 33.671875 13.777344 Z M 32.675781 12.753906 C 33.121094 13.003906 33.65625 13.078125 34.148438 12.957031 C 34.515625 12.847656 35.019531 12.601562 35.351562 12.035156 L 36.226562 10.519531 C 36.269531 10.4375 36.234375 10.316406 36.164062 10.277344 C 36.160156 10.273438 36.15625 10.273438 36.15625 10.273438 L 30.582031 7.058594 C 30.578125 7.054688 30.574219 7.054688 30.570312 7.046875 C 30.519531 7.015625 30.46875 7.023438 30.441406 7.03125 C 30.398438 7.042969 30.363281 7.066406 30.347656 7.101562 C 30.347656 7.101562 30.34375 7.105469 30.34375 7.109375 L 29.464844 8.65625 C 29.460938 8.65625 29.460938 8.664062 29.460938 8.664062 C 29.203125 9.082031 29.132812 9.605469 29.265625 10.128906 C 29.375 10.496094 29.621094 11 30.175781 11.296875 C 30.175781 11.300781 30.179688 11.304688 30.183594 11.304688 Z M 36.558594 10.707031 Z M 33.652344 12.660156 C 33.792969 12.660156 33.933594 12.640625 34.066406 12.59375 C 34.472656 12.492188 34.816406 12.238281 35.027344 11.871094 L 35.648438 10.824219 C 35.699219 10.738281 35.714844 10.632812 35.6875 10.535156 C 35.664062 10.4375 35.597656 10.351562 35.511719 10.300781 L 30.890625 7.632812 C 30.710938 7.527344 30.480469 7.589844 30.371094 7.769531 L 29.753906 8.820312 C 29.546875 9.167969 29.492188 9.597656 29.589844 10.027344 C 29.59375 10.039062 29.59375 10.050781 29.601562 10.0625 C 29.734375 10.472656 30 10.8125 30.339844 11.011719 C 30.34375 11.011719 30.34375 11.011719 30.34375 11.011719 L 32.867188 12.441406 C 33.113281 12.585938 33.386719 12.660156 33.652344 12.660156 Z M 30.722656 10.351562 L 33.246094 11.777344 C 33.246094 11.777344 33.246094 11.777344 33.25 11.777344 C 33.445312 11.894531 33.667969 11.925781 33.84375 11.863281 C 33.855469 11.859375 33.867188 11.859375 33.878906 11.855469 C 34.089844 11.804688 34.261719 11.679688 34.375 11.484375 L 34.796875 10.765625 L 30.839844 8.480469 L 30.414062 9.207031 C 30.308594 9.378906 30.28125 9.601562 30.332031 9.835938 C 30.40625 10.066406 30.550781 10.25 30.722656 10.351562 " fill-opacity="1" fill-rule="evenodd"/></g><path fill="#46b65e" d="M 28.9375 22.660156 C 28.875 22.660156 28.808594 22.640625 28.746094 22.605469 C 28.566406 22.5 28.503906 22.265625 28.609375 22.085938 L 29.441406 20.65625 C 29.550781 20.476562 29.785156 20.414062 29.964844 20.515625 C 30.144531 20.625 30.207031 20.855469 30.101562 21.039062 L 29.269531 22.46875 C 29.195312 22.589844 29.070312 22.660156 28.9375 22.660156 " fill-opacity="1" fill-rule="evenodd"/><g clip-path="url(#604194952a)"><path fill="#46b65e" d="M 30.914062 30.730469 L 4.152344 30.730469 C 3.941406 30.730469 3.769531 30.558594 3.769531 30.347656 C 3.769531 29.519531 4.085938 28.742188 4.664062 28.160156 C 5.242188 27.574219 6.015625 27.253906 6.84375 27.253906 C 7.148438 27.253906 7.433594 27.292969 7.703125 27.371094 C 7.933594 26.96875 8.261719 26.621094 8.660156 26.351562 C 9.175781 26.007812 9.773438 25.824219 10.390625 25.824219 C 10.664062 25.824219 10.917969 25.855469 11.152344 25.921875 C 11.289062 25.339844 11.59375 24.8125 12.03125 24.402344 C 12.589844 23.875 13.328125 23.585938 14.105469 23.585938 C 14.988281 23.585938 15.820312 23.964844 16.394531 24.617188 C 16.75 24.4375 17.140625 24.347656 17.53125 24.347656 C 18.183594 24.347656 18.804688 24.589844 19.285156 25.019531 C 19.757812 24.316406 20.574219 23.871094 21.460938 23.871094 C 22.644531 23.871094 23.652344 24.648438 23.964844 25.742188 C 24.203125 25.6875 24.4375 25.65625 24.675781 25.65625 C 25.847656 25.65625 26.914062 26.328125 27.4375 27.355469 C 27.699219 27.285156 27.960938 27.253906 28.222656 27.253906 C 29.917969 27.253906 31.296875 28.640625 31.296875 30.347656 C 31.296875 30.558594 31.125 30.730469 30.914062 30.730469 Z M 4.5625 29.96875 L 30.503906 29.96875 C 30.320312 28.859375 29.371094 28.015625 28.222656 28.015625 C 27.9375 28.015625 27.644531 28.070312 27.359375 28.179688 C 27.265625 28.214844 27.15625 28.214844 27.0625 28.171875 C 26.972656 28.128906 26.898438 28.050781 26.863281 27.953125 C 26.53125 27.035156 25.648438 26.417969 24.675781 26.417969 C 24.386719 26.417969 24.09375 26.472656 23.808594 26.582031 C 23.699219 26.625 23.574219 26.613281 23.472656 26.550781 C 23.375 26.488281 23.308594 26.382812 23.292969 26.265625 C 23.191406 25.332031 22.40625 24.628906 21.457031 24.628906 C 20.679688 24.628906 19.980469 25.105469 19.71875 25.8125 C 19.667969 25.945312 19.550781 26.035156 19.410156 26.054688 C 19.269531 26.074219 19.132812 26.011719 19.050781 25.898438 C 18.703125 25.402344 18.128906 25.109375 17.53125 25.109375 C 17.171875 25.109375 16.8125 25.21875 16.503906 25.425781 C 16.332031 25.539062 16.097656 25.496094 15.980469 25.324219 C 15.558594 24.714844 14.855469 24.347656 14.105469 24.347656 C 12.898438 24.347656 11.921875 25.257812 11.84375 26.46875 C 11.832031 26.59375 11.761719 26.707031 11.652344 26.773438 C 11.542969 26.835938 11.40625 26.839844 11.292969 26.78125 C 11.027344 26.648438 10.730469 26.585938 10.390625 26.585938 C 9.464844 26.585938 8.601562 27.152344 8.242188 27.996094 C 8.203125 28.09375 8.125 28.164062 8.027344 28.203125 C 7.933594 28.242188 7.824219 28.238281 7.730469 28.195312 C 7.472656 28.074219 7.171875 28.015625 6.84375 28.015625 C 5.695312 28.015625 4.746094 28.859375 4.5625 29.96875 " fill-opacity="1" fill-rule="evenodd"/></g><path fill="#46b65e" d="M 7.390625 19.707031 C 7.367188 19.707031 7.347656 19.703125 7.324219 19.699219 C 6.09375 19.488281 5.3125 18.949219 5.007812 18.109375 C 4.679688 17.199219 4.941406 15.988281 5.789062 14.515625 C 6.390625 13.460938 7.074219 12.660156 7.101562 12.625 C 7.171875 12.542969 7.28125 12.492188 7.390625 12.492188 C 7.503906 12.492188 7.609375 12.542969 7.683594 12.625 C 7.710938 12.660156 8.390625 13.460938 8.992188 14.515625 C 9.832031 15.992188 10.09375 17.207031 9.765625 18.113281 C 9.460938 18.957031 8.683594 19.488281 7.460938 19.703125 C 7.433594 19.703125 7.410156 19.707031 7.390625 19.707031 Z M 7.390625 13.484375 C 7.140625 13.808594 6.777344 14.316406 6.441406 14.902344 C 5.726562 16.152344 5.480469 17.171875 5.726562 17.851562 C 5.925781 18.402344 6.484375 18.769531 7.390625 18.9375 C 8.289062 18.769531 8.84375 18.402344 9.042969 17.851562 C 9.289062 17.175781 9.042969 16.152344 8.332031 14.902344 C 8 14.316406 7.636719 13.808594 7.390625 13.484375 " fill-opacity="1" fill-rule="evenodd"/><g clip-path="url(#96f8e11f6d)"><path fill="#46b65e" d="M 3.832031 22.691406 C 3.726562 22.691406 3.625 22.683594 3.519531 22.664062 C 2.726562 22.519531 1.964844 21.835938 1.257812 20.625 C 0.757812 19.765625 0.46875 18.960938 0.457031 18.925781 C 0.421875 18.820312 0.433594 18.703125 0.488281 18.605469 C 0.542969 18.507812 0.640625 18.441406 0.75 18.421875 C 0.785156 18.414062 1.628906 18.265625 2.617188 18.273438 C 4.019531 18.28125 4.988281 18.601562 5.507812 19.21875 C 5.992188 19.792969 6.054688 20.578125 5.699219 21.546875 C 5.683594 21.589844 5.660156 21.628906 5.636719 21.660156 C 5.0625 22.347656 4.457031 22.691406 3.832031 22.691406 Z M 1.347656 19.109375 C 1.769531 20.097656 2.660156 21.738281 3.65625 21.914062 C 4.09375 21.992188 4.546875 21.761719 5.007812 21.226562 C 5.242188 20.558594 5.214844 20.054688 4.929688 19.714844 C 4.277344 18.9375 2.414062 18.980469 1.347656 19.109375 Z M 1.347656 19.109375 " fill-opacity="1" fill-rule="evenodd"/></g><path fill="#46b65e" d="M 10.433594 23.953125 C 9.792969 23.953125 9.179688 23.601562 8.597656 22.902344 C 8.570312 22.867188 8.546875 22.828125 8.53125 22.789062 C 8.171875 21.800781 8.234375 21.003906 8.726562 20.421875 C 9.253906 19.796875 10.246094 19.472656 11.671875 19.464844 C 12.683594 19.457031 13.542969 19.609375 13.578125 19.617188 C 13.6875 19.636719 13.78125 19.707031 13.839844 19.800781 C 13.894531 19.898438 13.90625 20.011719 13.867188 20.121094 C 13.855469 20.15625 13.5625 20.980469 13.050781 21.851562 C 12.328125 23.085938 11.554688 23.785156 10.746094 23.925781 C 10.640625 23.945312 10.539062 23.953125 10.433594 23.953125 Z M 9.226562 22.464844 C 9.699219 23.015625 10.164062 23.253906 10.613281 23.175781 C 11.179688 23.074219 11.792969 22.488281 12.386719 21.476562 C 12.644531 21.039062 12.84375 20.605469 12.976562 20.300781 C 12.648438 20.261719 12.171875 20.21875 11.667969 20.226562 C 10.496094 20.234375 9.683594 20.472656 9.3125 20.914062 C 9.015625 21.261719 8.988281 21.785156 9.226562 22.464844 " fill-opacity="1" fill-rule="evenodd"/><path fill="#46b65e" d="M 7.390625 27.941406 C 7.179688 27.941406 7.007812 27.769531 7.007812 27.558594 L 7.007812 16.085938 C 7.007812 15.878906 7.179688 15.707031 7.390625 15.707031 C 7.597656 15.707031 7.769531 15.878906 7.769531 16.085938 L 7.769531 27.558594 C 7.769531 27.769531 7.597656 27.941406 7.390625 27.941406 " fill-opacity="1" fill-rule="evenodd"/><path fill="#46b65e" d="M 7.390625 24.039062 C 7.179688 24.039062 7.007812 23.867188 7.007812 23.65625 C 7.007812 23.410156 7.183594 23.1875 7.65625 22.839844 C 7.921875 22.640625 8.296875 22.394531 8.765625 22.113281 C 9.550781 21.636719 10.34375 21.207031 10.351562 21.203125 C 10.539062 21.101562 10.769531 21.171875 10.867188 21.359375 C 10.96875 21.542969 10.898438 21.773438 10.714844 21.875 C 10.707031 21.878906 10.015625 22.25 9.296875 22.683594 C 8.097656 23.398438 7.820312 23.679688 7.761719 23.75 C 7.71875 23.917969 7.566406 24.039062 7.390625 24.039062 Z M 7.390625 24.039062 " fill-opacity="1" fill-rule="evenodd"/><path fill="#46b65e" d="M 7.390625 23.15625 C 7.277344 23.15625 7.167969 23.109375 7.089844 23.011719 C 6.269531 21.972656 3.527344 20.558594 3.5 20.542969 C 3.3125 20.449219 3.238281 20.21875 3.335938 20.03125 C 3.433594 19.84375 3.664062 19.769531 3.847656 19.867188 C 3.96875 19.929688 6.769531 21.371094 7.691406 22.542969 C 7.820312 22.707031 7.792969 22.945312 7.625 23.078125 C 7.558594 23.132812 7.472656 23.15625 7.390625 23.15625 " fill-opacity="1" fill-rule="evenodd"/><path fill="#46b65e" d="M 18.460938 15.46875 C 18.441406 15.46875 18.417969 15.464844 18.398438 15.460938 C 16.976562 15.21875 16.078125 14.601562 15.730469 13.640625 C 15.351562 12.585938 15.65625 11.183594 16.636719 9.460938 C 17.34375 8.222656 18.140625 7.285156 18.171875 7.242188 C 18.246094 7.15625 18.351562 7.109375 18.464844 7.109375 C 18.574219 7.109375 18.679688 7.160156 18.753906 7.242188 C 18.789062 7.285156 19.585938 8.222656 20.289062 9.460938 C 21.269531 11.183594 21.574219 12.585938 21.199219 13.640625 C 20.851562 14.601562 19.953125 15.21875 18.53125 15.460938 C 18.503906 15.464844 18.484375 15.46875 18.460938 15.46875 Z M 18.460938 8.101562 C 18.171875 8.476562 17.710938 9.113281 17.292969 9.847656 C 16.441406 11.339844 16.152344 12.558594 16.445312 13.378906 C 16.691406 14.054688 17.367188 14.5 18.460938 14.699219 C 19.554688 14.496094 20.234375 14.054688 20.476562 13.378906 C 20.769531 12.558594 20.480469 11.339844 19.632812 9.847656 C 19.214844 9.113281 18.75 8.476562 18.460938 8.101562 " fill-opacity="1" fill-rule="evenodd"/><path fill="#46b65e" d="M 14.28125 18.976562 C 14.167969 18.976562 14.050781 18.964844 13.933594 18.945312 C 13.023438 18.78125 12.148438 17.988281 11.324219 16.582031 C 10.738281 15.578125 10.402344 14.632812 10.386719 14.59375 C 10.347656 14.488281 10.359375 14.371094 10.417969 14.273438 C 10.472656 14.175781 10.570312 14.109375 10.679688 14.089844 C 10.71875 14.082031 11.703125 13.90625 12.863281 13.914062 C 14.484375 13.925781 15.609375 14.292969 16.203125 15 C 16.753906 15.652344 16.824219 16.550781 16.414062 17.667969 C 16.398438 17.707031 16.378906 17.746094 16.347656 17.78125 C 15.695312 18.574219 15 18.976562 14.28125 18.976562 Z M 11.277344 14.773438 C 11.429688 15.132812 11.671875 15.667969 11.988281 16.207031 C 12.679688 17.390625 13.398438 18.074219 14.070312 18.195312 C 14.605469 18.289062 15.160156 18.003906 15.722656 17.347656 C 16.007812 16.535156 15.972656 15.910156 15.621094 15.492188 C 15.183594 14.96875 14.230469 14.6875 12.867188 14.675781 C 12.242188 14.671875 11.660156 14.726562 11.277344 14.773438 Z M 11.277344 14.773438 " fill-opacity="1" fill-rule="evenodd"/><path fill="#46b65e" d="M 22.058594 20.460938 C 21.332031 20.460938 20.625 20.058594 19.957031 19.261719 C 19.929688 19.226562 19.90625 19.1875 19.890625 19.148438 C 19.472656 18.011719 19.539062 17.097656 20.101562 16.425781 C 20.707031 15.703125 21.855469 15.332031 23.511719 15.316406 C 24.695312 15.308594 25.703125 15.488281 25.746094 15.496094 C 25.855469 15.515625 25.949219 15.585938 26.007812 15.679688 C 26.0625 15.777344 26.074219 15.894531 26.035156 16 C 26.019531 16.039062 25.675781 17 25.078125 18.023438 C 24.242188 19.453125 23.347656 20.261719 22.417969 20.425781 C 22.296875 20.453125 22.179688 20.460938 22.058594 20.460938 Z M 20.582031 18.820312 C 21.15625 19.488281 21.726562 19.777344 22.28125 19.679688 C 22.972656 19.554688 23.707031 18.851562 24.414062 17.648438 C 24.742188 17.089844 24.992188 16.542969 25.144531 16.179688 C 24.753906 16.132812 24.152344 16.074219 23.503906 16.078125 C 22.105469 16.089844 21.128906 16.382812 20.679688 16.917969 C 20.320312 17.347656 20.285156 17.988281 20.582031 18.820312 " fill-opacity="1" fill-rule="evenodd"/><path fill="#46b65e" d="M 18.460938 25.324219 C 18.253906 25.324219 18.082031 25.152344 18.082031 24.945312 L 18.082031 11.277344 C 18.082031 11.066406 18.253906 10.894531 18.460938 10.894531 C 18.671875 10.894531 18.84375 11.066406 18.84375 11.277344 L 18.84375 24.945312 C 18.84375 25.152344 18.671875 25.324219 18.460938 25.324219 " fill-opacity="1" fill-rule="evenodd"/><path fill="#46b65e" d="M 18.460938 20.585938 C 18.253906 20.585938 18.082031 20.414062 18.082031 20.207031 C 18.082031 19.933594 18.285156 19.675781 18.808594 19.28125 C 19.125 19.042969 19.5625 18.753906 20.109375 18.425781 C 21.03125 17.871094 21.964844 17.375 21.972656 17.371094 C 22.160156 17.273438 22.390625 17.339844 22.488281 17.53125 C 22.585938 17.714844 22.515625 17.945312 22.328125 18.042969 C 22.320312 18.046875 21.496094 18.488281 20.640625 18.992188 C 19.179688 19.863281 18.886719 20.195312 18.835938 20.273438 C 18.804688 20.453125 18.648438 20.585938 18.460938 20.585938 " fill-opacity="1" fill-rule="evenodd"/><path fill="#46b65e" d="M 18.460938 19.515625 C 18.351562 19.515625 18.238281 19.464844 18.164062 19.371094 C 17.203125 18.164062 13.9375 16.46875 13.90625 16.449219 C 13.722656 16.351562 13.648438 16.121094 13.742188 15.933594 C 13.839844 15.75 14.070312 15.675781 14.257812 15.769531 C 14.398438 15.839844 17.699219 17.558594 18.761719 18.894531 C 18.894531 19.058594 18.867188 19.296875 18.703125 19.429688 C 18.628906 19.488281 18.546875 19.515625 18.460938 19.515625 " fill-opacity="1" fill-rule="evenodd"/></svg>