<svg xmlns="http://www.w3.org/2000/svg" xmlns:xlink="http://www.w3.org/1999/xlink" width="50" zoomAndPan="magnify" viewBox="0 0 37.5 37.499999" height="50" preserveAspectRatio="xMidYMid meet" version="1.0"><defs><clipPath id="2f5365fb75"><path d="M 0 0 L 37.007812 0 L 37.007812 37.007812 L 0 37.007812 Z M 0 0 " clip-rule="nonzero"/></clipPath><clipPath id="4030658617"><path d="M 7 12 L 33 12 L 33 34.960938 L 7 34.960938 Z M 7 12 " clip-rule="nonzero"/></clipPath><clipPath id="f43d3ccb1f"><path d="M 1.710938 6 L 12 6 L 12 27 L 1.710938 27 Z M 1.710938 6 " clip-rule="nonzero"/></clipPath><clipPath id="b7273f249b"><path d="M 27 1.65625 L 33 1.65625 L 33 13 L 27 13 Z M 27 1.65625 " clip-rule="nonzero"/></clipPath></defs><g clip-path="url(#2f5365fb75)"><path fill="#ffffff" d="M 0 0 L 37.007812 0 L 37.007812 37.007812 L 0 37.007812 Z M 0 0 " fill-opacity="1" fill-rule="nonzero"/><path fill="#ffffff" d="M 0 0 L 37.007812 0 L 37.007812 37.007812 L 0 37.007812 Z M 0 0 " fill-opacity="1" fill-rule="nonzero"/></g><g clip-path="url(#4030658617)"><path fill="#46b65e" d="M 32.265625 18.515625 C 31.847656 14.203125 23.183594 12.972656 23.183594 12.972656 L 19.84375 12.972656 C 35.292969 18 25.167969 22.519531 16.191406 25.699219 C 7.214844 28.882812 7.84375 35.042969 7.84375 35.042969 L 28.402344 35.042969 C 24.644531 28.472656 32.683594 22.824219 32.265625 18.515625 " fill-opacity="1" fill-rule="nonzero"/></g><g clip-path="url(#f43d3ccb1f)"><path fill="#46b65e" d="M 11.203125 17.953125 C 11.203125 13.648438 9.074219 6.152344 6.453125 6.152344 C 3.832031 6.152344 1.707031 13.648438 1.707031 17.953125 C 1.707031 21.792969 3.398438 23.101562 5.625 23.339844 L 5.625 25.941406 C 5.625 26.402344 5.996094 26.773438 6.453125 26.773438 C 6.914062 26.773438 7.285156 26.402344 7.285156 25.941406 L 7.285156 23.339844 C 9.511719 23.101562 11.203125 21.792969 11.203125 17.953125 " fill-opacity="1" fill-rule="nonzero"/></g><path fill="#46b65e" d="M 14.84375 21.484375 L 14.84375 23.46875 C 14.84375 23.929688 15.214844 24.300781 15.675781 24.300781 C 16.132812 24.300781 16.503906 23.929688 16.503906 23.46875 L 16.503906 21.484375 C 18.070312 21.246094 19.234375 20.234375 19.234375 17.476562 C 19.234375 14.246094 17.640625 8.625 15.675781 8.625 C 13.707031 8.625 12.113281 14.246094 12.113281 17.476562 C 12.113281 20.234375 13.28125 21.246094 14.84375 21.484375 " fill-opacity="1" fill-rule="nonzero"/><g clip-path="url(#b7273f249b)"><path fill="#46b65e" d="M 29.617188 10.554688 L 29.621094 11.984375 C 29.621094 12.445312 29.996094 12.816406 30.453125 12.816406 C 30.453125 12.816406 30.457031 12.816406 30.457031 12.816406 C 30.914062 12.8125 31.285156 12.441406 31.285156 11.980469 L 31.28125 10.550781 C 32.234375 10.3125 32.917969 9.578125 32.910156 7.816406 C 32.902344 5.574219 31.785156 1.679688 30.421875 1.683594 C 29.054688 1.6875 27.960938 5.589844 27.96875 7.832031 C 27.976562 9.59375 28.664062 10.320312 29.617188 10.554688 " fill-opacity="1" fill-rule="nonzero"/></g><path fill="#46b65e" d="M 24.566406 10.8125 L 24.570312 11.984375 C 24.570312 12.445312 24.945312 12.816406 25.402344 12.816406 C 25.863281 12.8125 26.234375 12.441406 26.234375 11.980469 L 26.230469 10.804688 C 26.878906 10.570312 27.328125 9.984375 27.324219 8.722656 C 27.320312 6.96875 26.445312 3.917969 25.375 3.921875 C 24.308594 3.921875 23.453125 6.980469 23.457031 8.734375 C 23.460938 9.996094 23.914062 10.582031 24.566406 10.8125 " fill-opacity="1" fill-rule="nonzero"/></svg>