<svg xmlns="http://www.w3.org/2000/svg" xmlns:xlink="http://www.w3.org/1999/xlink" width="50" zoomAndPan="magnify" viewBox="0 0 37.5 37.499999" height="50" preserveAspectRatio="xMidYMid meet" version="1.0"><defs><clipPath id="f340038b36"><path d="M 0 0 L 37.007812 0 L 37.007812 37.007812 L 0 37.007812 Z M 0 0 " clip-rule="nonzero"/></clipPath><clipPath id="2600aef480"><path d="M 0.636719 0.59375 L 36.164062 0.59375 L 36.164062 36.117188 L 0.636719 36.117188 Z M 0.636719 0.59375 " clip-rule="nonzero"/></clipPath></defs><g clip-path="url(#f340038b36)"><path fill="#ffffff" d="M 0 0 L 37.007812 0 L 37.007812 37.007812 L 0 37.007812 Z M 0 0 " fill-opacity="1" fill-rule="nonzero"/><path fill="#ffffff" d="M 0 0 L 37.007812 0 L 37.007812 37.007812 L 0 37.007812 Z M 0 0 " fill-opacity="1" fill-rule="nonzero"/></g><g clip-path="url(#2600aef480)"><path fill="#46b65e" d="M 35.914062 35.503906 L 32.738281 35.503906 L 32.738281 16.871094 C 33.648438 16.667969 34.328125 15.855469 34.328125 14.882812 L 34.328125 11.71875 C 34.328125 11.472656 34.128906 11.273438 33.882812 11.273438 L 32.738281 11.273438 L 32.738281 9.820312 L 34.566406 9.820312 C 34.8125 9.820312 35.011719 9.621094 35.011719 9.378906 C 35.011719 9.132812 34.8125 8.933594 34.566406 8.933594 L 30.023438 8.933594 C 29.777344 8.933594 29.578125 9.132812 29.578125 9.378906 C 29.578125 9.621094 29.777344 9.820312 30.023438 9.820312 L 31.851562 9.820312 L 31.851562 11.273438 L 30.703125 11.273438 C 30.457031 11.273438 30.257812 11.472656 30.257812 11.71875 L 30.257812 14.882812 C 30.257812 15.855469 30.941406 16.667969 31.851562 16.871094 L 31.851562 35.503906 L 24.824219 35.503906 L 24.824219 34.21875 L 26.277344 34.21875 C 26.523438 34.21875 26.722656 34.019531 26.722656 33.773438 L 26.722656 31.890625 C 26.722656 31.644531 26.523438 31.445312 26.277344 31.445312 L 24.824219 31.445312 L 24.824219 29.554688 L 26.277344 29.554688 C 26.523438 29.554688 26.722656 29.355469 26.722656 29.113281 L 26.722656 26.085938 C 26.722656 25.839844 26.523438 25.640625 26.277344 25.640625 L 14.464844 25.640625 C 14.21875 25.640625 14.019531 25.839844 14.019531 26.085938 L 14.019531 29.113281 C 14.019531 29.355469 14.21875 29.554688 14.464844 29.554688 L 15.917969 29.554688 L 15.917969 31.445312 L 14.464844 31.445312 C 14.21875 31.445312 14.019531 31.644531 14.019531 31.890625 L 14.019531 33.773438 C 14.019531 34.019531 14.21875 34.21875 14.464844 34.21875 L 15.917969 34.21875 L 15.917969 35.503906 L 8.894531 35.503906 L 8.894531 25.78125 C 12.25 25.554688 14.910156 22.777344 14.910156 19.390625 C 14.910156 17.53125 14.121094 15.808594 12.730469 14.589844 C 13.351562 13.722656 13.699219 12.671875 13.699219 11.574219 C 13.699219 10.023438 13.027344 8.59375 11.847656 7.601562 C 11.921875 7.316406 11.960938 7.019531 11.960938 6.714844 C 11.960938 4.792969 10.386719 3.230469 8.449219 3.230469 C 6.511719 3.230469 4.9375 4.792969 4.9375 6.714844 C 4.9375 7.019531 4.976562 7.316406 5.050781 7.601562 C 3.871094 8.59375 3.199219 10.023438 3.199219 11.574219 C 3.199219 12.671875 3.546875 13.722656 4.167969 14.589844 C 2.777344 15.808594 1.988281 17.53125 1.988281 19.390625 C 1.988281 22.777344 4.648438 25.554688 8.003906 25.78125 L 8.003906 35.503906 L 1.082031 35.503906 C 0.835938 35.503906 0.636719 35.703125 0.636719 35.949219 C 0.636719 36.195312 0.835938 36.394531 1.082031 36.394531 L 35.914062 36.394531 C 36.160156 36.394531 36.359375 36.195312 36.359375 35.949219 C 36.359375 35.703125 36.160156 35.503906 35.914062 35.503906 Z M 31.148438 14.882812 L 31.148438 12.164062 L 33.441406 12.164062 L 33.441406 14.882812 C 33.441406 15.515625 32.925781 16.03125 32.292969 16.03125 C 31.660156 16.03125 31.148438 15.515625 31.148438 14.882812 Z M 2.875 19.390625 C 2.875 17.796875 3.550781 16.3125 4.746094 15.265625 C 4.984375 15.5 5.25 15.71875 5.539062 15.910156 C 5.613281 15.957031 5.699219 15.984375 5.78125 15.984375 C 5.925781 15.984375 6.070312 15.914062 6.152344 15.785156 C 6.289062 15.578125 6.234375 15.300781 6.027344 15.167969 C 4.8125 14.363281 4.085938 13.019531 4.085938 11.574219 C 4.085938 10.386719 4.566406 9.28125 5.414062 8.472656 C 5.609375 8.804688 5.859375 9.105469 6.164062 9.363281 C 6.347656 9.523438 6.628906 9.5 6.789062 9.3125 C 6.949219 9.128906 6.925781 8.847656 6.738281 8.6875 C 6.160156 8.191406 5.824219 7.472656 5.824219 6.714844 C 5.824219 5.285156 7 4.121094 8.449219 4.121094 C 9.894531 4.121094 11.070312 5.285156 11.070312 6.714844 C 11.070312 7.472656 10.738281 8.191406 10.15625 8.6875 C 9.972656 8.847656 9.949219 9.125 10.105469 9.3125 C 10.195312 9.417969 10.320312 9.46875 10.445312 9.46875 C 10.546875 9.46875 10.652344 9.433594 10.734375 9.363281 C 11.035156 9.105469 11.285156 8.804688 11.484375 8.472656 C 12.332031 9.28125 12.808594 10.386719 12.808594 11.574219 C 12.808594 13.019531 12.082031 14.363281 10.867188 15.167969 C 10.664062 15.300781 10.605469 15.578125 10.742188 15.78125 C 10.828125 15.910156 10.96875 15.980469 11.113281 15.980469 C 11.199219 15.980469 11.285156 15.957031 11.359375 15.90625 C 11.648438 15.71875 11.910156 15.5 12.152344 15.265625 C 13.34375 16.3125 14.019531 17.792969 14.019531 19.390625 C 14.019531 22.285156 11.757812 24.664062 8.890625 24.890625 L 8.890625 23.105469 L 12.175781 19.75 C 12.347656 19.574219 12.347656 19.292969 12.171875 19.125 C 11.996094 18.953125 11.714844 18.953125 11.542969 19.128906 L 8.890625 21.835938 L 8.890625 13.0625 L 10.890625 11.023438 C 11.0625 10.847656 11.058594 10.566406 10.882812 10.394531 C 10.707031 10.222656 10.425781 10.226562 10.253906 10.402344 L 8.890625 11.792969 L 8.890625 7.105469 C 8.890625 6.859375 8.691406 6.660156 8.449219 6.660156 C 8.203125 6.660156 8.003906 6.859375 8.003906 7.105469 L 8.003906 18.800781 L 6.613281 17.382812 C 6.441406 17.207031 6.160156 17.203125 5.984375 17.375 C 5.808594 17.546875 5.808594 17.828125 5.980469 18.003906 L 8.003906 20.070312 L 8.003906 24.886719 C 5.136719 24.664062 2.875 22.285156 2.875 19.390625 Z M 14.910156 26.53125 L 25.832031 26.53125 L 25.832031 28.667969 L 14.910156 28.667969 Z M 16.808594 29.554688 L 23.933594 29.554688 L 23.933594 31.445312 L 16.808594 31.445312 Z M 14.910156 32.335938 L 25.832031 32.335938 L 25.832031 33.328125 L 14.910156 33.328125 Z M 16.808594 34.21875 L 23.933594 34.21875 L 23.933594 35.503906 L 16.808594 35.503906 Z M 19.347656 8.996094 C 19.324219 8.753906 19.5 8.535156 19.746094 8.507812 C 20.472656 8.429688 21.195312 8.640625 21.675781 9.070312 C 21.730469 9.121094 21.785156 9.175781 21.835938 9.230469 C 21.882812 9.175781 21.9375 9.121094 21.996094 9.070312 C 22.472656 8.640625 23.195312 8.429688 23.925781 8.507812 C 24.167969 8.535156 24.34375 8.753906 24.320312 8.996094 C 24.292969 9.242188 24.074219 9.417969 23.828125 9.390625 C 23.355469 9.339844 22.878906 9.46875 22.589844 9.730469 C 22.382812 9.914062 22.277344 10.15625 22.277344 10.449219 C 22.277344 10.691406 22.078125 10.890625 21.835938 10.890625 C 21.589844 10.890625 21.390625 10.691406 21.390625 10.449219 C 21.390625 10.15625 21.285156 9.914062 21.078125 9.730469 C 20.789062 9.46875 20.316406 9.339844 19.839844 9.390625 C 19.59375 9.417969 19.375 9.242188 19.347656 8.996094 Z M 14.050781 5.164062 C 14.023438 4.917969 14.199219 4.699219 14.445312 4.671875 C 15.175781 4.59375 15.894531 4.804688 16.375 5.234375 C 16.433594 5.285156 16.484375 5.339844 16.535156 5.394531 C 16.585938 5.339844 16.636719 5.285156 16.695312 5.234375 C 17.175781 4.804688 17.894531 4.59375 18.625 4.671875 C 18.867188 4.699219 19.046875 4.917969 19.019531 5.164062 C 18.996094 5.40625 18.773438 5.582031 18.53125 5.554688 C 18.054688 5.503906 17.578125 5.636719 17.289062 5.894531 C 17.085938 6.078125 16.980469 6.320312 16.980469 6.613281 C 16.980469 6.855469 16.78125 7.054688 16.535156 7.054688 C 16.289062 7.054688 16.089844 6.855469 16.089844 6.613281 C 16.089844 6.320312 15.984375 6.078125 15.78125 5.894531 C 15.492188 5.636719 15.015625 5.503906 14.539062 5.554688 C 14.296875 5.582031 14.074219 5.40625 14.050781 5.164062 Z M 24.648438 5.089844 C 24.625 4.847656 24.800781 4.625 25.042969 4.601562 C 25.773438 4.519531 26.496094 4.730469 26.972656 5.160156 C 27.03125 5.210938 27.085938 5.265625 27.132812 5.324219 C 27.183594 5.265625 27.238281 5.210938 27.292969 5.160156 C 27.773438 4.730469 28.492188 4.519531 29.222656 4.601562 C 29.46875 4.625 29.644531 4.84375 29.617188 5.089844 C 29.59375 5.332031 29.375 5.511719 29.128906 5.484375 C 28.652344 5.433594 28.175781 5.5625 27.886719 5.824219 C 27.683594 6.007812 27.578125 6.246094 27.578125 6.539062 C 27.578125 6.785156 27.378906 6.984375 27.132812 6.984375 C 26.886719 6.984375 26.6875 6.785156 26.6875 6.539062 C 26.6875 6.246094 26.582031 6.007812 26.378906 5.824219 C 26.089844 5.5625 25.613281 5.433594 25.136719 5.484375 C 24.894531 5.511719 24.675781 5.335938 24.648438 5.089844 Z M 19.347656 1.175781 C 19.324219 0.933594 19.5 0.714844 19.746094 0.6875 C 20.472656 0.609375 21.195312 0.820312 21.675781 1.25 C 21.730469 1.300781 21.785156 1.355469 21.835938 1.410156 C 21.882812 1.355469 21.9375 1.300781 21.996094 1.25 C 22.472656 0.820312 23.195312 0.609375 23.925781 0.6875 C 24.167969 0.714844 24.34375 0.933594 24.320312 1.175781 C 24.292969 1.421875 24.074219 1.597656 23.828125 1.570312 C 23.355469 1.519531 22.878906 1.648438 22.589844 1.910156 C 22.382812 2.09375 22.277344 2.335938 22.277344 2.625 C 22.277344 2.871094 22.078125 3.070312 21.835938 3.070312 C 21.589844 3.070312 21.390625 2.871094 21.390625 2.625 C 21.390625 2.335938 21.285156 2.09375 21.078125 1.910156 C 20.789062 1.648438 20.316406 1.519531 19.839844 1.570312 C 19.59375 1.597656 19.375 1.421875 19.347656 1.175781 Z M 19.347656 1.175781 " fill-opacity="1" fill-rule="nonzero"/></g></svg>