<svg xmlns="http://www.w3.org/2000/svg" xmlns:xlink="http://www.w3.org/1999/xlink" width="50" zoomAndPan="magnify" viewBox="0 0 37.5 37.499999" height="50" preserveAspectRatio="xMidYMid meet" version="1.0"><defs><clipPath id="4d54469830"><path d="M 0 0 L 37.007812 0 L 37.007812 37.007812 L 0 37.007812 Z M 0 0 " clip-rule="nonzero"/></clipPath><clipPath id="38ed0d1b4e"><path d="M 9 7.886719 L 28 7.886719 L 28 26 L 9 26 Z M 9 7.886719 " clip-rule="nonzero"/></clipPath><clipPath id="4f809db10a"><path d="M 0 24 L 25 24 L 25 29.351562 L 0 29.351562 Z M 0 24 " clip-rule="nonzero"/></clipPath><clipPath id="75e373372e"><path d="M 0 0 L 8 0 L 8 11 L 0 11 Z M 0 0 " clip-rule="nonzero"/></clipPath><clipPath id="4d974bd86d"><path d="M -7.292969 0.796875 L 2.902344 -3.59375 L 7.292969 6.605469 L -2.902344 10.996094 Z M -7.292969 0.796875 " clip-rule="nonzero"/></clipPath></defs><g clip-path="url(#4d54469830)"><path fill="#ffffff" d="M 0 0 L 37.007812 0 L 37.007812 37.007812 L 0 37.007812 Z M 0 0 " fill-opacity="1" fill-rule="nonzero"/><path fill="#ffffff" d="M 0 0 L 37.007812 0 L 37.007812 37.007812 L 0 37.007812 Z M 0 0 " fill-opacity="1" fill-rule="nonzero"/></g><g clip-path="url(#38ed0d1b4e)"><path fill="#46b65e" d="M 13.546875 7.945312 L 13.480469 7.941406 C 12.027344 7.90625 10.878906 8.167969 10.046875 8.714844 C 9.300781 9.339844 9.148438 10.039062 9.585938 10.8125 C 9.847656 11.238281 10.285156 11.601562 10.902344 11.898438 L 19.363281 13.929688 L 20.199219 18.941406 C 18.433594 19.179688 17.085938 19.429688 16.15625 19.699219 C 15.226562 19.96875 14.636719 20.175781 14.382812 20.324219 C 14.277344 20.382812 14.277344 20.472656 14.382812 20.597656 C 15.90625 21 20.171875 22.515625 27.179688 25.144531 C 27.238281 25.152344 27.265625 25.136719 27.261719 25.089844 L 24.269531 15.300781 L 23.175781 10.914062 C 23.082031 10.601562 22.964844 10.351562 22.828125 10.167969 L 22.605469 9.933594 C 20.808594 9.40625 19.210938 8.980469 17.820312 8.664062 C 15.523438 8.171875 14.097656 7.933594 13.546875 7.945312 " fill-opacity="1" fill-rule="nonzero"/></g><path fill="#46b65e" d="M 37 21.914062 L 36.996094 21.917969 C 35.875 23.007812 34.480469 23.9375 32.8125 24.710938 C 31.4375 25.304688 30.074219 25.613281 28.722656 25.632812 C 27.53125 25.707031 26.253906 25.5625 24.898438 25.195312 C 24.347656 25.039062 23.941406 24.914062 23.6875 24.816406 L 20.226562 23.457031 C 18.640625 22.882812 17.519531 22.488281 16.859375 22.277344 C 15.769531 21.917969 14.835938 21.707031 14.0625 21.644531 C 13.628906 21.578125 12.933594 21.597656 11.96875 21.699219 C 11.304688 21.769531 10.65625 21.890625 10.027344 22.0625 C 8.960938 22.347656 7.945312 22.839844 6.984375 23.535156 C 6.398438 24.050781 6.050781 24.433594 5.933594 24.6875 C 7.121094 24.175781 7.875 23.871094 8.191406 23.769531 C 8.730469 23.585938 9.285156 23.445312 9.847656 23.351562 C 11.191406 23.128906 12.515625 23.128906 13.828125 23.347656 C 14.355469 23.449219 14.941406 23.628906 15.578125 23.886719 L 20.261719 25.9375 C 21.078125 26.277344 21.761719 26.527344 22.304688 26.691406 C 24.15625 27.261719 25.894531 27.511719 27.523438 27.441406 C 29.570312 27.332031 31.347656 26.832031 32.851562 25.941406 C 34.09375 25.277344 35.480469 23.933594 37 21.914062 " fill-opacity="1" fill-rule="nonzero"/><g clip-path="url(#4f809db10a)"><path fill="#46b65e" d="M 12.292969 24.066406 L 12.226562 24.0625 C 11.164062 24.007812 9.972656 24.265625 8.65625 24.832031 C 8.355469 24.964844 8.03125 25.128906 7.683594 25.320312 L 4.46875 27.289062 C 3.796875 27.667969 3.3125 27.910156 3.023438 28.019531 C 2.578125 28.175781 2.207031 28.28125 1.917969 28.332031 C 1.667969 28.390625 1.117188 28.441406 0.265625 28.488281 C 0.179688 28.496094 0.121094 28.527344 0.0859375 28.574219 C 0.0585938 28.582031 0.03125 28.582031 -0.00390625 28.574219 C 0.492188 28.828125 1.105469 28.984375 1.835938 29.042969 C 2.53125 29.082031 3.238281 28.996094 3.953125 28.777344 L 4.683594 28.535156 L 5.222656 28.320312 L 8.515625 26.816406 C 8.675781 26.746094 8.871094 26.667969 9.101562 26.585938 C 9.980469 26.292969 10.753906 26.140625 11.421875 26.121094 C 12.234375 26.121094 12.746094 26.128906 12.960938 26.144531 C 13.332031 26.167969 13.628906 26.207031 13.859375 26.257812 C 14.003906 26.292969 14.273438 26.371094 14.671875 26.5 L 18.617188 27.828125 C 19.226562 28.003906 19.914062 28.167969 20.679688 28.316406 C 22.054688 28.554688 23.230469 28.617188 24.210938 28.496094 C 24.222656 28.492188 24.171875 28.480469 24.0625 28.46875 C 23.847656 28.359375 23.605469 28.257812 23.335938 28.164062 L 21.378906 27.527344 C 21.324219 27.515625 20.800781 27.308594 19.804688 26.914062 C 19.417969 26.75 19.132812 26.625 18.960938 26.542969 L 15.664062 24.980469 C 15.074219 24.707031 14.691406 24.542969 14.519531 24.484375 C 13.9375 24.285156 13.195312 24.144531 12.292969 24.066406 " fill-opacity="1" fill-rule="nonzero"/></g><path fill="#46b65e" d="M 35.757812 18.71875 L 35.675781 19.316406 C 35.398438 20.519531 34.765625 21.453125 33.78125 22.117188 C 32.789062 22.78125 31.664062 22.996094 30.398438 22.769531 C 29.195312 22.492188 28.265625 21.863281 27.601562 20.878906 C 27.386719 20.558594 27.21875 20.21875 27.089844 19.851562 L 26.9375 19.289062 C 26.859375 18.90625 26.835938 18.507812 26.863281 18.097656 C 26.984375 16.839844 27.488281 15.820312 28.386719 15.042969 C 29.28125 14.265625 30.359375 13.902344 31.621094 13.960938 C 32.878906 14.078125 33.894531 14.585938 34.675781 15.480469 C 35.453125 16.375 35.8125 17.453125 35.757812 18.71875 " fill-opacity="1" fill-rule="nonzero"/><g clip-path="url(#75e373372e)"><g clip-path="url(#4d974bd86d)"><path fill="#ffffff" d="M -7.292969 0.796875 L 2.902344 -3.59375 L 7.292969 6.605469 L -2.902344 10.996094 Z M -7.292969 0.796875 " fill-opacity="1" fill-rule="nonzero"/></g></g></svg>