<svg xmlns="http://www.w3.org/2000/svg" xmlns:xlink="http://www.w3.org/1999/xlink" width="50" zoomAndPan="magnify" viewBox="0 0 37.5 37.499999" height="50" preserveAspectRatio="xMidYMid meet" version="1.0"><defs><clipPath id="24631b154a"><path d="M 0 0 L 37.007812 0 L 37.007812 37.007812 L 0 37.007812 Z M 0 0 " clip-rule="nonzero"/></clipPath><clipPath id="d6127306af"><path d="M 0 0 L 37.007812 0 L 37.007812 37.007812 L 0 37.007812 Z M 0 0 " clip-rule="nonzero"/></clipPath></defs><g clip-path="url(#24631b154a)"><path fill="#ffffff" d="M 0 0 L 37.007812 0 L 37.007812 37.007812 L 0 37.007812 Z M 0 0 " fill-opacity="1" fill-rule="nonzero"/><path fill="#ffffff" d="M 0 0 L 37.007812 0 L 37.007812 37.007812 L 0 37.007812 Z M 0 0 " fill-opacity="1" fill-rule="nonzero"/></g><path fill="#46b65e" d="M 25.0625 32.679688 L 11.914062 32.679688 C 11.585938 32.679688 11.320312 32.414062 11.320312 32.089844 L 11.320312 7.199219 C 11.320312 6.871094 11.585938 6.605469 11.914062 6.605469 C 12.242188 6.605469 12.503906 6.871094 12.503906 7.199219 L 12.503906 31.496094 L 24.472656 31.496094 L 24.472656 7.199219 C 24.472656 6.871094 24.734375 6.605469 25.0625 6.605469 C 25.390625 6.605469 25.652344 6.871094 25.652344 7.199219 L 25.652344 32.089844 C 25.652344 32.414062 25.386719 32.679688 25.0625 32.679688 Z M 25.0625 32.679688 " fill-opacity="1" fill-rule="nonzero"/><path fill="#46b65e" d="M 11.914062 32.679688 L 2.078125 32.679688 C 1.75 32.679688 1.488281 32.414062 1.488281 32.089844 L 1.488281 12.3125 C 1.488281 11.984375 1.75 11.722656 2.078125 11.722656 C 2.40625 11.722656 2.667969 11.984375 2.667969 12.3125 L 2.667969 31.496094 L 11.914062 31.496094 C 12.242188 31.496094 12.503906 31.761719 12.503906 32.089844 C 12.503906 32.414062 12.242188 32.679688 11.914062 32.679688 Z M 11.914062 32.679688 " fill-opacity="1" fill-rule="nonzero"/><path fill="#46b65e" d="M 34.898438 32.679688 L 25.0625 32.679688 C 24.734375 32.679688 24.472656 32.414062 24.472656 32.089844 C 24.472656 31.761719 24.734375 31.496094 25.0625 31.496094 L 34.308594 31.496094 L 34.308594 12.902344 L 25.0625 12.902344 C 24.734375 12.902344 24.472656 12.640625 24.472656 12.3125 C 24.472656 11.984375 24.734375 11.722656 25.0625 11.722656 L 34.898438 11.722656 C 35.226562 11.722656 35.488281 11.984375 35.488281 12.3125 L 35.488281 32.089844 C 35.488281 32.414062 35.222656 32.679688 34.898438 32.679688 Z M 34.898438 32.679688 " fill-opacity="1" fill-rule="nonzero"/><path fill="#46b65e" d="M 34.925781 12.894531 L 25.089844 12.894531 C 24.761719 12.894531 24.5 12.628906 24.5 12.304688 C 24.5 11.976562 24.761719 11.710938 25.089844 11.710938 L 34.335938 11.710938 L 34.335938 10.414062 L 25.089844 10.414062 C 24.761719 10.414062 24.5 10.148438 24.5 9.824219 C 24.5 9.496094 24.761719 9.230469 25.089844 9.230469 L 34.925781 9.230469 C 35.253906 9.230469 35.515625 9.496094 35.515625 9.824219 L 35.515625 12.300781 C 35.515625 12.628906 35.253906 12.894531 34.925781 12.894531 Z M 34.925781 12.894531 " fill-opacity="1" fill-rule="nonzero"/><path fill="#46b65e" d="M 11.933594 12.894531 L 2.097656 12.894531 C 1.769531 12.894531 1.507812 12.628906 1.507812 12.304688 L 1.507812 9.824219 C 1.507812 9.496094 1.769531 9.234375 2.097656 9.234375 L 11.933594 9.234375 C 12.261719 9.234375 12.523438 9.496094 12.523438 9.824219 C 12.523438 10.152344 12.261719 10.414062 11.933594 10.414062 L 2.6875 10.414062 L 2.6875 11.710938 L 11.933594 11.710938 C 12.261719 11.710938 12.523438 11.976562 12.523438 12.304688 C 12.523438 12.628906 12.261719 12.894531 11.933594 12.894531 Z M 11.933594 12.894531 " fill-opacity="1" fill-rule="nonzero"/><path fill="#46b65e" d="M 34.898438 35.195312 L 2.078125 35.195312 C 1.75 35.195312 1.488281 34.929688 1.488281 34.605469 L 1.488281 32.089844 C 1.488281 31.761719 1.75 31.496094 2.078125 31.496094 L 34.898438 31.496094 C 35.226562 31.496094 35.488281 31.761719 35.488281 32.089844 L 35.488281 34.605469 C 35.488281 34.929688 35.222656 35.195312 34.898438 35.195312 Z M 2.667969 34.011719 L 34.308594 34.011719 L 34.308594 32.679688 L 2.667969 32.679688 Z M 2.667969 34.011719 " fill-opacity="1" fill-rule="nonzero"/><path fill="#46b65e" d="M 8.488281 18.644531 L 5.503906 18.644531 C 5.175781 18.644531 4.910156 18.382812 4.910156 18.054688 L 4.910156 15.070312 C 4.910156 14.742188 5.175781 14.480469 5.503906 14.480469 L 8.488281 14.480469 C 8.8125 14.480469 9.078125 14.742188 9.078125 15.070312 L 9.078125 18.054688 C 9.078125 18.382812 8.8125 18.644531 8.488281 18.644531 Z M 6.09375 17.464844 L 7.894531 17.464844 L 7.894531 15.664062 L 6.09375 15.664062 Z M 6.09375 17.464844 " fill-opacity="1" fill-rule="nonzero"/><path fill="#46b65e" d="M 8.488281 24.285156 L 5.503906 24.285156 C 5.175781 24.285156 4.910156 24.019531 4.910156 23.691406 L 4.910156 20.707031 C 4.910156 20.382812 5.175781 20.117188 5.503906 20.117188 L 8.488281 20.117188 C 8.8125 20.117188 9.078125 20.382812 9.078125 20.707031 L 9.078125 23.691406 C 9.078125 24.019531 8.8125 24.285156 8.488281 24.285156 Z M 6.09375 23.101562 L 7.894531 23.101562 L 7.894531 21.300781 L 6.09375 21.300781 Z M 6.09375 23.101562 " fill-opacity="1" fill-rule="nonzero"/><path fill="#46b65e" d="M 8.488281 29.921875 L 5.503906 29.921875 C 5.175781 29.921875 4.910156 29.65625 4.910156 29.332031 L 4.910156 26.347656 C 4.910156 26.019531 5.175781 25.753906 5.503906 25.753906 L 8.488281 25.753906 C 8.8125 25.753906 9.078125 26.019531 9.078125 26.347656 L 9.078125 29.332031 C 9.078125 29.65625 8.8125 29.921875 8.488281 29.921875 Z M 6.09375 28.738281 L 7.894531 28.738281 L 7.894531 26.9375 L 6.09375 26.9375 Z M 6.09375 28.738281 " fill-opacity="1" fill-rule="nonzero"/><path fill="#46b65e" d="M 17.222656 15.199219 L 14.238281 15.199219 C 13.910156 15.199219 13.644531 14.933594 13.644531 14.605469 L 13.644531 11.621094 C 13.644531 11.296875 13.910156 11.03125 14.238281 11.03125 L 17.222656 11.03125 C 17.546875 11.03125 17.8125 11.296875 17.8125 11.621094 L 17.8125 14.605469 C 17.8125 14.933594 17.546875 15.199219 17.222656 15.199219 Z M 14.828125 14.015625 L 16.628906 14.015625 L 16.628906 12.214844 L 14.828125 12.214844 Z M 14.828125 14.015625 " fill-opacity="1" fill-rule="nonzero"/><path fill="#46b65e" d="M 22.753906 15.199219 L 19.769531 15.199219 C 19.445312 15.199219 19.179688 14.933594 19.179688 14.605469 L 19.179688 11.621094 C 19.179688 11.296875 19.445312 11.03125 19.769531 11.03125 L 22.753906 11.03125 C 23.082031 11.03125 23.347656 11.296875 23.347656 11.621094 L 23.347656 14.605469 C 23.347656 14.933594 23.082031 15.199219 22.753906 15.199219 Z M 20.363281 14.015625 L 22.164062 14.015625 L 22.164062 12.214844 L 20.363281 12.214844 Z M 20.363281 14.015625 " fill-opacity="1" fill-rule="nonzero"/><path fill="#46b65e" d="M 17.222656 20.539062 L 14.238281 20.539062 C 13.910156 20.539062 13.644531 20.273438 13.644531 19.949219 L 13.644531 16.964844 C 13.644531 16.636719 13.910156 16.375 14.238281 16.375 L 17.222656 16.375 C 17.546875 16.375 17.8125 16.636719 17.8125 16.964844 L 17.8125 19.949219 C 17.8125 20.273438 17.546875 20.539062 17.222656 20.539062 Z M 14.828125 19.359375 L 16.628906 19.359375 L 16.628906 17.558594 L 14.828125 17.558594 Z M 14.828125 19.359375 " fill-opacity="1" fill-rule="nonzero"/><path fill="#46b65e" d="M 22.753906 20.539062 L 19.769531 20.539062 C 19.445312 20.539062 19.179688 20.273438 19.179688 19.949219 L 19.179688 16.964844 C 19.179688 16.636719 19.445312 16.375 19.769531 16.375 L 22.753906 16.375 C 23.082031 16.375 23.347656 16.636719 23.347656 16.964844 L 23.347656 19.949219 C 23.347656 20.273438 23.082031 20.539062 22.753906 20.539062 Z M 20.363281 19.359375 L 22.164062 19.359375 L 22.164062 17.558594 L 20.363281 17.558594 Z M 20.363281 19.359375 " fill-opacity="1" fill-rule="nonzero"/><path fill="#46b65e" d="M 31.472656 18.644531 L 28.488281 18.644531 C 28.160156 18.644531 27.894531 18.382812 27.894531 18.054688 L 27.894531 15.070312 C 27.894531 14.742188 28.160156 14.480469 28.488281 14.480469 L 31.472656 14.480469 C 31.796875 14.480469 32.0625 14.742188 32.0625 15.070312 L 32.0625 18.054688 C 32.0625 18.382812 31.796875 18.644531 31.472656 18.644531 Z M 29.078125 17.464844 L 30.878906 17.464844 L 30.878906 15.664062 L 29.078125 15.664062 Z M 29.078125 17.464844 " fill-opacity="1" fill-rule="nonzero"/><path fill="#46b65e" d="M 31.472656 24.285156 L 28.488281 24.285156 C 28.160156 24.285156 27.894531 24.019531 27.894531 23.691406 L 27.894531 20.707031 C 27.894531 20.382812 28.160156 20.117188 28.488281 20.117188 L 31.472656 20.117188 C 31.796875 20.117188 32.0625 20.382812 32.0625 20.707031 L 32.0625 23.691406 C 32.0625 24.019531 31.796875 24.285156 31.472656 24.285156 Z M 29.078125 23.101562 L 30.878906 23.101562 L 30.878906 21.300781 L 29.078125 21.300781 Z M 29.078125 23.101562 " fill-opacity="1" fill-rule="nonzero"/><path fill="#46b65e" d="M 31.472656 29.921875 L 28.488281 29.921875 C 28.160156 29.921875 27.894531 29.65625 27.894531 29.332031 L 27.894531 26.347656 C 27.894531 26.019531 28.160156 25.753906 28.488281 25.753906 L 31.472656 25.753906 C 31.796875 25.753906 32.0625 26.019531 32.0625 26.347656 L 32.0625 29.332031 C 32.0625 29.65625 31.796875 29.921875 31.472656 29.921875 Z M 29.078125 28.738281 L 30.878906 28.738281 L 30.878906 26.9375 L 29.078125 26.9375 Z M 29.078125 28.738281 " fill-opacity="1" fill-rule="nonzero"/><path fill="#46b65e" d="M 21.90625 32.679688 C 21.578125 32.679688 21.3125 32.414062 21.3125 32.089844 L 21.3125 23.832031 L 15.660156 23.832031 L 15.660156 32.089844 C 15.660156 32.414062 15.394531 32.679688 15.070312 32.679688 C 14.742188 32.679688 14.476562 32.414062 14.476562 32.089844 L 14.476562 23.242188 C 14.476562 22.914062 14.742188 22.648438 15.070312 22.648438 L 21.902344 22.648438 C 22.230469 22.648438 22.496094 22.914062 22.496094 23.242188 L 22.496094 32.089844 C 22.496094 32.414062 22.230469 32.679688 21.90625 32.679688 Z M 21.90625 32.679688 " fill-opacity="1" fill-rule="nonzero"/><path fill="#46b65e" d="M 26.867188 7.789062 L 10.109375 7.789062 C 9.78125 7.789062 9.519531 7.523438 9.519531 7.199219 L 9.519531 5.320312 C 9.519531 5.09375 9.648438 4.882812 9.855469 4.785156 L 18.234375 0.828125 C 18.394531 0.753906 18.582031 0.753906 18.742188 0.828125 L 27.117188 4.785156 C 27.324219 4.882812 27.457031 5.089844 27.457031 5.320312 L 27.457031 7.199219 C 27.457031 7.523438 27.191406 7.789062 26.867188 7.789062 Z M 10.699219 6.605469 L 26.277344 6.605469 L 26.277344 5.695312 L 18.488281 2.019531 L 10.699219 5.695312 Z M 10.699219 6.605469 " fill-opacity="1" fill-rule="nonzero"/><g clip-path="url(#d6127306af)"><path fill="#46b65e" d="M 46.054688 12.316406 C 45.683594 10.511719 45.132812 8.734375 44.414062 7.035156 C 43.707031 5.371094 42.835938 3.761719 41.820312 2.257812 C 40.816406 0.769531 39.660156 -0.628906 38.386719 -1.902344 C 37.113281 -3.175781 35.714844 -4.328125 34.226562 -5.335938 C 32.722656 -6.351562 31.117188 -7.222656 29.449219 -7.929688 C 27.75 -8.648438 25.972656 -9.199219 24.167969 -9.566406 C 22.3125 -9.945312 20.40625 -10.140625 18.5 -10.140625 C 16.59375 -10.140625 14.6875 -9.949219 12.832031 -9.566406 C 11.027344 -9.199219 9.25 -8.648438 7.550781 -7.929688 C 5.886719 -7.222656 4.277344 -6.351562 2.773438 -5.335938 C 1.285156 -4.328125 -0.113281 -3.175781 -1.386719 -1.902344 C -2.65625 -0.628906 -3.8125 0.769531 -4.816406 2.261719 C -5.832031 3.761719 -6.707031 5.371094 -7.410156 7.039062 C -8.128906 8.734375 -8.679688 10.511719 -9.050781 12.320312 C -9.429688 14.171875 -9.621094 16.078125 -9.621094 17.984375 C -9.621094 19.894531 -9.429688 21.800781 -9.050781 23.652344 C -8.679688 25.460938 -8.128906 27.234375 -7.410156 28.933594 C -6.707031 30.601562 -5.832031 32.207031 -4.816406 33.710938 C -3.8125 35.199219 -2.65625 36.601562 -1.382812 37.871094 C -0.109375 39.144531 1.289062 40.300781 2.777344 41.304688 C 4.28125 42.320312 5.886719 43.195312 7.554688 43.898438 C 9.253906 44.617188 11.03125 45.167969 12.835938 45.539062 C 14.6875 45.917969 16.59375 46.109375 18.503906 46.109375 C 20.410156 46.109375 22.316406 45.917969 24.171875 45.539062 C 25.976562 45.167969 27.753906 44.617188 29.453125 43.898438 C 31.117188 43.195312 32.726562 42.320312 34.230469 41.304688 C 35.71875 40.300781 37.117188 39.144531 38.390625 37.871094 C 39.664062 36.601562 40.816406 35.199219 41.824219 33.710938 C 42.839844 32.207031 43.710938 30.601562 44.417969 28.933594 C 45.132812 27.234375 45.6875 25.460938 46.054688 23.652344 C 46.433594 21.800781 46.628906 19.894531 46.628906 17.984375 C 46.628906 16.078125 46.429688 14.171875 46.054688 12.316406 Z M 18.5 44.835938 C 3.671875 44.835938 -8.351562 32.816406 -8.351562 17.984375 C -8.351562 3.152344 3.671875 -8.867188 18.5 -8.867188 C 33.332031 -8.867188 45.355469 3.152344 45.355469 17.984375 C 45.355469 32.816406 33.332031 44.835938 18.5 44.835938 Z M 18.5 44.835938 " fill-opacity="1" fill-rule="nonzero"/></g></svg>