<svg xmlns="http://www.w3.org/2000/svg" xmlns:xlink="http://www.w3.org/1999/xlink" width="50" zoomAndPan="magnify" viewBox="0 0 37.5 37.499999" height="50" preserveAspectRatio="xMidYMid meet" version="1.0"><defs><clipPath id="e06829f51a"><path d="M 0 0 L 37.007812 0 L 37.007812 37.007812 L 0 37.007812 Z M 0 0 " clip-rule="nonzero"/></clipPath><clipPath id="770e9b9ef0"><path d="M 2.085938 2.929688 L 34.652344 2.929688 L 34.652344 34.011719 L 2.085938 34.011719 Z M 2.085938 2.929688 " clip-rule="nonzero"/></clipPath></defs><g clip-path="url(#e06829f51a)"><path fill="#ffffff" d="M 0 0 L 37.007812 0 L 37.007812 37.007812 L 0 37.007812 Z M 0 0 " fill-opacity="1" fill-rule="nonzero"/><path fill="#ffffff" d="M 0 0 L 37.007812 0 L 37.007812 37.007812 L 0 37.007812 Z M 0 0 " fill-opacity="1" fill-rule="nonzero"/></g><path fill="#46b65e" d="M 12.351562 17.585938 L 7.324219 17.585938 C 7.171875 17.585938 7.039062 17.640625 6.929688 17.75 C 6.820312 17.859375 6.765625 17.992188 6.765625 18.144531 L 6.765625 26.132812 C 6.765625 26.285156 6.820312 26.417969 6.929688 26.527344 C 7.039062 26.636719 7.171875 26.691406 7.324219 26.691406 L 12.351562 26.691406 C 12.507812 26.691406 12.636719 26.636719 12.746094 26.527344 C 12.855469 26.417969 12.910156 26.285156 12.910156 26.132812 L 12.910156 18.144531 C 12.910156 17.992188 12.855469 17.859375 12.746094 17.75 C 12.636719 17.640625 12.507812 17.585938 12.351562 17.585938 Z M 11.792969 21.578125 L 10.398438 21.578125 L 10.398438 18.703125 L 11.792969 18.703125 Z M 9.28125 18.703125 L 9.28125 21.578125 L 7.886719 21.578125 L 7.886719 18.703125 Z M 7.886719 22.699219 L 9.28125 22.699219 L 9.28125 25.570312 L 7.886719 25.570312 Z M 10.398438 25.570312 L 10.398438 22.699219 L 11.792969 22.699219 L 11.792969 25.570312 Z M 10.398438 25.570312 " fill-opacity="1" fill-rule="nonzero"/><path fill="#46b65e" d="M 24.652344 26.691406 L 29.675781 26.691406 C 29.832031 26.691406 29.964844 26.636719 30.074219 26.527344 C 30.183594 26.417969 30.238281 26.285156 30.238281 26.132812 L 30.238281 18.144531 C 30.238281 17.992188 30.183594 17.859375 30.074219 17.75 C 29.964844 17.640625 29.832031 17.585938 29.675781 17.585938 L 24.652344 17.585938 C 24.496094 17.585938 24.363281 17.640625 24.253906 17.75 C 24.144531 17.859375 24.089844 17.992188 24.089844 18.144531 L 24.089844 26.132812 C 24.089844 26.285156 24.144531 26.417969 24.253906 26.527344 C 24.363281 26.636719 24.496094 26.691406 24.652344 26.691406 Z M 25.210938 22.699219 L 26.605469 22.699219 L 26.605469 25.570312 L 25.210938 25.570312 Z M 27.722656 25.570312 L 27.722656 22.699219 L 29.117188 22.699219 L 29.117188 25.570312 Z M 29.117188 21.578125 L 27.722656 21.578125 L 27.722656 18.703125 L 29.117188 18.703125 Z M 26.605469 18.703125 L 26.605469 21.578125 L 25.210938 21.578125 L 25.210938 18.703125 Z M 26.605469 18.703125 " fill-opacity="1" fill-rule="nonzero"/><path fill="#46b65e" d="M 9.464844 6.980469 L 9.886719 6.980469 C 9.925781 6.980469 9.957031 6.9375 9.957031 6.886719 L 9.957031 6.386719 L 10.175781 6.929688 C 10.183594 6.960938 10.203125 6.976562 10.234375 6.980469 L 10.707031 6.980469 C 10.734375 6.976562 10.753906 6.960938 10.765625 6.933594 C 10.777344 6.902344 10.777344 6.871094 10.765625 6.84375 L 10.460938 6.140625 C 10.550781 6.085938 10.617188 6.015625 10.667969 5.921875 C 10.734375 5.792969 10.769531 5.652344 10.765625 5.503906 C 10.765625 5.371094 10.742188 5.246094 10.691406 5.125 C 10.644531 5.011719 10.570312 4.921875 10.472656 4.855469 C 10.367188 4.789062 10.253906 4.757812 10.132812 4.761719 L 9.464844 4.761719 C 9.429688 4.761719 9.398438 4.800781 9.398438 4.851562 L 9.398438 6.886719 C 9.398438 6.9375 9.429688 6.980469 9.464844 6.980469 Z M 9.957031 5.417969 L 10.097656 5.417969 C 10.128906 5.414062 10.15625 5.421875 10.179688 5.449219 C 10.195312 5.472656 10.203125 5.503906 10.203125 5.535156 C 10.207031 5.570312 10.199219 5.601562 10.179688 5.628906 C 10.15625 5.652344 10.128906 5.660156 10.097656 5.660156 L 9.957031 5.660156 Z M 9.957031 5.417969 " fill-opacity="1" fill-rule="nonzero"/><path fill="#46b65e" d="M 11.320312 6.980469 L 12.289062 6.980469 C 12.324219 6.980469 12.355469 6.9375 12.355469 6.886719 L 12.355469 6.433594 C 12.355469 6.382812 12.324219 6.34375 12.289062 6.34375 L 11.808594 6.34375 L 11.808594 6.160156 L 12.222656 6.160156 C 12.261719 6.160156 12.292969 6.117188 12.292969 6.066406 L 12.292969 5.636719 C 12.292969 5.585938 12.261719 5.546875 12.222656 5.546875 L 11.808594 5.546875 L 11.808594 5.394531 L 12.289062 5.394531 C 12.324219 5.394531 12.355469 5.355469 12.355469 5.304688 L 12.355469 4.851562 C 12.355469 4.800781 12.324219 4.761719 12.289062 4.761719 L 11.320312 4.761719 C 11.28125 4.761719 11.25 4.800781 11.25 4.851562 L 11.25 6.886719 C 11.25 6.9375 11.28125 6.980469 11.320312 6.980469 Z M 11.320312 6.980469 " fill-opacity="1" fill-rule="nonzero"/><path fill="#46b65e" d="M 13.425781 6.34375 C 13.40625 6.3125 13.398438 6.28125 13.398438 6.25 C 13.398438 6.199219 13.367188 6.164062 13.332031 6.164062 L 12.882812 6.164062 C 12.859375 6.164062 12.84375 6.175781 12.832031 6.191406 C 12.820312 6.214844 12.8125 6.234375 12.816406 6.261719 C 12.8125 6.472656 12.882812 6.65625 13.027344 6.8125 C 13.15625 6.941406 13.316406 7.003906 13.5 7 C 13.621094 7 13.730469 6.96875 13.832031 6.90625 C 13.929688 6.839844 14.007812 6.753906 14.054688 6.644531 C 14.109375 6.527344 14.136719 6.402344 14.132812 6.269531 C 14.136719 6.144531 14.109375 6.027344 14.050781 5.917969 C 14.003906 5.835938 13.945312 5.765625 13.867188 5.710938 C 13.789062 5.660156 13.707031 5.613281 13.621094 5.574219 C 13.558594 5.546875 13.511719 5.519531 13.480469 5.5 C 13.457031 5.488281 13.433594 5.46875 13.417969 5.445312 C 13.40625 5.4375 13.402344 5.425781 13.40625 5.410156 C 13.402344 5.398438 13.40625 5.382812 13.414062 5.371094 C 13.445312 5.351562 13.476562 5.355469 13.5 5.382812 C 13.507812 5.386719 13.519531 5.402344 13.519531 5.453125 C 13.519531 5.503906 13.550781 5.542969 13.589844 5.542969 L 14.046875 5.542969 C 14.066406 5.542969 14.085938 5.53125 14.09375 5.515625 C 14.109375 5.496094 14.117188 5.472656 14.113281 5.449219 C 14.117188 5.246094 14.054688 5.066406 13.917969 4.914062 C 13.792969 4.785156 13.636719 4.722656 13.453125 4.730469 C 13.339844 4.726562 13.234375 4.753906 13.136719 4.808594 C 13.035156 4.867188 12.957031 4.949219 12.90625 5.050781 C 12.84375 5.175781 12.816406 5.304688 12.820312 5.441406 C 12.8125 5.570312 12.839844 5.695312 12.902344 5.808594 C 12.945312 5.894531 13.007812 5.960938 13.082031 6.019531 C 13.164062 6.070312 13.246094 6.113281 13.332031 6.152344 C 13.398438 6.179688 13.464844 6.210938 13.523438 6.253906 C 13.542969 6.269531 13.550781 6.289062 13.550781 6.3125 C 13.550781 6.328125 13.550781 6.339844 13.539062 6.347656 C 13.5 6.386719 13.460938 6.382812 13.425781 6.34375 Z M 13.425781 6.34375 " fill-opacity="1" fill-rule="nonzero"/><path fill="#46b65e" d="M 14.609375 5.394531 L 14.941406 5.394531 L 14.941406 6.886719 C 14.941406 6.9375 14.972656 6.980469 15.007812 6.980469 L 15.429688 6.980469 C 15.46875 6.980469 15.496094 6.9375 15.496094 6.886719 L 15.496094 5.394531 L 15.835938 5.394531 C 15.871094 5.394531 15.902344 5.351562 15.902344 5.300781 L 15.902344 4.851562 C 15.902344 4.800781 15.871094 4.761719 15.835938 4.761719 L 14.609375 4.761719 C 14.570312 4.761719 14.539062 4.800781 14.539062 4.851562 L 14.539062 5.300781 C 14.539062 5.351562 14.570312 5.394531 14.609375 5.394531 Z M 14.609375 5.394531 " fill-opacity="1" fill-rule="nonzero"/><path fill="#46b65e" d="M 16.320312 6.980469 L 16.761719 6.980469 C 16.800781 6.972656 16.820312 6.953125 16.824219 6.917969 L 16.890625 6.648438 L 17.332031 6.648438 L 17.398438 6.917969 C 17.402344 6.953125 17.425781 6.972656 17.460938 6.980469 L 17.910156 6.980469 C 17.933594 6.976562 17.953125 6.964844 17.964844 6.941406 C 17.976562 6.914062 17.980469 6.886719 17.972656 6.855469 L 17.421875 4.820312 C 17.414062 4.785156 17.394531 4.765625 17.359375 4.761719 L 16.871094 4.761719 C 16.835938 4.765625 16.8125 4.785156 16.808594 4.820312 L 16.253906 6.855469 C 16.246094 6.886719 16.25 6.914062 16.261719 6.941406 C 16.273438 6.964844 16.292969 6.976562 16.320312 6.980469 Z M 17.113281 5.753906 L 17.183594 6.03125 L 17.042969 6.03125 Z M 17.113281 5.753906 " fill-opacity="1" fill-rule="nonzero"/><path fill="#46b65e" d="M 18.75 6.890625 C 18.859375 6.964844 18.980469 7 19.109375 7 C 19.242188 7 19.367188 6.964844 19.476562 6.890625 C 19.601562 6.804688 19.6875 6.695312 19.746094 6.558594 C 19.816406 6.390625 19.847656 6.214844 19.84375 6.03125 L 19.84375 4.851562 C 19.84375 4.800781 19.8125 4.761719 19.777344 4.761719 L 19.355469 4.761719 C 19.316406 4.761719 19.285156 4.800781 19.285156 4.851562 L 19.285156 6.03125 C 19.289062 6.101562 19.277344 6.164062 19.242188 6.226562 C 19.214844 6.269531 19.171875 6.289062 19.121094 6.285156 C 19.066406 6.289062 19.027344 6.269531 18.996094 6.226562 C 18.964844 6.167969 18.953125 6.101562 18.957031 6.03125 L 18.957031 4.851562 C 18.957031 4.800781 18.925781 4.761719 18.890625 4.761719 L 18.46875 4.761719 C 18.433594 4.761719 18.402344 4.800781 18.402344 4.851562 L 18.402344 6.03125 C 18.398438 6.214844 18.429688 6.386719 18.492188 6.558594 C 18.546875 6.691406 18.632812 6.804688 18.75 6.890625 Z M 18.75 6.890625 " fill-opacity="1" fill-rule="nonzero"/><path fill="#46b65e" d="M 20.4375 6.980469 L 20.859375 6.980469 C 20.898438 6.980469 20.929688 6.9375 20.929688 6.886719 L 20.929688 6.386719 L 21.148438 6.929688 C 21.15625 6.960938 21.175781 6.976562 21.207031 6.980469 L 21.675781 6.980469 C 21.707031 6.976562 21.726562 6.960938 21.734375 6.933594 C 21.75 6.902344 21.75 6.871094 21.734375 6.84375 L 21.433594 6.140625 C 21.523438 6.085938 21.589844 6.015625 21.640625 5.921875 C 21.707031 5.792969 21.738281 5.652344 21.738281 5.503906 C 21.738281 5.371094 21.714844 5.246094 21.664062 5.125 C 21.617188 5.011719 21.542969 4.921875 21.441406 4.855469 C 21.339844 4.789062 21.226562 4.757812 21.101562 4.761719 L 20.4375 4.761719 C 20.402344 4.761719 20.371094 4.800781 20.371094 4.851562 L 20.371094 6.886719 C 20.371094 6.9375 20.402344 6.980469 20.4375 6.980469 Z M 20.929688 5.417969 L 21.070312 5.417969 C 21.101562 5.414062 21.128906 5.421875 21.148438 5.449219 C 21.167969 5.472656 21.175781 5.503906 21.171875 5.535156 C 21.175781 5.570312 21.171875 5.601562 21.152344 5.628906 C 21.128906 5.652344 21.101562 5.660156 21.070312 5.660156 L 20.929688 5.660156 Z M 20.929688 5.417969 " fill-opacity="1" fill-rule="nonzero"/><path fill="#46b65e" d="M 22.1875 6.980469 L 22.628906 6.980469 C 22.667969 6.972656 22.6875 6.953125 22.695312 6.917969 L 22.761719 6.648438 L 23.199219 6.648438 L 23.265625 6.917969 C 23.273438 6.953125 23.292969 6.972656 23.332031 6.980469 L 23.777344 6.980469 C 23.804688 6.976562 23.820312 6.964844 23.832031 6.941406 C 23.847656 6.914062 23.847656 6.886719 23.839844 6.855469 L 23.289062 4.820312 C 23.285156 4.785156 23.261719 4.765625 23.226562 4.761719 L 22.738281 4.761719 C 22.703125 4.765625 22.683594 4.785156 22.675781 4.820312 L 22.125 6.855469 C 22.117188 6.886719 22.117188 6.914062 22.132812 6.941406 C 22.140625 6.964844 22.160156 6.976562 22.1875 6.980469 Z M 22.980469 5.753906 L 23.050781 6.03125 L 22.914062 6.03125 Z M 22.980469 5.753906 " fill-opacity="1" fill-rule="nonzero"/><path fill="#46b65e" d="M 24.34375 6.980469 L 24.765625 6.980469 C 24.804688 6.980469 24.835938 6.9375 24.835938 6.886719 L 24.835938 6.050781 L 25.273438 6.9375 C 25.28125 6.964844 25.300781 6.976562 25.328125 6.980469 L 25.75 6.980469 C 25.789062 6.980469 25.816406 6.9375 25.816406 6.886719 L 25.816406 4.851562 C 25.816406 4.800781 25.789062 4.761719 25.75 4.761719 L 25.328125 4.761719 C 25.289062 4.761719 25.261719 4.800781 25.261719 4.851562 L 25.261719 5.699219 L 24.824219 4.800781 C 24.8125 4.777344 24.792969 4.761719 24.765625 4.761719 L 24.34375 4.761719 C 24.308594 4.761719 24.277344 4.800781 24.277344 4.851562 L 24.277344 6.886719 C 24.277344 6.9375 24.308594 6.980469 24.34375 6.980469 Z M 24.34375 6.980469 " fill-opacity="1" fill-rule="nonzero"/><path fill="#46b65e" d="M 26.335938 5.394531 L 26.667969 5.394531 L 26.667969 6.886719 C 26.667969 6.9375 26.699219 6.980469 26.738281 6.980469 L 27.160156 6.980469 C 27.195312 6.980469 27.226562 6.9375 27.226562 6.886719 L 27.226562 5.394531 L 27.5625 5.394531 C 27.601562 5.394531 27.632812 5.351562 27.632812 5.300781 L 27.632812 4.851562 C 27.632812 4.800781 27.601562 4.761719 27.5625 4.761719 L 26.335938 4.761719 C 26.300781 4.761719 26.269531 4.800781 26.269531 4.851562 L 26.269531 5.300781 C 26.269531 5.351562 26.300781 5.394531 26.335938 5.394531 Z M 26.335938 5.394531 " fill-opacity="1" fill-rule="nonzero"/><g clip-path="url(#770e9b9ef0)"><path fill="#46b65e" d="M 33.707031 30.542969 L 33.03125 30.542969 L 33.03125 14.425781 C 33.21875 14.410156 33.390625 14.363281 33.558594 14.28125 C 33.722656 14.199219 33.871094 14.089844 33.996094 13.953125 C 34.121094 13.816406 34.214844 13.660156 34.28125 13.488281 C 34.347656 13.316406 34.382812 13.136719 34.382812 12.953125 C 34.382812 12.765625 34.347656 12.589844 34.28125 12.417969 C 34.214844 12.242188 34.117188 12.089844 33.992188 11.953125 C 33.867188 11.816406 33.722656 11.707031 33.554688 11.625 C 33.390625 11.542969 33.214844 11.496094 33.03125 11.480469 L 33.03125 7.5 C 33.222656 7.484375 33.402344 7.433594 33.570312 7.34375 C 33.742188 7.257812 33.890625 7.144531 34.015625 7 C 34.144531 6.855469 34.238281 6.691406 34.300781 6.511719 C 34.363281 6.332031 34.390625 6.144531 34.382812 5.953125 C 34.375 5.761719 34.328125 5.582031 34.25 5.40625 C 34.171875 5.230469 34.0625 5.078125 33.921875 4.949219 C 33.785156 4.816406 33.625 4.714844 33.445312 4.644531 C 33.269531 4.574219 33.085938 4.539062 32.894531 4.539062 L 29.664062 4.539062 L 29.664062 4.511719 C 29.652344 4.300781 29.597656 4.097656 29.507812 3.902344 C 29.414062 3.710938 29.289062 3.539062 29.128906 3.398438 C 28.972656 3.253906 28.792969 3.144531 28.589844 3.074219 C 28.386719 3 28.179688 2.96875 27.964844 2.980469 L 9.039062 2.980469 C 8.824219 2.96875 8.617188 3 8.414062 3.074219 C 8.210938 3.144531 8.03125 3.253906 7.871094 3.394531 C 7.714844 3.539062 7.585938 3.707031 7.496094 3.902344 C 7.402344 4.09375 7.347656 4.300781 7.335938 4.511719 L 7.335938 4.539062 L 4.105469 4.539062 C 3.914062 4.539062 3.730469 4.574219 3.554688 4.644531 C 3.378906 4.714844 3.21875 4.816406 3.082031 4.949219 C 2.941406 5.082031 2.835938 5.234375 2.753906 5.40625 C 2.675781 5.582031 2.632812 5.761719 2.625 5.953125 C 2.613281 6.144531 2.640625 6.332031 2.703125 6.511719 C 2.765625 6.691406 2.859375 6.851562 2.988281 6.996094 C 3.113281 7.140625 3.257812 7.257812 3.429688 7.34375 C 3.597656 7.429688 3.78125 7.484375 3.96875 7.5 L 3.96875 11.480469 C 3.785156 11.496094 3.609375 11.546875 3.445312 11.628906 C 3.277344 11.710938 3.132812 11.820312 3.007812 11.953125 C 2.882812 12.089844 2.789062 12.246094 2.722656 12.417969 C 2.652344 12.589844 2.621094 12.769531 2.621094 12.953125 C 2.621094 13.140625 2.652344 13.316406 2.722656 13.488281 C 2.789062 13.664062 2.882812 13.816406 3.007812 13.953125 C 3.132812 14.089844 3.28125 14.199219 3.445312 14.28125 C 3.609375 14.363281 3.785156 14.410156 3.96875 14.425781 L 3.96875 30.542969 L 3.300781 30.542969 C 3.144531 30.542969 2.992188 30.574219 2.847656 30.632812 C 2.703125 30.695312 2.578125 30.78125 2.464844 30.890625 C 2.355469 31 2.269531 31.128906 2.210938 31.273438 C 2.152344 31.417969 2.121094 31.566406 2.121094 31.722656 L 2.121094 32.894531 C 2.121094 33.050781 2.152344 33.203125 2.210938 33.347656 C 2.269531 33.492188 2.355469 33.621094 2.464844 33.730469 C 2.578125 33.839844 2.703125 33.925781 2.847656 33.984375 C 2.992188 34.046875 3.144531 34.074219 3.300781 34.074219 L 33.707031 34.074219 C 33.863281 34.074219 34.011719 34.046875 34.15625 33.984375 C 34.300781 33.925781 34.429688 33.839844 34.539062 33.730469 C 34.648438 33.621094 34.734375 33.492188 34.792969 33.347656 C 34.855469 33.203125 34.886719 33.050781 34.886719 32.894531 L 34.886719 31.722656 C 34.886719 31.566406 34.855469 31.417969 34.792969 31.273438 C 34.734375 31.128906 34.648438 31 34.539062 30.890625 C 34.429688 30.78125 34.300781 30.695312 34.15625 30.632812 C 34.011719 30.574219 33.863281 30.542969 33.707031 30.542969 Z M 5.089844 14.441406 L 31.914062 14.441406 L 31.914062 30.542969 L 23.046875 30.542969 L 23.046875 23.5625 C 23.046875 23.476562 23.03125 23.394531 23.023438 23.308594 L 23.214844 23.308594 C 23.367188 23.308594 23.5 23.253906 23.609375 23.144531 C 23.71875 23.035156 23.773438 22.902344 23.773438 22.75 L 23.773438 22.445312 C 23.773438 22.179688 23.746094 21.917969 23.695312 21.65625 C 23.644531 21.394531 23.566406 21.144531 23.464844 20.898438 C 23.363281 20.652344 23.238281 20.417969 23.089844 20.199219 C 22.945312 19.976562 22.777344 19.773438 22.589844 19.582031 C 22.398438 19.394531 22.195312 19.226562 21.976562 19.078125 C 21.753906 18.933594 21.519531 18.808594 21.277344 18.707031 C 21.03125 18.601562 20.777344 18.527344 20.515625 18.472656 C 20.257812 18.421875 19.992188 18.394531 19.726562 18.394531 L 17.28125 18.394531 C 17.015625 18.394531 16.75 18.421875 16.492188 18.472656 C 16.230469 18.527344 15.976562 18.601562 15.730469 18.703125 C 15.484375 18.804688 15.25 18.929688 15.03125 19.078125 C 14.808594 19.226562 14.605469 19.394531 14.417969 19.582031 C 14.230469 19.769531 14.0625 19.976562 13.914062 20.195312 C 13.765625 20.417969 13.640625 20.652344 13.539062 20.894531 C 13.4375 21.140625 13.359375 21.394531 13.308594 21.65625 C 13.253906 21.917969 13.230469 22.179688 13.230469 22.445312 L 13.230469 22.75 C 13.230469 22.902344 13.285156 23.035156 13.394531 23.144531 C 13.503906 23.253906 13.632812 23.308594 13.789062 23.308594 L 14.070312 23.308594 C 14.0625 23.394531 14.046875 23.476562 14.046875 23.5625 L 14.046875 30.542969 L 5.089844 30.542969 Z M 19.015625 30.542969 L 19.015625 23.308594 L 21.910156 23.308594 C 21.921875 23.390625 21.929688 23.476562 21.929688 23.5625 L 21.929688 30.542969 Z M 14.359375 22.191406 C 14.390625 21.824219 14.488281 21.476562 14.652344 21.148438 C 14.8125 20.820312 15.03125 20.53125 15.300781 20.285156 C 15.570312 20.035156 15.875 19.847656 16.21875 19.714844 C 16.558594 19.582031 16.914062 19.511719 17.28125 19.511719 L 19.726562 19.511719 C 20.09375 19.515625 20.449219 19.582031 20.789062 19.714844 C 21.128906 19.847656 21.433594 20.039062 21.707031 20.285156 C 21.976562 20.53125 22.191406 20.820312 22.351562 21.148438 C 22.515625 21.476562 22.613281 21.824219 22.644531 22.191406 Z M 15.164062 23.5625 C 15.164062 23.476562 15.171875 23.390625 15.183594 23.308594 L 17.898438 23.308594 L 17.898438 30.542969 L 15.164062 30.542969 Z M 5.089844 7.515625 L 7.335938 7.515625 L 7.335938 7.535156 C 7.347656 7.75 7.398438 7.957031 7.488281 8.152344 C 7.578125 8.347656 7.707031 8.515625 7.867188 8.660156 C 8.027344 8.804688 8.207031 8.914062 8.410156 8.984375 C 8.613281 9.058594 8.824219 9.085938 9.039062 9.074219 L 27.964844 9.074219 C 28.179688 9.082031 28.390625 9.050781 28.589844 8.980469 C 28.792969 8.90625 28.972656 8.796875 29.132812 8.652344 C 29.289062 8.507812 29.414062 8.339844 29.507812 8.148438 C 29.601562 7.953125 29.652344 7.75 29.664062 7.535156 L 31.910156 7.515625 L 31.910156 11.246094 L 5.089844 11.246094 Z M 32.894531 5.65625 C 32.996094 5.65625 33.082031 5.691406 33.15625 5.761719 C 33.230469 5.835938 33.265625 5.921875 33.265625 6.023438 C 33.265625 6.125 33.230469 6.214844 33.15625 6.285156 C 33.082031 6.359375 32.996094 6.394531 32.894531 6.394531 L 29.664062 6.394531 L 29.664062 5.65625 Z M 8.457031 4.511719 C 8.457031 4.289062 8.722656 4.097656 9.039062 4.097656 L 27.964844 4.097656 C 28.273438 4.097656 28.542969 4.292969 28.542969 4.511719 L 28.542969 7.535156 C 28.542969 7.761719 28.28125 7.957031 27.964844 7.957031 L 9.039062 7.957031 C 8.71875 7.957031 8.457031 7.765625 8.457031 7.535156 Z M 3.738281 6.023438 C 3.738281 5.921875 3.773438 5.835938 3.847656 5.761719 C 3.917969 5.691406 4.003906 5.65625 4.105469 5.65625 L 7.335938 5.65625 L 7.335938 6.394531 L 4.105469 6.394531 C 4.003906 6.394531 3.917969 6.359375 3.84375 6.289062 C 3.773438 6.214844 3.738281 6.125 3.738281 6.023438 Z M 3.738281 12.953125 C 3.738281 12.851562 3.773438 12.765625 3.847656 12.691406 C 3.917969 12.621094 4.007812 12.585938 4.109375 12.585938 L 32.894531 12.585938 C 32.996094 12.585938 33.085938 12.621094 33.15625 12.691406 C 33.226562 12.765625 33.265625 12.851562 33.265625 12.953125 C 33.265625 13.054688 33.226562 13.144531 33.15625 13.214844 C 33.085938 13.285156 32.996094 13.324219 32.894531 13.324219 L 4.109375 13.324219 C 4.007812 13.324219 3.917969 13.285156 3.847656 13.214844 C 3.773438 13.140625 3.738281 13.054688 3.738281 12.953125 Z M 33.765625 32.894531 C 33.765625 32.9375 33.746094 32.957031 33.707031 32.957031 L 3.300781 32.957031 C 3.257812 32.957031 3.238281 32.9375 3.238281 32.894531 L 3.238281 31.722656 C 3.238281 31.683594 3.257812 31.664062 3.300781 31.664062 L 33.707031 31.664062 C 33.746094 31.664062 33.765625 31.683594 33.765625 31.722656 Z M 33.765625 32.894531 " fill-opacity="1" fill-rule="nonzero"/></g></svg>