<svg xmlns="http://www.w3.org/2000/svg" xmlns:xlink="http://www.w3.org/1999/xlink" width="50" zoomAndPan="magnify" viewBox="0 0 37.5 37.499999" height="50" preserveAspectRatio="xMidYMid meet" version="1.0"><defs><clipPath id="0922de63ee"><path d="M 0 0 L 37.007812 0 L 37.007812 37.007812 L 0 37.007812 Z M 0 0 " clip-rule="nonzero"/></clipPath><clipPath id="0f0369f32a"><path d="M 2 2.121094 L 35 2.121094 L 35 34.6875 L 2 34.6875 Z M 2 2.121094 " clip-rule="nonzero"/></clipPath><clipPath id="311f2b0398"><path d="M 26 2.121094 L 28 2.121094 L 28 6 L 26 6 Z M 26 2.121094 " clip-rule="nonzero"/></clipPath></defs><g clip-path="url(#0922de63ee)"><path fill="#ffffff" d="M 0 0 L 37.007812 0 L 37.007812 37.007812 L 0 37.007812 Z M 0 0 " fill-opacity="1" fill-rule="nonzero"/><path fill="#ffffff" d="M 0 0 L 37.007812 0 L 37.007812 37.007812 L 0 37.007812 Z M 0 0 " fill-opacity="1" fill-rule="nonzero"/></g><g clip-path="url(#0f0369f32a)"><path fill="#46b65e" d="M 2.632812 34.871094 L 29.933594 34.871094 C 29.933594 34.871094 29.9375 34.875 29.9375 34.875 C 29.949219 34.875 29.960938 34.875 29.96875 34.871094 L 34.566406 34.871094 C 34.792969 34.871094 34.976562 34.691406 34.976562 34.464844 C 34.976562 34.238281 34.792969 34.054688 34.566406 34.054688 L 31.914062 34.054688 C 32.621094 33.4375 33.066406 32.53125 33.066406 31.535156 C 33.066406 29.984375 31.992188 28.652344 30.53125 28.285156 C 30.667969 27.914062 30.742188 27.519531 30.742188 27.117188 C 30.742188 25.269531 29.238281 23.765625 27.390625 23.765625 C 26.523438 23.765625 25.707031 24.097656 25.089844 24.683594 C 24.472656 24.097656 23.65625 23.765625 22.789062 23.765625 C 20.941406 23.765625 19.4375 25.269531 19.4375 27.117188 C 19.4375 27.519531 19.511719 27.917969 19.652344 28.292969 C 18.203125 28.667969 17.136719 29.996094 17.136719 31.535156 C 17.136719 32.527344 17.585938 33.433594 18.296875 34.054688 L 9.621094 34.054688 L 9.621094 29.503906 C 11.503906 29.410156 13.28125 28.574219 14.539062 27.164062 C 15.871094 25.667969 16.503906 23.667969 16.277344 21.679688 L 14.546875 6.707031 C 14.246094 4.09375 12.03125 2.121094 9.398438 2.121094 C 6.808594 2.121094 4.597656 4.058594 4.257812 6.621094 L 2.285156 21.566406 C 2.023438 23.574219 2.636719 25.597656 3.972656 27.121094 C 5.207031 28.527344 6.945312 29.375 8.804688 29.496094 L 8.804688 34.054688 L 2.632812 34.054688 C 2.410156 34.054688 2.226562 34.238281 2.226562 34.464844 C 2.226562 34.691406 2.410156 34.871094 2.632812 34.871094 Z M 4.585938 26.582031 C 3.40625 25.234375 2.863281 23.445312 3.097656 21.671875 L 5.070312 6.730469 C 5.355469 4.570312 7.214844 2.941406 9.398438 2.941406 C 11.617188 2.941406 13.480469 4.601562 13.734375 6.800781 L 15.460938 21.773438 C 15.664062 23.53125 15.105469 25.296875 13.929688 26.617188 C 12.824219 27.855469 11.269531 28.59375 9.621094 28.6875 L 9.621094 23.675781 L 12.660156 20.644531 C 12.820312 20.484375 12.820312 20.222656 12.660156 20.0625 C 12.5 19.902344 12.242188 19.902344 12.082031 20.0625 L 9.621094 22.519531 L 9.621094 17.898438 L 11.929688 15.59375 C 12.089844 15.433594 12.089844 15.171875 11.929688 15.015625 C 11.769531 14.851562 11.511719 14.855469 11.351562 15.011719 L 9.621094 16.738281 L 9.621094 13.394531 C 9.621094 13.167969 9.4375 12.984375 9.210938 12.984375 C 8.988281 12.984375 8.804688 13.167969 8.804688 13.394531 L 8.804688 16.738281 L 7.074219 15.011719 C 6.914062 14.851562 6.652344 14.851562 6.496094 15.011719 C 6.335938 15.171875 6.335938 15.433594 6.496094 15.59375 L 8.804688 17.898438 L 8.804688 22.519531 L 6.34375 20.0625 C 6.183594 19.902344 5.925781 19.902344 5.765625 20.0625 C 5.605469 20.222656 5.605469 20.484375 5.765625 20.644531 L 8.804688 23.675781 L 8.804688 28.679688 C 7.183594 28.554688 5.664062 27.8125 4.585938 26.582031 Z M 17.957031 31.535156 C 17.957031 30.222656 18.980469 29.117188 20.285156 29.011719 C 20.425781 29 20.550781 28.917969 20.617188 28.792969 C 20.679688 28.667969 20.675781 28.519531 20.605469 28.398438 C 20.378906 28.007812 20.257812 27.566406 20.257812 27.117188 C 20.257812 25.722656 21.394531 24.585938 22.789062 24.585938 C 23.5625 24.585938 24.285156 24.933594 24.769531 25.542969 C 24.925781 25.738281 25.253906 25.738281 25.410156 25.542969 C 25.894531 24.933594 26.617188 24.585938 27.390625 24.585938 C 28.785156 24.585938 29.921875 25.722656 29.921875 27.117188 C 29.921875 27.566406 29.800781 28.007812 29.574219 28.394531 C 29.503906 28.519531 29.5 28.667969 29.566406 28.792969 C 29.632812 28.917969 29.757812 29 29.898438 29.011719 C 31.214844 29.105469 32.25 30.214844 32.25 31.535156 C 32.25 32.84375 31.230469 33.945312 29.925781 34.054688 L 20.261719 34.054688 C 18.96875 33.9375 17.957031 32.835938 17.957031 31.535156 Z M 17.957031 31.535156 " fill-opacity="1" fill-rule="nonzero"/></g><path fill="#46b65e" d="M 30.398438 10.339844 C 30.398438 8.332031 28.765625 6.699219 26.757812 6.699219 C 24.753906 6.699219 23.121094 8.332031 23.121094 10.339844 C 23.121094 12.34375 24.753906 13.976562 26.757812 13.976562 C 28.765625 13.976562 30.398438 12.34375 30.398438 10.339844 Z M 26.757812 13.160156 C 25.203125 13.160156 23.941406 11.894531 23.941406 10.339844 C 23.941406 8.785156 25.203125 7.519531 26.757812 7.519531 C 28.3125 7.519531 29.578125 8.785156 29.578125 10.339844 C 29.578125 11.894531 28.3125 13.160156 26.757812 13.160156 Z M 26.757812 13.160156 " fill-opacity="1" fill-rule="nonzero"/><g clip-path="url(#311f2b0398)"><path fill="#46b65e" d="M 27.167969 4.636719 L 27.167969 2.53125 C 27.167969 2.304688 26.984375 2.121094 26.757812 2.121094 C 26.535156 2.121094 26.351562 2.304688 26.351562 2.53125 L 26.351562 4.636719 C 26.351562 4.863281 26.535156 5.046875 26.757812 5.046875 C 26.984375 5.046875 27.167969 4.863281 27.167969 4.636719 Z M 27.167969 4.636719 " fill-opacity="1" fill-rule="nonzero"/></g><path fill="#46b65e" d="M 22.726562 6.714844 C 22.832031 6.714844 22.9375 6.675781 23.015625 6.59375 C 23.175781 6.433594 23.175781 6.175781 23.015625 6.015625 L 21.527344 4.527344 C 21.367188 4.367188 21.109375 4.367188 20.949219 4.527344 C 20.789062 4.6875 20.789062 4.949219 20.949219 5.109375 L 22.4375 6.59375 C 22.515625 6.675781 22.621094 6.714844 22.726562 6.714844 Z M 22.726562 6.714844 " fill-opacity="1" fill-rule="nonzero"/><path fill="#46b65e" d="M 18.542969 10.339844 C 18.542969 10.566406 18.726562 10.746094 18.953125 10.746094 L 21.054688 10.746094 C 21.28125 10.746094 21.464844 10.566406 21.464844 10.339844 C 21.464844 10.113281 21.28125 9.929688 21.054688 9.929688 L 18.953125 9.929688 C 18.726562 9.929688 18.542969 10.113281 18.542969 10.339844 Z M 18.542969 10.339844 " fill-opacity="1" fill-rule="nonzero"/><path fill="#46b65e" d="M 21.238281 16.269531 C 21.34375 16.269531 21.449219 16.230469 21.527344 16.148438 L 23.015625 14.660156 C 23.175781 14.5 23.175781 14.242188 23.015625 14.082031 C 22.855469 13.921875 22.597656 13.921875 22.4375 14.082031 L 20.949219 15.570312 C 20.789062 15.730469 20.789062 15.988281 20.949219 16.148438 C 21.03125 16.230469 21.132812 16.269531 21.238281 16.269531 Z M 21.238281 16.269531 " fill-opacity="1" fill-rule="nonzero"/><path fill="#46b65e" d="M 26.351562 16.042969 L 26.351562 18.144531 C 26.351562 18.371094 26.535156 18.554688 26.757812 18.554688 C 26.984375 18.554688 27.167969 18.371094 27.167969 18.144531 L 27.167969 16.042969 C 27.167969 15.816406 26.984375 15.632812 26.757812 15.632812 C 26.535156 15.632812 26.351562 15.816406 26.351562 16.042969 Z M 26.351562 16.042969 " fill-opacity="1" fill-rule="nonzero"/><path fill="#46b65e" d="M 31.992188 16.148438 C 32.070312 16.230469 32.175781 16.269531 32.28125 16.269531 C 32.386719 16.269531 32.488281 16.230469 32.570312 16.148438 C 32.730469 15.988281 32.730469 15.730469 32.570312 15.570312 L 31.082031 14.082031 C 30.921875 13.921875 30.664062 13.921875 30.503906 14.082031 C 30.34375 14.242188 30.34375 14.5 30.503906 14.660156 Z M 31.992188 16.148438 " fill-opacity="1" fill-rule="nonzero"/><path fill="#46b65e" d="M 34.976562 10.339844 C 34.976562 10.113281 34.792969 9.929688 34.566406 9.929688 L 32.460938 9.929688 C 32.238281 9.929688 32.054688 10.113281 32.054688 10.339844 C 32.054688 10.566406 32.238281 10.746094 32.460938 10.746094 L 34.566406 10.746094 C 34.792969 10.746094 34.976562 10.566406 34.976562 10.339844 Z M 34.976562 10.339844 " fill-opacity="1" fill-rule="nonzero"/><path fill="#46b65e" d="M 30.792969 6.714844 C 30.898438 6.714844 31 6.675781 31.082031 6.59375 L 32.570312 5.109375 C 32.730469 4.949219 32.730469 4.6875 32.570312 4.527344 C 32.410156 4.367188 32.152344 4.367188 31.992188 4.527344 L 30.503906 6.015625 C 30.34375 6.175781 30.34375 6.433594 30.503906 6.59375 C 30.582031 6.675781 30.6875 6.714844 30.792969 6.714844 Z M 30.792969 6.714844 " fill-opacity="1" fill-rule="nonzero"/></svg>