<svg xmlns="http://www.w3.org/2000/svg" xmlns:xlink="http://www.w3.org/1999/xlink" width="50" zoomAndPan="magnify" viewBox="0 0 37.5 37.499999" height="50" preserveAspectRatio="xMidYMid meet" version="1.0"><defs><clipPath id="69a6fcc241"><path d="M 0 0 L 37.007812 0 L 37.007812 37.007812 L 0 37.007812 Z M 0 0 " clip-rule="nonzero"/></clipPath><clipPath id="0ce7d3bc5e"><path d="M 2.382812 16 L 34.949219 16 L 34.949219 36.339844 L 2.382812 36.339844 Z M 2.382812 16 " clip-rule="nonzero"/></clipPath><clipPath id="689c8bf832"><path d="M 15 0.8125 L 22 0.8125 L 22 7 L 15 7 Z M 15 0.8125 " clip-rule="nonzero"/></clipPath></defs><g clip-path="url(#69a6fcc241)"><path fill="#ffffff" d="M 0 0 L 37.007812 0 L 37.007812 37.007812 L 0 37.007812 Z M 0 0 " fill-opacity="1" fill-rule="nonzero"/><path fill="#ffffff" d="M 0 0 L 37.007812 0 L 37.007812 37.007812 L 0 37.007812 Z M 0 0 " fill-opacity="1" fill-rule="nonzero"/></g><path fill="#46b65e" d="M 4.230469 18.183594 L 10.316406 18.183594 C 10.289062 17.800781 10.371094 17.414062 10.539062 17.082031 L 4.78125 17.082031 L 4.78125 5.511719 L 14.726562 5.511719 C 14.753906 5.128906 14.835938 4.769531 14.972656 4.410156 L 4.230469 4.410156 C 3.925781 4.410156 3.679688 4.660156 3.679688 4.960938 L 3.679688 17.632812 C 3.679688 17.9375 3.925781 18.183594 4.230469 18.183594 Z M 4.230469 18.183594 " fill-opacity="1" fill-rule="nonzero"/><path fill="#46b65e" d="M 32.328125 5.511719 L 32.328125 17.082031 L 26.542969 17.082031 C 26.707031 17.414062 26.792969 17.800781 26.761719 18.183594 L 32.878906 18.183594 C 33.183594 18.183594 33.429688 17.9375 33.429688 17.632812 L 33.429688 4.960938 C 33.429688 4.660156 33.183594 4.410156 32.878906 4.410156 L 22.164062 4.410156 C 22.300781 4.769531 22.382812 5.128906 22.410156 5.511719 Z M 32.328125 5.511719 " fill-opacity="1" fill-rule="nonzero"/><g clip-path="url(#0ce7d3bc5e)"><path fill="#46b65e" d="M 34.117188 25.539062 L 31.886719 23.75 C 31.585938 23.53125 31.199219 23.445312 30.867188 23.558594 C 30.511719 23.667969 30.234375 23.941406 30.152344 24.300781 L 28.96875 28.597656 L 27.3125 28.597656 L 26.929688 27.773438 L 27.699219 27.773438 C 28.195312 27.773438 28.636719 27.441406 28.773438 26.945312 L 29.957031 22.261719 C 30.070312 21.847656 29.929688 21.4375 29.601562 21.160156 L 27.644531 19.480469 C 27.34375 19.230469 26.957031 19.148438 26.597656 19.257812 C 26.238281 19.371094 25.964844 19.671875 25.855469 20.058594 L 25.164062 23.226562 L 24.917969 23.28125 L 24.394531 22.097656 C 24.640625 21.960938 24.835938 21.683594 24.917969 21.378906 L 25.632812 18.242188 C 25.714844 17.882812 25.605469 17.523438 25.386719 17.25 L 24.613281 16.476562 C 24.339844 16.175781 23.925781 16.035156 23.511719 16.148438 C 23.128906 16.257812 22.824219 16.558594 22.714844 16.972656 L 22.492188 17.964844 L 22.382812 17.691406 C 22.21875 17.359375 21.914062 17.136719 21.585938 17.082031 L 21.585938 17.054688 L 15.46875 17.054688 L 15.46875 17.082031 C 15.136719 17.167969 14.863281 17.386719 14.699219 17.691406 L 14.558594 18.019531 L 14.3125 16.945312 C 14.230469 16.53125 13.925781 16.230469 13.511719 16.121094 C 13.128906 16.007812 12.6875 16.148438 12.410156 16.449219 L 11.667969 17.25 C 11.417969 17.523438 11.335938 17.882812 11.417969 18.242188 L 12.136719 21.378906 C 12.21875 21.710938 12.410156 21.960938 12.6875 22.097656 L 12.164062 23.28125 L 11.859375 23.199219 L 11.144531 20.058594 C 11.0625 19.671875 10.785156 19.398438 10.398438 19.289062 C 10.042969 19.175781 9.628906 19.257812 9.355469 19.507812 L 7.398438 21.1875 C 7.09375 21.464844 6.957031 21.875 7.039062 22.289062 L 8.222656 26.972656 C 8.335938 27.46875 8.773438 27.800781 9.296875 27.800781 L 10.125 27.800781 L 9.738281 28.625 L 8.03125 28.625 L 6.847656 24.328125 C 6.738281 23.96875 6.488281 23.695312 6.128906 23.585938 C 5.773438 23.472656 5.386719 23.53125 5.109375 23.777344 L 2.878906 25.566406 C 2.550781 25.84375 2.382812 26.285156 2.496094 26.699219 L 4.09375 32.785156 C 4.230469 33.28125 4.671875 33.613281 5.167969 33.613281 L 7.535156 33.613281 L 6.765625 35.320312 C 6.625 35.59375 6.765625 35.925781 7.039062 36.035156 C 7.316406 36.171875 7.644531 36.035156 7.753906 35.761719 L 15.71875 18.183594 L 21.390625 18.183594 L 29.351562 35.789062 C 29.4375 35.980469 29.65625 36.117188 29.847656 36.117188 C 29.929688 36.117188 30.015625 36.089844 30.070312 36.0625 C 30.34375 35.925781 30.480469 35.621094 30.34375 35.347656 L 29.574219 33.640625 L 31.832031 33.640625 C 32.328125 33.640625 32.769531 33.308594 32.90625 32.8125 L 34.503906 26.726562 C 34.613281 26.257812 34.476562 25.816406 34.117188 25.539062 Z M 12.523438 18.019531 L 13.265625 17.222656 L 13.652344 18.929688 C 13.707031 19.121094 13.789062 19.316406 13.953125 19.453125 L 13.238281 21.050781 Z M 9.324219 26.699219 L 8.140625 22.015625 L 10.097656 20.335938 L 10.8125 23.472656 C 10.921875 23.859375 11.226562 24.164062 11.613281 24.273438 L 11.722656 24.300781 L 10.648438 26.699219 Z M 5.222656 32.480469 L 3.625 26.394531 L 5.855469 24.605469 L 7.039062 28.902344 C 7.175781 29.371094 7.617188 29.699219 8.113281 29.699219 L 9.296875 29.699219 L 8.058594 32.453125 L 5.222656 32.453125 Z M 25.441406 24.300781 C 25.828125 24.191406 26.128906 23.886719 26.238281 23.503906 L 26.957031 20.363281 L 28.914062 22.042969 L 27.726562 26.726562 L 26.460938 26.726562 L 25.386719 24.328125 Z M 23.429688 18.929688 L 23.816406 17.222656 L 24.558594 18.019531 L 23.871094 20.96875 L 23.15625 19.398438 C 23.292969 19.289062 23.375 19.121094 23.429688 18.929688 Z M 31.832031 32.480469 L 29.078125 32.480469 L 27.835938 29.726562 L 28.96875 29.726562 C 29.464844 29.726562 29.902344 29.398438 30.042969 28.929688 L 31.226562 24.632812 L 33.457031 26.421875 Z M 31.832031 32.480469 " fill-opacity="1" fill-rule="nonzero"/></g><g clip-path="url(#689c8bf832)"><path fill="#46b65e" d="M 16.351562 6.339844 L 20.757812 6.339844 C 21.0625 6.339844 21.308594 6.09375 21.308594 5.789062 C 21.308594 4.464844 20.371094 3.335938 19.105469 3.089844 L 19.105469 1.382812 C 19.105469 1.078125 18.855469 0.832031 18.554688 0.832031 C 18.25 0.832031 18.003906 1.078125 18.003906 1.382812 L 18.003906 3.089844 C 16.734375 3.335938 15.800781 4.464844 15.800781 5.789062 C 15.800781 6.09375 16.046875 6.339844 16.351562 6.339844 Z M 18.554688 4.136719 C 19.269531 4.136719 19.875 4.605469 20.125 5.238281 L 16.984375 5.238281 C 17.230469 4.605469 17.839844 4.136719 18.554688 4.136719 Z M 18.554688 4.136719 " fill-opacity="1" fill-rule="nonzero"/></g><path fill="#46b65e" d="M 18.003906 7.441406 L 18.003906 8.542969 C 18.003906 8.847656 18.25 9.09375 18.554688 9.09375 C 18.855469 9.09375 19.105469 8.847656 19.105469 8.542969 L 19.105469 7.441406 C 19.105469 7.140625 18.855469 6.890625 18.554688 6.890625 C 18.25 6.890625 18.003906 7.140625 18.003906 7.441406 Z M 18.003906 7.441406 " fill-opacity="1" fill-rule="nonzero"/><path fill="#46b65e" d="M 15.6875 8.652344 C 15.828125 8.652344 15.964844 8.597656 16.074219 8.488281 L 16.847656 7.71875 C 17.066406 7.496094 17.066406 7.167969 16.847656 6.945312 C 16.625 6.726562 16.296875 6.726562 16.074219 6.945312 L 15.304688 7.71875 C 15.082031 7.9375 15.082031 8.269531 15.304688 8.488281 C 15.414062 8.597656 15.550781 8.652344 15.6875 8.652344 Z M 15.6875 8.652344 " fill-opacity="1" fill-rule="nonzero"/><path fill="#46b65e" d="M 20.261719 6.945312 C 20.042969 7.167969 20.042969 7.496094 20.261719 7.71875 L 21.035156 8.488281 C 21.144531 8.597656 21.28125 8.652344 21.417969 8.652344 C 21.558594 8.652344 21.695312 8.597656 21.804688 8.488281 C 22.023438 8.269531 22.023438 7.9375 21.804688 7.71875 L 21.035156 6.945312 C 20.8125 6.726562 20.484375 6.726562 20.261719 6.945312 Z M 20.261719 6.945312 " fill-opacity="1" fill-rule="nonzero"/></svg>