<svg xmlns="http://www.w3.org/2000/svg" xmlns:xlink="http://www.w3.org/1999/xlink" width="50" zoomAndPan="magnify" viewBox="0 0 37.5 37.499999" height="50" preserveAspectRatio="xMidYMid meet" version="1.0"><defs><clipPath id="5a8f599c30"><path d="M 0 0 L 37.007812 0 L 37.007812 37.007812 L 0 37.007812 Z M 0 0 " clip-rule="nonzero"/></clipPath><clipPath id="a12c6628ef"><path d="M 1.136719 13 L 22 13 L 22 31.460938 L 1.136719 31.460938 Z M 1.136719 13 " clip-rule="nonzero"/></clipPath><clipPath id="c857aadf7f"><path d="M 13.191406 7.035156 L 35.863281 7.035156 L 35.863281 31.460938 L 13.191406 31.460938 Z M 13.191406 7.035156 " clip-rule="nonzero"/></clipPath><clipPath id="b9a37cac4d"><path d="M 6 7.035156 L 30 7.035156 L 30 22 L 6 22 Z M 6 7.035156 " clip-rule="nonzero"/></clipPath></defs><g clip-path="url(#5a8f599c30)"><path fill="#ffffff" d="M 0 0 L 37.007812 0 L 37.007812 37.007812 L 0 37.007812 Z M 0 0 " fill-opacity="1" fill-rule="nonzero"/><path fill="#ffffff" d="M 0 0 L 37.007812 0 L 37.007812 37.007812 L 0 37.007812 Z M 0 0 " fill-opacity="1" fill-rule="nonzero"/></g><g clip-path="url(#a12c6628ef)"><path fill="#46b65e" d="M 9.082031 30.242188 L 7.789062 28.523438 C 7.675781 28.375 7.5 28.292969 7.3125 28.304688 C 7.203125 28.308594 7.097656 28.347656 7.007812 28.414062 C 6.761719 28.601562 6.714844 28.949219 6.898438 29.195312 L 7.34375 29.789062 L 6.410156 30.492188 L 2.3125 25.054688 L 3.25 24.351562 L 5.757812 27.675781 C 5.867188 27.824219 6.046875 27.90625 6.234375 27.898438 C 6.34375 27.890625 6.449219 27.851562 6.535156 27.785156 C 6.78125 27.601562 6.832031 27.25 6.648438 27.003906 L 3.292969 22.558594 L 4.335938 21.769531 L 10.128906 29.453125 Z M 3.496094 29.109375 L 2.839844 28.238281 L 3.144531 28.011719 L 3.800781 28.882812 Z M 14.234375 19.652344 L 14.890625 20.523438 L 8.453125 25.375 L 7.796875 24.503906 Z M 12.558594 15.574219 L 13.601562 14.789062 L 16.957031 19.234375 C 17.070312 19.382812 17.246094 19.46875 17.433594 19.457031 C 17.542969 19.449219 17.648438 19.410156 17.738281 19.34375 C 17.984375 19.160156 18.03125 18.808594 17.847656 18.5625 L 15.339844 15.238281 L 16.273438 14.535156 L 20.371094 19.972656 L 19.4375 20.675781 L 18.992188 20.085938 C 18.878906 19.933594 18.699219 19.851562 18.511719 19.863281 C 18.402344 19.871094 18.296875 19.910156 18.210938 19.976562 C 18.089844 20.066406 18.011719 20.195312 17.992188 20.34375 C 17.972656 20.488281 18.011719 20.636719 18.101562 20.753906 L 19.394531 22.472656 L 18.347656 23.261719 Z M 19.191406 15.917969 L 19.847656 16.789062 L 19.542969 17.019531 L 18.886719 16.148438 Z M 9.125 26.265625 L 15.5625 21.414062 L 17.480469 23.964844 C 17.699219 24.25 18.042969 24.410156 18.402344 24.386719 C 18.613281 24.375 18.816406 24.300781 18.988281 24.171875 L 20.09375 23.339844 C 20.324219 23.167969 20.472656 22.914062 20.511719 22.628906 C 20.554688 22.34375 20.480469 22.0625 20.308594 21.832031 L 20.109375 21.566406 L 21.097656 20.824219 C 21.320312 20.65625 21.464844 20.410156 21.503906 20.132812 C 21.542969 19.855469 21.472656 19.582031 21.304688 19.359375 L 20.214844 17.910156 L 20.964844 17.34375 C 21.207031 17.160156 21.257812 16.808594 21.074219 16.5625 L 19.746094 14.800781 C 19.632812 14.652344 19.453125 14.570312 19.265625 14.582031 C 19.15625 14.585938 19.050781 14.625 18.964844 14.691406 L 18.214844 15.257812 L 17.121094 13.808594 C 16.914062 13.53125 16.578125 13.375 16.226562 13.394531 C 16.019531 13.40625 15.824219 13.480469 15.65625 13.605469 L 14.667969 14.347656 L 14.46875 14.085938 C 14.253906 13.796875 13.910156 13.636719 13.546875 13.660156 C 13.335938 13.671875 13.132812 13.746094 12.960938 13.875 L 11.855469 14.707031 C 11.625 14.878906 11.476562 15.132812 11.4375 15.417969 C 11.398438 15.703125 11.46875 15.984375 11.640625 16.214844 L 13.5625 18.761719 L 7.125 23.613281 L 5.203125 21.066406 C 4.988281 20.777344 4.644531 20.621094 4.28125 20.640625 C 4.070312 20.652344 3.867188 20.726562 3.695312 20.855469 L 2.589844 21.6875 C 2.117188 22.046875 2.019531 22.722656 2.378906 23.195312 L 2.578125 23.460938 L 1.589844 24.207031 C 1.367188 24.375 1.222656 24.617188 1.183594 24.894531 C 1.140625 25.171875 1.214844 25.449219 1.382812 25.671875 L 2.472656 27.121094 L 1.722656 27.683594 C 1.601562 27.773438 1.527344 27.90625 1.503906 28.050781 C 1.484375 28.199219 1.523438 28.347656 1.613281 28.464844 L 2.941406 30.226562 C 3.054688 30.375 3.230469 30.460938 3.417969 30.449219 C 3.527344 30.441406 3.632812 30.402344 3.722656 30.335938 L 4.472656 29.773438 L 5.5625 31.21875 C 5.773438 31.5 6.109375 31.652344 6.457031 31.632812 C 6.664062 31.621094 6.863281 31.550781 7.027344 31.425781 L 8.015625 30.679688 L 8.214844 30.945312 C 8.433594 31.230469 8.777344 31.390625 9.136719 31.371094 C 9.351562 31.359375 9.554688 31.28125 9.722656 31.15625 L 10.828125 30.320312 C 11.058594 30.148438 11.207031 29.898438 11.246094 29.613281 C 11.289062 29.328125 11.214844 29.042969 11.042969 28.816406 L 9.125 26.265625 " fill-opacity="1" fill-rule="nonzero"/></g><g clip-path="url(#c857aadf7f)"><path fill="#46b65e" d="M 35.535156 12.519531 C 35.324219 11.792969 35.019531 11.113281 34.617188 10.496094 C 33.863281 9.324219 32.78125 8.390625 31.488281 7.789062 C 30.097656 7.144531 28.542969 6.90625 26.984375 7.105469 C 25.359375 7.3125 23.828125 7.988281 22.554688 9.0625 C 22.292969 9.28125 22.261719 9.667969 22.480469 9.925781 C 22.699219 10.1875 23.085938 10.21875 23.34375 10 C 25.503906 8.183594 28.496094 7.75 30.96875 8.902344 C 33.300781 9.984375 34.636719 12.183594 34.636719 14.933594 C 34.636719 16.601562 33.882812 18.417969 32.332031 20.488281 C 30.933594 22.355469 29.132812 24.117188 27.394531 25.820312 L 27.351562 25.863281 C 25.667969 27.511719 24.332031 28.695312 23.269531 29.46875 C 21.96875 30.421875 21.296875 30.605469 20.960938 30.59375 C 20.640625 30.578125 19.902344 30.414062 18.53125 29.457031 C 17.3125 28.601562 15.875 27.316406 14.257812 25.636719 C 14.023438 25.394531 13.636719 25.386719 13.390625 25.621094 C 13.148438 25.855469 13.140625 26.242188 13.375 26.488281 C 15.046875 28.222656 16.542969 29.558594 17.828125 30.460938 C 19.070312 31.328125 20.105469 31.785156 20.914062 31.816406 C 20.941406 31.820312 20.96875 31.820312 20.992188 31.820312 C 21.773438 31.820312 22.730469 31.386719 23.992188 30.460938 C 25.101562 29.648438 26.480469 28.429688 28.210938 26.738281 L 28.253906 26.695312 C 29.941406 25.042969 31.859375 23.164062 33.3125 21.222656 C 35.027344 18.933594 35.863281 16.878906 35.863281 14.933594 C 35.863281 14.089844 35.75 13.277344 35.535156 12.519531 " fill-opacity="1" fill-rule="nonzero"/></g><g clip-path="url(#b9a37cac4d)"><path fill="#46b65e" d="M 7.878906 19.855469 C 7.976562 19.855469 8.078125 19.832031 8.171875 19.78125 C 8.46875 19.617188 8.578125 19.246094 8.414062 18.949219 C 7.636719 17.527344 7.242188 16.175781 7.242188 14.933594 C 7.242188 12.078125 8.769531 9.796875 11.332031 8.828125 C 14.144531 7.761719 17.386719 8.574219 19.402344 10.851562 C 20.398438 12.007812 21.308594 13.3125 22.191406 14.574219 C 23.191406 16.007812 24.136719 17.359375 25.195312 18.515625 C 25.773438 19.152344 26.332031 19.664062 26.902344 20.082031 C 27.550781 20.566406 28.195312 20.914062 28.878906 21.15625 C 28.945312 21.179688 29.015625 21.191406 29.082031 21.191406 C 29.335938 21.191406 29.570312 21.035156 29.660156 20.78125 C 29.773438 20.460938 29.605469 20.113281 29.285156 20 C 26.886719 19.152344 25.09375 16.585938 23.195312 13.871094 C 22.296875 12.585938 21.367188 11.253906 20.332031 10.046875 C 20.328125 10.046875 20.328125 10.046875 20.328125 10.046875 C 20.328125 10.042969 20.324219 10.042969 20.324219 10.042969 C 19.125 8.683594 17.566406 7.757812 15.8125 7.355469 C 14.992188 7.167969 14.148438 7.101562 13.308594 7.15625 C 12.476562 7.214844 11.664062 7.390625 10.894531 7.679688 C 9.472656 8.21875 8.273438 9.128906 7.421875 10.3125 C 6.972656 10.941406 6.625 11.644531 6.386719 12.398438 C 6.140625 13.191406 6.015625 14.042969 6.015625 14.933594 C 6.015625 16.382812 6.460938 17.933594 7.339844 19.539062 C 7.453125 19.742188 7.660156 19.855469 7.878906 19.855469 " fill-opacity="1" fill-rule="nonzero"/></g></svg>