<svg xmlns="http://www.w3.org/2000/svg" xmlns:xlink="http://www.w3.org/1999/xlink" width="50" zoomAndPan="magnify" viewBox="0 0 37.5 37.499999" height="50" preserveAspectRatio="xMidYMid meet" version="1.0"><defs><clipPath id="6199326db3"><path d="M 0 0 L 37.007812 0 L 37.007812 37.007812 L 0 37.007812 Z M 0 0 " clip-rule="nonzero"/></clipPath><clipPath id="a473a4e3ed"><path d="M 1.628906 2.195312 L 35.675781 2.195312 L 35.675781 33.28125 L 1.628906 33.28125 Z M 1.628906 2.195312 " clip-rule="nonzero"/></clipPath></defs><g clip-path="url(#6199326db3)"><path fill="#ffffff" d="M 0 0 L 37.007812 0 L 37.007812 37.007812 L 0 37.007812 Z M 0 0 " fill-opacity="1" fill-rule="nonzero"/><path fill="#ffffff" d="M 0 0 L 37.007812 0 L 37.007812 37.007812 L 0 37.007812 Z M 0 0 " fill-opacity="1" fill-rule="nonzero"/></g><g clip-path="url(#a473a4e3ed)"><path fill="#46b65e" d="M 32.675781 13.722656 C 32.882812 15.605469 33.785156 16.675781 35.253906 16.753906 C 35.324219 16.753906 35.398438 16.730469 35.453125 16.679688 C 35.503906 16.628906 35.535156 16.558594 35.535156 16.484375 L 35.535156 2.46875 C 35.535156 2.320312 35.414062 2.199219 35.265625 2.199219 L 24.726562 2.199219 C 24.6875 2.199219 24.648438 2.207031 24.609375 2.222656 C 24.503906 2.273438 22.019531 3.464844 22.019531 5.644531 C 22.019531 7.425781 23.550781 8.488281 24.164062 8.84375 C 23.832031 9.515625 23.050781 11.398438 23.855469 12.886719 C 24.699219 14.449219 26.984375 14.824219 27.65625 14.902344 C 27.808594 15.359375 28.265625 16.554688 28.988281 16.996094 C 29.648438 17.398438 30.851562 17.492188 31.394531 17.511719 C 31.363281 18.132812 31.230469 19.210938 31 20.730469 L 24.898438 20.730469 C 24.304688 20.730469 23.824219 21.214844 23.824219 21.808594 L 23.824219 24.351562 L 23.632812 24.351562 C 23.230469 24.351562 22.902344 24.679688 22.902344 25.082031 L 22.902344 26.097656 C 22.902344 26.5 23.230469 26.828125 23.632812 26.828125 L 24.527344 26.828125 L 24.527344 28.3125 L 23.625 28.3125 C 23.285156 28.011719 22.957031 27.671875 22.640625 27.289062 C 21.570312 25.992188 20.621094 24.253906 19.652344 21.808594 C 19.371094 21.09375 18.691406 20.628906 17.921875 20.628906 L 16.683594 20.628906 L 16.683594 19.113281 C 16.683594 18.359375 16.074219 17.746094 15.320312 17.746094 L 14.648438 17.746094 L 14.648438 13.542969 L 15.679688 13.542969 C 15.828125 13.542969 15.949219 13.425781 15.949219 13.273438 C 15.949219 10.152344 12.902344 7.613281 9.15625 7.613281 C 5.410156 7.613281 2.363281 10.152344 2.363281 13.273438 C 2.363281 13.425781 2.484375 13.542969 2.632812 13.542969 L 3.664062 13.542969 L 3.664062 17.746094 L 2.992188 17.746094 C 2.242188 17.746094 1.628906 18.359375 1.628906 19.113281 L 1.628906 23.417969 C 1.628906 23.566406 1.75 23.6875 1.898438 23.6875 L 3.0625 23.6875 L 3.0625 28.3125 L 1.898438 28.3125 C 1.75 28.3125 1.628906 28.429688 1.628906 28.578125 C 1.628906 28.730469 1.75 28.847656 1.898438 28.847656 L 3.0625 28.847656 L 3.0625 31.949219 C 3.0625 32.625 3.613281 33.175781 4.289062 33.175781 C 4.964844 33.175781 5.515625 32.625 5.515625 31.949219 L 5.515625 28.847656 L 6.996094 28.847656 L 6.996094 29.613281 L 6.640625 29.613281 C 6.492188 29.613281 6.371094 29.734375 6.371094 29.882812 L 6.371094 32.074219 C 6.371094 32.222656 6.492188 32.34375 6.640625 32.34375 L 11.671875 32.34375 C 11.820312 32.34375 11.941406 32.222656 11.941406 32.074219 L 11.941406 29.882812 C 11.941406 29.734375 11.820312 29.613281 11.671875 29.613281 L 11.316406 29.613281 L 11.316406 28.847656 L 12.796875 28.847656 L 12.796875 31.949219 C 12.796875 32.625 13.347656 33.175781 14.023438 33.175781 C 14.699219 33.175781 15.25 32.625 15.25 31.949219 L 15.25 28.847656 L 18.535156 28.847656 L 19.609375 31.265625 C 20.160156 32.503906 21.390625 33.304688 22.742188 33.304688 L 27.210938 33.304688 C 27.78125 33.304688 28.242188 32.839844 28.242188 32.273438 L 28.242188 30.980469 C 28.242188 30.449219 27.839844 30.007812 27.308594 29.957031 C 26.214844 29.851562 25.222656 29.484375 24.304688 28.847656 L 35.265625 28.847656 C 35.414062 28.847656 35.535156 28.730469 35.535156 28.578125 C 35.535156 28.429688 35.414062 28.3125 35.265625 28.3125 L 32.761719 28.3125 L 32.761719 26.828125 L 33.65625 26.828125 C 34.058594 26.828125 34.386719 26.5 34.386719 26.097656 L 34.386719 25.082031 C 34.386719 24.679688 34.058594 24.351562 33.65625 24.351562 L 33.460938 24.351562 L 33.460938 21.808594 C 33.460938 21.214844 32.980469 20.730469 32.386719 20.730469 L 31.546875 20.730469 C 31.808594 18.984375 31.941406 17.816406 31.941406 17.25 C 31.941406 15.824219 31.460938 14.695312 31.148438 14.109375 C 31.4375 14.097656 31.742188 14.0625 32.050781 13.980469 C 32.28125 13.917969 32.488281 13.828125 32.675781 13.722656 Z M 15.320312 18.285156 C 15.777344 18.285156 16.148438 18.65625 16.148438 19.113281 L 16.148438 21.085938 L 14.265625 21.085938 L 14.265625 18.285156 Z M 15.402344 13.007812 L 11.777344 13.007812 C 11.722656 11.066406 11.082031 9.449219 9.871094 8.183594 C 12.878906 8.464844 15.242188 10.5 15.402344 13.007812 Z M 12.457031 13.542969 L 12.457031 17.746094 L 5.855469 17.746094 L 5.855469 13.542969 Z M 13.726562 18.285156 L 13.726562 21.085938 L 11.84375 21.085938 L 11.84375 18.285156 Z M 11.308594 18.285156 L 11.308594 21.085938 L 9.425781 21.085938 L 9.425781 18.285156 Z M 8.886719 18.285156 L 8.886719 21.085938 L 7.003906 21.085938 L 7.003906 18.285156 Z M 6.46875 18.285156 L 6.46875 21.085938 L 4.585938 21.085938 L 4.585938 18.285156 Z M 2.910156 13.007812 C 3.070312 10.5 5.433594 8.464844 8.441406 8.183594 C 7.230469 9.449219 6.589844 11.066406 6.535156 13.007812 Z M 2.167969 19.113281 C 2.167969 18.65625 2.539062 18.285156 2.992188 18.285156 L 4.046875 18.285156 L 4.046875 21.085938 L 2.167969 21.085938 Z M 6.996094 28.3125 L 5.515625 28.3125 L 5.515625 23.6875 L 6.996094 23.6875 Z M 10.78125 29.613281 L 7.53125 29.613281 L 7.53125 28.847656 L 10.78125 28.847656 Z M 10.78125 28.3125 L 7.53125 28.3125 L 7.53125 23.6875 L 10.78125 23.6875 Z M 12.796875 28.3125 L 11.316406 28.3125 L 11.316406 23.6875 L 12.796875 23.6875 Z M 2.167969 23.148438 L 2.167969 21.625 L 16.148438 21.625 L 16.148438 23.148438 Z M 15.25 28.3125 L 15.25 23.6875 L 16.242188 23.6875 L 18.296875 28.3125 Z M 25.707031 31.261719 C 25.855469 31.261719 25.976562 31.382812 25.976562 31.53125 C 25.976562 31.679688 25.855469 31.800781 25.707031 31.800781 L 23.230469 31.800781 C 22.207031 31.800781 21.273438 31.195312 20.859375 30.257812 L 17.96875 23.761719 C 17.910156 23.625 17.972656 23.464844 18.105469 23.40625 C 18.242188 23.34375 18.402344 23.40625 18.460938 23.542969 L 21.351562 30.039062 C 21.679688 30.78125 22.417969 31.261719 23.230469 31.261719 Z M 29.703125 28.3125 L 25.0625 28.3125 L 25.0625 26.828125 L 29.972656 26.828125 C 29.851562 27.503906 29.753906 28.03125 29.703125 28.3125 Z M 32.222656 28.3125 L 30.25 28.3125 C 30.308594 28 30.402344 27.476562 30.519531 26.828125 L 32.222656 26.828125 Z M 32.386719 21.269531 C 32.683594 21.269531 32.925781 21.511719 32.925781 21.808594 L 32.925781 24.351562 L 24.363281 24.351562 L 24.363281 21.808594 C 24.363281 21.511719 24.601562 21.269531 24.898438 21.269531 Z M 32.386719 21.269531 " fill-opacity="1" fill-rule="nonzero"/></g></svg>