<svg xmlns="http://www.w3.org/2000/svg" xmlns:xlink="http://www.w3.org/1999/xlink" width="50" zoomAndPan="magnify" viewBox="0 0 37.5 37.499999" height="50" preserveAspectRatio="xMidYMid meet" version="1.0"><defs><clipPath id="d18604b9d2"><path d="M 0 0 L 37.007812 0 L 37.007812 37.007812 L 0 37.007812 Z M 0 0 " clip-rule="nonzero"/></clipPath><clipPath id="86d5c72350"><path d="M 0 0 L 37.007812 0 L 37.007812 37.007812 L 0 37.007812 Z M 0 0 " clip-rule="nonzero"/></clipPath></defs><g clip-path="url(#d18604b9d2)"><path fill="#ffffff" d="M 0 0 L 37.007812 0 L 37.007812 37.007812 L 0 37.007812 Z M 0 0 " fill-opacity="1" fill-rule="nonzero"/><path fill="#ffffff" d="M 0 0 L 37.007812 0 L 37.007812 37.007812 L 0 37.007812 Z M 0 0 " fill-opacity="1" fill-rule="nonzero"/></g><path fill="#46b65e" d="M 29.554688 29.496094 L 24.378906 17.0625 C 24.546875 17.03125 24.71875 16.984375 24.882812 16.917969 L 24.890625 16.914062 C 25.054688 16.84375 25.214844 16.761719 25.359375 16.667969 L 30.539062 29.101562 Z M 29.554688 29.496094 " fill-opacity="1" fill-rule="evenodd"/><path fill="#46b65e" d="M 22.273438 12.007812 L 21.289062 9.644531 C 21.179688 9.375 21.304688 9.0625 21.578125 8.953125 C 21.847656 8.839844 22.15625 8.96875 22.269531 9.238281 L 23.445312 12.070312 L 23.199219 12.054688 C 23.171875 12.054688 23.144531 12.054688 23.121094 12.054688 C 23.089844 12.050781 23.0625 12.050781 23.03125 12.046875 Z M 22.273438 12.007812 " fill-opacity="1" fill-rule="evenodd"/><path fill="#46b65e" d="M 2.347656 35.984375 C 2.054688 35.984375 1.816406 35.746094 1.816406 35.453125 C 1.816406 35.160156 2.054688 34.921875 2.347656 34.921875 C 7.882812 34.921875 13.3125 34.921875 18.859375 34.921875 L 21.855469 33.722656 C 21.871094 33.714844 21.894531 33.707031 21.914062 33.703125 L 34.460938 28.671875 C 34.734375 28.5625 35.039062 28.691406 35.148438 28.964844 C 35.257812 29.234375 35.128906 29.542969 34.855469 29.652344 L 21.269531 35.101562 C 21.25 35.113281 21.230469 35.117188 21.210938 35.121094 L 19.160156 35.945312 C 19.097656 35.96875 19.03125 35.980469 18.960938 35.980469 C 13.382812 35.984375 7.917969 35.984375 2.347656 35.984375 Z M 2.347656 35.984375 " fill-opacity="1" fill-rule="evenodd"/><path fill="#46b65e" d="M 15.6875 1.023438 C 13.90625 1.023438 12.460938 2.46875 12.460938 4.246094 C 12.460938 6.027344 13.90625 7.472656 15.6875 7.472656 C 17.464844 7.472656 18.910156 6.027344 18.910156 4.246094 C 18.910156 2.46875 17.464844 1.023438 15.6875 1.023438 Z M 15.6875 1.023438 " fill-opacity="1" fill-rule="evenodd"/><path fill="#46b65e" d="M 13.960938 8.578125 C 13.019531 8.546875 12.109375 8.960938 11.515625 9.6875 C 11.511719 9.691406 11.511719 9.691406 11.507812 9.699219 C 11.40625 9.820312 11.292969 9.964844 11.175781 10.140625 C 11.171875 10.144531 11.167969 10.152344 11.164062 10.152344 C 11.164062 10.160156 11.160156 10.164062 11.15625 10.167969 C 10.296875 11.421875 9.210938 13.8125 8.882812 18.121094 L 8.882812 19.011719 C 11.691406 19.5625 15.046875 17.527344 15.925781 16.949219 L 15.984375 16.347656 C 16.011719 16.074219 16.242188 15.867188 16.511719 15.867188 L 16.523438 15.867188 L 23.851562 16.042969 C 24.074219 16.046875 24.289062 16.015625 24.480469 15.941406 L 24.488281 15.9375 C 24.890625 15.789062 25.214844 15.476562 25.386719 15.082031 C 25.546875 14.707031 25.652344 14.128906 24.722656 13.457031 C 24.476562 13.273438 24.167969 13.164062 23.855469 13.148438 L 23.140625 13.109375 C 23.125 13.113281 23.105469 13.113281 23.085938 13.113281 C 23.050781 13.113281 23.011719 13.109375 22.976562 13.101562 L 21.871094 13.046875 C 20.957031 12.996094 20.09375 12.609375 19.441406 11.964844 L 16.972656 9.5 C 16.417969 8.9375 15.679688 8.617188 14.890625 8.597656 Z M 13.960938 8.578125 " fill-opacity="1" fill-rule="evenodd"/><path fill="#46b65e" d="M 15.792969 18.28125 C 14.527344 19.023438 12.203125 20.164062 9.890625 20.164062 C 9.554688 20.164062 9.214844 20.140625 8.882812 20.085938 L 8.882812 20.179688 C 8.882812 20.464844 8.84375 20.742188 8.765625 21.003906 C 8.769531 21.265625 8.773438 21.53125 8.78125 21.808594 L 8.78125 21.84375 C 8.792969 22.4375 8.972656 23.007812 9.296875 23.503906 C 9.335938 23.546875 9.367188 23.59375 9.394531 23.644531 C 9.734375 24.105469 10.195312 24.464844 10.71875 24.683594 C 11.4375 24.976562 12.21875 25.1875 13.042969 25.320312 C 13.753906 25.433594 14.484375 25.507812 15.214844 25.535156 C 16.484375 25.585938 17.6875 26.171875 18.511719 27.144531 C 18.550781 27.191406 18.582031 27.246094 18.605469 27.304688 L 20.335938 31.945312 C 20.667969 32.320312 21.128906 32.550781 21.640625 32.601562 C 21.652344 32.605469 21.660156 32.605469 21.667969 32.605469 C 21.777344 32.621094 21.90625 32.621094 22.035156 32.621094 C 22.042969 32.621094 22.050781 32.621094 22.054688 32.621094 C 22.582031 32.609375 22.976562 32.457031 23.238281 32.164062 C 23.378906 31.996094 23.476562 31.816406 23.53125 31.632812 C 23.742188 30.960938 23.59375 30.242188 23.136719 29.707031 C 23.101562 29.664062 23.070312 29.617188 23.050781 29.570312 L 20.773438 24.296875 C 20.320312 23.765625 19.785156 23.304688 19.195312 22.925781 L 15.839844 20.792969 C 15.671875 20.6875 15.578125 20.496094 15.597656 20.292969 Z M 15.792969 18.28125 " fill-opacity="1" fill-rule="evenodd"/><path fill="#46b65e" d="M 10.316406 25.667969 C 10.011719 25.539062 9.722656 25.378906 9.457031 25.183594 L 9.476562 27.289062 C 9.476562 27.753906 9.410156 28.183594 9.28125 28.578125 L 8.464844 32.09375 C 8.464844 32.109375 8.460938 32.125 8.457031 32.136719 C 8.34375 32.480469 8.375 32.847656 8.539062 33.164062 C 8.699219 33.484375 8.980469 33.71875 9.324219 33.828125 C 9.347656 33.835938 9.375 33.847656 9.382812 33.847656 C 9.398438 33.851562 9.40625 33.851562 9.417969 33.855469 C 9.429688 33.859375 9.441406 33.863281 9.453125 33.863281 C 9.488281 33.867188 9.527344 33.875 9.5625 33.882812 C 9.679688 33.898438 9.796875 33.898438 9.914062 33.882812 C 9.945312 33.875 9.976562 33.867188 10.011719 33.863281 C 10.378906 33.785156 10.714844 33.554688 10.910156 33.210938 L 12.328125 30.277344 L 12.339844 30.25 C 12.644531 29.6875 12.773438 29.0625 12.710938 28.441406 L 12.492188 26.296875 C 11.730469 26.160156 11 25.945312 10.316406 25.667969 Z M 10.316406 25.667969 " fill-opacity="1" fill-rule="evenodd"/><path fill="#46b65e" d="M 7.824219 18.953125 L 3.800781 18.953125 L 3.800781 20.175781 C 3.800781 21.214844 4.648438 22.0625 5.691406 22.0625 L 5.933594 22.0625 C 6.746094 22.0625 7.4375 21.550781 7.707031 20.835938 C 7.707031 20.742188 7.734375 20.65625 7.78125 20.582031 C 7.808594 20.453125 7.824219 20.320312 7.824219 20.179688 L 7.824219 19.449219 C 7.824219 19.433594 7.824219 19.425781 7.824219 19.410156 Z M 7.824219 18.953125 " fill-opacity="1" fill-rule="evenodd"/><path fill="#46b65e" d="M 3.800781 14.140625 L 7.824219 14.140625 L 7.824219 17.894531 L 3.800781 17.894531 Z M 3.800781 14.140625 " fill-opacity="1" fill-rule="evenodd"/><path fill="#46b65e" d="M 5.949219 11.644531 C 5.222656 11.644531 4.550781 11.402344 4.011719 10.996094 C 3.875 11.261719 3.800781 11.554688 3.800781 11.859375 L 3.800781 13.078125 L 7.824219 13.078125 L 7.824219 11.859375 C 7.824219 11.609375 7.773438 11.367188 7.683594 11.136719 C 7.179688 11.457031 6.585938 11.644531 5.949219 11.644531 Z M 5.949219 11.644531 " fill-opacity="1" fill-rule="evenodd"/><path fill="#46b65e" d="M 3.785156 8.421875 C 3.785156 9.617188 4.757812 10.585938 5.949219 10.585938 C 6.511719 10.585938 7.023438 10.371094 7.410156 10.015625 C 7.433594 9.988281 7.457031 9.960938 7.488281 9.9375 C 7.492188 9.933594 7.496094 9.929688 7.5 9.925781 C 7.878906 9.539062 8.113281 9.007812 8.113281 8.421875 C 8.113281 7.230469 7.140625 6.261719 5.949219 6.261719 C 4.753906 6.261719 3.785156 7.230469 3.785156 8.421875 Z M 3.785156 8.421875 " fill-opacity="1" fill-rule="evenodd"/><g clip-path="url(#86d5c72350)"><path fill="#46b65e" d="M 18.503906 -9.066406 C 26.117188 -9.066406 33.007812 -5.980469 37.996094 -0.992188 C 42.988281 4 46.074219 10.890625 46.074219 18.503906 C 46.074219 26.117188 42.988281 33.007812 38 37.996094 C 33.011719 42.988281 26.117188 46.074219 18.503906 46.074219 C 10.890625 46.074219 3.996094 42.988281 -0.992188 37.996094 C -5.980469 33.007812 -9.066406 26.117188 -9.066406 18.503906 C -9.066406 10.890625 -5.980469 3.996094 -0.992188 -0.992188 C 3.996094 -5.980469 10.890625 -9.066406 18.503906 -9.066406 Z M 37.128906 -0.121094 C 32.363281 -4.886719 25.777344 -7.835938 18.503906 -7.835938 C 11.230469 -7.835938 4.648438 -4.886719 -0.121094 -0.121094 C -4.886719 4.644531 -7.835938 11.230469 -7.835938 18.503906 C -7.835938 25.777344 -4.886719 32.359375 -0.121094 37.128906 C 4.644531 41.894531 11.230469 44.839844 18.503906 44.839844 C 25.777344 44.839844 32.359375 41.894531 37.128906 37.128906 C 41.894531 32.359375 44.839844 25.777344 44.839844 18.503906 C 44.839844 11.230469 41.894531 4.648438 37.128906 -0.121094 Z M 37.128906 -0.121094 " fill-opacity="1" fill-rule="nonzero"/></g></svg>